<?xml version="1.0" standalone="no"?>
<!DOCTYPE svg PUBLIC "-//W3C//DTD SVG 1.1//EN" "http://www.w3.org/Graphics/SVG/1.1/DTD/svg11.dtd" >
<svg xmlns="http://www.w3.org/2000/svg">
<metadata></metadata>
<defs>
<font id="heroic_condensedregular" horiz-adv-x="698" >
<font-face units-per-em="2048" ascent="1638" descent="-410" />
<missing-glyph horiz-adv-x="358" />
<glyph horiz-adv-x="0" />
<glyph unicode="&#xd;" horiz-adv-x="358" />
<glyph unicode=" "  horiz-adv-x="358" />
<glyph unicode="&#x09;" horiz-adv-x="358" />
<glyph unicode="&#xa0;" horiz-adv-x="358" />
<glyph unicode="!" horiz-adv-x="366" d="M102 1434h158l-33 -963h-90zM109 0v158h147v-158h-147z" />
<glyph unicode="&#x22;" horiz-adv-x="542" d="M80 1454h147l-32 -416h-80zM313 1454h148l-35 -416h-80z" />
<glyph unicode="#" horiz-adv-x="716" d="M82 608v74h115l20 377h-115v74h119l17 301h79l-16 -301h143l17 301h80l-17 -301h111v-74h-115l-20 -377h114v-74h-118l-17 -301h-80l17 301h-144l-16 -301h-80l17 301h-111zM276 682h144l20 377h-143z" />
<glyph unicode="$" horiz-adv-x="686" d="M121 442v127h121v-108q0 -82 18.5 -116t81.5 -34q53 0 76.5 31t23.5 98v84q0 61 -23.5 98t-59 63t-77.5 47.5t-78 53t-59.5 79.5t-23.5 128v39q0 98 39 161.5t141 74.5v166h84v-166q102 -10 139 -74t37 -162v-104h-119v106q0 70 -25.5 99.5t-74.5 29.5q-53 0 -76.5 -30.5 t-23.5 -98.5v-41q0 -63 23.5 -101t59 -63.5t76.5 -47t77 -52.5t59.5 -78t23.5 -123v-86q0 -98 -37 -161.5t-139 -73.5v-207h-84v207q-106 10 -143 72.5t-37 162.5z" />
<glyph unicode="%" horiz-adv-x="923" d="M102 1104v137q0 109 34 161t130 52t130 -52t34 -161v-137q0 -109 -34 -161t-130 -52t-130 52t-34 161zM117 0l600 1434h90l-600 -1434h-90zM190 1102q0 -76 15.5 -103.5t60.5 -27.5t60.5 27.5t15.5 103.5v141q0 76 -15.5 103.5t-60.5 27.5t-60.5 -27.5t-15.5 -103.5v-141 zM494 193v137q0 109 33.5 161t129.5 52t130 -52.5t34 -160.5v-137q0 -109 -34 -161t-130 -52t-129.5 52t-33.5 161zM582 190q0 -76 15 -103.5t60 -27.5t60.5 28t15.5 103v142q0 76 -15.5 103.5t-60.5 27.5t-60 -27.5t-15 -103.5v-142z" />
<glyph unicode="&#x26;" horiz-adv-x="802" d="M121 223v293q0 78 24.5 131t90.5 78q-66 25 -90.5 77t-24.5 130v270q0 55 11 101.5t39 80t74 52t117 18.5q135 0 187.5 -70.5t52.5 -181.5v-158h-127v158q0 55 -25.5 95t-87.5 40q-66 0 -89 -37.5t-23 -97.5v-293q0 -55 26.5 -91t92.5 -36h352v-116h-117v-439 q0 -51 31 -79.5t84 -28.5v-119q-131 0 -176 82q-23 -49 -67 -75.5t-120 -26.5q-135 0 -185 64.5t-50 178.5zM250 256q0 -33 3 -61.5t15.5 -51t34.5 -36t59 -13.5t59.5 13.5t35 36t15.5 52t3 64.5v406h-106q-43 0 -66.5 -12.5t-35 -35t-14.5 -53t-3 -65.5v-244z" />
<glyph unicode="'" horiz-adv-x="290" d="M70 1454h147l-33 -416h-80z" />
<glyph unicode="(" horiz-adv-x="491" d="M100 715q0 205 52.5 399.5t142.5 380.5h94q-82 -195 -130 -388.5t-48 -391.5q0 -193 47 -386.5t131 -389.5h-94q-92 188 -143.5 381.5t-51.5 394.5z" />
<glyph unicode=")" horiz-adv-x="491" d="M100 -61q84 197 131.5 390t47.5 386q0 199 -48.5 392t-130.5 388h95q90 -186 142 -380.5t52 -399.5q0 -201 -51 -394.5t-143 -381.5h-95z" />
<glyph unicode="*" horiz-adv-x="704" d="M59 1194l39 123l234 -123l-47 260h131l-45 -260l231 123l39 -123l-260 -37l190 -182l-106 -78q-29 59 -57.5 118.5t-57.5 119.5q-29 -59 -57.5 -119t-56.5 -119l-107 78l190 182z" />
<glyph unicode="+" horiz-adv-x="782" d="M100 526v95h242v249h96v-249h242v-95h-242v-250h-96v250h-242z" />
<glyph unicode="," horiz-adv-x="296" d="M80 158h143l-65 -338h-78v338z" />
<glyph unicode="-" horiz-adv-x="512" d="M80 526v95h348v-95h-348z" />
<glyph unicode="." horiz-adv-x="301" d="M80 0v158h137v-158h-137z" />
<glyph unicode="/" horiz-adv-x="548" d="M59 -61l328 1556h98l-327 -1556h-99z" />
<glyph unicode="0" d="M106 229v973q0 55 11.5 101.5t39 80t73.5 52t118 18.5q70 0 117 -18.5t74.5 -52t39 -80t11.5 -101.5v-973q0 -55 -11.5 -101t-39 -79t-74.5 -51t-117 -18q-72 0 -118 18t-73.5 51t-39 79t-11.5 101zM236 229q0 -59 23 -97t89 -38t89.5 38t23.5 97v973q0 59 -23.5 97 t-89.5 38t-89 -37.5t-23 -97.5v-973z" />
<glyph unicode="1" horiz-adv-x="536" d="M76 1208v88q86 0 119.5 39t33.5 99h105v-1311h125v-123h-379v123h125v1085h-129z" />
<glyph unicode="2" horiz-adv-x="655" d="M96 0v205q0 121 25.5 207t64.5 150.5t83 115.5t83 104.5t64.5 117t25.5 153.5v155q0 53 -23.5 91t-84.5 38q-63 0 -86 -36.5t-23 -92.5v-164h-129v164q0 53 11.5 98.5t38 78t72.5 51t116 18.5t116 -18.5t72.5 -51t37.5 -77.5t11 -99v-153q0 -106 -25.5 -180t-64.5 -132.5 t-83 -108.5t-83 -108.5t-64.5 -133.5t-25.5 -181v-88h353v-123h-482z" />
<glyph unicode="3" horiz-adv-x="690" d="M96 229v181h127v-181q0 -49 24.5 -92t84.5 -43q66 0 88 38t22 97v310q0 47 -25.5 86t-84.5 39h-70v118h70q61 0 82.5 34t21.5 87v307q0 45 -24.5 86t-81.5 41q-59 0 -82 -35.5t-23 -91.5v-166h-125v166q0 53 10.5 98.5t37 77t70.5 50t112 18.5t112.5 -18.5t71.5 -50 t38 -76.5t11 -99v-295q0 -72 -24.5 -119.5t-83.5 -70.5q61 -23 88.5 -71t27.5 -119v-306q0 -55 -11 -101t-37.5 -79t-74 -51t-116.5 -18q-72 0 -117 18t-71.5 52t-37 79t-10.5 100z" />
<glyph unicode="4" horiz-adv-x="665" d="M55 315v134l289 985h172v-1000h92v-119h-92v-315h-129v315h-332zM162 434h225v273q0 143 2 273t-2 284z" />
<glyph unicode="5" d="M106 229v181h130v-181q0 -59 23.5 -97t88.5 -38q66 0 89.5 38t23.5 97v402q0 57 -23 91t-84 34q-82 0 -129 -72h-104l37 750h411v-125h-297l-22 -494q29 23 61.5 37t73.5 14q113 0 159 -57t46 -178v-402q0 -55 -11.5 -101t-39 -79t-74.5 -51t-117 -18q-72 0 -118 18 t-73.5 51t-39 79t-11.5 101z" />
<glyph unicode="6" horiz-adv-x="708" d="M117 229v973q0 57 12 103.5t40 79t75 51t114 18.5q68 0 115 -18.5t74.5 -51t40 -78.5t12.5 -104v-158h-129v158q0 66 -26 100.5t-87 34.5t-86.5 -34.5t-25.5 -100.5v-428q29 29 66.5 46.5t80.5 17.5q115 0 161 -61.5t46 -178.5v-369q0 -115 -52 -182t-190 -67 q-137 0 -189 67.5t-52 181.5zM246 229q0 -61 23.5 -98t88.5 -37q66 0 89.5 37t23.5 98v369q0 59 -26 93t-85 34q-41 0 -69.5 -19.5t-44.5 -46.5v-430z" />
<glyph unicode="7" horiz-adv-x="561" d="M45 1309v125h469v-103q-39 -123 -67.5 -224t-49 -196.5t-34 -190.5t-20.5 -201.5t-10 -233.5t-3 -285h-142q0 186 9.5 352t33 325t62.5 313.5t98 318.5h-346z" />
<glyph unicode="8" d="M106 229v285q0 80 26 133t93 78q-59 23 -83.5 71t-24.5 119v295q0 53 11 98.5t36.5 77t70.5 50t113 18.5t113 -18.5t71.5 -50t38 -76.5t11.5 -99v-295q0 -72 -26 -119.5t-85 -70.5q68 -25 93.5 -78t25.5 -133v-285q0 -55 -11.5 -101t-39 -79t-74.5 -51t-117 -18 q-72 0 -118 18t-73.5 51t-39 79t-11.5 101zM236 244q0 -31 4 -58.5t16 -48t34.5 -32t57.5 -11.5q70 0 91.5 43t21.5 107v280q0 31 -4 56.5t-15.5 46t-34 32t-59.5 11.5t-58.5 -11.5t-33.5 -32t-16 -46t-4 -56.5v-280zM244 913q0 -57 19.5 -96t84.5 -39q68 0 87.5 39t19.5 96 v285q0 59 -20.5 99t-86.5 40t-85 -40t-19 -99v-285z" />
<glyph unicode="9" d="M106 231v179h130v-179q0 -66 25.5 -100.5t86.5 -34.5t87 35t26 100v449q-29 -29 -67 -46.5t-81 -17.5q-115 0 -161 61.5t-46 178.5v348q0 115 52.5 182.5t189.5 67.5t189.5 -67.5t52.5 -182.5v-973q0 -57 -12.5 -103t-40 -79t-74.5 -51t-115 -18t-115 18t-74.5 51t-40 79 t-12.5 103zM236 856q0 -59 25.5 -93t84.5 -34q41 0 69.5 19.5t45.5 46.5v409q0 61 -23.5 98t-89.5 37t-89 -36.5t-23 -98.5v-348z" />
<glyph unicode=":" horiz-adv-x="342" d="M100 0v158h138v-158h-138zM100 645v158h138v-158h-138z" />
<glyph unicode=";" horiz-adv-x="337" d="M100 158h144l-66 -338h-78v338zM100 645v158h138v-158h-138z" />
<glyph unicode="&#x3c;" horiz-adv-x="595" d="M80 717l328 778h104l-328 -778l328 -778h-104z" />
<glyph unicode="=" horiz-adv-x="737" d="M100 371v94h533v-94h-533zM100 682v94h533v-94h-533z" />
<glyph unicode="&#x3e;" horiz-adv-x="595" d="M80 -61l328 778l-328 778h104l328 -778l-328 -778h-104z" />
<glyph unicode="@" horiz-adv-x="1071" d="M100 254v514q0 100 20.5 187t71 153t134.5 103.5t209 37.5t207.5 -37.5t133 -103.5t71 -153t20.5 -187v-514q0 -98 -20.5 -185t-70 -153t-132 -103.5t-209.5 -37.5t-211 37.5t-133.5 103.5t-70 153t-20.5 185zM190 254q0 -80 14.5 -151.5t53.5 -126t106 -86t171 -31.5 t170.5 31.5t104.5 86t53.5 126t15.5 151.5v514q0 80 -15.5 151.5t-54.5 127t-105.5 87t-168.5 31.5q-104 0 -171 -31.5t-105 -87t-53.5 -127t-15.5 -151.5v-514zM344 264v127q0 49 13.5 86t44 66.5t84 53.5t132.5 46v117q0 47 -21.5 74.5t-61.5 27.5q-49 0 -67.5 -27.5 t-18.5 -74.5v-45h-97v47q0 84 39 134t144 50q53 0 87.5 -13t55 -38t29 -59.5t8.5 -75.5v-664h-70q-4 14 -11 25.5t-11 25.5q-33 -70 -119 -69q-90 0 -125 48t-35 138zM440 264q0 -47 21.5 -75.5t70.5 -28.5q47 0 66.5 31.5t19.5 74.5v303q-57 -18 -91.5 -36.5t-54 -42 t-26 -53t-6.5 -68.5v-105z" />
<glyph unicode="A" horiz-adv-x="663" d="M55 0l197 1434h160l194 -1434h-131l-39 328h-211l-39 -328h-131zM238 446h184l-90 791z" />
<glyph unicode="B" horiz-adv-x="722" d="M127 0v1434h233q74 0 121 -14.5t75 -42t38 -69.5t10 -98v-301q0 -72 -25.5 -116.5t-84.5 -67.5q66 -23 93 -70t27 -118v-299q0 -55 -10 -99.5t-36.5 -75t-74 -47t-120.5 -16.5h-246zM256 123h109q72 0 96 29.5t24 89.5v299q0 55 -25.5 89t-94.5 34h-109v-541zM256 782 h100q70 0 95.5 34t25.5 89v287q0 59 -25.5 88t-93.5 29h-102v-527z" />
<glyph unicode="C" horiz-adv-x="673" d="M106 229v973q0 55 11.5 101.5t39 80t73.5 52t118 18.5q135 0 187.5 -70.5t52.5 -181.5v-158h-125v158q0 55 -26.5 95t-88.5 40q-66 0 -89 -37.5t-23 -97.5v-973q0 -55 24.5 -95t87.5 -40q66 0 90.5 39t24.5 96v181h125v-181q0 -111 -52.5 -180t-187.5 -69q-72 0 -118 18 t-73.5 51t-39 79t-11.5 101z" />
<glyph unicode="D" horiz-adv-x="733" d="M127 0v1434h238q74 0 122 -18.5t76.5 -50.5t39.5 -78t11 -101v-938q0 -55 -11 -101.5t-38.5 -78t-75 -50t-120.5 -18.5h-242zM256 123h106q72 0 97.5 32.5t25.5 92.5v938q0 59 -25.5 91t-97.5 32h-106v-1186z" />
<glyph unicode="E" horiz-adv-x="616" d="M127 0v1434h408v-125h-279v-527h240v-118h-240v-541h279v-123h-408z" />
<glyph unicode="F" horiz-adv-x="589" d="M127 0v1434h395v-125h-266v-527h229v-118h-229v-664h-129z" />
<glyph unicode="G" horiz-adv-x="708" d="M117 229v975q0 55 11 101.5t39 79t74 51t117 18.5q70 0 116 -18.5t73.5 -51t39 -78.5t11.5 -102v-160h-127v160q0 53 -24.5 93t-88.5 40q-66 0 -89 -36.5t-23 -96.5v-975q0 -55 24.5 -95t87.5 -40q66 0 89.5 38t23.5 97v435h-113v118h242v-553q0 -55 -11 -101t-39 -79 t-75 -51t-117 -18q-72 0 -117.5 18t-73.5 51t-39 79t-11 101z" />
<glyph unicode="H" horiz-adv-x="745" d="M127 0v1434h129v-652h231v652h129v-1434h-129v664h-231v-664h-129z" />
<glyph unicode="I" horiz-adv-x="385" d="M127 0v1434h129v-1434h-129z" />
<glyph unicode="J" horiz-adv-x="659" d="M66 227v183h129v-183q0 -55 21.5 -94t82.5 -39q63 0 82.5 37t19.5 96v1207h129v-1207q0 -55 -10 -101t-36.5 -79t-70.5 -50t-114 -17q-133 0 -183 68.5t-50 178.5z" />
<glyph unicode="K" horiz-adv-x="686" d="M127 0v1434h129v-656l238 656h143l-277 -711l289 -723h-141l-252 668v-668h-129z" />
<glyph unicode="L" horiz-adv-x="528" d="M127 0v1434h129v-1311h225v-123h-354z" />
<glyph unicode="M" horiz-adv-x="983" d="M127 0v1434h164l198 -1219l201 1219h164v-1434h-123v489q0 55 2 146.5t5 195t5 203t5 170.5l-195 -1204h-125l-195 1204q2 -72 4.5 -171t5.5 -201.5t5 -194.5t2 -148v-489h-123z" />
<glyph unicode="N" horiz-adv-x="790" d="M127 0v1434h127l301 -1121q-4 170 -8 328t-4 328v465h125v-1434h-127l-301 1118q4 -166 8 -323.5t4 -331.5v-463h-125z" />
<glyph unicode="O" d="M106 229v973q0 55 11.5 101.5t39 80t73.5 52t118 18.5q70 0 117 -18.5t74.5 -52t39 -80t11.5 -101.5v-973q0 -55 -11.5 -101t-39 -79t-74.5 -51t-117 -18q-72 0 -118 18t-73.5 51t-39 79t-11.5 101zM236 229q0 -59 23 -97t89 -38t89.5 38t23.5 97v973q0 59 -23.5 97 t-89.5 38t-89 -37.5t-23 -97.5v-973z" />
<glyph unicode="P" horiz-adv-x="684" d="M127 0v1434h233q74 0 121 -18.5t75 -50.5t39 -78t11 -101v-324q0 -106 -56 -175t-194 -69h-100v-618h-129zM256 737h98q72 0 97.5 33t25.5 92v324q0 59 -27.5 91t-95.5 32h-98v-572z" />
<glyph unicode="Q" d="M106 229v973q0 55 11.5 101.5t39 80t73.5 52t118 18.5q70 0 117 -18.5t74.5 -52t39 -80t11.5 -101.5v-973q0 -100 -40 -166.5t-147 -78.5q2 -47 24 -67.5t75 -20.5h45l-21 -82h-24q-109 0 -157 43t-52 127q-109 12 -148 78.5t-39 166.5zM236 229q0 -59 23 -97t89 -38 t89.5 38t23.5 97v973q0 59 -23.5 97t-89.5 38t-89 -37.5t-23 -97.5v-973z" />
<glyph unicode="R" horiz-adv-x="712" d="M127 0v1434h235q74 0 121 -18.5t75 -50.5t38 -78t10 -101v-324q0 -92 -35.5 -154.5t-126.5 -80.5l232 -627h-144l-210 618h-66v-618h-129zM256 737h98q72 0 97.5 33t25.5 92v324q0 59 -27.5 91t-95.5 32h-98v-572z" />
<glyph unicode="S" horiz-adv-x="673" d="M96 231v179h129v-179q0 -57 23.5 -97t87.5 -40q68 0 89 39t21 98v175q0 104 -25.5 165.5t-64.5 101.5t-85 68.5t-85 68.5t-64.5 101.5t-25.5 167.5v123q0 55 10.5 101.5t37 80t73.5 52t119 18.5t119 -18.5t73.5 -52t36.5 -80t10 -101.5v-158h-129v158q0 55 -22.5 95 t-87.5 40q-68 0 -89.5 -37.5t-21.5 -97.5v-121q0 -88 25.5 -139t64.5 -85t85 -63.5t85 -75.5t64.5 -118t25.5 -192v-177q0 -55 -10 -101t-36.5 -80t-73.5 -52t-119 -18t-119 18t-73.5 52t-37 80t-10.5 101z" />
<glyph unicode="T" horiz-adv-x="563" d="M45 1309v125h471v-125h-170v-1309h-129v1309h-172z" />
<glyph unicode="U" horiz-adv-x="716" d="M117 231v1203h129v-1203q0 -59 22.5 -98t89.5 -39q68 0 89.5 39t21.5 98v1203h129v-1203q0 -53 -11.5 -99t-39 -80t-73.5 -53t-116 -19q-72 0 -118.5 18t-74.5 52t-38 80t-10 101z" />
<glyph unicode="V" horiz-adv-x="663" d="M55 1434h133l144 -1188l141 1188h133l-200 -1434h-150z" />
<glyph unicode="W" horiz-adv-x="1097" d="M66 1434h131l127 -1186l155 1186h135l156 -1186l127 1186h131l-182 -1434h-148l-151 1176l-150 -1176h-149z" />
<glyph unicode="X" horiz-adv-x="651" d="M47 0l211 743l-197 691h138l127 -525l127 525h137l-199 -691l213 -743h-137l-141 575l-142 -575h-137z" />
<glyph unicode="Y" horiz-adv-x="618" d="M45 1434h135l127 -652l129 652h135l-198 -838v-596h-129v596z" />
<glyph unicode="Z" horiz-adv-x="567" d="M66 0v82l288 1227h-288v125h428v-82l-289 -1229h295v-123h-434z" />
<glyph unicode="[" horiz-adv-x="503" d="M141 -246v1741h258v-94h-149v-1553h149v-94h-258z" />
<glyph unicode="\" horiz-adv-x="548" d="M59 1495h99l327 -1556h-98z" />
<glyph unicode="]" horiz-adv-x="503" d="M100 -152h152v1553h-152v94h258v-1741h-258v94z" />
<glyph unicode="a" horiz-adv-x="641" d="M86 213v131q0 59 15.5 105.5t54.5 83t103.5 68.5t160.5 61v149q0 57 -23.5 92t-77.5 35q-61 0 -81.5 -35t-20.5 -94v-47h-121v49q0 51 10.5 94t36 74t68.5 48t108 17q66 0 109 -17t68.5 -48t36 -74t10.5 -94v-811h-72l-33 61q-20 -41 -54 -61t-91 -20q-111 0 -159 58 t-48 175zM209 213q0 -59 23.5 -93t82.5 -34q57 0 81 36t24 91v356q-66 -20 -107 -42.5t-64.5 -49t-31.5 -59.5t-8 -72v-133z" />
<glyph unicode="b" horiz-adv-x="661" d="M106 0v1454h123v-483q20 33 56.5 53t83.5 20q109 0 151.5 -58t42.5 -179v-592q0 -119 -44 -177t-154 -58q-106 0 -152 83l-33 -63h-74zM229 217q0 -59 25 -95t84 -36q57 0 79.5 36t22.5 95v590q0 59 -22.5 95t-79.5 36q-59 0 -84 -38t-25 -97v-586z" />
<glyph unicode="c" horiz-adv-x="638" d="M96 217v588q0 53 11.5 97t38 76t70.5 49t110 17q68 0 110.5 -17t68 -49t36 -76t10.5 -97v-113h-121v113q0 66 -22.5 99.5t-81.5 33.5t-83 -34t-24 -99v-588q0 -63 23.5 -97t83.5 -34q59 0 81.5 34t22.5 97v135h121v-135q0 -109 -46 -173t-179 -64q-68 0 -112 17t-70.5 48 t-37 75t-10.5 97z" />
<glyph unicode="d" horiz-adv-x="671" d="M106 215v592q0 121 43.5 179t151.5 58q47 0 83 -20t56 -53v483h123v-1454h-74l-32 63q-44 -83 -149 -83h-3q-111 0 -155 58t-44 177zM229 217q0 -59 22.5 -95t80.5 -36q59 0 83.5 36t24.5 95v586q0 59 -24.5 97t-83.5 38q-57 0 -80 -36t-23 -95v-590z" />
<glyph unicode="e" horiz-adv-x="649" d="M96 217v588q0 53 11.5 97t37 76t69.5 49t112 17t110.5 -17t68 -49t36 -76t10.5 -97v-297h-332v-291q0 -131 107 -131q59 0 81.5 34t22.5 97v135h121v-135q0 -109 -46 -173t-179 -64q-68 0 -112 17t-70.5 48t-37 75t-10.5 97zM219 604h211v199q0 66 -22.5 100.5 t-81.5 34.5t-83 -34t-24 -99v-201z" />
<glyph unicode="f" horiz-adv-x="473" d="M45 915v109h94v221q0 113 44 171.5t173 58.5q45 0 80 -13v-108q-29 14 -76 14q-57 0 -77.5 -27.5t-20.5 -95.5v-221h150v-109h-150v-915h-123v915h-94z" />
<glyph unicode="g" horiz-adv-x="663" d="M66 -109q0 72 28.5 125.5t100.5 79.5q-53 25 -54 78q0 53 58 78q-63 27 -86 83t-23 136v332q0 53 10.5 98t37 77t69.5 49t110 17q29 0 52.5 -4t44.5 -10q20 59 57 89t86 30q35 0 59 -8v-97q-16 4 -29.5 7.5t-35.5 3.5q-57 0 -84 -49q45 -31 62.5 -83.5t17.5 -119.5v-332 q0 -109 -48.5 -174.5t-181.5 -65.5q-84 0 -84 -57t84 -57q143 0 199.5 -61.5t56.5 -164.5v-18q0 -94 -56 -157.5t-198 -63.5q-139 0 -196 61.5t-57 159.5v18zM186 -98v-19q0 -125 133 -125q72 0 103 32t31 93v19q0 63 -31 95t-103 32t-102.5 -33t-30.5 -94zM213 467 q0 -66 22.5 -100.5t81.5 -34.5t83 32.5t24 110.5v328q0 63 -24 99t-83 36q-63 0 -83.5 -36t-20.5 -107v-328z" />
<glyph unicode="h" horiz-adv-x="671" d="M106 0v1454h123v-485q20 35 56.5 55t81.5 20q109 0 152.5 -58t43.5 -177v-809h-123v809q0 59 -22.5 94t-79.5 35q-59 0 -84 -36t-25 -95v-807h-123z" />
<glyph unicode="i" horiz-adv-x="333" d="M102 1198v152h125v-152h-125zM104 0v1024h123v-1024h-123z" />
<glyph unicode="j" horiz-adv-x="329" d="M-74 -227q29 -14 74 -15q57 0 78.5 29t21.5 94v1143h123v-1143q0 -113 -45 -171t-174 -58q-18 0 -39.5 3t-38.5 9v109zM98 1198v152h125v-152h-125z" />
<glyph unicode="k" horiz-adv-x="610" d="M106 0v1454h123v-876l199 446h135l-231 -494l252 -530h-138l-217 479v-479h-123z" />
<glyph unicode="l" horiz-adv-x="337" d="M106 0v1454h123v-1454h-123z" />
<glyph unicode="m" horiz-adv-x="997" d="M106 0v1024h74l33 -66q51 86 156 86q63 0 102 -22.5t59 -63.5q23 37 66 61.5t104 24.5q106 0 149.5 -59t43.5 -170v-815h-123v809q0 55 -20.5 92t-79.5 37q-55 0 -82 -34t-27 -93v-811h-123v809q0 53 -20.5 91t-79.5 38q-57 0 -83 -35t-26 -94v-809h-123z" />
<glyph unicode="n" horiz-adv-x="671" d="M106 0v1024h74l33 -66q23 41 60.5 63.5t91.5 22.5q111 0 154.5 -58t43.5 -177v-809h-123v809q0 59 -22.5 94t-79.5 35q-59 0 -84 -35t-25 -96v-807h-123z" />
<glyph unicode="o" horiz-adv-x="651" d="M96 217v588q0 53 11.5 97t38 76t70.5 49t110 17t109.5 -17t69 -49t37 -76t11.5 -97v-588q0 -109 -47 -173t-180 -64q-68 0 -112 17t-70.5 48t-37 75t-10.5 97zM219 217q0 -63 24 -97t83 -34t81.5 34t22.5 97v588q0 66 -22.5 99.5t-81.5 33.5t-83 -34t-24 -99v-588z" />
<glyph unicode="p" horiz-adv-x="671" d="M106 -328v1352h74l33 -66q45 86 152 86q111 0 154.5 -60t43.5 -175v-592q0 -121 -44 -179t-150 -58q-47 0 -83 20t-57 53v-381h-123zM229 270q0 -39 4.5 -72.5t15.5 -58t32.5 -39t56.5 -14.5q57 0 79.5 36t22.5 95v590q0 59 -22.5 95t-79.5 36q-59 0 -84 -36t-25 -97 v-535z" />
<glyph unicode="q" horiz-adv-x="671" d="M106 217v592q0 119 44.5 177t154.5 58q106 0 152 -86l32 66h74v-1352h-123v381q-20 -33 -56 -53t-83 -20q-109 0 -152 58t-43 179zM229 217q0 -59 22.5 -95t80.5 -36q59 0 83.5 37t24.5 98v584q0 61 -24.5 97t-83.5 36q-57 0 -80 -36t-23 -95v-590z" />
<glyph unicode="r" horiz-adv-x="434" d="M106 0v1024h87l30 -63q23 41 61 65.5t103 24.5v-127q-13 1 -25 1q-66 0 -97 -37q-36 -44 -36 -126v-762h-123z" />
<glyph unicode="s" horiz-adv-x="616" d="M86 213v139h121v-139q0 -70 23.5 -98.5t76.5 -28.5t77 29.5t24 97.5v78q0 61 -24 99t-59.5 64.5t-77.5 49t-78 55.5t-59.5 82t-23.5 129v39q0 53 10 97t36 75t69 47t106 16q129 0 175 -63t46 -172v-117h-120v117q0 70 -24 99.5t-77 29.5t-76.5 -30.5t-23.5 -98.5v-39 q0 -63 23.5 -102t59.5 -67t78 -50.5t77.5 -53t59 -78.5t23.5 -124v-82q0 -53 -10 -96t-34.5 -74t-67.5 -47t-109 -16t-108.5 16t-67.5 47t-35 74t-10 96z" />
<glyph unicode="t" horiz-adv-x="495" d="M45 915v109h100v268q33 10 63 16.5t60 16.5v-301h162v-109h-162v-708q0 -63 20.5 -92t73.5 -29q23 0 39.5 3t36.5 11v-104q-14 -6 -38.5 -11t-43.5 -5q-123 0 -167 57t-44 170v708h-100z" />
<glyph unicode="u" horiz-adv-x="671" d="M106 215v809h123v-809q0 -59 22.5 -94t82.5 -35q59 0 82.5 35t23.5 94v809h123v-1024h-71l-33 66q-45 -86 -154 -86t-154 58t-45 177z" />
<glyph unicode="v" horiz-adv-x="600" d="M45 1024h127l127 -836l127 836h127l-188 -1024h-132z" />
<glyph unicode="w" horiz-adv-x="960" d="M53 1024h127l111 -846q31 211 62.5 422t64.5 424h127q31 -213 62.5 -424t64.5 -422l110 846h125l-162 -1024h-141l-123 819l-125 -819h-139z" />
<glyph unicode="x" horiz-adv-x="591" d="M35 0l198 516l-188 508h129l121 -379l121 379h129l-191 -508l201 -516h-129l-131 385l-131 -385h-129z" />
<glyph unicode="y" horiz-adv-x="616" d="M35 -227q35 -14 80 -15q90 0 114 119l23 121l-201 1026h127l133 -801l131 801h127l-221 -1151q-23 -117 -72.5 -169t-160.5 -52q-18 0 -42 3t-38 7v111z" />
<glyph unicode="z" horiz-adv-x="536" d="M66 0v76l262 839h-252v109h383v-78l-260 -837h270v-109h-403z" />
<glyph unicode="{" horiz-adv-x="561" d="M100 578v94h70q53 0 74.5 22.5t21.5 65.5q0 82 -16.5 149.5t-35.5 129t-35.5 124t-16.5 137.5q0 104 60.5 149.5t189.5 45.5h47v-94h-47q-78 0 -109 -27.5t-31 -95.5q0 -66 13.5 -127t30 -123.5t29.5 -127t13 -134.5q0 -113 -75 -141q76 -35 75 -144q0 -72 -13 -135 t-29.5 -125.5t-30 -124t-13.5 -127.5q0 -68 31 -94.5t109 -26.5h47v-94h-47q-129 0 -189.5 45t-60.5 150q0 76 16.5 138.5t35.5 123.5t35.5 126.5t16.5 149.5q0 45 -21.5 68t-74.5 23h-70z" />
<glyph unicode="|" horiz-adv-x="385" d="M141 -246v1741h99v-1741h-99z" />
<glyph unicode="}" horiz-adv-x="561" d="M100 -152h47q78 0 109 27t31 94q0 66 -13.5 127.5t-30 124t-29.5 126t-13 134.5q0 109 75 144q-76 29 -75 141q0 70 13 134.5t29.5 127t30 123.5t13.5 127q0 68 -31 95.5t-109 27.5h-47v94h47q129 0 189.5 -45t60.5 -150q0 -76 -16 -138t-35.5 -123.5t-36 -129 t-16.5 -149.5q0 -43 21.5 -65.5t74.5 -22.5h70v-94h-70q-53 0 -74.5 -23t-21.5 -68q0 -84 16.5 -149.5t36 -126.5t35.5 -123.5t16 -138.5q0 -104 -60.5 -149.5t-189.5 -45.5h-47v94z" />
<glyph unicode="&#xa1;" horiz-adv-x="366" d="M102 -410l35 963h90l33 -963h-158zM109 866v158h147v-158h-147z" />
<glyph unicode="&#xa2;" d="M121 442v588q0 98 39 162.5t147 75.5v166h84v-166q106 -10 145 -75t39 -163v-112h-120v112q0 66 -22.5 99.5t-82.5 33.5q-59 0 -82.5 -33.5t-23.5 -99.5v-588q0 -63 23.5 -97t82.5 -34t82 34t23 97v136h120v-136q0 -100 -38.5 -163.5t-145.5 -73.5v-205h-84v205 q-109 10 -147.5 73.5t-38.5 163.5z" />
<glyph unicode="&#xa3;" horiz-adv-x="782" d="M80 0v123q68 0 94.5 33.5t26.5 93.5v436h-119v76h119v440q0 55 10 101.5t37.5 80t75 52t118.5 18.5q68 0 114 -18.5t72.5 -52t38 -80t11.5 -101.5v-158h-125v158q0 59 -21.5 97t-89.5 38t-90 -37.5t-22 -97.5v-440h157v-76h-157v-436q0 -59 25.5 -93t93.5 -34h231v-123 h-231q-139 0 -187 90q-23 -45 -66.5 -67.5t-115.5 -22.5z" />
<glyph unicode="&#xa4;" horiz-adv-x="643" d="M70 0l94 328q-29 31 -39 76t-10 100v465q0 55 11 100t40 78l-82 287h121l61 -236q37 10 76 10q41 0 76 -10l65 236h121l-84 -287q29 -33 40 -78t11 -100v-465q0 -55 -10 -100.5t-39 -75.5l96 -328h-120l-76 276q-35 -10 -80 -10q-43 0 -78 10l-74 -276h-120zM238 504 q0 -63 22.5 -97t81.5 -34t83 33.5t24 97.5v465q0 66 -24 99.5t-83 33.5t-81.5 -34t-22.5 -99v-465z" />
<glyph unicode="&#xa5;" horiz-adv-x="690" d="M80 1434h135l127 -666l129 666h135l-198 -842v-43h167v-76h-167v-143h167v-76h-167v-254h-129v254h-164v76h164v143h-164v76h164v43q-51 211 -100.5 421t-98.5 421z" />
<glyph unicode="&#xa6;" horiz-adv-x="385" d="M141 -246v774h99v-774h-99zM141 721v774h99v-774h-99z" />
<glyph unicode="&#xa7;" horiz-adv-x="673" d="M100 41h129v-137q0 -66 21.5 -100.5t85.5 -34.5q66 0 85 34.5t19 100.5v65q0 84 -25.5 129t-62.5 74t-82 51.5t-81.5 63.5t-62.5 110.5t-26 192.5q0 43 4.5 84t16.5 77.5t33.5 65.5t58.5 47q-47 33 -80 94.5t-33 182.5v61q0 55 11.5 101.5t38 80t71.5 52t115 18.5 t115 -18.5t71.5 -52t36.5 -80t10 -101.5v-137h-129v137q0 59 -19.5 97t-84.5 38q-66 0 -86.5 -37.5t-20.5 -97.5v-65q0 -86 26 -131t63.5 -74t81.5 -50.5t82 -60.5t63.5 -105.5t25.5 -185.5q0 -45 -3 -89t-15 -83t-34.5 -69.5t-61.5 -48.5q47 -35 79.5 -95.5t32.5 -179.5 v-61q0 -55 -11 -101.5t-37.5 -80t-72 -52t-112.5 -18.5q-70 0 -115 18.5t-71.5 52t-38 79.5t-11.5 102v137zM229 596q0 -70 9.5 -118t26 -80.5t39 -54t50.5 -40.5q29 8 45.5 28.5t25.5 46t12 54t3 55.5q0 76 -8 127.5t-24.5 85t-39 56t-53.5 41.5q-31 -10 -48 -33 t-25.5 -50.5t-10.5 -59t-2 -58.5z" />
<glyph unicode="&#xa9;" horiz-adv-x="1083" d="M100 459v514q0 100 21.5 187t72 152.5t135.5 103.5t212 38t211 -38t135 -103.5t71.5 -152.5t20.5 -187v-514q0 -98 -20.5 -185.5t-69.5 -153t-134 -103t-214 -37.5t-214 37.5t-135.5 103t-71 152.5t-20.5 186zM190 459q0 -80 15.5 -151.5t54.5 -127t107 -87.5t174 -32 q104 0 172.5 32t107.5 87.5t54.5 127t15.5 151.5v514q0 80 -15.5 151.5t-55.5 127t-107.5 87t-171.5 31.5t-173 -31.5t-108 -87t-54.5 -127t-15.5 -151.5v-514zM360 467v498q0 84 37 135t144 51q106 0 143 -50t37 -134v-109h-94v107q0 47 -18.5 74.5t-67.5 27.5 q-51 0 -67.5 -27.5t-16.5 -74.5v-498q0 -47 16.5 -74.5t67.5 -27.5q49 0 67.5 27.5t18.5 74.5v129h94v-131q0 -84 -37 -134t-143 -50t-143.5 51t-37.5 135z" />
<glyph unicode="&#xaa;" horiz-adv-x="571" d="M100 774v127q0 49 12.5 86t44 66.5t84 53t132.5 46.5v115q0 45 -18.5 73.5t-65.5 28.5q-49 0 -67.5 -26.5t-18.5 -73.5v-45h-94v45q0 84 36.5 134t143.5 50q55 0 90 -13.5t55.5 -38t27.5 -59t7 -75.5v-662h-70q-4 12 -11 24.5t-11 24.5q-16 -33 -45 -51t-74 -18 q-90 0 -124 48t-34 140zM111 399v80h358v-80h-358zM197 774q0 -47 20.5 -76.5t69.5 -29.5q47 0 66.5 31.5t19.5 74.5v303q-55 -16 -90 -35.5t-54.5 -42t-25.5 -52t-6 -68.5v-105z" />
<glyph unicode="&#xab;" horiz-adv-x="796" d="M80 512l217 379h125l-215 -379l215 -379h-125zM373 512l217 379h123l-213 -379l213 -379h-123z" />
<glyph unicode="&#xac;" horiz-adv-x="737" d="M100 651v94h533v-344h-94v250h-439z" />
<glyph unicode="&#xad;" horiz-adv-x="512" d="M80 526v95h348v-95h-348z" />
<glyph unicode="&#xae;" horiz-adv-x="1083" d="M100 459v514q0 100 21.5 187t72 152.5t135.5 103.5t212 38t211 -38t135 -103.5t71.5 -152.5t20.5 -187v-514q0 -98 -20.5 -185.5t-69.5 -153t-134 -103t-214 -37.5t-214 37.5t-135.5 103t-71 152.5t-20.5 186zM190 459q0 -80 15.5 -151.5t54.5 -127t107 -87.5t174 -32 q104 0 172.5 32t107.5 87.5t54.5 127t15.5 151.5v514q0 80 -15.5 151.5t-55.5 127t-107.5 87t-171.5 31.5t-173 -31.5t-108 -87t-54.5 -127t-15.5 -151.5v-514zM365 299v840h174q111 0 147.5 -51.5t36.5 -133.5v-133q0 -145 -119 -170l156 -352h-101l-145 344h-55v-344h-94z M459 731h78q55 0 73.5 23.5t18.5 66.5v133q0 41 -20.5 67t-71.5 26h-78v-316z" />
<glyph unicode="&#xb0;" horiz-adv-x="503" d="M80 1233q0 98 33.5 159.5t136.5 61.5q102 0 136 -61.5t34 -159.5t-34 -159.5t-136 -61.5t-136 61.5t-34 159.5zM164 1233q0 -66 16.5 -104.5t69.5 -38.5t70.5 38.5t17.5 104.5q0 63 -17.5 102t-70.5 39t-69.5 -39t-16.5 -102z" />
<glyph unicode="&#xb1;" horiz-adv-x="782" d="M100 184v95h580v-95h-580zM100 645v94h242v250h96v-250h242v-94h-242v-250h-96v250h-242z" />
<glyph unicode="&#xb6;" horiz-adv-x="743" d="M100 633v553q0 55 10.5 101t38 78t75.5 50.5t122 18.5h275v-1762h-129v717h-142q-74 0 -122 17.5t-76.5 49t-40 77t-11.5 100.5z" />
<glyph unicode="&#xb7;" horiz-adv-x="342" d="M100 494v157h138v-157h-138z" />
<glyph unicode="&#xba;" horiz-adv-x="565" d="M100 399v80h361v-80h-361zM100 772v494q0 41 7.5 75.5t28 59t55.5 39t90 14.5t90 -14.5t55 -39t27.5 -59t7.5 -75.5v-494q0 -41 -7.5 -75.5t-27.5 -59.5t-55 -39t-90 -14t-90 14t-55.5 39t-28 59.5t-7.5 75.5zM197 772q0 -47 16.5 -75.5t67.5 -28.5t68.5 28.5t17.5 75.5 v494q0 47 -17.5 75.5t-68.5 28.5t-67.5 -28.5t-16.5 -75.5v-494z" />
<glyph unicode="&#xbb;" horiz-adv-x="796" d="M80 133l215 379l-215 379h125l217 -379l-217 -379h-125zM373 133l213 379l-213 379h123l217 -379l-217 -379h-123z" />
<glyph unicode="&#xbf;" horiz-adv-x="673" d="M100 -51q0 90 13.5 142t34 87t44 60.5t45 62.5t36 95.5t18.5 156.5h90v-41q0 -104 -11.5 -167.5t-27.5 -102.5t-36.5 -62.5t-37 -51.5t-28 -66.5t-11.5 -108.5v-131q0 -53 23.5 -94t83.5 -41q68 0 86 37.5t18 97.5v147h129v-147q0 -55 -9 -101.5t-34.5 -80t-71.5 -52 t-118 -18.5t-118 18.5t-72.5 52t-36 80t-9.5 101.5v127zM262 866v158h148v-158h-148z" />
<glyph unicode="&#xc0;" horiz-adv-x="663" d="M55 0l197 1434h160l194 -1434h-131l-39 328h-211l-39 -328h-131zM180 1796h123l76 -260h-86zM238 446h184l-90 791z" />
<glyph unicode="&#xc1;" horiz-adv-x="663" d="M55 0l197 1434h160l194 -1434h-131l-39 328h-211l-39 -328h-131zM238 446h184l-90 791zM276 1536l78 260h121l-110 -260h-89z" />
<glyph unicode="&#xc2;" horiz-adv-x="663" d="M55 0l197 1434h160l194 -1434h-131l-39 328h-211l-39 -328h-131zM164 1536l112 260h107l115 -260h-90l-78 152l-76 -152h-90zM238 446h184l-90 791z" />
<glyph unicode="&#xc4;" horiz-adv-x="663" d="M55 0l197 1434h160l194 -1434h-131l-39 328h-211l-39 -328h-131zM158 1536v152h125v-152h-125zM238 446h184l-90 791zM379 1536v152h125v-152h-125z" />
<glyph unicode="&#xc5;" horiz-adv-x="663" d="M55 0l197 1434h160l194 -1434h-131l-39 328h-211l-39 -328h-131zM193 1655q0 72 32.5 114.5t106.5 42.5t106.5 -42.5t32.5 -114.5t-32.5 -113t-106.5 -41t-106.5 41t-32.5 113zM238 446h184l-90 791zM272 1655q0 -39 14.5 -61.5t45.5 -22.5t45 22.5t14 61.5 q0 41 -14.5 64.5t-44.5 23.5q-31 0 -45.5 -23.5t-14.5 -64.5z" />
<glyph unicode="&#xc6;" horiz-adv-x="948" d="M49 0l338 1434h481v-125h-278v-527h239v-118h-239v-541h278v-123h-407v328h-207l-74 -328h-131zM279 446h182v828z" />
<glyph unicode="&#xc7;" horiz-adv-x="675" d="M106 229v973q0 55 11.5 101.5t39 80t73.5 52t118 18.5q135 0 187.5 -70.5t52.5 -181.5v-158h-125v158q0 57 -24.5 96t-90.5 39t-89 -37.5t-23 -97.5v-973q0 -59 23.5 -97t88.5 -38q66 0 90.5 39t24.5 96v181h125v-181q0 -104 -46 -171.5t-163 -75.5l-14 -64 q131 -18 131 -131q0 -61 -41 -98t-140 -37h-94l21 78h67q47 0 65.5 16t18.5 45q0 31 -19.5 47.5t-68.5 16.5h-29l33 127q-117 10 -160 76.5t-43 170.5z" />
<glyph unicode="&#xc8;" horiz-adv-x="616" d="M127 0v1434h408v-125h-279v-527h240v-118h-240v-541h279v-123h-408zM209 1796h123l76 -260h-86z" />
<glyph unicode="&#xc9;" horiz-adv-x="616" d="M127 0v1434h408v-125h-279v-527h240v-118h-240v-541h279v-123h-408zM209 1536l78 260h121l-111 -260h-88z" />
<glyph unicode="&#xca;" horiz-adv-x="616" d="M127 0v1434h408v-125h-279v-527h240v-118h-240v-541h279v-123h-408zM141 1536l113 260h106l115 -260h-90l-78 152l-76 -152h-90z" />
<glyph unicode="&#xcb;" horiz-adv-x="616" d="M127 0v1434h408v-125h-279v-527h240v-118h-240v-541h279v-123h-408zM135 1536v152h125v-152h-125zM356 1536v152h125v-152h-125z" />
<glyph unicode="&#xcc;" horiz-adv-x="385" d="M92 1796h123l76 -260h-86zM127 0v1434h129v-1434h-129z" />
<glyph unicode="&#xcd;" horiz-adv-x="385" d="M92 1536l78 260h121l-111 -260h-88zM127 0v1434h129v-1434h-129z" />
<glyph unicode="&#xce;" horiz-adv-x="385" d="M27 1536l112 260h107l114 -260h-90l-77 152l-76 -152h-90zM127 0v1434h129v-1434h-129z" />
<glyph unicode="&#xcf;" horiz-adv-x="385" d="M20 1536v152h125v-152h-125zM127 0v1434h129v-1434h-129zM242 1536v152h125v-152h-125z" />
<glyph unicode="&#xd0;" horiz-adv-x="731" d="M25 678v92h100v664h237q74 0 122 -18.5t77 -50.5t40 -78t11 -101v-938q0 -55 -11 -101.5t-38.5 -78t-75 -50t-120.5 -18.5h-242v678h-100zM254 123h106q49 0 74 15.5t36 43t12 65.5t1 83v790q0 43 -3 78t-15 59.5t-37 38t-68 13.5h-106v-539h104v-92h-104v-555z" />
<glyph unicode="&#xd1;" horiz-adv-x="790" d="M127 0v1434h127l301 -1121q-4 170 -8 328t-4 328v465h125v-1434h-127l-301 1118q4 -166 8 -323.5t4 -331.5v-463h-125zM168 1556q0 82 26.5 124t102.5 42q39 0 62.5 -13t43 -29.5t38 -30t46.5 -13.5q33 0 45.5 16.5t12.5 49.5h78q0 -84 -28.5 -125t-100.5 -41 q-39 0 -63.5 13.5t-43 29.5t-38 29.5t-46.5 13.5q-33 0 -45 -16.5t-12 -49.5h-78z" />
<glyph unicode="&#xd2;" d="M106 229v973q0 55 11.5 101.5t39 80t73.5 52t118 18.5q70 0 117 -18.5t74.5 -52t39 -80t11.5 -101.5v-973q0 -55 -11.5 -101t-39 -79t-74.5 -51t-117 -18q-72 0 -118 18t-73.5 51t-39 79t-11.5 101zM195 1796h122l76 -260h-86zM236 229q0 -59 23 -97t89 -38t89.5 38 t23.5 97v973q0 59 -23.5 97t-89.5 38t-89 -37.5t-23 -97.5v-973z" />
<glyph unicode="&#xd3;" d="M106 229v973q0 55 11.5 101.5t39 80t73.5 52t118 18.5q70 0 117 -18.5t74.5 -52t39 -80t11.5 -101.5v-973q0 -55 -11.5 -101t-39 -79t-74.5 -51t-117 -18q-72 0 -118 18t-73.5 51t-39 79t-11.5 101zM236 229q0 -59 23 -97t89 -38t89.5 38t23.5 97v973q0 59 -23.5 97 t-89.5 38t-89 -37.5t-23 -97.5v-973zM303 1536l78 260h121l-111 -260h-88z" />
<glyph unicode="&#xd4;" d="M106 229v973q0 55 11.5 101.5t39 80t73.5 52t118 18.5q70 0 117 -18.5t74.5 -52t39 -80t11.5 -101.5v-973q0 -55 -11.5 -101t-39 -79t-74.5 -51t-117 -18q-72 0 -118 18t-73.5 51t-39 79t-11.5 101zM182 1536l113 260h106l115 -260h-90l-78 152l-76 -152h-90zM236 229 q0 -59 23 -97t89 -38t89.5 38t23.5 97v973q0 59 -23.5 97t-89.5 38t-89 -37.5t-23 -97.5v-973z" />
<glyph unicode="&#xd5;" d="M106 229v973q0 55 11.5 101.5t39 80t73.5 52t118 18.5q70 0 117 -18.5t74.5 -52t39 -80t11.5 -101.5v-973q0 -55 -11.5 -101t-39 -79t-74.5 -51t-117 -18q-72 0 -118 18t-73.5 51t-39 79t-11.5 101zM121 1556q0 82 26.5 124t102.5 42q39 0 62.5 -13t43 -29.5t38 -30 t46.5 -13.5q33 0 45.5 16.5t12.5 49.5h77q0 -84 -28.5 -125t-100.5 -41q-39 0 -63.5 13.5t-42.5 29.5t-37.5 29.5t-46.5 13.5q-33 0 -45 -16.5t-12 -49.5h-78zM236 229q0 -59 23 -97t89 -38t89.5 38t23.5 97v973q0 59 -23.5 97t-89.5 38t-89 -37.5t-23 -97.5v-973z" />
<glyph unicode="&#xd6;" d="M106 229v973q0 55 11.5 101.5t39 80t73.5 52t118 18.5q70 0 117 -18.5t74.5 -52t39 -80t11.5 -101.5v-973q0 -55 -11.5 -101t-39 -79t-74.5 -51t-117 -18q-72 0 -118 18t-73.5 51t-39 79t-11.5 101zM176 1536v152h125v-152h-125zM236 229q0 -59 23 -97t89 -38t89.5 38 t23.5 97v973q0 59 -23.5 97t-89.5 38t-89 -37.5t-23 -97.5v-973zM397 1536v152h125v-152h-125z" />
<glyph unicode="&#xd7;" horiz-adv-x="735" d="M100 373l201 200l-201 199l66 66l201 -201l198 201l66 -66l-201 -199l201 -200l-66 -66l-198 201l-201 -201z" />
<glyph unicode="&#xd8;" d="M106 229v973q0 55 11.5 101.5t39 80t73.5 52t118 18.5q12 0 24.5 -1t22.5 -3l6 45h58l-6 -55q78 -25 107.5 -88.5t29.5 -149.5v-973q0 -55 -11.5 -101t-39 -79t-74.5 -51t-117 -18q-14 0 -26.5 1t-22.5 3l-4 -45h-57l6 55q-78 25 -108 86t-30 149zM236 229q0 -29 5 -54 t17 -42l125 1200q-20 4 -35 4q-66 0 -89 -37.5t-23 -97.5v-973zM311 98q10 -4 37 -4q66 0 89.5 38t23.5 97v973q0 61 -23 96z" />
<glyph unicode="&#xd9;" horiz-adv-x="716" d="M117 231v1203h129v-1203q0 -59 22.5 -98t89.5 -39q68 0 89.5 39t21.5 98v1203h129v-1203q0 -53 -11.5 -99t-39 -80t-73.5 -53t-116 -19q-72 0 -118.5 18t-74.5 52t-38 80t-10 101zM209 1796h123l76 -260h-86z" />
<glyph unicode="&#xda;" horiz-adv-x="716" d="M117 231v1203h129v-1203q0 -59 22.5 -98t89.5 -39q68 0 89.5 39t21.5 98v1203h129v-1203q0 -53 -11.5 -99t-39 -80t-73.5 -53t-116 -19q-72 0 -118.5 18t-74.5 52t-38 80t-10 101zM311 1536l78 260h121l-111 -260h-88z" />
<glyph unicode="&#xdb;" horiz-adv-x="716" d="M117 231v1203h129v-1203q0 -59 22.5 -98t89.5 -39q68 0 89.5 39t21.5 98v1203h129v-1203q0 -53 -11.5 -99t-39 -80t-73.5 -53t-116 -19q-72 0 -118.5 18t-74.5 52t-38 80t-10 101zM190 1536l113 260h107l114 -260h-90l-78 152l-75 -152h-91z" />
<glyph unicode="&#xdc;" horiz-adv-x="716" d="M117 231v1203h129v-1203q0 -59 22.5 -98t89.5 -39q68 0 89.5 39t21.5 98v1203h129v-1203q0 -53 -11.5 -99t-39 -80t-73.5 -53t-116 -19q-72 0 -118.5 18t-74.5 52t-38 80t-10 101zM184 1536v152h125v-152h-125zM406 1536v152h124v-152h-124z" />
<glyph unicode="&#xdd;" horiz-adv-x="618" d="M45 1434h135l127 -652l129 652h135l-198 -838v-596h-129v596zM262 1536l78 260h121l-111 -260h-88z" />
<glyph unicode="&#xde;" horiz-adv-x="684" d="M127 0v1434h129v-291h104q74 0 121 -18.5t75 -50.5t39 -78t11 -101v-324q0 -55 -11 -100t-40 -77t-77 -49t-122 -17h-100v-328h-129zM256 446h98q68 0 95.5 34t27.5 112v297q0 66 -25.5 97.5t-97.5 31.5h-98v-572z" />
<glyph unicode="&#xdf;" horiz-adv-x="653" d="M96 0v1243q0 111 49.5 171.5t173.5 60.5q125 0 175.5 -60.5t50.5 -171.5v-233q0 -82 -22.5 -124t-76.5 -67q59 -23 87 -66.5t28 -121.5v-414q0 -55 -9 -99t-34.5 -75t-70 -47t-111.5 -16q-12 0 -24.5 2t-24.5 4v104q10 -2 21 -3t26 -1q66 0 85 29.5t19 91.5v368 q0 37 -2 71t-13 58.5t-34.5 39t-69.5 14.5h-8v119h4q59 0 83 30.5t24 89.5v248q0 55 -24.5 89t-78.5 34q-57 0 -78.5 -31.5t-21.5 -91.5v-1245h-123z" />
<glyph unicode="&#xe0;" horiz-adv-x="630" d="M86 213v131q0 59 15.5 105.5t54.5 83t103.5 68.5t160.5 61v149q0 57 -23.5 92t-77.5 35q-61 0 -81.5 -35t-20.5 -94v-47h-121v49q0 51 10.5 94t36 74t68.5 48t108 17q66 0 109 -17t68.5 -48t36 -74t10.5 -94v-811h-72l-33 61q-20 -41 -54 -61t-91 -20q-111 0 -159 58 t-48 175zM197 1386h122l76 -260h-86zM209 213q0 -59 23.5 -93t82.5 -34q57 0 81 36t24 91v356q-66 -20 -107 -42.5t-64.5 -49t-31.5 -59.5t-8 -72v-133z" />
<glyph unicode="&#xe1;" horiz-adv-x="630" d="M86 213v131q0 59 15.5 105.5t54.5 83t103.5 68.5t160.5 61v149q0 57 -23.5 92t-77.5 35q-61 0 -81.5 -35t-20.5 -94v-47h-121v49q0 51 10.5 94t36 74t68.5 48t108 17q66 0 109 -17t68.5 -48t36 -74t10.5 -94v-811h-72l-33 61q-20 -41 -54 -61t-91 -20q-111 0 -159 58 t-48 175zM209 213q0 -59 23.5 -93t82.5 -34q57 0 81 36t24 91v356q-66 -20 -107 -42.5t-64.5 -49t-31.5 -59.5t-8 -72v-133zM264 1126l78 260h121l-111 -260h-88z" />
<glyph unicode="&#xe2;" horiz-adv-x="630" d="M86 213v131q0 59 15.5 105.5t54.5 83t103.5 68.5t160.5 61v149q0 57 -23.5 92t-77.5 35q-61 0 -81.5 -35t-20.5 -94v-47h-121v49q0 51 10.5 94t36 74t68.5 48t108 17q66 0 109 -17t68.5 -48t36 -74t10.5 -94v-811h-72l-33 61q-20 -41 -54 -61t-91 -20q-111 0 -159 58 t-48 175zM145 1126l113 260h107l114 -260h-90l-78 152l-75 -152h-91zM209 213q0 -59 23.5 -93t82.5 -34q57 0 81 36t24 91v356q-66 -20 -107 -42.5t-64.5 -49t-31.5 -59.5t-8 -72v-133z" />
<glyph unicode="&#xe4;" horiz-adv-x="630" d="M86 213v131q0 59 15.5 105.5t54.5 83t103.5 68.5t160.5 61v149q0 57 -23.5 92t-77.5 35q-61 0 -81.5 -35t-20.5 -94v-47h-121v49q0 51 10.5 94t36 74t68.5 48t108 17q66 0 109 -17t68.5 -48t36 -74t10.5 -94v-811h-72l-33 61q-20 -41 -54 -61t-91 -20q-111 0 -159 58 t-48 175zM139 1198v152h125v-152h-125zM209 213q0 -59 23.5 -93t82.5 -34q57 0 81 36t24 91v356q-66 -20 -107 -42.5t-64.5 -49t-31.5 -59.5t-8 -72v-133zM360 1198v152h125v-152h-125z" />
<glyph unicode="&#xe5;" horiz-adv-x="630" d="M86 213v131q0 59 15.5 105.5t54.5 83t103.5 68.5t160.5 61v149q0 57 -23.5 92t-77.5 35q-61 0 -81.5 -35t-20.5 -94v-47h-121v49q0 51 10.5 94t36 74t68.5 48t108 17q66 0 109 -17t68.5 -48t36 -74t10.5 -94v-811h-72l-33 61q-20 -41 -54 -61t-91 -20q-111 0 -159 58 t-48 175zM172 1274q0 72 33 115t106 43q74 0 107 -43t33 -115t-33 -113t-107 -41t-106.5 41t-32.5 113zM209 213q0 -59 23.5 -93t82.5 -34q57 0 81 36t24 91v356q-66 -20 -107 -42.5t-64.5 -49t-31.5 -59.5t-8 -72v-133zM252 1274q0 -39 14.5 -61.5t44.5 -22.5 q31 0 45.5 22.5t14.5 61.5q0 41 -14.5 64.5t-45.5 23.5t-45 -23.5t-14 -64.5z" />
<glyph unicode="&#xe6;" horiz-adv-x="962" d="M80 217v127q0 59 15.5 105.5t54 83t103 68.5t161.5 61v149q0 59 -21.5 93t-81.5 34q-59 0 -79.5 -35t-20.5 -94v-47h-121v49q0 51 10.5 94t36 74t67.5 48t105 17q68 0 108 -19t62 -50q23 33 64 51t108 18q68 0 111 -17t67.5 -49t34.5 -76t10 -97v-295h-331v-293 q0 -131 106 -131q59 0 83 34t24 97v135h118v-135q0 -109 -46 -173t-179 -64q-68 0 -107.5 17t-62.5 52q-23 -35 -63.5 -52t-106.5 -17q-68 0 -111.5 17t-70.5 48t-37 75t-10 97zM203 217q0 -63 23.5 -97t82.5 -34t82 34t23 97v352q-66 -20 -107 -42.5t-64.5 -49t-31.5 -59.5 t-8 -72v-129zM543 604h211v201q0 61 -28 97t-77 36q-59 0 -82.5 -34t-23.5 -99v-201z" />
<glyph unicode="&#xe7;" horiz-adv-x="638" d="M96 217v588q0 53 11.5 97t38 76t70.5 49t110 17q68 0 110.5 -17t68 -49t36 -76t10.5 -97v-113h-121v113q0 66 -22.5 99.5t-81.5 33.5t-83 -34t-24 -99v-588q0 -63 23.5 -97t83.5 -34q59 0 81.5 34t22.5 97v135h121v-135q0 -102 -41 -165.5t-158 -69.5l-14 -64 q131 -18 131 -131q0 -61 -41 -98t-139 -37h-94l20 78h68q47 0 65.5 16t18.5 45q0 31 -19.5 47.5t-68.5 16.5h-29l33 127q-109 10 -148 73.5t-39 161.5z" />
<glyph unicode="&#xe8;" horiz-adv-x="649" d="M96 217v588q0 53 11.5 97t37 76t69.5 49t112 17t110.5 -17t68 -49t36 -76t10.5 -97v-297h-332v-291q0 -131 107 -131q59 0 81.5 34t22.5 97v135h121v-135q0 -109 -46 -173t-179 -64q-68 0 -112 17t-70.5 48t-37 75t-10.5 97zM215 1386h123l76 -260h-86zM219 604h211v199 q0 66 -22.5 100.5t-81.5 34.5t-83 -34t-24 -99v-201z" />
<glyph unicode="&#xe9;" horiz-adv-x="649" d="M96 217v588q0 53 11.5 97t37 76t69.5 49t112 17t110.5 -17t68 -49t36 -76t10.5 -97v-297h-332v-291q0 -131 107 -131q59 0 81.5 34t22.5 97v135h121v-135q0 -109 -46 -173t-179 -64q-68 0 -112 17t-70.5 48t-37 75t-10.5 97zM219 604h211v199q0 66 -22.5 100.5 t-81.5 34.5t-83 -34t-24 -99v-201zM272 1126l78 260h121l-111 -260h-88z" />
<glyph unicode="&#xea;" horiz-adv-x="649" d="M96 217v588q0 53 11.5 97t37 76t69.5 49t112 17t110.5 -17t68 -49t36 -76t10.5 -97v-297h-332v-291q0 -131 107 -131q59 0 81.5 34t22.5 97v135h121v-135q0 -109 -46 -173t-179 -64q-68 0 -112 17t-70.5 48t-37 75t-10.5 97zM147 1126l113 260h107l114 -260h-90l-78 152 l-75 -152h-91zM219 604h211v199q0 66 -22.5 100.5t-81.5 34.5t-83 -34t-24 -99v-201z" />
<glyph unicode="&#xeb;" horiz-adv-x="649" d="M96 217v588q0 53 11.5 97t37 76t69.5 49t112 17t110.5 -17t68 -49t36 -76t10.5 -97v-297h-332v-291q0 -131 107 -131q59 0 81.5 34t22.5 97v135h121v-135q0 -109 -46 -173t-179 -64q-68 0 -112 17t-70.5 48t-37 75t-10.5 97zM141 1198v152h125v-152h-125zM219 604h211 v199q0 66 -22.5 100.5t-81.5 34.5t-83 -34t-24 -99v-201zM362 1198v152h125v-152h-125z" />
<glyph unicode="&#xec;" horiz-adv-x="329" d="M49 1386h123l76 -260h-86zM102 0v1024h123v-1024h-123z" />
<glyph unicode="&#xed;" horiz-adv-x="329" d="M102 0v1024h123v-1024h-123zM113 1126l77 260h121l-110 -260h-88z" />
<glyph unicode="&#xee;" horiz-adv-x="329" d="M-2 1126l113 260h106l115 -260h-90l-78 152l-76 -152h-90zM102 0v1024h123v-1024h-123z" />
<glyph unicode="&#xef;" horiz-adv-x="329" d="M-8 1198v152h125v-152h-125zM102 0v1024h123v-1024h-123zM213 1198v152h125v-152h-125z" />
<glyph unicode="&#xf0;" horiz-adv-x="692" d="M96 229v369q0 117 43 178.5t158 61.5q45 0 82 -15.5t65 -44.5q-2 104 -15 186.5t-42 157.5l-96 -45l-35 78l98 45q-29 59 -68.5 116.5t-90.5 117.5h135q39 -47 70.5 -92.5t56.5 -92.5l102 47l35 -77l-100 -45q39 -92 55 -201t16 -238v-506q0 -57 -11 -103t-38 -79 t-72 -50t-112 -17q-68 0 -114 17t-72.5 50t-38 79t-11.5 103zM219 229q0 -61 23.5 -98t89.5 -37t89 37t23 98v418q-18 37 -44.5 57.5t-69.5 20.5q-59 0 -85 -34t-26 -93v-369z" />
<glyph unicode="&#xf1;" horiz-adv-x="671" d="M106 0v1024h74l33 -66q23 41 60.5 63.5t91.5 22.5q111 0 154.5 -58t43.5 -177v-809h-123v809q0 59 -22.5 94t-79.5 35q-59 0 -84 -35t-25 -96v-807h-123zM106 1167q0 82 27 124t103 42q39 0 62.5 -13t42.5 -29.5t37.5 -30t47.5 -13.5q33 0 45 16.5t12 49.5h78 q0 -84 -28.5 -125t-100.5 -41q-39 0 -63.5 13.5t-43 29.5t-38 29.5t-45.5 13.5q-33 0 -45.5 -16.5t-12.5 -49.5h-78z" />
<glyph unicode="&#xf2;" horiz-adv-x="651" d="M96 217v588q0 53 11.5 97t38 76t70.5 49t110 17t109.5 -17t69 -49t37 -76t11.5 -97v-588q0 -109 -47 -173t-180 -64q-68 0 -112 17t-70.5 48t-37 75t-10.5 97zM176 1386h123l76 -260h-86zM219 217q0 -63 24 -97t83 -34t81.5 34t22.5 97v588q0 66 -22.5 99.5t-81.5 33.5 t-83 -34t-24 -99v-588z" />
<glyph unicode="&#xf3;" horiz-adv-x="651" d="M96 217v588q0 53 11.5 97t38 76t70.5 49t110 17t109.5 -17t69 -49t37 -76t11.5 -97v-588q0 -109 -47 -173t-180 -64q-68 0 -112 17t-70.5 48t-37 75t-10.5 97zM219 217q0 -63 24 -97t83 -34t81.5 34t22.5 97v588q0 66 -22.5 99.5t-81.5 33.5t-83 -34t-24 -99v-588z M274 1126l78 260h121l-111 -260h-88z" />
<glyph unicode="&#xf4;" horiz-adv-x="651" d="M96 217v588q0 53 11.5 97t38 76t70.5 49t110 17t109.5 -17t69 -49t37 -76t11.5 -97v-588q0 -109 -47 -173t-180 -64q-68 0 -112 17t-70.5 48t-37 75t-10.5 97zM158 1126l112 260h107l115 -260h-91l-77 152l-76 -152h-90zM219 217q0 -63 24 -97t83 -34t81.5 34t22.5 97 v588q0 66 -22.5 99.5t-81.5 33.5t-83 -34t-24 -99v-588z" />
<glyph unicode="&#xf5;" horiz-adv-x="651" d="M96 217v588q0 53 11.5 97t38 76t70.5 49t110 17t109.5 -17t69 -49t37 -76t11.5 -97v-588q0 -109 -47 -173t-180 -64q-68 0 -112 17t-70.5 48t-37 75t-10.5 97zM96 1167q0 82 27 124t102 42q39 0 62.5 -13t43 -29.5t38 -30t47.5 -13.5q33 0 45 16.5t12 49.5h78 q0 -84 -28.5 -125t-100.5 -41q-39 0 -63.5 13.5t-43 29.5t-38 29.5t-46.5 13.5q-33 0 -45 -16.5t-12 -49.5h-78zM219 217q0 -63 24 -97t83 -34t81.5 34t22.5 97v588q0 66 -22.5 99.5t-81.5 33.5t-83 -34t-24 -99v-588z" />
<glyph unicode="&#xf6;" horiz-adv-x="651" d="M96 217v588q0 53 11.5 97t38 76t70.5 49t110 17t109.5 -17t69 -49t37 -76t11.5 -97v-588q0 -109 -47 -173t-180 -64q-68 0 -112 17t-70.5 48t-37 75t-10.5 97zM152 1198v152h124v-152h-124zM219 217q0 -63 24 -97t83 -34t81.5 34t22.5 97v588q0 66 -22.5 99.5t-81.5 33.5 t-83 -34t-24 -99v-588zM373 1198v152h125v-152h-125z" />
<glyph unicode="&#xf7;" horiz-adv-x="798" d="M100 526v95h594v-95h-594zM330 238v157h137v-157h-137zM330 750v157h137v-157h-137z" />
<glyph unicode="&#xf8;" horiz-adv-x="641" d="M90 217v588q0 53 11.5 97t38 76t70 49t109.5 17q31 0 60 -6l8 47h53l-10 -59q66 -27 91.5 -84t25.5 -137v-588q0 -109 -47 -173t-181 -64q-16 0 -31.5 1t-29.5 3l-8 -45h-51l8 57q-66 25 -91.5 83t-25.5 138zM203 217q0 -70 24 -102l135 825q-10 4 -20 6t-23 2 q-66 0 -91 -37t-25 -106v-588zM274 80q10 -2 20.5 -3t24.5 -1q66 0 90.5 35.5t24.5 105.5v588q0 70 -24 102z" />
<glyph unicode="&#xf9;" horiz-adv-x="671" d="M106 215v809h123v-809q0 -59 22.5 -94t82.5 -35q59 0 82.5 35t23.5 94v809h123v-1024h-71l-33 66q-45 -86 -154 -86t-154 58t-45 177zM182 1386h123l76 -260h-86z" />
<glyph unicode="&#xfa;" horiz-adv-x="671" d="M106 215v809h123v-809q0 -59 22.5 -94t82.5 -35q59 0 82.5 35t23.5 94v809h123v-1024h-71l-33 66q-45 -86 -154 -86t-154 58t-45 177zM295 1126l78 260h121l-111 -260h-88z" />
<glyph unicode="&#xfb;" horiz-adv-x="671" d="M106 215v809h123v-809q0 -59 22.5 -94t82.5 -35q59 0 82.5 35t23.5 94v809h123v-1024h-71l-33 66q-45 -86 -154 -86t-154 58t-45 177zM168 1126l113 260h106l115 -260h-90l-78 152l-76 -152h-90z" />
<glyph unicode="&#xfc;" horiz-adv-x="671" d="M106 215v809h123v-809q0 -59 22.5 -94t82.5 -35q59 0 82.5 35t23.5 94v809h123v-1024h-71l-33 66q-45 -86 -154 -86t-154 58t-45 177zM162 1198v152h125v-152h-125zM383 1198v152h125v-152h-125z" />
<glyph unicode="&#xfd;" horiz-adv-x="616" d="M35 -227q35 -14 80 -15q90 0 114 119l23 121l-201 1026h127l133 -801l131 801h127l-221 -1151q-23 -117 -72.5 -169t-160.5 -52q-18 0 -42 3t-38 7v111zM279 1126l77 260h121l-110 -260h-88z" />
<glyph unicode="&#xfe;" horiz-adv-x="671" d="M106 -328v1782h123v-483q20 33 56.5 53t83.5 20q109 0 151.5 -58t42.5 -177v-594q0 -236 -194 -235q-47 0 -83 20t-57 53v-381h-123zM229 293q0 -41 2 -79t12.5 -66.5t32 -45t62.5 -16.5q59 0 80.5 34t21.5 95v520q0 41 -2 78t-11 64.5t-29.5 44t-59.5 16.5 q-59 0 -84 -36t-25 -95v-514z" />
<glyph unicode="&#xff;" horiz-adv-x="616" d="M35 -227q35 -14 80 -15q90 0 114 119l23 121l-201 1026h127l133 -801l131 801h127l-221 -1151q-23 -117 -72.5 -169t-160.5 -52q-18 0 -42 3t-38 7v111zM133 1198v152h125v-152h-125zM354 1198v152h125v-152h-125z" />
<glyph unicode="&#x152;" horiz-adv-x="946" d="M96 229v973q0 55 11.5 101.5t39 80t73.5 52t118 18.5q39 0 63.5 -6t47.5 -14h409v-125h-278v-527h239v-118h-239v-541h278v-123h-409q-23 -10 -47.5 -15t-63.5 -5q-72 0 -118 18t-73.5 51t-39 79t-11.5 101zM225 229q0 -59 23.5 -97t89.5 -38q61 0 87 33t26 86v989 q0 59 -24 97t-89 38q-66 0 -89.5 -37.5t-23.5 -97.5v-973z" />
<glyph unicode="&#x153;" horiz-adv-x="972" d="M90 217v588q0 53 11.5 97t38 76t70.5 49t109 17q59 0 100.5 -18t65.5 -49q51 68 168 67q68 0 111 -17t68.5 -49t36 -76t10.5 -97v-297h-332v-291q0 -131 106 -131q59 0 82 34t23 97v135h121v-135q0 -109 -46.5 -173t-179.5 -64q-59 0 -100 17t-66 48q-25 -31 -65.5 -48 t-102.5 -17q-68 0 -111.5 17t-70 48t-37 75t-10.5 97zM213 217q0 -66 24.5 -98.5t81.5 -32.5q68 0 86.5 44t18.5 130v545q0 66 -25 99.5t-80 33.5q-70 0 -88 -46t-18 -128v-547zM547 604h211v189q0 72 -21.5 108.5t-83.5 36.5q-59 0 -82.5 -34t-23.5 -99v-201z" />
<glyph unicode="&#x178;" horiz-adv-x="618" d="M45 1434h135l127 -652l129 652h135l-198 -838v-596h-129v596zM135 1536v152h125v-152h-125zM356 1536v152h125v-152h-125z" />
<glyph unicode="&#x2000;" horiz-adv-x="906" />
<glyph unicode="&#x2001;" horiz-adv-x="1812" />
<glyph unicode="&#x2002;" horiz-adv-x="906" />
<glyph unicode="&#x2003;" horiz-adv-x="1812" />
<glyph unicode="&#x2004;" horiz-adv-x="604" />
<glyph unicode="&#x2005;" horiz-adv-x="453" />
<glyph unicode="&#x2006;" horiz-adv-x="302" />
<glyph unicode="&#x2007;" horiz-adv-x="302" />
<glyph unicode="&#x2008;" horiz-adv-x="226" />
<glyph unicode="&#x2009;" horiz-adv-x="362" />
<glyph unicode="&#x200a;" horiz-adv-x="100" />
<glyph unicode="&#x2010;" horiz-adv-x="512" d="M80 526v95h348v-95h-348z" />
<glyph unicode="&#x2011;" horiz-adv-x="512" d="M80 526v95h348v-95h-348z" />
<glyph unicode="&#x2012;" horiz-adv-x="512" d="M80 526v95h348v-95h-348z" />
<glyph unicode="&#x2013;" horiz-adv-x="716" d="M80 526v95h553v-95h-553z" />
<glyph unicode="&#x2014;" horiz-adv-x="1044" d="M80 539v69h881v-69h-881z" />
<glyph unicode="&#x2018;" horiz-adv-x="303" d="M76 1454h145v-416h-74z" />
<glyph unicode="&#x2019;" horiz-adv-x="296" d="M80 1038v416h145l-71 -416h-74z" />
<glyph unicode="&#x201a;" horiz-adv-x="344" d="M100 -199v416h146l-72 -416h-74z" />
<glyph unicode="&#x201c;" horiz-adv-x="532" d="M80 1454h145v-416h-73zM305 1454h144v-416h-74z" />
<glyph unicode="&#x201d;" horiz-adv-x="532" d="M80 1038v416h145l-71 -416h-74zM305 1038v416h144l-70 -416h-74z" />
<glyph unicode="&#x201e;" horiz-adv-x="565" d="M96 -199v416h146l-72 -416h-74zM322 -199v416h143l-70 -416h-73z" />
<glyph unicode="&#x2022;" horiz-adv-x="512" d="M80 580q0 72 51 123t123 51t123 -51.5t51 -122.5q0 -72 -51 -123t-123 -51t-123 51t-51 123z" />
<glyph unicode="&#x202f;" horiz-adv-x="362" />
<glyph unicode="&#x2039;" horiz-adv-x="503" d="M80 512l217 379h125l-215 -379l215 -379h-125z" />
<glyph unicode="&#x203a;" horiz-adv-x="503" d="M80 133l215 379l-215 379h125l217 -379l-217 -379h-125z" />
<glyph unicode="&#x205f;" horiz-adv-x="453" />
<glyph unicode="&#x20ac;" horiz-adv-x="765" d="M59 575v76h103v148h-103v75h103v328q0 55 11 101.5t39 80t74 52t117 18.5q135 0 187.5 -70.5t52.5 -181.5v-158h-127v158q0 57 -23.5 96t-89.5 39t-89 -37.5t-23 -97.5v-328h227q-4 -20 -8 -38.5t-8 -36.5h-211v-148h178q-4 -20 -8 -38.5t-8 -37.5h-162v-346 q0 -57 23.5 -96t88.5 -39q66 0 89.5 38t23.5 97v181h127v-181q0 -111 -52 -180t-188 -69q-72 0 -117.5 18t-73.5 51t-39 79t-11 101v346h-103z" />
<glyph unicode="&#x2122;" horiz-adv-x="704" d="M80 1386v48h203v-48h-76v-362h-49v362h-78zM340 1024v410h51l80 -238l80 238h51v-410h-47v295l-68 -205h-30l-68 205v-295h-49z" />
<glyph unicode="&#x25fc;" horiz-adv-x="1024" d="M0 0v1024h1024v-1024h-1024z" />
</font>
</defs>
</svg>
