<?xml version="1.0" standalone="no"?>
<!DOCTYPE svg PUBLIC "-//W3C//DTD SVG 1.1//EN" "http://www.w3.org/Graphics/SVG/1.1/DTD/svg11.dtd" >
<svg xmlns="http://www.w3.org/2000/svg">
<metadata></metadata>
<defs>
<font id="sortefaxs02medium" horiz-adv-x="1351" >
<font-face units-per-em="2048" ascent="1638" descent="-410" />
<missing-glyph horiz-adv-x="655" />
<glyph unicode="&#xfb01;" horiz-adv-x="1843" d="M1334 1212q28 13 57 13q24 0 47 -13h-104zM1295 1184h176q12 -15 18 -33h-216q7 16 22 33zM1265 1122h231q1 -5 1 -16t-1 -16h-231q-1 5 -1 16t1 16zM1490 1061q-6 -19 -16 -33h-183q-11 14 -19 33h218zM1446 999q-24 -18 -55 -18q-39 0 -67 18h122zM1243 1106 q0 -60 43.5 -102.5t104.5 -42.5q53 0 90 42.5t37 102.5q0 58 -37 98.5t-90 40.5q-61 0 -104.5 -40.5t-43.5 -98.5zM1219 1106q0 72 51 123t123 51q76 0 130 -51t54 -123t-54 -123t-130 -51q-72 0 -123 51t-51 123zM1315 414v32h155v-32h-155zM1315 385h155v-33h-155v33z M1315 324h155v-33h-155v33zM1315 262h155v-33h-155v33zM1315 598v16q0 3 -0.5 9t-0.5 8h156v-33h-155zM1315 569h155v-32h-155v32zM1315 508h155v-33h-155v33zM1268 754h213q-1 -6 -2.5 -17t-2.5 -16h-187q-12 21 -21 33zM1302 692h170q-1 -11 -1 -33h-160q-3 17 -9 33z M1474 168h-162q3 16 3 33h156q0 -17 3 -33zM1483 139q9 -19 17 -33h-207q7 13 12 33h178zM1521 78q13 -18 30 -33h-300q15 17 26 33h244zM1270 205v409q0 73 -51 128t-129 73v4l364 4l102 -8v-610q0 -73 51.5 -128t129.5 -73v-4h-647v4q78 18 129 73t51 128zM1294 205 q0 -111 -97 -180h412q-118 85 -118 180v450q1 64 20 139l-58 5l-258 -3q99 -70 99 -182v-409zM802 758l44 7v-14zM894 1122q15 -17 25 -32h-48q3 17 3 32h20zM491 168h-162q3 16 3 33h155q0 -11 4 -33zM500 139q4 -11 16 -33h-206q7 13 12 33h178zM536 78q5 -6 32 -33h-300 q15 17 26 33h242zM332 414v32h155v-32h-155zM332 385h155v-33h-155v33zM332 324h155v-33h-155v33zM332 262h155v-33h-155v33zM332 631h155v-33h-155v33zM332 569h155v-32h-155v32zM332 508h155v-33h-155v33zM286 754h201v-33h-173q-9 16 -28 33zM326 692h161v-33h-155 q0 13 -6 33zM331 844q1 5 1 16v17h155v-33h-156zM323 815h164v-33h-182q11 15 18 33zM332 1090v16q0 7 3 16h154q-2 -12 -2 -18v-14h-155zM332 1061h155v-33h-155v33zM332 999h155v-32h-155v32zM332 938h155v-33h-155v33zM451 1212q55 18 111 19q-16 -12 -23 -19h-88z M390 1184h123q-11 -16 -17 -33h-144q15 19 38 33zM287 205v450q0 37 -29.5 64t-71.5 37v4q42 10 71.5 37t29.5 63v246q0 70 83.5 120t202.5 50q111 0 205.5 -33t149.5 -90.5t55 -124.5l-211 -27l-2 3q59 51 59 120q0 46 -32 78.5t-78 32.5q-60 0 -103 -38.5t-43 -92.5v-336 l328 51v-123l-328 52v-543q0 -73 51.5 -128t129.5 -73v-4h-648v4q78 18 129.5 73t51.5 128zM508 205v899q0 51 40.5 89.5t102.5 53.5q-36 4 -78 4q-112 0 -187 -45t-75 -100v-246q0 -62 -64 -102q64 -40 64 -103v-450q0 -111 -97 -180h412q-118 85 -118 180zM836 1190 q18 -33 18 -66q0 -40 -16 -73l119 -1q-14 81 -121 140zM667 758l199 -31v61z" />
<glyph horiz-adv-x="0" />
<glyph horiz-adv-x="682" />
<glyph unicode=" "  horiz-adv-x="655" />
<glyph unicode="&#x09;" horiz-adv-x="655" />
<glyph unicode="&#xa0;" horiz-adv-x="655" />
<glyph unicode="!" horiz-adv-x="655" d="M416 1122q0 -8 -2 -32h-209q-1 4 -2.5 15.5t-2.5 16.5h216zM412 1061q0 -5 -1.5 -16t-2.5 -17h-191q-1 7 -3.5 18.5t-3.5 14.5h202zM405 999q-1 -9 -5 -32h-169q-7 24 -8 32h182zM396 938q-1 -5 -2.5 -16t-2.5 -17h-146q-6 22 -8 33h159zM386 877l-6 -33h-121 q-1 5 -3.5 16t-3.5 17h134zM375 815l-6 -33h-95q-2 5 -4.5 16t-3.5 17h109zM364 754q-1 -6 -3.5 -17t-3.5 -16h-67l-9 33h83zM351 692l-6 -33h-40q-1 6 -4 17t-4 16h54zM339 631q-1 -6 -4 -17t-4 -16h-10l-9 33h27zM266 1245h102q16 -11 28 -33h-170q17 21 40 33zM209 1184 h200q5 -15 6 -33h-215q1 13 9 33zM218 168q7 17 20 33h156q9 -15 15 -33h-191zM210 139h205q1 -5 1 -16q0 -12 -1 -17h-205q-1 5 -1 17q0 11 1 16zM275 229q26 13 53 13q18 0 38 -13h-91zM394 45h-156q-13 16 -20 33h191q-6 -18 -15 -33zM366 16q-18 -12 -38 -12 q-29 0 -53 12h91zM164 123q0 67 48 115.5t116 48.5q72 0 123 -48t51 -116t-51 -116t-123 -48q-68 0 -116 48.5t-48 115.5zM502 1135q0 -43 -43 -226t-86 -345l-43 -161h-4q-172 636 -172 732q0 72 51 123t123 51t123 -51t51 -123zM188 123q0 -58 41 -98.5t99 -40.5 q45 0 76.5 40.5t31.5 98.5t-31.5 98.5t-76.5 40.5q-58 0 -99 -40.5t-41 -98.5zM436 1135q0 60 -31.5 102.5t-76.5 42.5q-63 0 -106.5 -41.5t-43.5 -103.5q0 -73 150 -644q44 182 76 368t32 276z" />
<glyph unicode="&#x22;" horiz-adv-x="880" d="M580 1184h143v-33h-143v33zM580 1122h143v-16v-16h-143v32zM580 1061h141q-1 -11 -5 -33h-136v33zM635 952h-100v308h253v-154q0 -138 -82.5 -242t-212.5 -127l-3 17q145 78 145 198zM659 977v-25q0 -83 -67 -153q151 105 151 307v129h-184v-258h100zM190 1184h144v-33 h-144v33zM190 1122h144v-16v-16h-144v32zM190 1061h142q-1 -11 -5 -33h-137v33zM246 952h-101v308h254v-154q0 -138 -82.5 -242t-212.5 -127l-3 17q145 78 145 198zM270 977v-25q0 -83 -67 -153q151 105 151 307v129h-184v-258h100z" />
<glyph unicode="#" horiz-adv-x="983" d="M309 101l-25 2l30 335h-232v25h234l26 303h-231v25h234l28 339l25 -3l-29 -336h283l28 339l25 -3l-29 -336h225v-25h-227l-26 -303h224v-25h-226l-30 -337l-24 2l29 335h-283zM650 766h-283l-26 -303h282z" />
<glyph unicode="$" horiz-adv-x="1183" d="M864 1122h99l-2 -32h-62q-24 15 -53 30q3 0 9 1t9 1zM959 1061q0 -3 -0.5 -7t-0.5 -7q-3 3 -9 7.5t-9 6.5h19zM249 106h-57v16t1 17h94q24 -14 37 -21q-39 -3 -75 -12zM195 168q1 6 1 17t1 16h10q29 -27 38 -33h-50zM447 1090h-63q20 10 62 21q0 -14 1 -21zM451 1061 q4 -22 7 -33h-165q17 18 39 33h119zM466 999q2 -5 6 -15.5t6 -16.5h-227q6 13 18 32h197zM491 938q5 -11 17 -33h-268v4q0 14 3 29h248zM524 877q3 -6 9.5 -17t10.5 -16h-288q-8 16 -12 33h280zM563 815l24 -33h-295q-12 16 -21 33h292zM610 754l27 -33h-295q-10 11 -28 33 h296zM663 692q5 -5 15.5 -16t15.5 -17h-293q-4 4 -11 10.5t-12.5 12t-9.5 10.5h295zM724 631q23 -23 35 -33h-293l-1 1q-1 1 -14.5 13t-20.5 19h294zM944 414h-295q-5 5 -14.5 15.5t-13.5 16.5h297q25 -31 26 -32zM961 385q8 -15 13 -33h-280q-14 22 -22 33h289zM979 324v-5 q0 -15 -3 -28h-247q-5 11 -17 33h267zM792 569q27 -23 37 -32h-296q-24 22 -35 32h294zM860 508q18 -16 33 -33h-298q-6 5 -16.5 16t-15.5 17h297zM900 168h-135q-1 11 -5 33h173q-15 -18 -33 -33zM856 139q-43 -22 -97 -30q5 14 6 30h91zM969 262q-6 -16 -15 -33h-201 q-3 11 -11 33h227zM483 -287h-24v362q-18 1 -54 1q-205 0 -258 -80h-4v430h4q0 -141 151 -240.5t364 -99.5q25 0 42 16.5t17 40.5q0 56 -26 115t-74.5 117.5t-88 98t-97.5 91.5q-115 104 -177.5 185.5t-62.5 158.5q0 89 74.5 158.5t189.5 92.5v376h24v-372q38 5 72 5 q25 0 95 -4q36 -2 55 -3v374h24v-375q8 0 22.5 -0.5t21.5 -0.5q191 0 239 104h2v-387h-4q0 62 -69 125.5t-175.5 104t-209.5 40.5q-18 0 -31 -11t-13 -26q0 -54 27.5 -115.5t75 -122t97.5 -112t108 -101.5q112 -97 178.5 -181t66.5 -159q0 -106 -97 -181.5t-239 -76.5v-348 h-24v349q-62 2 -126 6l-96 6v-361zM485 1139q-5 -1 -12.5 -2t-12.5 -2l-4 -1q-106 -23 -171.5 -86t-65.5 -139q0 -67 60.5 -145.5t172.5 -179.5q47 -43 76.5 -71t75.5 -79t73 -92.5t47.5 -95t20.5 -103.5q0 -30 -24 -57q112 0 195 68.5t83 164.5q0 64 -53.5 127.5 t-169.5 164.5q-120 104 -214.5 244t-94.5 255q0 18 18 29zM417 101q-160 55 -237 161l-12 -211q72 50 237 50h12zM754 1136q143 -50 221 -134l14 194q-73 -60 -216 -60h-19z" />
<glyph unicode="%" horiz-adv-x="1761" d="M595 1184q18 -14 34 -33h-38q-1 4 -2.5 10.5t-3 12t-3.5 10.5h13zM650 1122q10 -17 17 -32h-64q-1 9 -5 32h52zM677 1061q3 -11 7 -33h-76q0 11 -2 33h71zM686 999v-6q0 -17 -1 -26h-77v26v6h78zM680 938q-3 -16 -9 -33h-68l3 33h74zM658 877q-7 -15 -22 -33h-43l6 33h59 zM610 815q-17 -15 -32 -24q7 17 8 24h24zM266 1184q-10 -22 -14 -33h-36q19 19 40 33h10zM242 1122q-7 -24 -8 -32h-63q12 22 20 32h51zM230 1061q-1 -5 -2.5 -16t-1.5 -17h-76q3 16 9 33h71zM225 999v-6q0 -5 0.5 -13t0.5 -13h-77q-2 18 -2 26q0 1 0.5 3t0.5 3h77zM227 938 l6 -33h-65l-12 33h71zM239 877q6 -22 10 -33h-40q-14 14 -26 33h56zM260 815q5 -11 11 -22q-17 11 -31 22h20zM553 168h-59q-4 22 -4 33h91zM529 139l-20 -23q-7 18 -8 23h28zM760 414h-150l27 32h150zM735 385l-27 -33h-150l28 33h149zM684 324l-28 -33h-146q6 13 20 28 l4 5h150zM632 262l-27 -33h-114q1 11 7 33h134zM1200 938l-28 -33h-149l28 33h149zM1148 877l-27 -33h-149l27 33h149zM1097 815q-5 -6 -14 -17t-14 -16h-149q4 5 13.5 16t14.5 17h149zM1045 754l-27 -33h-150q4 6 14 17t14 16h149zM993 692l-27 -33h-149l27 33h149z M942 631l-28 -33h-149l27 33h150zM890 569l-27 -32h-150l28 32h149zM839 508l-28 -33h-150l28 33h150zM1206 1122h40q5 -17 6 -32h-73zM1155 1061h98q-2 -22 -5 -33h-121zM1103 999h136q-8 -18 -17 -32h-147q4 6 14 16.5t14 15.5zM1511 414h-24q-1 4 -4 12t-4 12 q18 -12 32 -24zM1537 385q12 -15 21 -33h-57q-1 6 -3.5 17t-3.5 16h43zM1572 324q6 -16 9 -33h-73l-3 33h67zM1586 262q1 -9 1 -26v-7h-78v7v26h77zM1496 45h-13q1 4 2.5 9.5t3.5 12.5t3 11h39q-14 -17 -35 -33zM1578 168h-72l3 33h76q-1 -11 -7 -33zM1569 139 q-9 -19 -17 -33h-54q4 22 5 33h66zM1162 414h-21q8 6 31 21q-4 -7 -10 -21zM1150 385q-4 -11 -10 -33h-56q14 22 25 33h41zM1134 324q-4 -22 -5 -33h-73q4 17 12 33h66zM1127 262q0 -4 -0.5 -13t-0.5 -13v-7h-77v7q0 17 1 26h77zM1168 45h-10q-21 14 -40 33h35 q2 -5 4.5 -10.5t5.5 -12t5 -10.5zM1131 168h-71q-4 11 -8 33h75q1 -5 2.5 -16t1.5 -17zM1135 139q1 -8 8 -32h-50q-11 14 -21 32h63zM1230 483q-90 -27 -146 -95t-56 -152t56 -152.5t146 -95.5q-83 97 -83 248q0 150 83 247zM1432 483q57 -76 57 -247q0 -172 -57 -248 q80 27 128 94.5t48 153.5t-48 153t-128 94zM1004 236q0 119 95.5 202.5t231.5 83.5t232 -84t96 -202q0 -119 -96 -203t-232 -84t-231.5 84t-95.5 203zM1198 236q0 -108 28.5 -185t76.5 -81q9 -1 28 -1q20 0 29 1q48 4 76 80.5t28 185.5t-28 185t-76 80q-9 1 -29 1 q-19 0 -28 -1q-48 -4 -76.5 -80.5t-28.5 -184.5zM102 993q0 119 96 203t232 84t232 -84t96 -203q0 -118 -96 -202t-232 -84t-232 84t-96 202zM297 993q0 -109 28 -185t76 -80q9 -1 29 -1t29 1q48 4 76 80t28 185t-28 185t-76 80q-18 2 -29 2t-29 -2q-48 -4 -76 -80t-28 -185 zM526 2q-81 96 -81 206q0 80 51 140l741 881q79 -95 79 -204q0 -82 -50 -142zM1215 925q58 64 58 146q0 66 -37 119l-722 -858q-44 -51 -44 -124q0 -66 35 -130zM329 1241q-90 -27 -146 -95.5t-56 -152.5t56 -152t146 -95q-83 97 -83 247q0 151 83 248zM531 1241 q57 -76 57 -248q0 -171 -57 -247q80 27 128 94t48 153t-48 153.5t-128 94.5z" />
<glyph unicode="&#x26;" horiz-adv-x="1689" d="M931 999h50q-6 -12 -23 -32h-30q3 16 3 32zM859 1151q-2 2 -6 4q30 6 50 6q21 0 41 -10h-85zM890 1122h87q12 -18 16 -32h-82q-8 15 -21 32zM923 1061h74q0 -18 -4 -33h-63q-1 11 -7 33zM350 45h-8q-53 10 -105 33h70q17 -16 43 -33zM239 168h-118q-13 18 -20 33h123 q2 -5 4.5 -10.5t5.5 -12t5 -10.5zM256 139q14 -22 24 -33h-94q-21 14 -40 33h110zM201 324q0 -11 2 -33h-116q1 11 7 33h107zM207 262q2 -11 8 -33h-124q-5 18 -5 33h121zM140 414q4 6 28 32h52q-2 -6 -5 -16.5t-4 -15.5h-71zM121 385h84l-3 -33h-98q5 11 17 33zM238 508h8 q-6 -11 -16 -33h-32q26 22 40 33zM1020 45q-40 11 -80 33h181q74 -26 155 -29q-3 0 -8.5 -1.5t-8.5 -2.5h-239zM820 168q-6 5 -31 33h146q13 -16 32 -33h-147zM852 139h151q27 -19 52 -33h-161q-21 15 -42 33zM638 414q-3 5 -8.5 16t-8.5 16h174q2 -6 8 -16.5t9 -15.5h-174z M655 385h171q2 -6 7.5 -17t8.5 -16h-167q-3 6 -9.5 17t-10.5 16zM693 324h164l14 -30q1 0 1 -1t1 -2h-157q-16 22 -23 33zM737 262h152q17 -27 22 -33h-148q-5 6 -13 17t-13 16zM606 475q0 1 -0.5 1t-0.5 1q-5 11 -15 31h174q2 -5 8 -16t9 -17h-175zM539 692h133l16 -33 h-144q-4 22 -5 33zM549 631h154l16 -33h-162q-6 22 -8 33zM566 569h167l17 -32h-172q-2 6 -6 16.5t-6 15.5zM537 721q0 4 -0.5 13t-0.5 14v6h105l16 -33h-120zM555 877h24l8.5 -17t8.5 -16h-50q1 5 2.5 10.5t3.5 12t3 10.5zM541 815h69l17 -33h-90q2 22 4 33zM1269 754h201 q20 -14 32 -33h-296q27 18 63 33zM1166 692h350q6 -20 6 -33h-138q-44 21 -90 21q-68 0 -133 -21h-32q20 20 37 33zM1520 631q-3 -18 -9 -33h-58q-8 14 -27 33h94zM1495 569q-11 -13 -24 -24q0 4 -1 8t-2.5 8.5l-2.5 7.5h30zM718 791l27 14q70 33 105.5 87.5t35.5 111.5 q0 54 -34 92.5t-82 38.5q-55 0 -94 -42t-39 -102q0 -38 15 -68zM727 773l175 -347q219 397 491 397q80 0 137 -49t57 -119q0 -72 -51 -123t-123 -51q13 26 13 50q0 43 -38.5 73.5t-93.5 30.5q-116 0 -213.5 -62.5t-166.5 -171.5l34 -68q54 -107 147 -168.5t207 -61.5 q68 0 126.5 16.5t138.5 50.5l12 -12q-181 -171 -465 -171q-183 0 -350 174q-145 -169 -333 -169q-162 0 -276 80.5t-114 193.5q0 208 317 367l135 66q-2 34 -2 49q0 105 40.5 195t102.5 145.5t133 86.5t136 31q66 0 113 -42.5t47 -102.5q0 -43 -25 -83t-72.5 -74.5 t-95.5 -60.5t-115 -56zM749 177q-94 102 -184 280q-54 108 -69 220l-55 -28q-82 -41 -123.5 -126.5t-41.5 -194.5q0 -116 69 -196.5t169 -80.5q123 0 235 126zM1008 549q128 110 286 110q63 0 110 -36.5t47 -91.5q0 -10 -2 -21q44 15 68.5 55t24.5 90q0 59 -44 101.5 t-105 42.5q-205 0 -385 -250zM1114 12q186 0 323 73q-55 -17 -135 -17q-137 0 -246 61t-166 175l-297 590q-7 17 -7 38q0 36 32 102q-102 -121 -102 -286q0 -15 2 -47q10 -115 69 -233q84 -168 180 -274q163 -182 347 -182zM221 328q0 153 111 264q-266 -145 -266 -326 q0 -99 105.5 -174t259.5 -75q31 0 64 6q-113 0 -193 89t-81 216zM863 867q155 89 155 194q0 49 -34 84.5t-81 35.5q-53 0 -113 -23q52 -8 86.5 -52.5t34.5 -101.5q0 -76 -48 -137z" />
<glyph unicode="'" horiz-adv-x="491" d="M190 1184h144v-33h-144v33zM190 1122h144v-16v-16h-144v32zM190 1061h142q-1 -11 -5 -33h-137v33zM246 952h-101v308h254v-154q0 -138 -82.5 -242t-212.5 -127l-3 17q145 78 145 198zM270 977v-25q0 -83 -67 -153q151 105 151 307v129h-184v-258h100z" />
<glyph unicode="(" horiz-adv-x="747" d="M469 1286h37q-4 -6 -10 -17t-10 -16h-55q12 11 38 33zM400 1225h69l-18 -33h-83zM341 1163h96q-2 -6 -8 -17t-8 -16h-107zM292 1102h115q-3 -6 -7 -17t-7 -16h-125zM250 1040h132q-2 -5 -6 -16t-6 -16h-140q2 4 20 32zM215 979h145q-4 -11 -10 -33h-151q10 22 16 33z M187 918h155q-2 -5 -4 -16t-4 -17h-160q2 6 6.5 17t6.5 16zM164 856h164q-1 -6 -3.5 -17t-3.5 -16h-166zM147 795h170q-4 -22 -5 -33h-172q4 22 7 33zM136 733h173l-3 -33h-174q2 22 4 33zM129 672h175q-1 -11 -1 -33h-176q0 11 2 33zM533 -98h-11q-34 25 -43 32h32 q4 -5 11.5 -15.5t10.5 -16.5zM458 25h-78q-21 21 -31 32h91q3 -5 9 -15.5t9 -16.5zM474 -4q12 -22 19 -33h-48l-36 33h65zM398 147h-121q-8 11 -22 33h130q8 -22 13 -33zM411 119l15 -33h-102q-18 22 -26 33h113zM374 209h-136l-18 33h143q2 -6 5.5 -17t5.5 -16zM337 332 h-158l-12 33h162q2 -11 8 -33zM344 303q1 -5 4.5 -16t5.5 -17h-149l-15 33h154zM304 578h-176q0 6 -0.5 16t-0.5 16h176q0 -6 0.5 -16t0.5 -16zM305 549q1 -5 1 -16t1 -17h-174l-3 33h175zM310 487q0 -5 2 -16t2 -16h-171q-1 5 -3 15.5t-3 16.5h173zM318 426q1 -6 2.5 -17 t2.5 -16h-165l-9 33h169zM82 614q0 281 169.5 510t457.5 367l2 -2q-322 -375 -322 -875q0 -499 322 -874l-2 -2q-288 138 -457.5 366.5t-169.5 509.5zM106 614q0 -248 137.5 -454.5t379.5 -348.5q-148 191 -223.5 387t-75.5 416t75.5 416t223.5 388q-241 -142 -379 -349 t-138 -455z" />
<glyph unicode=")" horiz-adv-x="747" d="M219 -98h-9q18 28 20 32h29q-9 -8 -40 -32zM353 25h-76q3 5 8 16t7 16h89q-10 -12 -28 -32zM326 -4q-22 -22 -34 -33h-46q3 5 8.5 16l8.5 17h63zM446 147h-118q2 5 5.5 16t5.5 17h127q-6 -11 -20 -33zM427 119l-24 -33h-99q2 6 6.5 17t6.5 16h110zM481 209h-133l9 33h141 q-5 -11 -17 -33zM534 332h-156q1 6 2.5 17t2.5 16h161q-6 -22 -10 -33zM524 303q-8 -22 -13 -33h-147q6 22 8 33h152zM579 578h-176v32h177q0 -6 -0.5 -16t-0.5 -16zM577 549l-3 -33h-173q1 11 1 33h175zM571 487q-1 -5 -2.5 -15.5t-2.5 -16.5h-170q0 6 1 16t1 16h173z M560 426q-2 -11 -8 -33h-164q2 11 4 33h168zM234 1286h35l36 -33h-53zM267 1225h66l30 -33h-80q-3 6 -8 17t-8 16zM296 1163h91q9 -11 25 -33h-102q-4 11 -14 33zM321 1102h111l21 -33h-121q-2 6 -5.5 17t-5.5 16zM342 1040h128q3 -5 8.5 -16t8.5 -16h-135q-2 6 -5 16t-5 16 zM359 979h142q3 -5 7.5 -16t6.5 -17h-148q-1 6 -3.5 17t-4.5 16zM374 918h153q2 -6 5.5 -17t5.5 -16h-158zM385 856h161l9 -33h-165q-1 11 -5 33zM393 795h168q1 -5 3.5 -16t3.5 -17h-171q-1 6 -2 17t-2 16zM399 733h173q0 -5 2 -16t2 -17h-175q-1 5 -1 16t-1 17zM402 672 h176q1 -11 1 -33h-176q0 5 -0.5 16t-0.5 17zM666 614q0 -280 -169.5 -507.5t-457.5 -366.5l-2 2q321 371 321 872q0 502 -321 873l2 2q288 -138 457.5 -366.5t169.5 -508.5zM600 614q0 251 -124.5 458.5t-349.5 342.5q257 -348 257 -801q0 -452 -257 -800q225 135 349.5 342 t124.5 458z" />
<glyph unicode="*" horiz-adv-x="808" d="M546 815q9 -6 27 -22q-3 -5 -7 -11h-68q-4 19 -5 33h53zM366 1184h69q-2 -11 -10 -33h-45q-6 11 -14 33zM593 1061h31q11 -16 14 -33h-78q15 18 33 33zM312 815q-2 -22 -4 -33h-71q-3 4 -7 12q14 14 26 21h56zM178 1061h35q15 -13 30 -33h-79q4 17 14 33zM337 985 q-98 -37 -153 -37q-34 0 -60 9q-7 22 -7 48q0 79 65 125q47 -16 81.5 -51t73.5 -94zM363 905q2 -34 2 -52q0 -103 -41 -160q-52 1 -92 30.5t-55 78.5q29 40 73 62t113 41zM474 985q20 30 34 48.5t33.5 40t41.5 36t47 22.5q63 -48 63 -123q0 -27 -8 -50q-29 -10 -61 -10 q-51 0 -150 36zM406 1034q-31 39 -47.5 63.5t-31 60.5t-14.5 71q43 29 90 29q52 0 93 -31q0 -50 -23 -94t-67 -99zM448 905q70 -19 115 -41t74 -63q-16 -48 -56.5 -76.5t-90.5 -28.5h-2q-42 58 -42 161q0 16 2 48zM289 997q-27 43 -49 67.5t-54 37.5q-45 -39 -45 -97 q0 -10 3 -28q22 -5 40 -5q41 0 105 25zM334 870q-90 -28 -129 -73q27 -64 102 -72q27 46 27 126v19zM512 997q65 -23 112 -23q26 0 33 2q3 15 3 33q0 51 -43 91q-52 -25 -105 -103zM405 1074q49 65 55 140q-33 19 -57 19q-35 0 -65 -17q5 -60 67 -142zM471 872v-15 q0 -87 30 -136q67 12 97 76q-43 46 -127 75z" />
<glyph unicode="+" horiz-adv-x="1064" d="M868 639q-3 -11 -7 -33h-691l6 33h692zM856 578l-5 -33h-292h-94h-305l5 33h691zM559 422h-94v33h94v-33zM559 393v-33h-94v33h94zM559 332v-33h-94v33h94zM559 270v-32h-94v32h94zM559 516v-33h-94v33h94zM465 946h94v-33h-94v33zM465 885h94v-33h-94v33zM465 823h94 v-32h-94v32zM465 762h94v-33h-94v33zM465 700h94v-32h-94v32zM645 696h318l-35 -204h-283v-310h-225v310h-318l41 241h2q3 -17 16.5 -27t31.5 -10h227v305h262v-4q-37 -13 -37 -51v-250zM580 672v274q0 18 6 31h-142v-305h-251q-20 0 -34 7l-28 -163h313v-309h136v309h286 l13 77q4 40 32 79h-331z" />
<glyph unicode="," horiz-adv-x="450" d="M225 4q-28 0 -52 12h129q-1 -8 -8 -32h-24q0 8 -6 14t-14 6h-25zM136 45q-15 19 -21 33h197q-2 -22 -4 -33h-172zM108 106q-2 10 -2 17q0 6 2 16h205v-4v-3.5v-4v-4.5v-17h-205zM115 168q6 14 21 33h156q9 -15 15 -33h-192zM173 229q26 13 52 13q19 0 39 -13h-91z M225 -41q-67 0 -115.5 48.5t-48.5 115.5t48.5 115.5t115.5 48.5q72 0 123 -48t51 -116q0 -142 -88.5 -248t-227.5 -131l-3 16q66 36 105.5 87t39.5 112zM225 -16h25v-25q0 -87 -69 -156q77 46 115 130t38 190q0 58 -32 98.5t-77 40.5q-58 0 -98.5 -40.5t-40.5 -98.5 t40.5 -98.5t98.5 -40.5z" />
<glyph unicode="-" horiz-adv-x="983" d="M178 403l6 33h568l-6 -33h-568zM189 465l5 30q5 -1 17 -1h555q-5 -11 -8 -29h-569zM123 348l41 242h2q3 -17 16 -27t31 -10h647l-35 -205h-702zM152 373h612l14 87q10 50 28 68h-593q-17 0 -33 8z" />
<glyph unicode="." horiz-adv-x="450" d="M116 168q7 16 22 33h152q9 -11 16 -33h-190zM108 139h204q1 -5 1 -16v-5.5v-6.5v-5h-205q-2 10 -2 17q0 6 2 16zM181 229q25 9 44 9q14 0 32 -9h-76zM292 45h-156q-15 19 -21 33h192q-6 -18 -15 -33zM264 16q-18 -12 -39 -12q-28 0 -52 12h91zM61 123q0 67 48.5 115.5 t115.5 48.5q72 0 123 -48t51 -116t-51 -116t-123 -48q-67 0 -115.5 48.5t-48.5 115.5zM86 123q0 -58 40.5 -98.5t98.5 -40.5q45 0 77 40.5t32 98.5q0 56 -32 95.5t-77 39.5q-58 0 -98.5 -39.5t-40.5 -95.5z" />
<glyph unicode="/" horiz-adv-x="1024" d="M169 -16q-10 19 -15 32h67l-19 -32h-33zM145 45q-3 11 -5 33h117l-19 -33h-93zM154 168q1 2 2.5 5.5t3 6.5t3.5 6q1 2 4 7t4 8h157l-19 -33h-155zM143 139h149l-19 -33h-134q2 27 4 33zM810 1307h1q15 -18 22 -33h-42zM774 1245h71q6 -17 9 -33h-98zM739 1184h118v-8 q0 -16 -1 -25h-136zM294 414q3 5 9.5 16t9.5 16h156l-18 -32h-157zM278 385h156q-3 -5 -9.5 -16.5t-9.5 -16.5h-156zM242 324h157l-19 -33h-157zM207 262h156l-19 -33h-156zM704 1122h146q-5 -20 -11 -32h-154q3 6 9.5 16t9.5 16zM668 1061h156l-19 -33h-156zM633 999h156 l-19 -32h-156zM597 938h156l-19 -33h-156q3 5 9.5 16t9.5 17zM562 877h156l-19 -33h-156zM526 815h156q-3 -5 -9.5 -16t-9.5 -17h-156zM491 754h156l-19 -33h-156zM455 692h156l-19 -33h-156zM420 631h156l-19 -33h-156q3 6 9.5 17t9.5 16zM384 569h156l-19 -32h-156z M349 508h156l-19 -33h-156zM901 1023l-676 -1171q-131 109 -131 244q0 61 30 112l676 1171q132 -110 132 -244q0 -59 -31 -112zM190 -79l655 1135q33 57 33 120q0 98 -72 165l-661 -1145q-27 -45 -27 -100q0 -92 72 -175z" />
<glyph unicode="0" horiz-adv-x="1413" d="M968 1122q30 -18 48 -32h-66q-7 16 -16 32h34zM1050 1061q17 -16 33 -33h-108l-12 33h87zM1107 999q4 -5 12 -15.5t12 -16.5h-137q-2 5 -5 15.5t-4 16.5h122zM1149 938l18 -33h-158q-4 22 -7 33h147zM1181 877q10 -22 14 -33h-175q-1 6 -2.5 17t-2.5 16h166zM1204 815 q1 -5 4.5 -16t5.5 -17h-186q0 6 -2 17t-2 16h180zM1221 754l6 -33h-193l-3 33h190zM1231 692q1 -5 1 -16t1 -17h-196q0 22 -1 33h195zM1235 631v-17v-16h-197v33h197zM1050 168h-83q2 5 6.5 16t6.5 17h103q-16 -17 -33 -33zM1016 139q-25 -20 -47 -33h-31q8 14 17 33h61z M1205 414h-177q0 6 1 16.5t2 15.5h183q-2 -5 -5 -16t-4 -16zM1195 385q-4 -11 -14 -33h-163l6 33h171zM1168 324l-18 -33h-144q3 11 7 33h155zM1132 262q-4 -5 -12.5 -16t-12.5 -17h-118q1 5 5 16t5 17h133zM1233 569q-1 -5 -1 -16t-1 -16h-194q0 5 0.5 16t0.5 16h195z M1227 508l-6 -33h-187q0 5 1 16t1 17h191zM460 1122q-21 -29 -23 -32h-56q24 17 51 32h28zM421 1061q-12 -22 -17 -33h-96q18 18 36 33h77zM392 999q-2 -5 -6 -15.5t-6 -16.5h-126q5 6 14.5 17t12.5 15h111zM371 938l-9 -33h-148q6 11 20 33h137zM356 877l-6 -33h-166l15 33 h157zM345 815q-2 -11 -4 -33h-180q3 11 11 33h173zM338 754q0 -5 -1 -16t-1 -17h-189q4 22 7 33h184zM335 692q0 -6 -0.5 -17t-0.5 -16h-195l3 33h193zM425 168h-81q-18 15 -36 33h100q5 -11 17 -33zM441 139q14 -22 22 -33h-30q-25 14 -52 33h60zM348 414h-176 q-9 25 -11 32h182q1 -9 5 -32zM352 385q1 -5 3.5 -16t3.5 -17h-160l-15 33h168zM365 324l9 -33h-140q-14 22 -20 33h151zM383 262q2 -5 6.5 -16t6.5 -17h-115q-18 22 -26 33h128zM334 631v-33h-197v16v17h197zM335 569q0 -21 1 -32h-194q0 6 -1 16.5t-2 15.5h196zM338 508 q0 -5 1 -16t1 -17h-186q-3 11 -7 33h191zM92 614q0 127 49 243t131 199.5t196 133t239 49.5t238.5 -49.5t196 -133t131 -199.5t48.5 -243t-48.5 -242.5t-131 -199t-196 -133t-238.5 -49.5q-167 0 -308.5 83.5t-224 227t-82.5 313.5zM993 594q0 167 -30 307t-86.5 226 t-128.5 90q-28 2 -41 2t-41 -2q-73 -5 -130 -86.5t-86.5 -211t-29.5 -284.5q0 -167 30 -307t87 -226t129 -90q28 -2 41 -2t41 2q73 5 129.5 86.5t86 211t29.5 284.5zM558 1195q-192 -51 -316.5 -212.5t-124.5 -368.5q0 -208 125.5 -369.5t318.5 -211.5q-117 97 -162 247.5 t-45 354.5q0 187 46 328t158 232zM852 1196q79 -72 122.5 -237t43.5 -365q0 -185 -42.5 -338t-120.5 -222q184 56 292 215t108 365q0 207 -109 367t-294 215z" />
<glyph unicode="1" horiz-adv-x="983" d="M225 754q0 -2 -4 -14t-6 -19h-6q-15 8 -28 20q13 6 26 13h18zM610 414h-176v32h176v-32zM610 385v-33h-176v33h176zM610 324v-33h-176v33h176zM610 262v-33h-176v33h176zM610 999v-32h-176v11l17 21h159zM610 938v-33h-176v33h176zM610 877v-33h-176v33h176zM610 815v-33 h-176v33h176zM610 754v-33h-176v33h176zM610 692v-33h-176v33h176zM610 631v-33h-176v33h176zM610 569v-32h-176v32h176zM610 508v-33h-176v33h176zM618 168h-191q5 16 6 33h179q2 -17 6 -33zM629 139q6 -13 18 -32h-245q13 24 16 32h211zM669 78q15 -18 33 -33h-347 q17 17 29 33h285zM568 1151q4 5 13 16t13 17h33l-6 -33h-53zM546 1122h71q-1 -5 -2 -16t-1 -16h-93q4 6 12.5 16.5t12.5 15.5zM499 1061h113q-1 -11 -1 -33h-138zM631 1004q0 100 20 200h-68l-169 -219v-760q0 -120 -116 -200h469q-136 80 -136 200v779zM389 961l-37 -48 q-28 -36 -49 -81.5t-31 -78t-26 -94.5q-88 20 -144 103q77 18 137.5 67.5t124.5 131.5l207 268h125v-1004q0 -77 57.5 -139.5t143.5 -81.5v-4h-709v4q86 19 143.5 81.5t57.5 139.5v736zM271 823q-61 -51 -127 -75q36 -41 84 -58q21 81 43 133z" />
<glyph unicode="2" horiz-adv-x="1218" d="M965 168q23 15 45 33h51q1 -6 1 -17t1 -16h-98zM919 139h145q0 -5 1 -16t1 -17h-211q31 14 64 33zM786 78h281q1 -6 1 -17t1 -16h-68q-119 18 -231 27q2 1 8 3t8 3zM1045 229q3 2 7 6.5t7 6.5q0 -2 0.5 -6.5t0.5 -6.5h-15zM287 1151h-89l1 33h111q20 -4 30 -5 q-22 -10 -53 -28zM244 1122q-30 -23 -39 -32h-9q0 6 0.5 16t0.5 16h47zM199 1212q0 2 0.5 6.5t0.5 6.5q12 -7 23 -13h-24zM937 967h-190q2 6 6 16.5t6 15.5h178q0 -2 0.5 -7.5t0.5 -8.5t-0.5 -8t-0.5 -8zM933 938q-3 -16 -9 -33h-205q6 11 16 33h198zM912 877 q-8 -17 -18 -33h-213l21 33h210zM874 815q-16 -22 -25 -33h-212q4 5 8 10.5t8.5 12t7.5 10.5h213zM825 754q-20 -22 -31 -33h-209q10 11 28 33h212zM766 692q-22 -22 -34 -33h-205q11 11 31 33h208zM702 631l-5 -5q-5 -5 -15 -14.5t-15 -13.5h-200l24 24q2 1 4.5 4t3.5 5 h203zM339 168h-166q2 6 6.5 17t6.5 16h167q-10 -22 -14 -33zM328 139q-4 -11 -10 -33h-164l9 33h165zM489 414h-181q9 13 25 32h184q-18 -20 -28 -32zM466 385l-24 -33h-176l21 33h179zM422 324l-21 -33h-172q3 5 9.5 16t9.5 17h174zM384 262q-3 -5 -8.5 -16l-8.5 -17h-169 q2 5 7.5 16l8.5 17h170zM637 569q-6 -5 -17.5 -15.5t-16.5 -16.5h-194q5 5 15 15.5t15 16.5h198zM575 508q-11 -11 -31 -33h-188l27 33h192zM235 78q-51 -7 -94 -20q1 5 5 20h89zM782 1122h100q18 -16 27 -32h-130q0 4 1 10.5t1.5 11.5t0.5 10zM775 1061h149q8 -22 10 -33 h-166q3 11 7 33zM782 1151q-2 14 -6 24q38 -9 66 -24h-60zM958 983q0 87 -55.5 147.5t-168.5 71.5q28 -26 28 -59q0 -71 -22 -138.5t-65.5 -132.5t-88.5 -117.5t-110 -117.5q-150 -150 -239.5 -291.5t-120.5 -309.5l-2 -9q88 35 216 38q0 6 2 18q22 80 59.5 152t93.5 140.5 t103.5 117t122.5 118.5q126 118 186.5 201t60.5 171zM92 41q32 173 123.5 317t243.5 296q134 134 206 248t72 241q0 26 -24 44.5t-58 18.5q-45 0 -94 -8q-171 -26 -287.5 -121t-124.5 -227h-4l12 475h4q67 -107 276 -107q54 0 124 5q90 6 135 6q136 0 232 -72t96 -174 q0 -48 -16 -96t-37 -85t-62.5 -84t-70.5 -76t-83 -79q-73 -68 -119.5 -115.5t-99 -111.5t-87 -130.5t-54.5 -139.5h49q208 0 384.5 77.5t283.5 227.5h4v-391q-325 61 -727 61q-99 0 -169 -10.5t-136 -44.5l-2 2zM437 1193q-174 0 -257 72l-6 -244q44 63 108.5 103t154.5 69z M645 60q226 -11 447 -51l-15 280q-165 -176 -432 -229z" />
<glyph unicode="3" horiz-adv-x="1372" d="M388 68q-5 1 -23 4.5t-28 5.5h42l2 -2q1 -1 2.5 -3t4.5 -5zM475 692q-18 -10 -33 -21l-1 21h34zM441 721v22q11 -11 25 -22h-25zM1153 414h-177q-1 6 -3 16.5t-3 15.5h166q9 -14 17 -32zM1164 385q3 -11 7 -33h-190q0 11 -2 33h185zM1173 324q0 -1 0.5 -3.5t0.5 -3.5 q0 -5 -1.5 -15t-1.5 -11h-193q0 4 1 10.5t1.5 12t0.5 10.5h192zM951 598h-50q-7 9 -23 27q37 -11 73 -27zM1007 569q26 -16 47 -32h-116q-6 13 -18 32h87zM1087 508q8 -7 29 -33h-154q-3 11 -11 33h136zM1096 168h-152q10 22 14 33h170q-16 -20 -32 -33zM1059 139 q-22 -15 -57 -33h-94q4 5 7.5 10.5t7.5 12t6 10.5h130zM933 78q-24 -9 -69 -20q11 9 20 20h49zM1164 262q-4 -11 -16 -33h-181q3 11 7 33h190zM205 168q12 6 24 6q17 0 35 -6h-59zM171 139h143q7 -5 37 -33h-198q7 20 18 33zM900 938h116q-4 -11 -14 -33h-106q2 11 4 33z M890 877h94q-13 -18 -28 -33h-76q4 11 10 33zM868 815h55q-24 -17 -56 -33h-18q5 6 19 33zM828 1151q-10 11 -32 31q60 -13 100 -31h-68zM851 1122h97q25 -17 39 -32h-117q-8 15 -19 32zM883 1061h126q10 -18 14 -33h-130q-6 22 -10 33zM899 999h127q0 -15 -3 -32h-122 q0 10 -2 32zM290 1184q-21 -12 -46 -33h-4v33h50zM240 1212v8q13 -7 18 -8h-18zM395 862h4q111 -155 222 -155h18q90 0 153.5 75t63.5 181t-83 180.5t-200 74.5q-152 -2 -260.5 -82.5t-113.5 -197.5h-4v369h2q58 -75 257 -75q41 0 119 4q54 3 103 3q181 0 308.5 -69 t127.5 -166q0 -121 -125 -212.5t-295 -91.5v-4q147 0 278.5 -52.5t210.5 -140.5t79 -186q0 -89 -81 -164.5t-220.5 -119t-303.5 -43.5q-128 0 -245 27q-121 28 -206 28q-63 0 -112 -16q0 76 40 133t97 57q50 0 92 -29t93 -84q89 -96 221 -96q125 0 213 96t88 232 q0 144 -83.5 246t-201.5 102h-30q-68 0 -124.5 -41.5t-95.5 -112.5h-4zM396 1209q-117 7 -177 45v-159q51 69 177 114zM777 732q117 22 193.5 97t76.5 175q0 84 -98.5 143.5t-239.5 66.5q77 -35 124.5 -102.5t47.5 -148.5q0 -70 -28 -131t-76 -100zM469 29q-37 22 -73 61 q-48 52 -86.5 78.5t-80.5 26.5q-38 0 -69.5 -37t-40.5 -97q45 9 85 9q85 0 211 -29q7 -1 25.5 -5.5t28.5 -6.5zM802 663q159 -107 159 -325q0 -103 -47.5 -186.5t-135.5 -130.5q177 22 296.5 103.5t119.5 192.5q0 127 -112 222.5t-280 123.5zM544 697q-64 27 -124 98l1 -168 q46 48 123 70z" />
<glyph unicode="4" horiz-adv-x="1454" d="M147 385h285q2 -14 13 -33h-298v33zM165 414l26 32h241q-2 -11 -2 -32h-265zM754 1151l16 21l9 12h74q5 -14 9 -33h-108zM731 1122h134q0 -2 0.5 -5t0.5 -5q0 -15 -1 -22h-160q5 5 13 15.5t13 16.5zM682 1061h178q-4 -17 -12 -33h-192q5 5 13.5 16t12.5 17zM633 999h200 q-10 -15 -18 -25l-6 -7h-203q5 6 14 16.5t13 15.5zM584 938h202l-27 -33h-202zM535 877h201q-4 -5 -12.5 -16t-13.5 -17h-202zM485 815h202q-5 -5 -13 -16t-13 -17h-202zM436 754h202q-4 -5 -13 -16t-13 -17h-202zM387 692h202q-4 -6 -12.5 -17t-13.5 -16h-202zM338 631h202 l-27 -33h-201zM289 569h201q-1 -1 -2.5 -3.5t-2.5 -3.5q-6 -6 -18 -25h-204zM240 508h211q-7 -16 -12 -33h-225zM803 1245h10q16 -16 26 -33h-45q6 16 9 33zM1340 324h7l4 -33h-9q-6 4 -28 16q8 5 26 17zM915 414v17l13 15h133v-32h-146zM915 385h146v-33h-146v33zM915 324 h146v-33h-146v33zM915 262h146v-33h-146v33zM1050 598q3 3 9 11t9 11q-1 -4 -1.5 -11t-0.5 -11h-16zM1027 569h36q-1 -11 -1 -32h-61zM978 508h83v-6v-27h-110zM1069 168h-161q4 16 6 33h148q1 -11 7 -33zM1080 139q6 -13 18 -32h-214q10 19 15 32h181zM1120 78 q17 -19 34 -33h-317q13 13 28 33h255zM870 446l277 345v-475l27 -1q129 0 225 129h4l-2 -276h-4q-35 61 -93 94t-130 33h-27v-70q0 -77 57.5 -139.5t143.5 -81.5v-4h-678v4q86 19 143 81.5t57 139.5v71l-768 1v111l633 792q25 31 25 71q0 29 -12 58l2 2q82 -21 133.5 -92.5 t51.5 -158.5t-54 -154l-330 -412q-58 -74 -58 -129q0 -28 46.5 -48t111.5 -20h219v129zM895 225q0 -120 -116 -200h438q-61 36 -98.5 88.5t-37.5 111.5v277q0 97 21 188l-2 2l-205 -254v-213zM1263 306q67 -21 114 -70l-14 132q-46 -42 -100 -62zM507 321q-57 27 -57 91 q0 71 51 138l330 412q55 69 55 150q0 58 -27 105.5t-76 75.5q2 -8 2 -22q0 -49 -31 -86l-627 -786v-77z" />
<glyph unicode="5" horiz-adv-x="1341" d="M300 1151l1 29h608h146q-6 -20 -9 -29h-746zM1031 1122q-10 -15 -27 -32h-658q-20 15 -32 32h717zM960 1061q-27 -12 -59 -12h-397q-54 0 -98 12h554zM291 815q14 -22 24 -33h-33l1 33h8zM342 754q17 -16 43 -33h-107l2 33h62zM354 692q-40 -14 -78 -14q0 2 0.5 6.5 t0.5 7.5h77zM1152 414h-177q-1 5 -4 16t-5 16h182q2 -12 4 -32zM958 692q27 -12 56 -33h-195q-23 18 -48 33h187zM1049 631q17 -15 30 -33h-197q-3 4 -9 11t-11 12.5t-10 9.5h197zM1100 569q11 -17 19 -32h-193q-9 14 -22 32h196zM1131 508q8 -22 11 -33h-187q-4 11 -14 33 h190zM1054 168h-94q8 22 11 33h113q-18 -22 -30 -33zM1022 139q-20 -16 -49 -33h-45q5 6 19 33h75zM1153 385q0 -11 -2 -33h-166q-2 22 -4 33h172zM1145 324q-1 -4 -2.5 -10.5t-3 -12t-3.5 -10.5h-149v16v17h158zM1124 262q-5 -11 -19 -33h-126q4 22 5 33h140zM230 106v3 q0 16 9 30h150q12 -9 38 -33h-197zM260 1229h649q80 0 141 56.5t80 144.5h5v-222q0 -85 -60 -144.5t-145 -59.5h-426q-168 0 -230 97l-2 -44v-16q0 -129 70 -220.5t168 -91.5q58 0 144 19q95 20 163 20q175 0 298.5 -111t123.5 -268q0 -108 -74 -200t-201.5 -145.5 t-277.5 -53.5q-104 0 -252 39q-100 26 -154 26q-40 0 -65 -14q-30 30 -30 68q0 46 36 78t86 32q33 0 67.5 -17.5t55.5 -36t58 -55.5q100 -100 188 -100q110 0 188 87t78 210q0 165 -112.5 282.5t-272.5 117.5q-55 0 -146 -40q-78 -34 -137 -34q-20 0 -45 10l27 518zM546 28 q-33 22 -75 64q-53 53 -89 78t-75 25q-41 0 -69 -25.5t-28 -60.5q0 -21 12 -38q23 8 58 8q60 0 160 -26q49 -13 106 -25zM646 721q139 -33 230 -148.5t91 -265.5q0 -89 -40.5 -163.5t-109.5 -117.5q155 31 255.5 131t100.5 232q0 147 -104 250.5t-252 103.5q-69 0 -158 -19 q-2 0 -6.5 -1t-6.5 -2zM268 911l-13 -251q15 -3 19 -3q55 0 127 32q36 16 55 23q-64 18 -114 71t-74 128zM279 1126q8 -1 16 -11q56 -87 209 -87h397q71 0 121.5 51.5t58.5 128.5l9 83q-74 -87 -181 -87h-627z" />
<glyph unicode="6" d="M1162 414h-171q-3 19 -7 32h175q0 -1 3 -32zM984 692q27 -14 51 -33h-185q-21 17 -47 33h181zM1067 631q13 -13 28 -33h-185q-18 22 -29 33h186zM1114 569q2 -3 8.5 -14.5t9.5 -17.5h-183q-8 15 -19 32h184zM1143 508q4 -11 10 -33h-178q-1 4 -3.5 10.5t-4.5 12t-4 10.5 h180zM1070 168h-103q8 22 11 33h120q-23 -28 -28 -33zM1038 139q-18 -16 -46 -33h-55q8 14 17 33h84zM1163 385q0 -11 -2 -33h-164q0 11 -2 33h168zM1156 324q-3 -16 -9 -33h-152q2 22 2 33h159zM1135 262q-5 -11 -17 -33h-133l6 33h144zM1084 1184l-2 -33h-32l-44 33h78z M476 1122q-25 -30 -26 -32h-73q19 14 51 32h48zM430 1061q-7 -11 -19 -33h-106q18 18 36 33h89zM396 999q-2 -6 -7 -16.5t-7 -15.5h-129q1 2 26 32h117zM371 938q-8 -22 -11 -33h-147q6 11 20 33h138zM352 877q-6 -22 -8 -33h-161l15 33h154zM339 815q-1 -5 -2.5 -16 t-2.5 -17h-173q3 11 11 33h167zM330 754l-3 -33h-180q4 22 7 33h176zM325 692q-1 -10 -1 -29v-4h-185l3 33h183zM434 168h-86q-6 5 -37 33h104q12 -22 19 -33zM453 139q16 -22 25 -33h-40q-29 16 -53 33h68zM345 414h-172q-9 25 -11 32h177q1 -6 3 -16t3 -16zM351 385 q4 -22 7 -33h-158l-15 33h166zM366 324q3 -11 11 -33h-141q-4 6 -10.5 17t-9.5 16h150zM387 262q4 -11 14 -33h-117l-27 33h130zM324 631q0 -5 0.5 -16t0.5 -17h-188v16v17h187zM326 569q0 -6 1 -16t2 -16h-187q0 6 -1 16.5t-2 15.5h187zM331 508q1 -6 2 -17t2 -16h-181 q-3 11 -7 33h184zM952 338q0 149 -95.5 253.5t-231.5 104.5q-86 0 -215 -50q1 -173 42.5 -319.5t111.5 -231.5t153 -85q97 0 166 96t69 232zM410 669q239 99 444 99q163 0 279 -111t116 -268q0 -108 -71 -200t-193.5 -145.5t-267.5 -53.5q-127 0 -243 49.5t-199.5 133 t-133 199t-49.5 242.5t48 243t129 199.5t192.5 133t234.5 49.5q49 0 103 -3q78 -4 111 -4q162 0 220 75h3v-410h-5q0 132 -114.5 225.5t-276.5 95.5q-133 0 -228.5 -160.5t-98.5 -388.5zM619 1209q-140 -20 -255 -103t-181 -213t-66 -279q0 -216 137.5 -381.5t345.5 -206.5 q-252 159 -256 637q3 91 20 172t49.5 153t84.5 129t121 92zM917 1207q117 -48 180 -138l11 183q-66 -45 -191 -45zM646 720q139 -9 235 -119.5t96 -262.5q0 -99 -38 -183.5t-102 -129.5q151 30 249 131t98 233q0 147 -96.5 250.5t-233.5 103.5q-105 0 -208 -23z" />
<glyph unicode="7" horiz-adv-x="1228" d="M1081 1151h-964v29h973q-3 -17 -9 -29zM1066 1122q-8 -12 -30 -32h-919v32h949zM988 1061q-30 -12 -66 -12h-625q-48 0 -96 -21h-84v33h871zM152 999q-20 -15 -35 -30v30h35zM602 45h-173q-11 16 -17 33h203q-3 -14 -13 -33zM581 16q-24 -22 -49 -22q-40 0 -73 22h122z M620 106l-216 1q-1 5 -1 16q0 3 0.5 8t0.5 8h217v-16q0 -3 -0.5 -9t-0.5 -8zM405 168q1 11 5 33h213q-2 -22 -2 -33h-216zM488 414q2 4 20 32h147q-1 -6 -3.5 -16t-3.5 -16h-160zM472 385h171q-1 -5 -2.5 -16t-2.5 -17h-182q10 22 16 33zM444 324h190q0 -6 -1.5 -17 t-2.5 -16h-198zM423 262h204l-3 -33h-209q2 11 8 33zM720 692h13q-10 -22 -14 -33h-33q22 22 34 33zM657 631h51q-2 -5 -5.5 -16t-5.5 -17h-70zM601 569h86q-1 -5 -4 -16t-5 -16h-104q5 6 14 16.5t13 15.5zM551 508h119q-2 -6 -4 -17t-4 -16h-135zM641 123q0 382 168 675 q-209 -176 -317.5 -340t-108.5 -335q0 -62 43.5 -106t105.5 -44q45 0 77 44t32 106zM1178 1229v-51q0 -49 -34.5 -92.5t-95.5 -95.5q-169 -146 -255 -379t-86 -488q0 -72 -51.5 -123t-123.5 -51t-123 51t-51 123q0 94 32.5 187t88.5 176.5t143.5 173t184.5 169.5t223 172 q24 18 52 41q-70 -38 -160 -38h-625q-77 0 -139.5 -57.5t-81.5 -143.5h-4v426h1106zM1112 1204h-1016v-291q36 53 88.5 84t112.5 31h625q79 0 134.5 51.5t55.5 124.5z" />
<glyph unicode="8" horiz-adv-x="1392" d="M490 1122q3 -31 3 -32h-133q21 16 49 32h81zM498 1061q1 -5 2.5 -10.5t3.5 -12t3 -10.5h-199q5 11 23 33h167zM516 999q2 -6 14 -32h-232q-1 5 -1 16q0 4 2 16h217zM545 938q6 -11 20 -33h-249q-10 22 -13 33h242zM586 877q8 -11 26 -33h-258q-8 11 -22 33h254zM638 815 l33 -33h-261q-11 11 -31 33h259zM703 754l39 -33h-262l-39 33h262zM779 692l45 -33h-264q-30 22 -44 33h263zM865 631l48 -33h-268l-45 33h265zM1148 414h-280q-6 5 -17 15.5t-16 16.5h280q23 -22 33 -32zM1171 385q16 -22 22 -33h-273q-8 11 -26 33h277zM1206 324 q7 -18 8 -33h-254q-6 11 -20 33h266zM956 569q4 -3 21 -14.5t26 -17.5h-275q-9 7 -43 32h271zM1042 508q28 -22 41 -33h-279l-39 33h277zM1168 168h-164q-2 11 -8 33h197q-12 -18 -25 -33zM1136 139q-22 -17 -53 -33h-75q1 5 1 16q0 5 -2 17h129zM1015 78l-18 -6l3 6h15z M1214 262q-1 -15 -8 -33h-219q-8 22 -13 33h240zM470 1151q2 1 8.5 3.5t10.5 3.5v-7h-19zM287 446q-4 -12 -8 -32h-112q7 11 26 32h94zM275 385q0 -3 -0.5 -7t-0.5 -7t0.5 -9.5t0.5 -9.5h-135q3 15 11 33h124zM319 508q-5 -6 -19 -33h-75q21 17 50 33h44zM347 168h-112 q-19 15 -37 33h126q7 -11 23 -33zM372 139q23 -23 35 -33h-65q-38 16 -64 33h94zM445 78q3 -2 9.5 -6.5t10.5 -6.5q-28 7 -46 13h26zM278 324q4 -22 7 -33h-143q-5 18 -5 33h141zM294 262q4 -11 14 -33h-135q-13 18 -20 33h141zM1017 938h56q-8 -19 -20 -33h-41q3 11 5 33z M1002 877h23q-14 -13 -35 -24zM931 1151q-2 2 -6 5.5t-6 5.5q9 -3 27 -11h-15zM957 1122h42q24 -15 41 -32h-60q-10 16 -23 32zM995 1061h69q9 -15 16 -33h-73q-5 16 -12 33zM1014 999h71v-5q0 -18 -2 -27h-65q-2 20 -4 32zM913 801q84 20 138.5 72.5t54.5 120.5 q0 83 -90 142.5t-224 74.5q91 -32 148 -101t57 -156q0 -95 -84 -153zM442 585q-142 -21 -233.5 -97t-91.5 -164q0 -110 142.5 -199t362.5 -107q-144 41 -235.5 136t-91.5 217q0 68 39.5 123.5t107.5 90.5zM509 1148q0 26 23 44q-115 -29 -185.5 -87t-70.5 -122q0 -41 21 -85 t48.5 -78.5t76.5 -77t82 -67.5t88 -64q61 -43 93.5 -67.5t86.5 -68.5t84.5 -79t64 -81t49.5 -94.5t18 -99.5q0 -52 -54 -86q148 30 224.5 96t76.5 145q0 43 -23 86.5t-68.5 86t-89.5 76t-108 76.5q-56 37 -86.5 58.5t-84 61.5t-84.5 70t-70.5 75t-60.5 85.5t-36 92 t-15 104.5zM725 1239q180 0 307 -72t127 -173q0 -92 -97.5 -158t-237.5 -70q61 -46 158 -111q60 -40 97 -67t84 -68t73.5 -75.5t45 -79t18.5 -89.5q0 -78 -77.5 -143.5t-211 -104t-290.5 -38.5q-173 0 -318 44.5t-228 121.5t-83 168q0 118 130 205t317 87h4q-69 51 -110 84 t-88.5 82t-70 98.5t-22.5 102.5q0 69 64 128t173 93.5t236 34.5zM571 596h-6q-90 0 -152.5 -67t-62.5 -158q0 -145 124.5 -248t303.5 -103q76 0 130.5 30t54.5 71q-2 41 -14.5 81t-29.5 72t-48.5 69t-57 62.5t-71 62t-74.5 58t-82 59.5zM797 787q74 5 125 53t51 114 q0 106 -90.5 180t-218.5 74q-44 0 -77 -16.5t-33 -40.5q5 -102 68 -189.5t175 -174.5z" />
<glyph unicode="9" d="M389 1122q-8 -10 -22 -32h-76q16 12 52 32h46zM351 1061q-10 -22 -14 -33h-114q21 23 33 33h95zM328 999q-7 -24 -8 -32h-140q7 13 21 32h127zM316 938q-2 -22 -2 -33h-158q3 11 11 33h149zM314 877q0 -11 2 -33h-169q0 16 3 33h164zM320 815q2 -11 8 -33h-175 q-4 22 -5 33h172zM337 754q8 -22 13 -33h-180q-8 22 -11 33h178zM365 692q6 -11 20 -33h-182q-7 11 -19 33h181zM407 631q25 -28 31 -33h-182q-14 13 -31 33h182zM471 569q19 -14 51 -32h-171q-36 15 -59 32h179zM895 168q6 11 16 33h109q-20 -23 -32 -33h-93zM879 139h75 q-24 -19 -46 -33h-50q3 4 6.5 9.5t8 12.5t6.5 11zM973 414q4 23 5 32h174q-5 -18 -10 -32h-169zM968 385h164q-4 -11 -14 -33h-157q1 6 3.5 17t3.5 16zM954 324h151q-3 -6 -9.5 -17t-9.5 -16h-141zM935 262h133l-24 -33h-121zM986 537q0 4 0.5 13.5t0.5 14.5v4h185 q0 -6 -1 -16t-2 -16h-183zM984 508h181l-6 -33h-178zM854 1122h47q30 -18 48 -32h-75q-8 16 -20 32zM889 1061h94q5 -4 10.5 -9.5t12 -12.5t10.5 -11h-112zM915 999h126q16 -19 25 -32h-139q-2 6 -6 16.5t-6 15.5zM936 938h148q7 -11 19 -33h-158zM952 877h165 q10 -22 14 -33h-171q-2 11 -8 33zM965 815h176q4 -11 10 -33h-181q-1 6 -2.5 17t-2.5 16zM974 754h184q1 -5 3.5 -16t3.5 -17h-187q0 6 -2 17t-2 16zM981 692h188l3 -33h-188zM985 631h188q0 -3 0.5 -9t0.5 -8t-0.5 -8t-0.5 -8h-186q0 11 -2 33zM327 78h76q4 -3 11 -9.5 t10 -9.5q-12 2 -37 7q-31 6 -60 12zM283 139h26q21 -6 58 -33h-119q9 25 35 33zM498 27q-33 22 -57 44q-98 91 -144 91q-29 0 -50.5 -20.5t-21.5 -47.5q0 -11 13 -27q51 -1 146 -21q51 -10 114 -19zM942 583q-1 173 -42.5 319.5t-111.5 231.5t-153 85q-98 0 -167 -96 t-69 -232q0 -149 96 -254t232 -105q84 0 215 51zM942 560q-239 -99 -444 -99q-164 0 -280 111t-116 268q0 108 71.5 200t194 145.5t267.5 53.5q127 0 243 -49.5t199.5 -133t133 -199.5t49.5 -243t-48 -242.5t-129 -199t-193 -133t-235 -49.5q-125 0 -276 32q-100 21 -152 21 q-26 26 -26 51q0 38 28.5 65t67.5 27q55 0 160 -97q84 -79 168 -79q85 0 157.5 73.5t115 200t44.5 276.5zM743 21q194 33 322.5 200.5t128.5 392.5q0 217 -125.5 382.5t-317.5 206.5q99 -72 156.5 -246t59.5 -391q-5 -189 -64 -335.5t-160 -209.5zM514 1204 q-170 -31 -278.5 -133t-108.5 -231q0 -147 108.5 -251t262.5 -104q104 0 207 23q-154 1 -262.5 113t-108.5 270q0 101 46.5 182.5t133.5 130.5z" />
<glyph unicode=":" horiz-adv-x="491" d="M137 168q7 16 22 33h151q10 -13 17 -33h-190zM128 139h205q1 -5 1 -16q0 -12 -1 -17h-205q-1 5 -1 17q0 11 1 16zM202 229q25 9 44 9q14 0 32 -9h-76zM312 45h-156q-13 16 -20 33h191q-6 -18 -15 -33zM284 16q-18 -12 -38 -12q-29 0 -53 12h91zM82 123q0 67 48 115.5 t116 48.5q72 0 123 -48t51 -116t-51 -116t-123 -48q-68 0 -116 48.5t-48 115.5zM106 123q0 -58 41 -98.5t99 -40.5q45 0 76.5 40.5t31.5 98.5q0 56 -31.5 95.5t-76.5 39.5q-58 0 -99 -39.5t-41 -95.5zM137 741q7 16 22 33h151q10 -14 17 -33h-190zM128 713h205q1 -5 1 -17 q0 -11 -1 -16h-205q-1 5 -1 16q0 12 1 17zM202 803q22 8 44 8q16 0 32 -8h-76zM312 618h-156q-13 16 -20 33h191q-6 -18 -15 -33zM284 590q-18 -12 -38 -12q-29 0 -53 12h91zM82 696q0 68 48 116t116 48q72 0 123 -48t51 -116t-51 -116t-123 -48q-68 0 -116 48t-48 116z M106 696q0 -58 41 -98.5t99 -40.5q45 0 76.5 40.5t31.5 98.5q0 56 -31.5 95.5t-76.5 39.5q-58 0 -99 -39.5t-41 -95.5z" />
<glyph unicode=";" horiz-adv-x="491" d="M246 4q-29 0 -53 12h130q-1 -6 -4.5 -18t-4.5 -14h-23q0 8 -6.5 14t-14.5 6h-24zM156 45q-13 16 -20 33h196q-2 -22 -4 -33h-172zM128 106q-1 5 -1 17q0 11 1 16h205q1 -5 1 -16v-17h-206zM136 168q7 17 20 33h156q9 -15 15 -33h-191zM193 229q26 13 53 13q18 0 38 -13 h-91zM246 -41q-68 0 -116 48.5t-48 115.5t48 115.5t116 48.5q72 0 123 -48t51 -116q0 -142 -88.5 -248t-227.5 -131l-3 16q66 36 105.5 87t39.5 112zM246 -16h24v-25q0 -87 -69 -156q77 46 115 130t38 190q0 58 -31.5 98.5t-76.5 40.5q-58 0 -99 -40.5t-41 -98.5t41 -98.5 t99 -40.5zM137 741q7 16 22 33h151q10 -14 17 -33h-190zM128 713h205q1 -5 1 -17q0 -11 -1 -16h-205q-1 5 -1 16q0 12 1 17zM202 803q22 8 44 8q16 0 32 -8h-76zM312 618h-156q-13 16 -20 33h191q-6 -18 -15 -33zM284 590q-18 -12 -38 -12q-29 0 -53 12h91zM82 696 q0 68 48 116t116 48q72 0 123 -48t51 -116t-51 -116t-123 -48q-68 0 -116 48t-48 116zM106 696q0 -58 41 -98.5t99 -40.5q45 0 76.5 40.5t31.5 98.5q0 56 -31.5 95.5t-76.5 39.5q-58 0 -99 -39.5t-41 -95.5z" />
<glyph unicode="&#x3c;" horiz-adv-x="1064" d="M840 999h1q-4 -19 -5 -32h-53q9 6 28 16.5t29 15.5zM732 938h104v-33h-5q-51 25 -100 33h1zM359 692q3 -17 11 -33h-127l58 33h58zM386 631q11 -17 29 -33h-218l-31 17l27 16h193zM449 569q19 -14 51 -32h-196l-57 32h202zM716 414h-196l-57 32h195zM766 385l58 -33h-196 l-57 33h195zM550 508l58 -33h-196l-57 33h195zM825 324v-33h-89l-57 33h146zM825 262v-22l-38 22h38zM907 1090h4v-291q-116 98 -233 98q-67 0 -123 -33l-33 -18q-58 -33 -89.5 -61t-31.5 -64q0 -25 19.5 -49t41.5 -39t60 -37l389 -221v-236l-798 455v43zM388 765l-251 -142 v-15l709 -403v158l-336 191q-133 77 -133 167q0 20 11 44zM661 921q3 0 9 0.5t8 0.5q89 0 178 -53v78q0 63 31 103z" />
<glyph unicode="=" horiz-adv-x="1187" d="M176 741q1 2 3.5 16.5t2.5 16.5h775l-6 -33h-775zM193 836h775q0 -3 -1 -8.5t-2 -8.5t-2 -8t-1 -8h-775zM188 406l6 32h17h764q-7 -15 -11 -32h-776zM183 377h775q-1 -6 -2.5 -17t-2.5 -16h-775zM152 311h816l13 74q8 52 32 82h-800q-19 0 -33 7zM123 287l41 241h2 q3 -17 16 -26.5t31 -9.5h852l-35 -205h-907zM123 696l41 242h2q3 -17 16 -27t31 -10h852l-35 -205h-907zM152 721h816l13 74q8 52 32 82h-800q-19 0 -33 7z" />
<glyph unicode="&#x3e;" horiz-adv-x="1064" d="M333 291h-134v33h35q52 -25 100 -33h-1zM282 262l-57 -33h-26v33h83zM587 659q-3 2 -11 6.5t-11 6.5l-36 20h196l57 -33h-195zM631 631h201l34 -19v-14h-197q-16 17 -38 33zM691 569h131l-58 -32h-59q-4 15 -14 32zM205 877h196l57 -33h-195zM313 815h196l57 -33h-195z M421 754h196l57 -33h-195zM199 938h94l57 -33h-151v33zM158 139h-4v291q116 -98 233 -98q67 0 123 33l33 18q58 33 89.5 61t31.5 64q0 25 -19.5 49t-41.5 39t-60 37l-389 221v236l798 -455v-43zM677 464l210 119v40l-709 404v-159l377 -214q63 -36 98 -70t35 -76 q0 -20 -11 -44zM404 308q-3 0 -9 -0.5t-8 -0.5q-106 0 -209 73v-201z" />
<glyph unicode="?" horiz-adv-x="1249" d="M402 168q7 17 20 33h156q9 -15 15 -33h-191zM394 139h205q1 -5 1 -16q0 -12 -1 -17h-205q-1 5 -1 17q0 11 1 16zM459 229q26 13 53 13q18 0 38 -13h-91zM578 45h-156q-13 16 -20 33h192q-5 -14 -16 -33zM550 16q-18 -12 -38 -12q-29 0 -53 12h91zM730 1184 q56 -10 109 -33h-86q-17 18 -36 33h13zM893 1122q26 -16 43 -32h-140q-8 16 -20 32h117zM964 1061q7 -8 23 -33h-167q-3 11 -11 33h155zM1002 999q6 -13 11 -32h-186q0 10 -2 32h177zM1018 938q2 -18 2 -27v-6h-204q6 14 9 33h193zM1013 877q-6 -17 -18 -33h-219 q14 14 26 33h211zM972 815q-18 -18 -37 -33h-232q19 13 43 33h226zM894 754q-39 -24 -59 -33h-232q3 1 8.5 4.5t8.5 5.5q13 7 39 23h235zM769 692q-21 -9 -63 -33h-196q23 18 46 33h213zM663 631q-13 -9 -41 -33h-164q6 14 22 33h183zM593 569q-14 -15 -26 -32h-109 q-5 17 -5 32h140zM550 508q-10 -18 -14 -33h-33q-20 14 -32 33h79zM244 1184l-43 -33h-43v33h86zM171 1122q-5 -5 -13 -15v15h13zM1106 911q0 -92 -78 -165t-206 -125q-236 -96 -236 -218q-74 0 -126 48.5t-52 117.5q0 57 49.5 103t140.5 98q89 51 136.5 94.5t47.5 98.5 q0 104 -83.5 177.5t-202.5 73.5q-158 -2 -268.5 -100t-110.5 -237h-4v430h2q36 -47 98.5 -61t158.5 -14q35 0 119 4q65 3 123 3q133 0 246.5 -44t179.5 -119.5t66 -164.5zM348 123q0 67 48 115.5t116 48.5q72 0 123 -48t51 -116t-51 -116t-123 -48q-68 0 -116 48.5 t-48 115.5zM336 1208q-67 1 -113 9t-86 35v-210q67 115 199 166zM623 1214q85 -33 134.5 -100t49.5 -151q0 -33 -15.5 -63t-46 -57t-60.5 -47.5t-75 -46.5q-44 -25 -67.5 -40.5t-53.5 -39.5t-43.5 -48.5t-13.5 -51.5q0 -50 33 -88t85 -49q0 68 75 139t173 111 q111 45 176.5 106t65.5 123q0 127 -115.5 214t-301.5 89zM373 123q0 -58 40.5 -98.5t98.5 -40.5q45 0 77 40.5t32 98.5t-32 98.5t-77 40.5q-58 0 -98.5 -40.5t-40.5 -98.5z" />
<glyph unicode="@" horiz-adv-x="1761" d="M559 168q-27 14 -47 33h100q23 -23 37 -33h-90zM427 385h101q1 -11 5 -33h-103q-3 16 -3 33zM436 324h103q5 -16 12 -33h-104q-8 22 -11 33zM462 262h103q9 -17 22 -33h-103q-10 13 -22 33zM427 414q1 9 5 32h97q-2 -22 -2 -32h-100zM559 631h62q-11 -11 -29 -33h-75 q19 18 42 33zM489 569h83q-15 -27 -17 -32h-89q14 22 23 32zM451 508h92q-6 -16 -9 -33h-95q5 17 12 33zM1038 229q0 1 -0.5 4t-0.5 4v5l1 20h93q2 -23 6 -33h-99zM1044 201h107q11 -17 29 -33h-115q-13 14 -21 31v2zM1046 414q0 5 1 15.5t1 16.5h92l-2 -32h-92zM1045 385 h92q-1 -5 -1 -16t-1 -17h-92q1 6 1 17t1 16zM1041 324h93l-2 -33h-92zM1052 537l2 27v5h92l-2 -32h-92zM1051 508h92q-1 -5 -1 -16t-1 -17h-92q1 5 1 16t1 17zM1041 631h111q-2 -11 -4 -33h-96q-3 15 -11 33zM1223 139l14 -6q-24 -6 -57 -6q-44 0 -74 12h117zM730 724 q65 0 137 -26l-2 -4q-104 0 -178 -83t-74 -202q0 -107 66 -182t160 -75q69 0 161 39q-8 24 -8 46v7l17 322v6q0 39 -28 70.5t-72 43.5l3 4l212 27h116l-23 -442v-7q0 -42 42 -77t99 -35q47 0 86 23q101 57 158 145.5t57 196.5q0 131 -60 251t-161.5 206.5t-242 137.5 t-294.5 51q-162 0 -310 -60t-255 -161.5t-170.5 -241.5t-63.5 -294t63.5 -294.5t170.5 -242t255 -161.5t310 -60q365 0 604 275l15 -13q-246 -283 -619 -283q-167 0 -318.5 61.5t-261 166t-174.5 249t-65 302.5t65 302.5t174.5 248.5t261 165.5t318.5 61.5 q211 0 390.5 -89.5t283.5 -243t104 -334.5q0 -112 -59 -205t-164 -153q-59 -34 -134 -57t-142 -23q-129 0 -173 90q-193 -77 -341 -77q-118 0 -201 87t-83 210q0 140 102.5 235.5t245.5 95.5zM1026 191q42 -84 154 -84q64 0 148 27q-74 4 -125.5 42t-51.5 92q0 2 0.5 4 t0.5 4l16 314q3 55 25 102h-67l-142 -18q49 -42 49 -102v-7l-16 -322v-6q0 -21 9 -46zM793 132q-106 13 -175.5 92t-69.5 185q0 98 59 175.5t158 113.5q-18 2 -35 2q-134 0 -229 -89t-95 -218q0 -113 76.5 -192.5t183.5 -79.5q63 0 127 11z" />
<glyph unicode="A" horiz-adv-x="1566" d="M672 967q-18 9 -41 9h-5q-6 1 -7 0l10 23h267q2 -5 6 -15.5t6 -16.5h-236zM707 938h213q0 -1 1 -2.5t1 -2.5l11 -28h-202q-16 24 -24 33zM747 877h198l14 -33h-196q-5 11 -16 33zM776 815h195l13 -33h-194q-2 6 -6.5 17t-7.5 16zM694 1151q2 5 6.5 16t7.5 17h132 q1 -5 4 -16t4 -17h-154zM681 1122h174q2 -6 5 -16.5t5 -15.5h-198q3 5 7.5 15.5t6.5 16.5zM655 1061h219q2 -6 5.5 -17t5.5 -16h-244q3 6 7 17t7 16zM996 754q2 -5 7 -16t7 -17h-195l-14 33h195zM1021 692l14 -33h-194l-14 33h194zM1047 631l14 -33h-195q-2 5 -6.5 16 t-6.5 17h194zM1072 569l14 -32h-194l-14 32h194zM1098 508q2 -5 6 -16t7 -17h-193l-14 33h194zM1123 446q1 -2 3 -6.5t3 -6.5t3.5 -8.5t4.5 -10.5h-194l-13 32h193zM1269 168h-223l-14 33h215q14 -22 22 -33zM1291 139l27 -33h-247q-3 6 -7 17t-6 16h233zM1344 78l33 -33 h-280q-2 6 -7 17t-7 16h261zM1149 385l15 -33h-195l-14 33h194zM1178 324q5 -11 17 -33h-201l-13 33h197zM1210 262q12 -22 19 -33h-209q-2 5 -6.5 16t-7.5 17h204zM285 168h-43q3 5 10.5 16t11.5 17h13q2 -11 8 -33zM295 139q6 -17 13 -32h-112q4 5 12.5 15.5t12.5 16.5h74 zM322 78q12 -22 19 -33h-197q20 22 29 33h149zM389 502h469l-99 235q-45 107 -72 150.5t-56 43.5q-30 0 -63.5 -46t-76.5 -146zM290 283q-84 -145 -193 -258h283q-90 126 -90 258zM344 449l334 780h211l322 -778q69 -165 136.5 -270.5t174.5 -176.5v-4h-455l-197 471h-494 l-13 -31q-37 -88 -37 -138q0 -160 98 -300l-2 -2h-381l-2 2q192 179 305 447zM782 747l301 -722h348q-96 80 -161 179.5t-122 236.5l-207 500q-58 141 -85 263h-162l-115 -268q25 20 52 20q42 0 73 -48t78 -161z" />
<glyph unicode="B" horiz-adv-x="1454" d="M881 -3q22 12 33 19h145q-60 -20 -127 -20q-31 0 -51 1zM950 1212h-62q-10 8 -15 11q33 0 77 -11zM1021 1184q25 -15 45 -33h-118q-10 15 -28 33h101zM1092 1122q11 -14 21 -32h-131q-3 8 -16 32h126zM1124 1061q4 -17 6 -33h-133q-1 16 -6 33h133zM1130 999 q-1 -9 -7 -32h-125q1 9 1 26v6h131zM1112 938q-9 -16 -21 -33h-107q6 17 9 33h119zM1066 877q-19 -19 -40 -33h-73q7 11 19 33h94zM977 815q-33 -17 -72 -30l27 30h45zM954 45q20 17 35 33h183q-20 -16 -49 -33h-169zM1053 168q2 4 5 10.5t5.5 12t4.5 10.5h200 q-5 -11 -17 -33h-198zM1037 139h195q-23 -28 -28 -33h-190q16 22 23 33zM1093 324h199v-7q0 -17 -1 -26h-200q2 22 2 33zM1086 262h201q-2 -11 -8 -33h-201q6 22 8 33zM1085 414q-5 18 -10 32h175q16 -25 19 -32h-184zM1090 385h191q4 -11 8 -33h-196q0 16 -3 33zM934 631 h17q54 -14 97 -33h-76q-26 23 -38 33zM1000 569h108q31 -16 52 -32h-133q-5 6 -14.5 17t-12.5 15zM1046 508h150q12 -11 32 -33h-165q-5 11 -17 33zM544 45h-5q-86 10 -134 10q-72 0 -138 -3q7 8 19 26h253q1 -11 5 -33zM531 168h-203l9 33h192q0 -11 2 -33zM533 139l3 -33 h-234q3 5 8 16t8 17h215zM528 262q0 -6 0.5 -16.5t0.5 -16.5h-186q4 22 5 33h180zM352 324h176v-33h-177q1 11 1 33zM352 414v32h176v-32h-176zM352 385h176v-33h-176v33zM352 877h176v-33h-176v33zM352 815h176v-33h-176v33zM352 754h176v-33h-176v33zM352 692h176v-33 h-176v33zM352 631h176v-33h-176v33zM352 569h176v-32h-176v32zM352 508h176v-33h-176v33zM286 1151q-12 18 -19 26q90 -4 138 -4q50 0 134 11h5q-1 -6 -2.5 -17t-2.5 -16h-253zM302 1122h233q-1 -5 -2 -16t-1 -16h-214q-7 16 -16 32zM328 1061h202q-1 -11 -1 -33h-191 q-6 22 -10 33zM344 999h184v-32h-179q-1 9 -5 32zM351 938h177v-33h-176q0 22 -1 33zM1372 317q0 -99 -59 -183.5t-160 -133.5t-221 -49q-54 0 -101 5t-116 17t-101 17q-133 20 -209 20q-131 0 -299 -16v4q93 20 147 113t54 217v573q0 124 -54 217t-147 113v4 q168 -16 299 -16q76 0 209 20q34 5 72 11.5t57.5 9.5t52 5.5t74.5 2.5q140 0 239 -74.5t99 -179.5q0 -80 -65 -148t-175 -109.5t-243 -48.5v-4q176 -2 325 -54.5t235.5 -141t86.5 -191.5zM614 696v-686q7 -1 20.5 -3t20.5 -3q23 -4 48 -4q143 0 244.5 99t101.5 239 q0 116 -89.5 208.5t-234.5 149.5h-111zM725 717q104 50 166.5 120t62.5 156q0 98 -73.5 166.5t-177.5 68.5q-31 0 -48 -3q-7 -1 -20.5 -3t-20.5 -3v-502h111zM549 721v283q0 104 20 205q-107 -15 -164 -15q-79 0 -188 7q55 -50 85 -129t30 -171v-573q0 -92 -29 -170.5 t-86 -129.5q103 7 188 7q57 0 164 -15q-20 102 -20 267v405v29zM791 -14q81 -11 141 -11q158 0 269.5 100t111.5 242q0 135 -138.5 234.5t-341.5 121.5q110 -61 175 -146t65 -189q0 -127 -79.5 -224.5t-202.5 -127.5zM788 1240q84 -26 137.5 -93.5t53.5 -153.5 q0 -142 -157 -249q141 24 235 98t94 172q0 95 -82.5 162t-198.5 67q-49 0 -82 -3z" />
<glyph unicode="C" d="M343 168q-12 10 -38 33h126q4 -6 10.5 -17t9.5 -16h-108zM382 139h90q18 -22 28 -33h-64q-21 11 -54 33zM498 78h30q3 -3 6 -5.5t7.5 -6t6.5 -5.5q-22 6 -50 17zM162 414q-1 2 -5.5 14t-6.5 18h195q1 -6 3 -16t3 -16h-189zM173 385h185q2 -5 4 -16t4 -17h-177 q-6 11 -16 33zM206 324h169l12 -33h-160zM248 262h151q10 -22 16 -33h-139q-10 11 -28 33zM125 598v14v19h207v-17v-16h-207zM127 569h206q0 -21 1 -32h-204q0 6 -1 16.5t-2 15.5zM135 508h202q1 -6 2 -17t2 -16h-199q-3 11 -7 33zM499 1151q32 12 49 17q-14 -12 -19 -17 h-30zM437 1122h63q-8 -9 -27 -32h-91q17 12 55 32zM343 1061h109l-21 -33h-126q26 23 38 33zM277 999h139q-9 -16 -16 -32h-151q10 12 28 32zM228 938h160l-12 -33h-170q4 6 11 17t11 16zM190 877h177l-9 -33h-184q10 22 16 33zM162 815h190q-1 -6 -3.5 -17t-3.5 -16h-194 q3 11 11 33zM143 754h198q-1 -6 -2 -17t-2 -16h-202q2 11 8 33zM131 692h204q-2 -22 -2 -33h-206q2 22 4 33zM1157 1184l-2 -33h-51q-25 20 -47 33h100zM1057 45q25 15 48 33h66l3 -33h-117zM1138 106q9 9 27 29q1 -4 2 -14t1 -15h-30zM418 614q0 -164 46.5 -303t127 -219.5 t174.5 -80.5q181 2 309.5 100.5t128.5 240.5h4l21 -430h-2q-27 35 -76.5 52.5t-89.5 20t-114 2.5q-41 0 -119 -4q-54 -3 -103 -3q-175 0 -323.5 83t-235 226.5t-86.5 312.5q0 170 86.5 314.5t235 228.5t323.5 84q49 0 103 -3q78 -4 119 -4q199 0 257 75h2v-430h-4 q0 94 -59 172t-159 123t-218 46q-94 0 -174.5 -81t-127 -220t-46.5 -303zM960 21q58 0 89 -1.5t76.5 -11.5t76.5 -30l-21 211q-71 -112 -221 -168zM960 1207q138 -50 210 -154l12 201q-72 -45 -222 -47zM646 19q-148 79 -221 236t-73 359t73 359.5t221 236.5 q-231 -29 -386.5 -199.5t-155.5 -398.5q0 -226 155.5 -395t386.5 -198z" />
<glyph unicode="D" horiz-adv-x="1574" d="M258 45q12 13 25 33h257q1 -6 2.5 -17t2.5 -16h-287zM327 168q4 11 10 33h192q0 -11 2 -33h-204zM316 139h217l3 -33h-236q6 11 16 33zM352 324h176v-33h-177q1 11 1 33zM348 262h180q0 -6 0.5 -16.5t0.5 -16.5h-186q4 22 5 33zM352 414v32h176v-32h-176zM352 385h176 v-33h-176v33zM352 877h176v-33h-176v33zM352 815h176v-33h-176v33zM352 754h176v-33h-176v33zM352 692h176v-33h-176v33zM352 631h176v-33h-176v33zM352 569h176v-32h-176v32zM352 508h176v-33h-176v33zM286 1151q-12 18 -19 26q67 -3 138 -3q57 0 134 10h5q-1 -6 -2.5 -17 t-2.5 -16h-253zM302 1122h233q-1 -5 -2 -16t-1 -16h-214q-7 16 -16 32zM328 1061h202q-1 -11 -1 -33h-191q-6 22 -10 33zM344 999h184v-32h-179q-1 9 -5 32zM351 938h177v-33h-176q0 22 -1 33zM1197 168h-130q9 11 25 33h139q-28 -28 -34 -33zM1161 139q-16 -12 -50 -32 h-103q6 5 33 32h120zM1051 78q-64 -24 -122 -30q25 15 44 30h78zM1361 414h-166q2 6 4 16t4 16h169q-2 -7 -11 -32zM1350 385l-15 -33h-161l12 33h164zM1321 324q-6 -11 -20 -33h-154q2 6 8 17t8 16h158zM1282 262q-16 -22 -25 -33h-145q14 22 20 33h150zM1399 631 q0 -22 -1 -33h-176q0 2 0.5 8t0.5 8t-0.5 8t-0.5 9h177zM1396 569q-2 -20 -4 -32h-173q1 5 1 16t1 16h175zM1387 508q-4 -22 -7 -33h-171l6 33h172zM922 1212q-24 14 -36 20q13 1 46 1q58 0 121 -21h-131zM966 1184h151q28 -16 50 -33h-161q-21 20 -40 33zM1035 1122h167 q22 -20 33 -32h-171q-14 16 -29 32zM1086 1061h173l24 -33h-175q-14 22 -22 33zM1125 999h177q3 -6 9 -16.5t9 -15.5h-177q-3 5 -9 15.5t-9 16.5zM1156 938h178q10 -22 14 -33h-178q-4 11 -14 33zM1180 877h179q4 -11 10 -33h-178q-3 11 -11 33zM1198 815h179q3 -11 7 -33 h-178q-2 11 -8 33zM1211 754h179q2 -11 4 -33h-178q-1 11 -5 33zM1219 692h178q1 -11 1 -33h-177q-1 6 -1 17t-1 16zM1485 635q0 -129 -48 -246.5t-128.5 -202.5t-192.5 -135.5t-235 -50.5h-774v4q92 20 146 111t54 213v573q0 125 -53.5 217.5t-146.5 112.5v4 q168 -16 298 -16q76 0 209 20q32 5 101 17t116 17t101 5q112 0 214.5 -51t176.5 -137t118 -205t44 -250zM614 20h62q136 0 252 79.5t183 216.5t67 298q0 125 -37.5 238.5t-101.5 196t-151.5 131t-184.5 48.5q-31 0 -48 -3q-7 -1 -20.5 -3t-20.5 -3v-1199zM1419 635 q0 168 -65 310t-177.5 225t-244.5 83q-70 0 -140 -10q117 -27 211 -117t146.5 -224.5t52.5 -287.5q0 -204 -102.5 -366t-264.5 -223h46q146 0 270 81.5t196 222t72 306.5zM569 25q-20 101 -20 262v717q0 104 20 205q-107 -15 -164 -15q-78 0 -188 7q55 -50 85 -129t30 -171 v-573q0 -95 -33 -175.5t-93 -127.5h363z" />
<glyph unicode="E" horiz-adv-x="1402" d="M1045 1212q12 2 26.5 5.5t32.5 8t29 6.5q0 -3 -0.5 -10t-0.5 -10h-87zM1130 1184l-1 -33h-115q-26 18 -54 33h170zM1127 1122l-2 -32h-35q-19 17 -38 32h75zM988 45q34 16 62 33h153q-1 -6 -1 -17v-16h-214zM1168 168q11 11 31 33h10q-1 -6 -1 -17v-16h-40zM1136 139h70 v-16t-1 -17h-111q16 10 42 33zM856 692h10q0 -6 -0.5 -17t-0.5 -16h-56q18 11 47 33zM865 631v-33h-29q-34 22 -62 33h91zM258 45q12 13 25 33h257q1 -6 2.5 -17t2.5 -16h-287zM327 168q4 11 10 33h192q0 -11 2 -33h-204zM316 139h217l3 -33h-236q6 11 16 33zM352 324h176 v-33h-177q1 11 1 33zM348 262h180q0 -6 0.5 -16.5t0.5 -16.5h-186q4 22 5 33zM352 414v32h176v-32h-176zM352 385h176v-33h-176v33zM352 877h176v-33h-176v33zM352 815h176v-33h-176v33zM352 754h176v-33h-176v33zM352 692h176v-33h-176v33zM352 631h176v-33h-176v33z M352 569h176v-32h-176v32zM352 508h176v-33h-176v33zM283 1151q-13 20 -25 33h287l-6 -33h-256zM300 1122h235q-1 -5 -2 -16t-1 -16h-216q-7 16 -16 32zM327 1061h203q-1 -11 -1 -33h-192q-6 22 -10 33zM343 999h185v-32h-180q-1 9 -5 32zM351 938h177v-33h-176q0 22 -1 33z M614 645q183 12 295 170h2l-2 -358h-2q-80 146 -293 168v-605h45q226 0 398.5 115.5t220.5 308.5h2l-39 -505q-81 28 -175 42t-161.5 16.5t-183.5 2.5h-615v4q92 20 146.5 111t54.5 213v573q0 122 -54.5 213t-146.5 111v4h615q241 0 459 61l-2 -383h-2q-81 142 -210.5 221.5 t-285.5 79.5h-66v-563zM569 25q-20 101 -20 262v717q0 101 20 200h-363q60 -47 93 -127.5t33 -175.5v-573q0 -95 -33 -175.5t-93 -127.5h363zM700 634q116 -31 185 -105l1 219q-82 -85 -186 -114zM867 23q203 -5 352 -51l14 307q-59 -92 -154 -158t-212 -98zM848 1208 q174 -54 293 -205l14 255q-153 -40 -307 -50z" />
<glyph unicode="F" horiz-adv-x="1361" d="M1126 1212q38 8 74 18v-18h-74zM1202 1184q0 -6 0.5 -17t0.5 -16h-153q-28 17 -62 33h214zM1204 1122q0 -6 1 -16t1 -16h-69q-28 22 -43 32h110zM1207 1061q0 -5 0.5 -16t0.5 -17h-8q-10 11 -32 33h39zM856 692h10l-1 -33h-55q22 14 46 33zM865 631v-33h-30 q-36 23 -61 33h91zM559 168h-232q4 11 10 33h210q1 -5 3 -10.5t5 -12t4 -10.5zM572 139q12 -22 19 -33h-290q3 5 5.5 10.5t5 12t4.5 10.5h256zM612 78q18 -22 28 -33h-382q12 13 25 33h329zM528 324q0 -11 2 -33h-179q1 11 1 33h176zM533 262l6 -33h-196q4 22 5 33h185z M352 414v32h176v-32h-176zM352 385h176v-33h-176v33zM352 877h176v-33h-176v33zM352 815h176v-33h-176v33zM352 754h176v-33h-176v33zM352 692h176v-33h-176v33zM352 631h176v-33h-176v33zM352 569h176v-32h-176v32zM352 508h176v-33h-176v33zM283 1151q-13 20 -25 33h287 l-6 -33h-256zM300 1122h235q-1 -5 -2 -16t-1 -16h-216q-7 16 -16 32zM327 1061h203q-1 -11 -1 -33h-192q-6 22 -10 33zM343 999h185v-32h-180q-1 9 -5 32zM351 938h177v-33h-176q0 22 -1 33zM307 328v573q0 122 -54.5 213t-146.5 111v4h615q116 0 183.5 2.5t161.5 16.5 t175 42l39 -506h-2q-48 193 -220.5 308.5t-398.5 115.5h-45v-563q183 12 295 170h2l-2 -358h-2q-80 146 -293 168v-297q0 -123 54.5 -214.5t146.5 -109.5v-4h-709v4q92 18 146.5 109.5t54.5 214.5zM549 328v676q0 100 20 200h-363q60 -47 93 -127.5t33 -175.5v-573 q0 -95 -32.5 -175.5t-92.5 -127.5h487q-145 113 -145 303zM700 634q116 -31 185 -105l1 219q-80 -85 -186 -114zM867 1206q243 -67 365 -255l-13 306q-148 -46 -352 -51z" />
<glyph unicode="G" horiz-adv-x="1454" d="M1006 115v24h176v-33h-44q-41 13 -79 13q-29 0 -53 -4zM1132 1212q3 1 8.5 3.5t8.5 3.5v-7h-17zM1147 1184q-1 -5 -1 -16t-1 -17h-51q-25 20 -47 33h100zM1144 1122q0 -2 -0.5 -7t-0.5 -8q-2 2 -7.5 7t-8.5 8h17zM511 1151h-12q4 2 11 4.5t10 3.5q-2 -1 -5 -3.5t-4 -4.5z M482 1122q-28 -31 -29 -32h-67q17 12 53 32h43zM431 1061q-8 -11 -22 -33h-100q26 23 38 33h84zM393 999q-9 -16 -16 -32h-124q10 12 28 32h112zM364 938l-12 -33h-143q14 22 22 33h133zM342 877q-2 -6 -4 -17t-4 -16h-158q5 11 17 33h149zM327 815l-6 -33h-169l12 33h163z M317 754l-3 -33h-178q4 22 7 33h174zM312 692q0 -6 -0.5 -17t-0.5 -16h-184q2 22 4 33h181zM585 45h-122q-25 10 -63 33h140q21 -18 45 -33zM638 16q4 -2 19 -7q-1 0 -8 -0.5t-10 -0.5q-41 0 -84 8h83zM455 168h-163q-6 5 -28 33h168q7 -11 23 -33zM478 139q20 -22 30 -32 h-149q-30 23 -39 32h158zM341 414h-187q-2 6 -5 16t-4 16h188q1 -8 8 -32zM349 385q3 -11 11 -33h-185l-12 33h186zM370 324q4 -11 14 -33h-180q-6 11 -16 33h182zM397 262l18 -33h-173l-21 33h176zM312 631q0 -22 1 -33h-188v16v17h187zM315 569q1 -6 2 -16t1 -16h-189 q-1 6 -2 16.5t-1 15.5h189zM322 508q1 -5 2.5 -16t2.5 -17h-188l-6 33h189zM1006 168v33h176v-33h-176zM1006 414v16q0 3 -0.5 8.5t-0.5 7.5h178q-1 -5 -1 -16v-16h-176zM1006 385h176v-33h-176v33zM1006 324h176v-33h-176v33zM1006 262h176v-33h-176v33zM977 537 q-8 15 -22 32h294q-20 -20 -29 -32h-243zM991 508h211q-9 -15 -14 -33h-187q-2 11 -10 33zM756 1218q-97 0 -180 -75.5t-131 -206t-48 -283.5q0 -169 51.5 -313t140.5 -227.5t193 -83.5q40 0 76 16q41 18 103 36v349q0 66 -45 116t-115 64v4h626v-4q-70 -14 -114.5 -64 t-44.5 -116v-448q-60 45 -107.5 68.5t-101.5 23.5q-80 0 -205 -54q-47 -20 -70.5 -28.5t-65 -18.5t-79.5 -10q-114 0 -217.5 51.5t-178.5 139t-119 208t-44 252.5q0 124 52 240t138.5 200t203.5 134.5t241 50.5q49 0 103 -3q78 -4 119 -4q199 0 257 75h2v-430h-4 q0 94 -59 172t-159 123t-218 46zM985 91q32 7 74 7q69 0 143 -41v373q0 82 101 160h-399q81 -62 81 -160v-339zM625 1207q-141 -22 -260.5 -106.5t-190 -213.5t-70.5 -273q0 -171 72.5 -315.5t195.5 -227.5t267 -83q51 0 113 19q-185 21 -302.5 206t-117.5 440 q0 182 74.5 328t218.5 226zM950 1207q138 -52 210 -155l11 202q-72 -45 -221 -47z" />
<glyph unicode="H" horiz-adv-x="1761" d="M551 168h-224q4 11 10 33h205zM561 139q10 -22 16 -33h-277q6 11 16 33h245zM595 78q16 -21 26 -33h-364q10 12 26 33h312zM528 324q0 -22 1 -33h-178q1 11 1 33h176zM532 262q2 -22 4 -33h-193q4 22 5 33h184zM352 414v32h176v-32h-176zM352 385h176v-33h-176v33z M352 877h176v-33h-176v33zM352 815h176v-33h-176v33zM352 754h176v-33h-176v33zM352 692h176v-33h-176v33zM352 631h176v-33h-176v33zM352 569h176v-32h-176v32zM352 508h176v-33h-176v33zM282 1151q-20 27 -25 33h364q-10 -12 -26 -33h-313zM300 1122h277q-3 -5 -15 -32 h-246q-7 16 -16 32zM327 1061h224l-9 -33h-205q-6 22 -10 33zM343 999h193q-2 -12 -4 -32h-184q-1 9 -5 32zM351 938h178q-1 -11 -1 -33h-176q0 22 -1 33zM1140 1151q-16 25 -23 33h362q-20 -22 -29 -33h-310zM1155 1122h275q-11 -17 -19 -32h-243q-6 17 -13 32zM1176 1061 h222q-1 -4 -4 -10.5t-5 -12t-3 -10.5h-203q-4 22 -7 33zM1187 999h192q-1 -6 -3 -16t-3 -16h-183q0 5 -1 16t-2 16zM1191 938h178q-1 -11 -1 -33h-176q0 6 -0.5 17t-0.5 16zM1368 414h-176v32h176v-32zM1368 385v-33h-176v33h176zM1368 877v-33h-176v33h176zM1368 815v-33 h-176v33h176zM1368 754v-33h-176v33h176zM1368 692v-33h-176v33h176zM1368 631v-33h-176v33h176zM1368 569v-32h-176v32h176zM1368 508v-33h-176v33h176zM1398 168h-223q3 11 7 33h204q1 -5 3 -10.5t5 -12t4 -10.5zM1411 139q12 -22 19 -33h-276q5 11 13 33h244zM1450 78 q9 -11 29 -33h-362q11 12 23 33h310zM1368 324q0 -22 1 -33h-178q0 5 0.5 16t0.5 17h176zM1373 262l6 -33h-192l3 33h183zM307 328v573q0 122 -54.5 212.5t-146.5 111.5v4h689v-4q-85 -18 -133 -109.5t-48 -214.5v-276h533v276q0 124 -47.5 215t-132.5 109v4h688v-4 q-92 -21 -146.5 -111.5t-54.5 -212.5v-573q0 -122 54.5 -212.5t146.5 -111.5v-4h-688v4q85 18 132.5 109t47.5 215v266h-533v-266q0 -123 48 -214.5t133 -109.5v-4h-689v4q92 21 146.5 111.5t54.5 212.5zM1171 901v-573q0 -105 -22.5 -180.5t-82.5 -122.5h467 q-144 113 -144 303v573q0 191 144 303h-467q60 -47 82.5 -122.5t22.5 -180.5zM549 328v573q0 207 123 303h-466q60 -47 93 -128t33 -175v-573q0 -95 -32.5 -175t-93.5 -128h466q-123 96 -123 303z" />
<glyph unicode="I" horiz-adv-x="921" d="M352 414v32h176v-32h-176zM352 385h176v-33h-176v33zM352 877h176v-33h-176v33zM352 815h176v-33h-176v33zM352 754h176v-33h-176v33zM352 692h176v-33h-176v33zM352 631h176v-33h-176v33zM352 569h176v-32h-176v32zM352 508h176v-33h-176v33zM282 1151q-20 27 -25 33 h384q-20 -22 -29 -33h-330zM300 1122h292q-11 -17 -19 -32h-257q-7 16 -16 32zM327 1061h232l-12 -33h-210q-6 22 -10 33zM343 999h197q-4 -13 -7 -32h-185q-1 9 -5 32zM351 938h179q-2 -22 -2 -33h-176q0 22 -1 33zM559 168h-232q4 11 10 33h210q1 -5 3 -10.5t5 -12 t4 -10.5zM572 139q6 -11 20 -33h-292q6 11 16 33h256zM612 78q9 -11 29 -33h-384q10 12 26 33h329zM528 324q0 -11 2 -33h-179q1 11 1 33h176zM533 262l6 -33h-196q4 22 5 33h185zM332 328q0 -95 -32.5 -175t-93.5 -128h489q-146 114 -146 303v573q0 189 146 303h-489 q60 -47 93 -128t33 -175v-573zM307 328v573q0 122 -54.5 212.5t-146.5 111.5v4h709v-4q-92 -21 -146.5 -111.5t-54.5 -212.5v-573q0 -122 54.5 -212.5t146.5 -111.5v-4h-709v4q92 21 146.5 111.5t54.5 212.5z" />
<glyph unicode="J" horiz-adv-x="880" d="M336 168v33h176v-33h-176zM336 139h176v-33h-176v33zM336 78h176v-31v-2h-176v8v25zM336 414v32h176v-32h-176zM336 385h176v-33h-176v33zM336 324h176v-33h-176v33zM336 262h176v-33h-176v33zM336 877h176v-33h-176v33zM336 815h176v-33h-176v33zM336 754h176v-33h-176 v33zM336 692h176v-33h-176v33zM336 631h176v-33h-176v33zM336 569h176v-32h-176v32zM336 508h176v-33h-176v33zM266 1151q-20 27 -25 33h384q-20 -22 -29 -33h-330zM284 1122h292q-18 -28 -20 -32h-257q-12 27 -15 32zM310 1061h233l-12 -33h-211q-6 22 -10 33zM327 999h196 q-1 -2 -6 -32h-185q-1 9 -5 32zM335 938h178q-1 -11 -1 -33h-176q0 22 -1 33zM379 -262h-116l15 33h133q-13 -16 -32 -33zM344 -291q-60 -44 -137 -62q19 26 40 62h97zM470 -139h-159q6 22 8 33h165q-4 -11 -14 -33zM455 -168q-14 -22 -22 -33h-143l12 33h153zM507 -16h-174 q1 6 1 16t1 16h176q-2 -20 -4 -32zM502 -45q-2 -11 -8 -33h-169q4 22 5 33h172zM291 53v848q0 122 -54.5 212.5t-146.5 111.5v4h709v-4q-92 -21 -146.5 -111.5t-54.5 -212.5v-854q0 -125 -66 -230t-178.5 -166t-244.5 -61l-3 4q185 197 185 459zM315 53q0 -246 -156 -435 q160 17 266.5 139.5t106.5 289.5v854q0 188 147 303h-489q60 -46 92.5 -127t32.5 -176v-848z" />
<glyph unicode="K" horiz-adv-x="1597" d="M760 631h90q40 -7 84 -33h-175l-22 31q3 1 11 1t12 1zM975 569q24 -20 36 -32h-208q-4 5 -11.5 15.5t-11.5 16.5h195zM1038 508q5 -6 14 -17.5t12 -15.5h-217l-23 33h214zM1108 414h-217l-23 32h217q4 -5 11.5 -16t11.5 -16zM1129 385l24 -33h-218q-4 6 -11.5 17 t-11.5 16h217zM1174 324l24 -33h-219l-23 33h218zM1297 168h-230q-4 6 -11.5 17t-11.5 16h223zM1326 139q12 -11 38 -33h-253q-4 5 -11.5 16t-11.5 17h238zM1400 78q30 -22 46 -33h-291l-23 33h268zM1218 262q4 -5 12.5 -16t12.5 -17h-220l-23 33h218zM1179 1184h152 q21 -11 38 -33h-265q36 21 75 33zM1061 1122h325q7 -16 8 -32h-154q-29 10 -64 10q-52 0 -95 -10h-60q8 7 40 32zM991 1061h4q-1 -1 -3.5 -2t-3.5 -1zM1394 1061q-2 -20 -7 -33h-60q-15 21 -32 33h99zM1371 999q-7 -10 -22 -19q-5 16 -6 19h28zM266 45q10 13 22 33h252 q1 -6 2.5 -17t2.5 -16h-279zM328 168q2 6 5.5 17t4.5 16h191q0 -11 2 -33h-203zM318 139h215l3 -33h-232q10 22 14 33zM352 324h176v-33h-177q1 11 1 33zM348 262h180q0 -6 0.5 -16.5t0.5 -16.5h-185q2 11 4 33zM352 414v32h176v-32h-176zM352 385h176v-33h-176v33zM352 877 h176v-33h-176v33zM352 815h176v-33h-176v33zM352 754h176v-33h-176v33zM352 692h176v-33h-176v33zM352 631h176v-33h-176v33zM352 569h176v-32h-176v32zM352 508h176v-33h-176v33zM288 1151q-12 20 -22 33h279l-6 -33h-251zM304 1122h231q-1 -5 -2 -16t-1 -16h-213 q-2 6 -8 17.5t-7 14.5zM329 1061h201q-1 -11 -1 -33h-191zM344 999h184v-32h-179q-1 9 -5 32zM351 938h177v-33h-176q0 22 -1 33zM614 0h-508v4q83 0 142 95t59 229v573q0 134 -59 229t-142 95v4h508v-567l33 3q30 3 51 30t45 75q236 473 531 473q80 0 137 -49t57 -119 q0 -72 -51 -123t-123 -51q13 26 13 50q0 43 -38 73.5t-93 30.5q-131 0 -238.5 -79.5t-175.5 -214.5q-32 -65 -60 -91l81 8q28 2 41 2q96 0 177.5 -42.5t139.5 -122.5l146 -201q136 -187 321 -310v-4h-475l-434 604q-25 38 -70 38q-3 0 -8.5 -0.5t-6.5 -0.5v-641zM569 25 q-20 101 -20 262v717q0 101 20 200h-351q52 -45 83 -126t31 -177v-573q0 -95 -30.5 -175.5t-83.5 -127.5h351zM889 969q129 110 287 110q63 0 109.5 -36.5t46.5 -91.5q38 10 60.5 44t22.5 80q0 59 -41.5 101.5t-99.5 42.5q-207 0 -385 -250zM694 645q15 -11 25 -27l426 -593 h371q-179 109 -282 250l-146 202q-128 178 -279 178q-16 0 -24 -1z" />
<glyph unicode="L" horiz-adv-x="1372" d="M531 168h-204q4 11 10 33h192q0 -11 2 -33zM533 139l3 -33h-236q6 11 16 33h217zM540 78q1 -6 2.5 -17t2.5 -16h-288q10 12 26 33h257zM528 262q0 -6 0.5 -16.5t0.5 -16.5h-186q4 22 5 33h180zM352 324h176v-33h-177q1 11 1 33zM352 414v32h176v-32h-176zM352 385h176 v-33h-176v33zM352 877h176v-33h-176v33zM352 815h176v-33h-176v33zM352 754h176v-33h-176v33zM352 692h176v-33h-176v33zM352 631h176v-33h-176v33zM352 569h176v-32h-176v32zM352 508h176v-33h-176v33zM283 1151q-13 20 -25 33h382q-10 -11 -28 -33h-329zM300 1122h291 q-11 -17 -19 -32h-256q-7 16 -16 32zM327 1061h232q-1 -4 -4 -10.5t-5 -12t-3 -10.5h-210q-6 22 -10 33zM343 999h196q-1 -5 -3 -15.5t-3 -16.5h-185q-1 9 -5 32zM351 938h179q-2 -22 -2 -33h-176q0 22 -1 33zM1134 168q11 11 31 33h70v-33h-101zM1103 139h132v-33h-173 q13 9 41 33zM1021 78h214v-33h-272q28 14 58 33zM1214 262h20v-33h-45q9 11 25 33zM859 25h397l-2 341q-65 -124 -167 -213t-228 -128zM614 20h56q214 0 381.5 134.5t234.5 353.5h4l-10 -508h-1174v4q92 21 146.5 111.5t54.5 212.5v573q0 123 -54.5 214.5t-146.5 109.5v4 h709v-4q-92 -18 -146.5 -109.5t-54.5 -214.5v-881zM549 287v614q0 190 145 303h-487q59 -47 92 -127.5t33 -175.5v-573q0 -95 -32.5 -175t-93.5 -128h363q-20 101 -20 262z" />
<glyph unicode="M" horiz-adv-x="2037" d="M332 865v12h298q4 -6 12.5 -17t12.5 -16h-239q-32 24 -65 24q-5 0 -19 -3zM332 999h203q4 -5 12.5 -15.5t12.5 -16.5h-228v32zM332 938h250q4 -6 13 -17t13 -16h-276v33zM281 1151q-15 20 -28 33h163l18 -33h-153zM300 1122h151q4 -6 11 -16t10 -16h-157q-5 14 -15 32z M325 1061h166q4 -6 11.5 -17t11.5 -16h-184q-2 22 -5 33zM678 815q4 -6 12.5 -17t12.5 -16h-228q-15 20 -28 33h231zM725 754q4 -6 13 -17t13 -16h-228l-18 23q-1 2 -4 5.5t-4 4.5h228zM773 692q4 -5 12.5 -16t12.5 -17h-228l-25 33h228zM821 631l22 -29q1 -1 3 -4h-228 l-26 33h229zM875 569q25 -19 58 -32h-268l-25 32h235zM958 414h-198l-25 32h248zM1029 508l-25 -33h-291l-26 33h342zM937 385q-8 -11 -22 -33h-107l-26 33h155zM900 324q-10 -22 -14 -33h-31l-25 33h70zM1603 1151q4 5 12.5 16t12.5 17h112q-18 -15 -33 -33h-104z M1582 1122h102q-7 -10 -19 -32h-108zM1535 1061h118q-6 -22 -7 -33h-136q4 6 12.5 17t12.5 16zM1489 999h156v-32h-181zM1442 938h203v-33h-188q-7 13 -21 25q1 1 3 4t3 4zM1645 414h-177v32h177v-32zM1645 385v-33h-177v33h177zM1645 877v-33h-177v10q0 15 -1 23h178z M1645 815v-33h-177v33h177zM1645 754v-33h-177v33h177zM1645 692v-33h-177v33h177zM1645 631v-33h-177v33h177zM1645 569v-32h-177v32h177zM1645 508v-33h-177v33h177zM1675 168h-232q4 11 10 33h210q1 -5 3 -10.5t5 -12t4 -10.5zM1689 139q12 -22 19 -33h-292q6 11 16 33 h257zM1729 78q18 -22 28 -33h-383q5 6 25 33h330zM1645 324q0 -22 1 -33h-179q1 11 1 33h177zM1649 262l6 -33h-196q4 22 5 33h185zM310 106h-30q2 4 4.5 9.5t5.5 12.5t5 11q4 -11 15 -33zM326 78q10 -16 24 -33h-113q15 17 26 33h63zM307 328q0 -125 50 -214.5t141 -109.5 v-4h-412v4q92 20 146.5 110.5t54.5 213.5v676q0 77 -57.5 139.5t-143.5 81.5v4h375l465 -599q41 -53 105 -53q81 0 134 70l441 582h325v-4q-86 -19 -143 -81.5t-57 -139.5v-676q0 -122 54 -213t146 -111v-4h-708v4q92 20 146 111t54 213v526q0 21 -7.5 33t-18.5 12 q-14 0 -29 -19l-378 -498q-75 -98 -75 -177q0 -39 15 -80l-2 -2l-459 594q-82 106 -118 106q-44 0 -44 -143v-352zM296 205q-30 -116 -110 -180h213q-76 63 -103 180zM1405 923q43 -9 43 -69v-526q0 -95 -32.5 -175t-93.5 -128h489q-146 114 -146 303v676q0 108 136 200 h-183zM311 829q16 18 40 18q32 0 62 -28t75 -87l403 -521q2 83 80 186l128 169q-40 -24 -78 -24q-105 0 -162 73l-263 339q-114 147 -168 250h-232q53 -36 84 -88t31 -112v-175z" />
<glyph unicode="N" horiz-adv-x="1576" d="M1307 1151h-56q-14 22 -24 33h108q-13 -13 -28 -33zM1287 1122q-7 -10 -11 -20l-5 10t-4 10h20zM302 139q6 -11 20 -33h-48q8 15 15 33h13zM343 78q25 -28 31 -33h-142q9 11 25 33h86zM253 1151q-13 21 -23 33h163q4 -5 12.5 -16t12.5 -17h-165zM270 1122h170 q5 -6 13 -16t13 -16h-181q-12 27 -15 32zM296 1061h193q18 -22 28 -33h-210q-3 11 -11 33zM314 999h229q5 -5 15 -15.5t15 -16.5h-252q-1 6 -3.5 16.5t-3.5 15.5zM601 938l32 -33h-254l-32 33h254zM661 877l31 -33h-254l-31 33h254zM720 815l32 -33h-254l-32 33h254z M779 754l32 -33h-254l-32 33h254zM839 692l31 -33h-254q-5 5 -15 16t-16 17h254zM898 631l32 -33h-255l-31 33h254zM957 569l32 -32h-254l-32 32h254zM1018 508q21 -20 40 -33h-264l-32 33h256zM1111 446q31 -12 69 -12q28 0 49 12h7v-32h-383q-6 5 -16 15.5t-15 16.5h289z M1242 168h-152l-31 33h182q0 -5 0.5 -16t0.5 -17zM1243 139v-33h-93q-6 5 -16.5 16.5t-15.5 16.5h125zM1244 78l1 -33h-36l-32 33h67zM1237 385q0 -5 0.5 -16t0.5 -17h-325l-32 33h356zM1238 324q0 -6 0.5 -17t0.5 -16h-267q-6 5 -16.5 16t-15.5 17h298zM1240 262 q0 -6 0.5 -16.5t0.5 -16.5h-210l-31 33h240zM1290 901v-901h-100l-883 915v-546q0 -138 62 -239.5t170 -125.5v-4h-453v4q94 21 147.5 123t53.5 242v465q0 150 -52.5 260t-148.5 131v4h344l643 -666q24 -24 38 -37t36 -25t43 -12q80 0 80 224v188q0 125 -50 214.5 t-141 109.5v4h412v-4q-92 -20 -146.5 -110.5t-54.5 -213.5zM302 956l898 -931h66l-11 473q-32 -44 -75 -44q-84 0 -172 92l-394 408q-104 105 -211 250h-222q93 -77 121 -248zM293 216q-32 -126 -111 -191h251q-105 72 -140 191zM1391 1204h-213q68 -55 98 -160 q28 96 115 160z" />
<glyph unicode="O" horiz-adv-x="1454" d="M1004 1122q32 -18 51 -32h-72q-12 22 -18 32h39zM1090 1061q12 -10 35 -33h-116q-8 22 -13 33h94zM1151 999q16 -19 25 -32h-146q-5 18 -10 32h131zM1196 938q7 -11 19 -33h-169q-2 11 -8 33h158zM1229 877q10 -22 14 -33h-185l-6 33h177zM1254 815q4 -11 10 -33h-197 q-1 11 -5 33h192zM1271 754l6 -33h-204l-3 33h201zM1281 692q1 -6 2 -17t2 -16h-208q-1 6 -1 17t-1 16h206zM1286 631v-17v-16h-207q0 6 -0.5 17t-0.5 16h208zM1091 168h-86q10 22 14 33h107q-23 -23 -35 -33zM1055 139q-27 -20 -50 -33h-32q11 18 19 33h63zM1254 414h-184 q0 5 1 16t2 16h191q-5 -18 -10 -32zM1243 385q-4 -11 -14 -33h-169l6 33h177zM1215 324q-12 -22 -19 -33h-149q6 22 8 33h160zM1177 262q-8 -11 -26 -33h-122q4 11 10 33h138zM1285 569q-1 -6 -2 -16t-1 -16h-203v32h206zM1277 508l-6 -33h-195q0 6 1 17t1 16h199zM464 1122 q-2 -3 -11 -14.5t-13 -17.5h-54q17 12 55 32h23zM423 1061q-12 -22 -17 -33h-97q26 23 38 33h76zM393 999q-2 -6 -6.5 -16t-6.5 -16h-128q10 12 28 32h113zM371 938l-9 -33h-153q14 22 22 33h140zM355 877l-6 -33h-172q10 22 16 33h162zM344 815q-2 -11 -4 -33h-187 q2 6 5.5 17t5.5 16h180zM337 754q-1 -5 -1 -16t-1 -17h-198q2 11 8 33h192zM334 692v-33h-205q0 4 0.5 10.5t1 12t1.5 10.5h202zM431 168h-84q-12 10 -38 33h105q5 -11 17 -33zM449 139q7 -11 23 -33h-31q-32 17 -55 33h63zM351 414h-186q-2 5 -6 15.5t-6 16.5h193 q1 -9 5 -32zM356 385l6 -33h-169q-6 11 -16 33h179zM370 324l9 -33h-148q-8 11 -22 33h161zM389 262l12 -33h-120q-10 11 -28 33h136zM334 631q0 -5 0.5 -16t0.5 -17h-208v16v17h207zM336 569q0 -21 1 -32h-205q0 1 -3 32h207zM339 508l3 -33h-197q-6 22 -8 33h202zM82 614 q0 127 52 243t139 199.5t206 133t248 49.5t248 -49.5t206 -133t139 -199.5t52 -243q0 -169 -87.5 -313t-236.5 -227.5t-321 -83.5t-321 83.5t-236.5 227.5t-87.5 313zM1034 573q0 176 -32.5 321t-94 232t-139.5 91q-28 2 -41 2t-41 -2q-79 -5 -140 -81.5t-93.5 -202 t-32.5 -278.5q0 -176 32.5 -320.5t94 -231.5t139.5 -91q28 -2 41 -2t41 2q79 5 140 81t93.5 201.5t32.5 278.5zM568 1194q-200 -52 -331 -213.5t-131 -366.5q0 -206 133 -368t335 -213q-124 95 -172 251.5t-48 370.5q0 383 214 539zM880 1196q85 -73 132 -242.5t47 -380.5 q0 -180 -45 -325.5t-128 -212.5q191 55 306 214t115 365q0 208 -117 369t-310 213z" />
<glyph unicode="P" horiz-adv-x="1495" d="M1070 1212h-139q-20 12 -38 20q4 0 18 0.5t21 0.5q69 0 138 -21zM1141 1184q25 -13 53 -33h-178q-21 20 -40 33h165zM1229 1122q17 -15 32 -32h-190q-8 10 -27 32h185zM1283 1061q14 -22 20 -33h-195q-2 5 -5 10.5t-7 12t-6 10.5h193zM1316 999q9 -25 11 -32h-196 q-2 7 -11 32h196zM1333 938q2 -11 4 -33h-194q-1 11 -5 33h195zM1337 877q0 -11 -2 -33h-191q0 4 0.5 12t0.5 12v9h192zM1330 815q-2 -11 -8 -33h-186q1 4 2.5 10.5t2.5 12t1 10.5h188zM1313 754q-4 -11 -14 -33h-180q4 11 10 33h184zM1283 692q-2 -4 -6 -10.5t-7.5 -12 t-7.5 -10.5h-171q6 11 16 33h176zM1239 631q-20 -23 -32 -33h-157q16 22 23 33h166zM1171 569q-21 -15 -52 -32h-128q12 10 34 32h146zM1052 508q-65 -21 -130 -22q30 19 34 22h96zM544 1184q-1 -6 -2.5 -17t-2.5 -16h-253q-12 18 -19 26q61 -3 138 -3q57 0 134 10h5z M535 1122q-1 -5 -2 -16t-1 -16h-214q-12 27 -15 32h232zM530 1061q-1 -11 -1 -33h-191q-2 6 -5 17t-5 16h202zM528 414h-176v32h176v-32zM528 385v-33h-176v33h176zM528 999v-32h-179q-1 9 -5 32h184zM528 938v-33h-176q0 22 -1 33h177zM528 877v-33h-176v33h176zM528 815 v-33h-176v33h176zM528 754v-33h-176v33h176zM528 692v-33h-176v33h176zM528 631v-33h-176v33h176zM528 569v-32h-176v32h176zM528 508v-33h-176v33h176zM566 168h-250q5 11 13 33h222q2 -5 4.5 -10.5t5.5 -12t5 -10.5zM581 139q14 -22 22 -33h-317q12 22 17 33h278zM625 78 q4 -5 9 -10.5t11.5 -12t9.5 -10.5h-412q5 6 25 33h357zM528 324q0 -11 2 -33h-180q2 22 2 33h176zM534 262q2 -11 8 -33h-205q6 22 8 33h189zM1423 889q0 -122 -68.5 -225.5t-186.5 -163.5t-257 -60q-70 0 -141 25v4q147 39 238.5 148.5t91.5 250.5q0 148 -119 254t-278 106 q-31 0 -48 -3q-7 -1 -20.5 -3t-20.5 -3v-891q0 -56 25 -125.5t73 -128t103 -70.5v-4h-709v4q55 12 103 70.5t73 128t25 125.5v573q0 124 -54 217t-147 113v4q168 -16 299 -16q76 0 209 20q32 5 101 17t116 17t101 5q129 0 242.5 -52t181 -142t67.5 -195zM569 1209 q-107 -15 -164 -15q-85 0 -188 7q57 -51 86 -129.5t29 -170.5v-573q0 -72 -38.5 -161t-98.5 -142h511q-157 139 -157 303v676q0 104 20 205zM794 1243q139 -30 234.5 -135t95.5 -240q0 -132 -75.5 -238t-200.5 -160q30 -5 63 -5q185 0 316 124.5t131 299.5q0 151 -125 257.5 t-301 106.5q-66 0 -138 -10z" />
<glyph unicode="Q" horiz-adv-x="1454" d="M464 1122q-2 -3 -11 -14.5t-13 -17.5h-54q17 12 55 32h23zM423 1061q-12 -22 -17 -33h-97q26 23 38 33h76zM393 999q-2 -6 -6.5 -16t-6.5 -16h-128q10 12 28 32h113zM371 938l-9 -33h-153q14 22 22 33h140zM355 877l-6 -33h-172q10 22 16 33h162zM344 815q-2 -11 -4 -33 h-187q2 6 5.5 17t5.5 16h180zM338 754l-3 -33h-198q2 11 8 33h193zM334 692v-33h-205q0 4 0.5 10.5t1 12t1.5 10.5h202zM431 168h-84q-12 10 -38 33h105q5 -11 17 -33zM449 139q7 -11 23 -33h-31q-32 17 -55 33h63zM351 414h-186q-2 5 -6 15.5t-6 16.5h193q1 -9 5 -32z M356 385l6 -33h-169q-6 11 -16 33h179zM370 324l9 -33h-148q-8 11 -22 33h161zM389 262l12 -33h-120q-10 11 -28 33h136zM334 631q0 -5 0.5 -16t0.5 -17h-208v16v17h207zM336 569q0 -21 1 -32h-205q0 1 -3 32h207zM339 508l3 -33h-197q-6 22 -8 33h202zM1004 1122 q32 -18 51 -32h-72q-12 22 -18 32h39zM1090 1061q12 -10 35 -33h-116q-8 22 -13 33h94zM1151 999q16 -19 25 -32h-146q-5 18 -10 32h131zM1196 938q7 -11 19 -33h-169q-2 11 -8 33h158zM1229 877q10 -22 14 -33h-185l-6 33h177zM1254 815q4 -11 10 -33h-197q-1 11 -5 33h192 zM1271 754l6 -33h-204l-3 33h201zM1281 692q1 -6 2 -17t2 -16h-208q-1 6 -1 17t-1 16h206zM1286 631v-17v-16h-207q0 6 -0.5 17t-0.5 16h208zM1091 168h-86q10 22 14 33h107q-23 -23 -35 -33zM1055 139q-27 -20 -50 -33h-32q11 18 19 33h63zM1254 414h-184q0 5 1 16t2 16 h191q-5 -18 -10 -32zM1243 385q-4 -11 -14 -33h-169l6 33h177zM1215 324q-12 -22 -19 -33h-149q6 22 8 33h160zM1177 262q-8 -11 -26 -33h-122q4 11 10 33h138zM1285 569q-1 -6 -2 -16t-2 -16h-202v32h206zM1277 508l-6 -33h-195q0 6 1 17t1 16h199zM771 -262q52 6 116 33 h373q4 -20 4 -33h-493zM949 -201q2 1 6 3.5t6 3.5q36 18 54 26h213q11 -11 22 -33h-301zM1096 -139q27 6 55 6q19 0 35 -6h-90zM907 -291q-53 -7 -83 -7q-25 0 -51 7h134zM662 -213q16 -47 59 -76t103 -29q53 0 135 15q110 19 181 19q60 0 134 -21q10 20 10 42 q0 62 -39 106.5t-94 44.5q-73 0 -199 -64q-132 -68 -218 -68q-43 0 -72 31zM880 1196q85 -73 132 -242.5t47 -380.5q0 -180 -45 -325.5t-128 -212.5q191 55 306 214t115 365q0 208 -117 369t-310 213zM568 1194q-200 -52 -331 -213.5t-131 -366.5q0 -206 133 -368t335 -213 q-124 95 -172 251.5t-48 370.5q0 383 214 539zM1034 573q0 176 -32.5 321t-94 232t-139.5 91q-28 2 -41 2t-41 -2q-79 -5 -140 -81.5t-93.5 -202t-32.5 -278.5q0 -176 32.5 -320.5t94 -231.5t139.5 -91q28 -2 41 -2t41 2q79 5 140 81t93.5 201.5t32.5 278.5zM82 614 q0 127 52 243t139 199.5t206 133t248 49.5t248 -49.5t206 -133t139 -199.5t52 -243q0 -165 -84 -307t-226.5 -226.5t-310.5 -90.5q-38 -5 -64.5 -44t-26.5 -92q0 -31 21.5 -52t52.5 -21q81 0 207 65q42 22 69 33.5t66.5 22.5t74.5 11q84 0 136.5 -51t52.5 -125 q0 -46 -24 -88q-73 42 -176 42q-74 0 -177 -18q-89 -16 -139 -16q-84 0 -138.5 51t-54.5 125q0 51 19 93t51 64q-167 6 -309.5 91t-226 226.5t-83.5 306.5z" />
<glyph unicode="R" horiz-adv-x="1607" d="M1128 877h192q-2 -22 -4 -33h-189q1 11 1 33zM1122 815h188q-3 -11 -11 -33h-186zM1102 754h185q-12 -22 -19 -33h-182q6 11 16 33zM1067 692h180q-13 -18 -30 -33h-177q11 11 27 33zM1011 631h171q-27 -19 -57 -33h-156q23 15 42 33zM930 1212q-24 14 -37 20q4 0 18 0.5 t21 0.5q66 0 134 -21h-136zM973 1184h162q31 -17 52 -33h-176q-16 16 -38 33zM1038 1122h183q15 -14 30 -32h-188q-16 22 -25 32zM1081 1061h191q7 -11 19 -33h-194q-10 22 -16 33zM1108 999h195q5 -14 10 -32h-195q-5 18 -10 32zM1124 938h194q0 -4 1 -10.5t1.5 -12 t0.5 -10.5h-193q-2 22 -4 33zM1021 569q-24 -2 -38 -2t-48 2h86zM911 414h-102q-2 6 -7 16.5t-7 15.5h78q26 -20 38 -32zM939 385q5 -5 13.5 -15t11.5 -14q1 -1 3 -4h-135q-3 9 -9 25q-1 2 -2 4.5t-1 3.5h119zM826 475h-44q-6 14 -10 21h2q1 -1 3 -2t3 -1q27 -8 46 -18z M993 324q15 -16 35 -33h-169l-15 33h149zM1065 262q26 -19 56 -33h-229q-7 11 -19 33h192zM1205 201q49 -11 95 -11q43 0 84 11h15q-11 -20 -20 -33h-445l-24 33h295zM1237 45h-133q-37 10 -73 33h266q-32 -24 -60 -33zM1358 139q-12 -16 -29 -33h-337q-16 13 -34 33h400z M258 45q12 13 25 33h257q1 -6 2.5 -17t2.5 -16h-287zM327 168q4 11 10 33h192q0 -11 2 -33h-204zM316 139h217l3 -33h-236q6 11 16 33zM352 324h176v-33h-177q1 11 1 33zM348 262h180q0 -6 0.5 -16.5t0.5 -16.5h-186q4 22 5 33zM352 414v32h176v-32h-176zM352 385h176v-33 h-176v33zM352 877h176v-33h-176v33zM352 815h176v-33h-176v33zM352 754h176v-33h-176v33zM352 692h176v-33h-176v33zM352 631h176v-33h-176v33zM352 569h176v-32h-176v32zM352 508h176v-33h-176v33zM286 1151q-12 18 -19 26q67 -3 138 -3q57 0 134 10h5q-1 -6 -2.5 -17 t-2.5 -16h-253zM302 1122h233q-1 -5 -2 -16t-1 -16h-214q-7 16 -16 32zM328 1061h202q-1 -11 -1 -33h-191q-6 22 -10 33zM344 999h184v-32h-179q-1 9 -5 32zM351 938h177v-33h-176q0 22 -1 33zM569 25q-20 101 -20 262v717q0 104 20 205q-107 -15 -164 -15q-78 0 -188 7 q55 -50 85 -129t30 -171v-573q0 -95 -33 -175.5t-93 -127.5h363zM614 562q29 -4 64 -4q168 0 286.5 93t118.5 228q0 145 -111 247t-269 102q-31 0 -48 -3q-7 -1 -20.5 -3t-20.5 -3v-657zM614 540v-540h-508v4q92 20 146.5 111t54.5 213v573q0 124 -54 217t-147 113v4 q168 -16 299 -16q76 0 209 20q50 7 93 15q137 24 225 24q129 0 238.5 -51t173 -138t63.5 -190q0 -156 -124.5 -266.5t-299.5 -110.5q-87 0 -185 29l-6 -14q64 -19 111 -57t96 -96q124 -148 301 -148q146 0 232 118h4q-36 -159 -133.5 -261.5t-224.5 -102.5 q-136 0 -236 101.5t-162 269.5q-16 44 -26 67t-26 53t-33.5 43.5t-37.5 13.5q-28 0 -43 2zM727 526q34 -41 76 -156q15 -42 33 -81t52 -92t72.5 -91t96 -65t121.5 -27q84 0 152 63.5t114 167.5q-63 -34 -144 -34q-187 0 -320 158q-47 56 -91 91t-103 53q-19 5 -59 13z M852 562q64 -15 131 -15q148 0 253 103t105 249q0 147 -119.5 250.5t-289.5 103.5q-66 0 -138 -10q136 -29 225 -130t89 -234q0 -108 -70.5 -192.5t-185.5 -124.5z" />
<glyph unicode="S" horiz-adv-x="1239" d="M340 78h77q3 -3 9 -9.5t9 -9.5q-2 0 -8 2q-73 14 -87 17zM222 168q22 19 45 19q33 0 62 -19h-107zM198 139h164q4 -4 13.5 -15t15.5 -18h-209q9 21 16 33zM932 168h-89q-2 22 -4 33h114q-12 -21 -21 -33zM908 139q-14 -15 -37 -33h-31q4 22 4 33h64zM989 324 q-2 -22 -4 -33h-174q-5 11 -17 33h195zM978 262q-3 -11 -11 -33h-135q-6 22 -10 33h156zM729 414q-10 11 -31 32h275q1 -2 4.5 -14t4.5 -18h-253zM753 385h233l3 -33h-212q-3 5 -7 10.5t-9 12t-8 10.5zM540 569h367q21 -29 23 -32h-341q-8 6 -24.5 16.5t-24.5 15.5zM627 508 h320l15 -33h-295q-26 22 -40 33zM234 938h261q3 -5 7 -10.5t9 -12t8 -10.5h-282q-3 17 -3 33zM243 877h299q20 -22 31 -33h-318q-1 4 -4 10.5t-5 12t-3 10.5zM268 815h336q13 -11 41 -33h-357q-14 22 -20 33zM310 754h375q4 -3 13.5 -9t14.5 -9l24 -15h-398q-20 22 -29 33z M369 692h410q28 -22 41 -33h-413q-14 11 -38 33zM446 631h406q11 -11 31 -33h-389q-8 5 -16 10.5t-17.5 12t-14.5 10.5zM353 1151q26 16 66 26q0 -17 1 -26h-67zM313 1122h111q1 -5 3 -16t3 -16h-147q11 15 30 32zM264 1061h174q3 -11 11 -33h-201q6 16 16 33zM240 999h221 q2 -5 17 -32h-244q0 5 1 10.5t2.5 11.5zM853 1184h90l-2 -33h-51q-31 18 -55 29q3 0 9 2t9 2zM655 10q59 0 101.5 38t42.5 91q0 220 -305 406q-306 186 -306 402q0 117 84 199.5t203 82.5h2q45 0 133 -6q70 -5 124 -5q91 0 154 23t101 84h4v-393h-4q0 99 -105 169.5 t-274 96.5q-61 10 -135 10q3 -242 282 -413q146 -89 232 -203.5t86 -249.5q0 -94 -59.5 -176t-156.5 -129t-204 -47q-108 0 -237 27q-118 25 -189 25q-60 0 -105 -15q0 85 42 145t101 60q45 0 81.5 -23t64 -55.5t57.5 -65t77 -55.5t108 -23zM743 1193q143 -44 213 -122 l13 191q-75 -67 -226 -69zM1010 342q0 123 -77 227t-209 184t-208.5 190t-76.5 245q0 2 0.5 7t0.5 7q-97 -14 -162 -86t-65 -169q0 -201 294 -381q316 -194 316 -427q0 -62 -48 -108q107 37 171 121t64 190zM508 26q-36 23 -70 58.5t-53.5 60.5t-50 44t-67.5 19 q-41 0 -74.5 -41t-42.5 -108q37 8 79 8q71 0 194 -26q51 -11 85 -15z" />
<glyph unicode="T" horiz-adv-x="1392" d="M588 414v32h176v-32h-176zM588 385h176v-33h-176v33zM588 1151v33h192q-1 -6 -2.5 -17t-2.5 -16h-187zM588 1122h183q-1 -5 -2 -16t-1 -16h-180v32zM588 1061h177q-1 -11 -1 -33h-176v33zM588 999h176v-32h-176v32zM588 938h176v-33h-176v33zM588 877h176v-33h-176v33z M588 815h176v-33h-176v33zM588 754h176v-33h-176v33zM588 692h176v-33h-176v33zM588 631h176v-33h-176v33zM588 569h176v-32h-176v32zM588 508h176v-33h-176v33zM794 168h-232q4 11 10 33h211q3 -11 11 -33zM808 139q12 -22 19 -33h-291q3 5 5.5 10.5t5 12t4.5 10.5h257z M848 78q9 -11 29 -33h-384q5 6 25 33h330zM764 324q0 -22 1 -33h-178q1 11 1 33h176zM769 262l6 -33h-196q4 22 5 33h185zM1248 1184l2 -33h-97q-24 19 -46 33h141zM1251 1122l2 -32h-34q-6 6 -17.5 17t-15.5 15h65zM280 1184q-23 -14 -49 -33h-93l3 33h139zM196 1122 q-6 -5 -33 -32h-31q0 6 1 16.5t2 15.5h61zM543 328v880h-25q-147 0 -266 -105.5t-186 -277.5h-5l43 445q175 -41 373 -41h438q198 0 373 41l43 -445h-4q-67 172 -186 277.5t-267 105.5h-24v-880q0 -122 54.5 -212.5t146.5 -111.5v-4h-709v4q92 21 146.5 111.5t54.5 212.5z M375 1207q-121 6 -249 33l-26 -269q100 169 275 236zM1017 1207q154 -60 261 -230l-12 263q-129 -27 -249 -33zM567 328q0 -95 -32 -175t-93 -128h489q-147 115 -147 303v676q0 95 21 200h-238v-876z" />
<glyph unicode="U" horiz-adv-x="1536" d="M1330 1151h-148q-25 28 -31 33h213q-6 -5 -34 -33zM1306 1122q-21 -29 -23 -32h-58q-3 6 -10 16t-11 16h102zM1267 1061l-13 -30l-14 30h27zM897 45h-203q-48 9 -106 33h291q30 -2 45 -2t41 2h28q-51 -24 -96 -33zM446 168q-12 10 -33 33h186q18 -18 39 -33h-192z M481 139h202q33 -19 69 -33h-221q-28 16 -50 33zM301 414q-1 6 -3 16t-3 16h175q0 -5 1 -10.5t2.5 -11.5l2.5 -10h-175zM309 385h174q3 -11 11 -33h-174q-8 22 -11 33zM331 324h176q2 -5 5 -10.5t7 -12t6 -10.5h-177q-12 22 -17 33zM365 262h179q4 -5 8.5 -10.5t10 -12 t8.5 -10.5h-182zM291 508h176v-12v-21h-175q-1 11 -1 33zM291 877h176v-33h-176v33zM291 815h176v-33h-176v33zM291 754h176v-33h-176v33zM291 692h176v-33h-176v33zM291 631h176v-33h-176v33zM291 569h176v-32h-176v32zM221 1151q-20 27 -25 33h384q-20 -22 -29 -33h-330z M238 1122h292q-11 -17 -19 -32h-257q-7 16 -16 32zM265 1061h233l-12 -33h-211q-6 22 -10 33zM282 999h196q-1 -2 -6 -32h-185q-1 9 -5 32zM290 938h178q-1 -11 -1 -33h-176q0 22 -1 33zM1270 428q0 -181 -137.5 -309.5t-331.5 -128.5q-151 0 -279 69.5t-202 189t-74 261.5 v391q0 122 -54.5 212.5t-146.5 111.5v4h709v-4q-92 -21 -146.5 -111.5t-54.5 -212.5v-405q0 -155 108.5 -265t262.5 -110q134 0 229.5 90t95.5 217v391q0 168 -89 287t-214 119v4h606v-4q-119 -11 -200.5 -128t-81.5 -278v-391zM1156 180q-100 -84 -232 -84 q-181 0 -309 117.5t-128 282.5v405q0 188 147 303h-489q60 -46 92.5 -127t32.5 -176v-391q0 -134 70.5 -248.5t193 -181t267.5 -66.5q107 0 200 44.5t155 121.5zM1426 1204h-333q115 -75 161 -239q37 154 172 239z" />
<glyph unicode="V" horiz-adv-x="1566" d="M911 168h-254l-14 33h282zM899 139l-14 -33h-202l-14 33h230zM873 78l-14 -33h-151l-14 33h179zM951 262l-14 -33h-305l-14 33h333zM555 414l-13 32h195q7 -16 16 -32h-198zM567 385h202q2 -4 6 -11t7.5 -12.5t7.5 -9.5h-209zM593 324h221q19 -21 38 -33h-246zM402 782 q-1 2 -2.5 6.5t-2.5 6.5q-2 4 -4 10t-4 10h194l13 -33h-194zM414 754h194l14 -33h-194q-2 6 -7 17t-7 16zM440 692h194l14 -33h-195q-3 5 -6.5 16t-6.5 17zM465 631h194q3 -6 7 -17t7 -16h-194q-3 5 -7 16t-7 17zM491 569h194l14 -32h-195q-3 6 -6.5 16t-6.5 16zM516 508 h195l13 -33h-194zM196 1151q-3 4 -9 10.5t-11 12t-10 10.5h280l9 -33h-259zM220 1122h243q5 -18 10 -32h-228q-4 6 -12.5 16.5t-12.5 15.5zM264 1061h219l12 -33h-210zM301 999h205q2 -6 14 -32h-201q-3 6 -9 16t-9 16zM333 938h198l14 -33h-196q-2 5 -8 16t-8 17zM362 877 h195l14 -33h-194zM1390 1151h-171q-5 11 -17 33h219q-5 -5 -15.5 -16t-15.5 -17zM1365 1122q-4 -5 -13.5 -16t-14.5 -16h-91q-6 17 -13 32h132zM1315 1061q-4 -6 -11.5 -17t-11.5 -16h-28l-9 33h60zM678 0l-323 778q-69 165 -137 271.5t-175 177.5l2 2h455l307 -737 q71 -170 134 -170q33 0 64.5 42.5t69.5 131.5l127 294q29 68 29 140q0 144 -111 299h406l2 -2q-197 -183 -307 -445l-332 -782h-211zM1469 1204h-303q89 -143 89 -274q74 134 214 274zM998 321q-36 -34 -67 -34q-106 0 -187 195l-197 472q-61 145 -84 250h-350 q86 -74 146.5 -174t118.5 -242l316 -763h179z" />
<glyph unicode="W" horiz-adv-x="2324" d="M455 1151h-260q-20 22 -31 33h282zM463 1122q5 -18 10 -32h-229q-9 13 -25 32h244zM483 1061l12 -33h-211l-21 33h220zM506 999q2 -6 14 -32h-201q-3 6 -9 16t-9 16h205zM531 938l14 -33h-196q-2 5 -8 16t-8 17h198zM557 877l14 -33h-194l-15 33h195zM583 815l13 -33 h-194q-1 2 -2.5 6.5t-2.5 6.5q-2 4 -4 10t-4 10h194zM608 754l14 -33h-194q-2 6 -7 17t-7 16h194zM634 692l14 -33h-195q-3 5 -6.5 16t-6.5 17h194zM659 631q3 -6 7 -17t7 -16h-194q-3 5 -7 16t-7 17h194zM685 569l14 -32h-195q-3 6 -6.5 16t-6.5 16h194zM711 508l13 -33 h-194l-14 33h195zM752 414h-197l-13 32h195q12 -27 15 -32zM768 385q2 -4 6.5 -11t8 -12.5t6.5 -9.5h-208l-14 33h201zM812 324q15 -18 37 -33h-243l-13 33h219zM911 168h-254l-14 33h282zM899 139l-14 -32h-202l-14 32h230zM873 78l-14 -33h-151l-14 33h179zM951 262 l-14 -33h-305l-14 33h333zM2147 1151h-171q-5 11 -17 33h219q-11 -11 -31 -33zM2121 1122q-4 -5 -13 -16t-14 -16h-92q-6 17 -13 32h132zM2072 1061l-24 -33h-28q-1 6 -3.5 17t-4.5 16h60zM1308 1184q0 -6 -1.5 -17t-2.5 -16h-296q-3 5 -7 16t-7 17h314zM1301 1122 q-1 -11 -1 -32h-267q-3 6 -6.5 16.5t-6.5 15.5h281zM1300 1061q0 -22 1 -33h-242q-3 6 -7 17t-7 16h255zM1302 999q0 -5 2 -16t2 -16h-222q-3 5 -7 15.5t-7 16.5h232zM1310 938q1 -5 3.5 -16t3.5 -17h-207q-2 6 -6.5 17t-7.5 16h214zM1324 877l9 -33h-198q-2 5 -7 16t-7 17 h203zM1342 815l12 -33h-194q-2 6 -6 17t-7 16h195zM1365 754l14 -33h-193q-2 6 -6.5 17t-7.5 16h193zM1391 692l14 -33h-194q-3 5 -7 16t-6 17h193zM1417 631q3 -6 7 -17t7 -16h-194q-2 5 -7 16t-7 17h194zM1443 569l13 -32h-194q-2 5 -6 15.5t-7 16.5h194zM1468 508l14 -33 h-194q-3 6 -7.5 17t-6.5 16h194zM1510 414h-197q-3 6 -7 16.5t-6 15.5h195q12 -27 15 -32zM1526 385q2 -4 6.5 -11t8 -12.5t6.5 -9.5h-208q-2 6 -6.5 17t-7.5 16h201zM1570 324q16 -20 36 -33h-242q-2 5 -7 16t-7 17h220zM1669 168h-254q-3 5 -7 16t-7 17h282zM1657 139 l-14 -32h-203q-3 6 -6.5 16.5t-6.5 15.5h230zM1631 78l-14 -33h-151l-14 33h179zM1709 262l-14 -33h-306q-2 5 -6.5 16t-6.5 17h333zM678 0l-323 778q-45 107 -81.5 178t-96.5 145.5t-134 123.5v4h457l307 -737q72 -173 134 -173q61 0 133 171l80 189l-227 550h449 q-10 -54 -10 -112q0 -150 79 -339l120 -286q72 -173 134 -173q61 0 133 171l128 300q27 64 27 138q0 145 -109 301h406l2 -2q-198 -185 -308 -445l-331 -782h-211l-271 652l-276 -652h-211zM964 1204l488 -1179h178l124 291q-36 -32 -65 -32q-105 0 -188 198l-120 287 q-61 145 -61 298q0 63 11 137h-367zM2227 1204h-303q88 -144 88 -276q40 76 90.5 139t124.5 137zM463 1204h-352q87 -73 147.5 -173t119.5 -243l316 -763h179l123 291q-36 -32 -65 -32q-104 0 -187 198l-197 472q-61 145 -84 250z" />
<glyph unicode="X" horiz-adv-x="1423" d="M1164 1151h-160q-6 11 -20 33h218q-26 -22 -38 -33zM1133 1122l-32 -32h-69q-2 6 -14 32h115zM1076 1061q-18 -22 -26 -33h-1q-2 11 -8 33h35zM353 168h-77l24 33h46q4 -22 7 -33zM362 139q2 -5 5.5 -16t5.5 -17h-146l27 33h108zM386 78q10 -22 16 -33h-230q5 6 15.5 17 t15.5 16h183zM341 229h-21q16 24 19 29q0 -11 2 -29zM529 1151h-283q-22 22 -34 33h304q2 -5 6.5 -16t6.5 -17zM541 1122q2 -6 7 -16.5t8 -15.5h-252q-5 5 -15 15.5t-15 16.5h267zM569 1061q10 -22 16 -33h-231q-5 5 -13 16t-13 17h241zM600 999q3 -6 9 -16.5t9 -15.5h-219 q-4 6 -11.5 16t-11.5 16h224zM634 938l18 -33h-212q-3 6 -10.5 17t-11.5 16h216zM669 877l18 -33h-210q-12 22 -19 33h211zM704 815l18 -33h-210q-2 3 -5.5 9t-4.5 9q-2 3 -4.5 8l-3.5 7h210zM738 754l19 -33h-210l-18 33h209zM773 692l19 -33h-209l-19 33h209zM808 631 q3 -5 9.5 -16t9.5 -17h-209l-19 33h209zM843 569l19 -32h-209l-19 32h209zM878 508q3 -5 9.5 -16t9.5 -17h-209q-3 6 -9.5 17t-9.5 16h209zM913 446q2 -3 5.5 -9t4.5 -9q2 -2 5 -7t4 -7h-209q-3 6 -9.5 16.5t-9.5 15.5h209zM1102 168h-239l-18 33h230zM1127 139l15.5 -15.5 t15.5 -16.5h-260q-3 5 -9 16t-9 16h247zM1186 78q11 -11 35 -33h-288l-18 33h271zM949 385q4 -5 10 -16t10 -17h-211q-3 5 -9.5 16t-9.5 17h210zM987 324q4 -6 11.5 -17t10.5 -16h-216q-3 5 -9.5 16t-9.5 17h213zM1029 262l24 -33h-225l-19 33h220zM444 479 q-52 -91 -52 -194q0 -139 87 -285h-416v4q75 64 144 150t110.5 152.5t108.5 182.5l101 176l-64 113q-82 146 -169 254t-204 193v4h471l324 -569l96 189q28 56 28 118q0 138 -118 262h430v-4q-107 -87 -185.5 -179t-136.5 -206l-102 -201l107 -188q86 -153 166 -258t190 -189 v-4h-453l-368 645zM530 1204h-373q175 -143 327 -414l438 -765h353q-191 161 -334 414l-293 515q-71 124 -118 250zM362 332q-117 -190 -239 -307h314q-78 131 -78 252zM1258 1204h-314q90 -116 90 -237q40 67 91 118.5t133 118.5z" />
<glyph unicode="Y" horiz-adv-x="1454" d="M473 1151h-271q-6 5 -16.5 16t-15.5 17h290q2 -5 6.5 -16t6.5 -17zM485 1122q3 -6 7 -16t7 -16h-242q-10 12 -28 32h256zM512 1061q2 -5 8 -16t8 -17h-224q-4 6 -12.5 17t-12.5 16h233zM543 999q3 -5 8.5 -15.5t8.5 -16.5h-213q-2 3 -23 32h219zM576 938l19 -33h-209 l-21 33h211zM611 877l19 -33h-208q-3 6 -9.5 17t-9.5 16h208zM647 815l18 -33h-208l-10 18l-9 15h209zM682 754l10 -19q2 -3 5 -7t4 -7h-209l-19 33h209zM721 692q11 -15 31 -33h-225l-19 33h213zM790 631q48 -29 101 -29q1 0 4 0.5t4 0.5l-3 -5h-335l-18 33h247zM873 569 q-4 -6 -13 -16.5t-13 -15.5h-251l-18 32h295zM824 508l-17 -22q-4 -6 -4 -11h-176v3q0 6 -3 10l-11 20h211zM803 414h-176v32h176v-32zM803 385v-33h-176v33h176zM834 168h-233q4 11 10 33h211q1 -4 3.5 -10.5t4.5 -12t4 -10.5zM847 139q2 -4 20 -32h-293q9 16 16 32h257z M888 78q9 -11 29 -33h-386q12 13 25 33h332zM803 324q0 -22 1 -33h-179q2 22 2 33h176zM808 262l6 -33h-197l6 33h185zM1260 1151h-157l-21 33h213q-24 -22 -35 -33zM1231 1122q-5 -6 -15 -16.5t-15 -15.5h-66q-7 16 -16 32h112zM1177 1061q-8 -9 -22 -29q-1 6 -4.5 16.5 t-4.5 12.5h31zM582 328v143l-174 307q-87 153 -166.5 258.5t-188.5 188.5v4h451l268 -471q57 -100 130 -100t129 99l65 115q23 39 23 89q0 121 -130 268h418v-4q-90 -79 -159.5 -165.5t-133.5 -197.5l-225 -395v-139q0 -122 55 -212.5t148 -111.5v-4h-713v4q93 21 148 111.5 t55 212.5zM1348 1204h-306q94 -123 101 -226q27 43 62.5 84.5t64.5 69.5t78 72zM474 1204h-357q91 -79 162.5 -178t149.5 -236l177 -312v-150q0 -95 -32.5 -175t-94.5 -128h492q-148 114 -148 303v145l132 167q-32 -17 -64 -17q-112 0 -181 123l-119 208q-68 119 -117 250z " />
<glyph unicode="Z" horiz-adv-x="1392" d="M1144 1184q-13 -11 -37 -33h-278q3 5 8.5 16l8.5 17h298zM1078 1122l-32 -32h-249q3 5 8.5 16t8.5 16h264zM1020 1061q-4 -5 -13.5 -16t-14.5 -17h-228l18 33h238zM969 999q-4 -6 -12.5 -16t-12.5 -16h-212l17 32h220zM924 938l-21 -33h-204l18 33h207zM885 877 q-14 -22 -20 -33h-198q3 5 8.5 16l8.5 17h201zM849 815q-1 -2 -4 -7t-4 -8l-9 -18h-197l17 33h197zM636 414h-196l9 18l8 14h196zM621 385l-18 -33h-197q3 5 9.5 16.5t9.5 16.5h196zM588 324l-18 -33h-199q3 5 9.5 16t9.5 17h198zM555 262l-14 -26q-1 -1 -2 -3.5t-1 -3.5 h-205l21 33h201zM817 754l-18 -33h-197l17 33h198zM784 692l-18 -33h-196l17 33h197zM751 631l-8.5 -17t-8.5 -16h-197l18 33h196zM719 569q-3 -5 -9 -15.5t-9 -16.5h-196l17 32h197zM686 508l-18 -33h-196l18 33h196zM509 168h-218q4 6 11.5 17t11.5 16h210zM497 139 q-2 -6 -6.5 -17t-6.5 -16h-241q5 6 13 17t13 16h228zM474 78q-4 -11 -10 -33h-276l30 33h256zM1162 168q19 14 39 33h47l1 -33h-87zM1124 139h126q0 -5 1 -16t1 -17h-180q25 14 52 33zM1019 78h234l1 -33h-311q36 14 76 33zM320 1151h-156v33h231q-39 -15 -75 -33zM270 1122 q-27 -17 -46 -32h-60v32h106zM192 1061q-10 -9 -28 -29v29h28zM1292 1229v-4q-115 -83 -199 -190.5t-163 -256.5l-403 -758q168 0 311.5 37.5t264.5 122.5t193 211h4v-391h-1226v2q103 83 178.5 189.5t157.5 261.5l398 755q-159 -1 -293.5 -36.5t-240 -115t-151.5 -196.5h-4 v369h1173zM544 1204h-401v-231q119 172 401 231zM802 25h474l-12 274q-162 -206 -462 -274zM834 1204l-403 -763q-73 -139 -139.5 -237t-154.5 -179h342q36 119 80 201l300 564q131 247 342 414h-367z" />
<glyph unicode="[" horiz-adv-x="778" d="M209 1491h247q-10 -12 -26 -33h-221v33zM209 1430h203q-9 -16 -15 -33h-188v33zM209 1368h180q-4 -22 -4 -33h-176v33zM209 1307h176v-33h-176v33zM209 1245h176v-33h-176v33zM209 -262v33h216q16 -21 26 -33h-242zM209 -139v33h176v-7q0 -8 2 -26h-178zM209 -168h185 q8 -22 13 -33h-198v33zM209 -16v32h176v-32h-176zM209 -45h176v-33h-176v33zM209 1184h176v-33h-176v33zM209 45v33h176v-33h-176zM209 168v33h176v-33h-176zM209 139h176v-33h-176v33zM209 414v32h176v-32h-176zM209 385h176v-33h-176v33zM209 324h176v-33h-176v33z M209 262h176v-33h-176v33zM209 1122h176v-32h-176v32zM209 1061h176v-33h-176v33zM209 999h176v-32h-176v32zM209 938h176v-33h-176v33zM209 877h176v-33h-176v33zM209 815h176v-33h-176v33zM209 754h176v-33h-176v33zM209 692h176v-33h-176v33zM209 631h176v-33h-176v33z M209 569h176v-32h-176v32zM209 508h176v-33h-176v33zM164 -338v1905h508v-4q-84 -19 -142.5 -86.5t-58.5 -145.5v-1444q0 -77 57.5 -139.5t143.5 -81.5v-4h-508zM188 -313h353q-58 39 -96.5 91t-38.5 109v1444q0 58 40 113.5t99 97.5h-357v-1855z" />
<glyph unicode="\" horiz-adv-x="1024" d="M205 1245q7 -17 14 -29l3 -4h-70q4 11 16 33h37zM238 1184q3 -6 9.5 -17t9.5 -16h-118q1 11 5 33h94zM826 168h-157l-18 33h156zM683 414h-155l-19 32h155zM700 385l19 -33h-156q-3 5 -9.5 16t-9.5 17h156zM736 324l18 -33h-156l-18 33h156zM771 262l19 -33h-156 q-3 6 -9.5 17t-9.5 16h156zM274 1122l19 -32h-149q-3 11 -5 32h135zM309 1061l19 -33h-155l-10 16q-1 2 -3.5 8t-4.5 9h154zM345 999l19 -32h-156l-19 32h156zM380 938q3 -6 9.5 -17t9.5 -16h-155l-19 33h155zM416 877l19 -33h-156l-19 33h156zM451 815q3 -5 9.5 -16 t9.5 -17h-155l-19 33h155zM487 754l19 -33h-156l-19 33h156zM522 692q3 -6 9.5 -17t9.5 -16h-155l-19 33h155zM558 631q3 -5 9.5 -16t9.5 -17h-156l-19 33h156zM593 569q3 -5 9.5 -15.5t9.5 -16.5h-155l-19 32h155zM629 508l19 -33h-156l-19 33h156zM840 139q5 -11 11 -33 h-146q-3 6 -9.5 17t-9.5 16h154zM856 78q1 -8 1 -23v-10h-117l-19 33h135zM845 -16h-69l-19 32h97q-3 -14 -9 -32zM124 1023q-30 51 -30 112q0 135 131 244l676 -1171q31 -53 31 -112q0 -134 -132 -244zM203 1324q-85 -87 -85 -189q0 -52 28 -101l660 -1144q72 67 72 165 q0 64 -33 121l-608 1051q-27 48 -34 97z" />
<glyph unicode="]" horiz-adv-x="778" d="M540 1491q-4 -22 -5 -33h-218q-17 27 -22 33h245zM532 1430q0 -6 -1 -17t-1 -16h-187q-5 17 -12 33h201zM529 1368q0 -4 -0.5 -13t-0.5 -14v-6h-176q0 17 -3 33h180zM528 1307v-33h-176v33h176zM528 1245v-33h-176v33h176zM528 -16h-176v32h176v-32zM528 -45v-33h-176v33 h176zM528 -106v-7q0 -5 0.5 -13t0.5 -13h-178q1 9 1 26v7h176zM528 1184v-33h-176v33h176zM528 45h-176v33h176v-33zM528 168h-176v33h176v-33zM528 139v-33h-176v33h176zM528 414h-176v32h176v-32zM528 385v-33h-176v33h176zM528 324v-33h-176v33h176zM528 262v-33h-176v33 h176zM528 1122v-32h-176v32h176zM528 1061v-33h-176v33h176zM528 999v-32h-176v32h176zM528 938v-33h-176v33h176zM528 877v-33h-176v33h176zM528 815v-33h-176v33h176zM528 754v-33h-176v33h176zM528 692v-33h-176v33h176zM528 631v-33h-176v33h176zM528 569v-32h-176v32 h176zM528 508v-33h-176v33h176zM539 -262h-239q13 16 22 33h213q2 -22 4 -33zM530 -168q0 -5 1 -16t1 -17h-197q8 22 11 33h184zM614 -338h-508v4q86 19 143.5 81.5t57.5 139.5v1444q0 78 -58.5 145.5t-142.5 86.5v4h508v-1905zM569 1542h-356q53 -37 86 -93.5t33 -117.5 v-1444q0 -120 -116 -200h353q-20 100 -20 200v1454q0 101 20 201z" />
<glyph unicode="^" horiz-adv-x="901" d="M563 1143l47 -33h-72q-14 23 -18 33h43zM652 1081l47 -32h-112l-19 20q-4 4 -10 12h94zM708 1020l-28 -33h-36l-30 33h94zM375 1143q-5 -15 -14 -33h-76q8 6 24.5 17t24.5 16h41zM343 1081l-10 -12l-19 -20h-123l50 32h102zM288 1020l-31 -33h-42l-34 33h107zM453 1192 h-5q-34 -101 -82 -153l-127 -138l-143 138l287 190h135l288 -190l-144 -138l-127 138q-48 52 -82 153zM412 1204h-22l-255 -168l103 -100l110 119q40 43 64 149zM475 1204l1 -4q31 -95 77 -145l110 -119l87 102l-239 166h-36z" />
<glyph unicode="_" horiz-adv-x="1146" d="M122 -324l5 33h857q0 -2 -1 -5.5t-1 -5.5q0 -3 -1 -10.5t-2 -11.5h-857zM117 -352h857l-2 -13h-857zM132 -262q0 2 1 6t1 6h864q-1 -2 -2.5 -6t-2.5 -6h-861zM1051 -410h-990l35 205h989zM989 -385l13 79q8 48 34 77h-919l-26 -156h898z" />
<glyph unicode="`" horiz-adv-x="634" d="M157 1110q-10 15 -10 27q0 1 0.5 3t0.5 3h103q9 -9 29 -33h-123zM185 1081h119q4 -5 12.5 -15.5t13.5 -16.5h-94q-35 18 -51 32zM299 1020h54q3 -5 10 -13t11 -13q-32 9 -75 26zM530 911q-89 17 -162.5 38t-135 48.5t-96 63.5t-34.5 76q0 38 27.5 65t65.5 27 q82 0 162 -99l175 -217zM430 958l-127 156q-22 27 -34 40.5t-32.5 26.5t-41.5 13q-28 0 -48 -16.5t-20 -40.5q0 -51 81.5 -97.5t221.5 -81.5z" />
<glyph unicode="a" d="M673 782q68 9 120 9q24 0 56 -9h-176zM908 754q16 -11 36 -33h-200q-24 21 -46 33h210zM966 692q8 -14 17 -33h-186q-11 18 -24 33h193zM992 631q4 -17 6 -33h-170q-4 11 -14 33h178zM999 414h-155v32h155v-32zM999 385v-33h-155v33h155zM999 324v-33h-155v33h155z M999 262v-16q0 -3 0.5 -9t0.5 -8h-156v33h155zM999 569v-32h-157q-1 15 -6 32h163zM999 508v-33h-155v27v6h155zM1016 168h-168q-4 22 -4 33h161q6 -22 11 -33zM1032 139q11 -19 25 -33h-182q-11 15 -18 33h175zM1089 78q21 -16 45 -30q-2 0 -6.5 -1t-7.5 -2h-164 q-29 10 -55 33h188zM333 45q-51 13 -86 33h100q21 -19 43 -33h-57zM163 168q-5 12 -5 31v2h135v-2q0 -16 3 -31h-133zM178 139h127q9 -21 18 -33h-116q-13 11 -29 33zM348 352q43 12 59 15l-21 -15h-38zM273 324h78q-18 -18 -28 -33h-104q23 18 54 33zM187 262h120 q-8 -16 -11 -33h-131q8 18 22 33zM249 692q-18 -19 -22 -23q-1 8 -3 23h25zM799 502q0 102 -72.5 174t-174.5 72q-133 0 -227 -55t-94 -132h-4q-49 60 -49 154v116h4q56 -96 183 -96q224 101 428 101q121 0 206.5 -77t85.5 -186v-327q0 -73 52 -129t133 -74v-4 q-154 -49 -256 -49q-78 0 -137.5 49t-73.5 124q-125 -116 -217 -149q-68 -24 -162 -24q-129 0 -220 61.5t-91 147.5q0 94 126.5 159.5t305.5 65.5q71 0 125 -10v-4q-129 -20 -215 -77t-86 -134q0 -61 54 -104.5t130 -43.5q102 0 246 137v314zM314 715q-66 13 -111 53v-53 q0 -54 17 -95q26 56 94 95zM539 27q-93 0 -159.5 50.5t-66.5 121.5q0 67 61 119t158 82q-168 -3 -281.5 -64t-113.5 -137q0 -73 82.5 -129t204.5 -56q57 0 115 13zM531 772h21q112 0 191.5 -79t79.5 -191v-297q0 -79 56 -135t135 -56q78 0 183 29q-79 28 -128 82t-49 121 v327q0 98 -66.5 168t-160.5 70q-131 0 -262 -39z" />
<glyph unicode="b" horiz-adv-x="1341" d="M990 754q27 -14 51 -33h-183q-21 17 -47 33h179zM1072 692q13 -13 28 -33h-183q-23 27 -28 33h183zM1119 631q2 -4 6 -10.5t7 -12t5 -10.5h-180q-12 22 -19 33h181zM1149 569q5 -14 10 -32h-176q-10 28 -12 32h178zM1166 508q4 -22 5 -33h-171q-2 11 -8 33h174zM1173 446 v-16v-16h-166q-1 5 -2 16t-1 16h169zM903 45h-59q23 17 41 33h97q-43 -24 -79 -33zM1085 168h-132q6 11 16 33h139q-13 -21 -23 -33zM1060 139q-16 -18 -36 -33h-113q5 6 25 33h124zM1171 385q-2 -22 -4 -33h-161q2 22 2 33h163zM1161 324q-6 -22 -10 -33h-153q1 5 2.5 16 t2.5 17h158zM1140 262q-2 -4 -4.5 -10.5t-5 -12t-5.5 -10.5h-145q8 22 11 33h149zM229 414v32h156v-32h-156zM229 385h156v-33h-156v33zM229 324h156v-33h-156v33zM229 262h156v-33h-156v33zM229 999h156v-32h-156v32zM229 938h156v-33h-156v33zM229 877h156v-33h-156v33z M229 815h156v-33h-156v33zM229 754h156v-33h-156v33zM229 692h156v-33h-156v33zM229 631h156v-33h-156v33zM229 569h156v-32h-156v32zM229 508h156v-33h-156v33zM165 1184h217q3 -8 3 -17v-16h-194q-11 16 -26 33zM207 1122h178v-32h-165q-2 8 -13 32zM226 1061h159v-33 h-156q0 16 -3 33zM385 201v-29q-1 0 -1 -2t-1 -2h-154v33h156zM367 139l-17 -33h-125l3 33h139zM334 78l-18 -33h-98q2 11 4 33h112zM184 205v819q0 73 -51.5 128t-130.5 73v4l326 31h16q53 0 90 -27.5t37 -65.5v-417q206 79 393 79q164 0 280 -117t116 -282 q0 -182 -128 -311t-309 -129q-94 0 -162 24q-86 31 -199 133l-122 -147h-176q20 103 20 205zM471 726v-561q132 -122 223 -122q111 0 190 101.5t79 244.5q0 152 -96 260.5t-232 108.5q-66 0 -164 -32zM209 205q0 -88 -16 -180h135l77 142v1000q0 28 -18 48t-43 20h-15 l-232 -22q50 -31 81 -80.5t31 -108.5v-819zM657 782q139 -10 234.5 -123.5t95.5 -269.5q0 -139 -73 -245t-183 -123q41 -7 92 -7q154 0 262.5 122t108.5 294q0 155 -96.5 265t-233.5 110q-106 0 -207 -23z" />
<glyph unicode="c" horiz-adv-x="1146" d="M332 692q-14 -22 -20 -33h-63q19 18 42 33h41zM298 631q-5 -11 -13 -33h-92q12 16 27 33h78zM277 569q-4 -23 -5 -32h-115q2 5 17 32h103zM269 508q0 -4 -0.5 -11t-0.5 -10v-12h-132l9 33h124zM417 168h-188q-5 5 -28 33h182q28 -28 34 -33zM454 139q26 -18 54 -33h-204 q-25 16 -44 33h194zM575 78q73 -24 143 -27q-20 -4 -31 -6h-242q-49 13 -91 33h221zM275 414h-148q0 16 3 32h140q1 -9 5 -32zM281 385q6 -22 10 -33h-160q-2 11 -4 33h154zM302 324q10 -22 16 -33h-170q-4 11 -10 33h164zM335 262q7 -11 23 -33h-178q-7 11 -19 33h174z M882 782q40 7 71 19q-1 -3 -1 -9.5t-1 -9.5h-69zM948 754l-3 -33h-1q-17 18 -34 33h38zM82 401q0 116 68.5 214.5t186.5 156t257 57.5q31 0 103 -4q68 -4 100 -4q134 0 203 59l4 -1l-15 -369h-4q0 121 -102 207t-248 91q-5 0 -15 0.5t-16 0.5q-103 0 -176.5 -94.5 t-73.5 -227.5q0 -160 111.5 -272.5t269.5 -112.5q131 0 277 60l2 -2q-178 -172 -469 -172q-117 0 -223.5 55t-173 151.5t-66.5 206.5zM801 797q101 -44 159 -129l17 166q-67 -37 -176 -37zM474 793q-161 -34 -264.5 -143.5t-103.5 -248.5q0 -102 62.5 -192.5t164 -143.5 t212.5 -53q198 0 343 83q-70 -23 -153 -23q-91 0 -173.5 33t-142 88.5t-95 132.5t-35.5 161q0 98 48.5 178t136.5 128z" />
<glyph unicode="d" horiz-adv-x="1423" d="M494 754q-31 -17 -52 -33h-155q24 18 55 33h152zM408 692q-6 -5 -31 -33h-155q17 20 31 33h155zM356 631q-14 -22 -20 -33h-156q6 11 20 33h156zM322 569q-7 -15 -13 -32h-157q6 17 13 32h157zM302 508q-1 -4 -2.5 -10.5t-2.5 -12t-1 -10.5h-161q2 11 8 33h159zM293 446 v-16v-16h-165q0 5 1 15.5t2 16.5h162zM509 45h-85q-44 9 -93 33h125q26 -20 53 -33zM371 168h-158q-10 12 -26 33h164q6 -11 20 -33zM392 139q17 -20 31 -33h-141q-19 13 -41 33h151zM295 385q2 -22 4 -33h-170q-2 22 -2 33h168zM304 324q1 -5 2.5 -10.5t3.5 -12t3 -10.5 h-171q-6 22 -8 33h170zM322 262q4 -11 14 -33h-167q-6 11 -16 33h169zM862 1184h216q3 -8 3 -17v-16h-193q-11 16 -26 33zM904 1122h177v-32h-165q-4 14 -12 32zM923 1061h158v-33h-155q0 16 -3 33zM1081 414h-155v32h155v-32zM1081 385v-33h-155v33h155zM1081 324v-33h-155 v33h155zM1081 262v-16q0 -3 0.5 -9t0.5 -8h-156v33h155zM1081 999v-32h-155v32h155zM1081 938v-33h-155v33h155zM1081 877v-33h-155v33h155zM1081 815v-33h-155v33h155zM1081 754v-33h-155v33h155zM1081 692v-33h-155v33h155zM1081 631v-33h-155v33h155zM1081 569v-32h-155 v32h155zM1081 508v-33h-155v33h155zM1097 168h-167q-4 22 -4 33h161q7 -27 10 -33zM1112 139q7 -12 25 -32h-179q-12 15 -19 32h173zM1168 78q17 -14 43 -29q-3 -1 -9.5 -2t-9.5 -2h-148q-34 11 -59 33h183zM82 389q0 182 115.5 311t279.5 129q189 0 404 -83v278 q0 73 -51 128.5t-130 72.5v4l324 31h17q53 0 89.5 -27.5t36.5 -65.5v-921q0 -73 51 -129.5t130 -73.5v-4q-150 -47 -250 -47q-90 0 -153.5 62t-63.5 151v518q-102 35 -174 35q-136 0 -232 -96t-96 -232q0 -155 82.5 -265t199.5 -110q59 0 140 31l2 -4q-117 -92 -285 -92 q-181 0 -308.5 117t-127.5 282zM905 1024v-819q0 -79 56.5 -134t136.5 -55q79 0 176 27q-77 26 -124.5 80.5t-47.5 122.5v921q0 28 -20.5 48t-49.5 20h-7l-230 -22q51 -32 80.5 -81t29.5 -108zM684 782q-101 23 -207 23q-154 0 -262.5 -122t-108.5 -294q0 -154 120.5 -264.5 t291.5 -110.5q72 0 132 17q-140 1 -238.5 117.5t-98.5 281.5q0 144 108.5 247t262.5 105z" />
<glyph unicode="e" horiz-adv-x="1167" d="M809 754q41 -14 75 -33h-55q-9 15 -24 33h4zM928 692q23 -18 37 -33h-105q-2 5 -4.5 10.5t-5.5 12t-5 10.5h83zM988 631q10 -17 18 -33h-128q-1 5 -2.5 10.5t-3.5 12t-3 10.5h119zM1016 569q4 -15 4 -32h-134q0 5 -1 15.5t-2 16.5h133zM1019 508q-1 -11 -5 -33h-129 q2 22 2 33h132zM335 692q-12 -16 -21 -33h-61q19 18 42 33h40zM299 631q-5 -11 -13 -33h-90q12 16 27 33h76zM278 569q-1 -2 -6 -32h-113q8 18 17 32h102zM269 508q0 -4 -0.5 -11t-0.5 -10v-12h-131q6 22 10 33h122zM418 168h-188q-11 11 -29 33h183q28 -28 34 -33zM455 139 q25 -18 54 -33h-205q-25 16 -44 33h195zM577 78q75 -25 146 -26q-13 -3 -34 -7h-244q-47 12 -90 33h222zM275 414h-147q0 16 3 32h139q1 -9 5 -32zM281 385q6 -22 10 -33h-159q-2 11 -4 33h153zM302 324q10 -22 16 -33h-169q-8 22 -11 33h164zM335 262l24 -33h-178 q-7 11 -19 33h173zM471 790q-160 -36 -262 -144.5t-102 -244.5q0 -103 62.5 -193.5t164 -143t212.5 -52.5q196 0 338 81q-68 -20 -149 -20q-121 0 -223.5 55.5t-162.5 150.5t-60 208q0 93 48 171t134 132zM1092 532q0 -63 -31 -143l-691 -10q36 -121 137 -198.5t228 -77.5 q143 0 275 57l2 -2q-180 -171 -466 -171q-117 0 -223.5 55t-173 151.5t-66.5 207.5q0 87 41 166.5t111 136.5t166.5 91t202.5 34q203 0 345.5 -87t142.5 -210zM731 795q63 -42 99 -118.5t36 -168.5q0 -46 -14 -91l165 -4q23 62 23 119q0 96 -88 168t-221 95zM362 410l466 14 q14 47 14 84q0 127 -69 214t-169 87q-103 0 -176.5 -94.5t-73.5 -227.5q0 -37 8 -77z" />
<glyph unicode="f" horiz-adv-x="983" d="M802 758l44 7v-14zM894 1122q15 -17 25 -32h-48q3 17 3 32h20zM491 168h-162q3 16 3 33h155q0 -11 4 -33zM500 139q4 -11 16 -33h-206q7 13 12 33h178zM536 78q5 -6 32 -33h-300q15 17 26 33h242zM332 414v32h155v-32h-155zM332 385h155v-33h-155v33zM332 324h155v-33 h-155v33zM332 262h155v-33h-155v33zM332 631h155v-33h-155v33zM332 569h155v-32h-155v32zM332 508h155v-33h-155v33zM286 754h201v-33h-173q-9 16 -28 33zM326 692h161v-33h-155q0 13 -6 33zM331 844q1 5 1 16v17h155v-33h-156zM323 815h164v-33h-182q11 15 18 33zM332 1090 v16q0 7 3 16h154q-2 -12 -2 -18v-14h-155zM332 1061h155v-33h-155v33zM332 999h155v-32h-155v32zM332 938h155v-33h-155v33zM451 1212q55 18 111 19q-16 -12 -23 -19h-88zM390 1184h123q-11 -16 -17 -33h-144q15 19 38 33zM287 205v450q0 37 -29.5 64t-71.5 37v4 q42 10 71.5 37t29.5 63v246q0 70 83.5 120t202.5 50q111 0 205.5 -33t149.5 -90.5t55 -124.5l-211 -27l-2 3q59 51 59 120q0 46 -32 78.5t-78 32.5q-60 0 -103 -38.5t-43 -92.5v-336l328 51v-123l-328 52v-543q0 -73 51.5 -128t129.5 -73v-4h-648v4q78 18 129.5 73t51.5 128 zM508 205v899q0 51 40.5 89.5t102.5 53.5q-36 4 -78 4q-112 0 -187 -45t-75 -100v-246q0 -62 -64 -102q64 -40 64 -103v-450q0 -111 -97 -180h412q-118 85 -118 180zM836 1190q18 -33 18 -66q0 -40 -16 -73l119 -1q-14 81 -121 140zM667 758l199 -31v61z" />
<glyph unicode="g" horiz-adv-x="1280" d="M797 754q39 -14 72 -33h-62q-14 27 -19 33h9zM912 692q21 -16 35 -33h-115l-12 33h92zM969 631q7 -11 17 -33h-139q-4 22 -7 33h129zM995 569q4 -22 4 -32h-146q-1 6 -1 16.5t-1 15.5h144zM954 414h-113q4 13 7 32h129q-9 -16 -23 -32zM927 385q-21 -19 -43 -33h-65 q5 11 13 33h95zM829 324q-19 -9 -35 -14q3 4 9 14h26zM998 508q-4 -22 -8 -33h-138q2 22 2 33h144zM186 414q-17 17 -28 32h131q6 -17 13 -32h-116zM220 385h97q9 -17 21 -33h-65q-30 16 -53 33zM337 324h25q2 -2 5.5 -6t5.5 -6zM130 508h145q1 -16 6 -33h-140q-8 18 -11 33 zM289 721q36 17 70 28q-13 -13 -25 -28h-45zM238 692h76q-10 -16 -18 -33h-101q28 23 43 33zM167 631h118q-1 -4 -3 -10.5t-3.5 -12t-2.5 -10.5h-131q10 18 22 33zM133 569h140q0 -2 -0.5 -7.5t-0.5 -8.5t0.5 -8.5t0.5 -7.5h-146q0 10 6 32zM1144 905q25 15 47 26l-3 -26 h-44zM1102 877h83l-3 -33h-61q-16 5 -48 11q22 17 29 22zM223 -262q-22 17 -31 33h77q5 -18 14 -33h-60zM269 -291h32q9 -12 19 -22q-18 7 -51 22zM228 -139q19 16 45 26q-3 -8 -7 -26h-38zM201 -168h62q0 -2 -0.5 -6t-0.5 -6q0 -14 1 -21h-76q3 15 14 33zM665 -16h-158 q-21 19 -28 32h148q12 -12 38 -32zM708 -45q40 -23 67 -33h-177q-29 15 -55 33h165zM602 45h-131q0 15 8 33h101q6 -11 22 -33zM555 139q3 -11 11 -33h-69q12 16 30 33h28zM900 -139h-182q-36 21 -62 33h186q27 -13 58 -33zM936 -168q20 -20 27 -33h-162q-16 17 -38 33h173z M974 -229q1 -5 1 -15t-4 -18h-132q-5 14 -16 33h151zM895 -324h-51q2 10 2 17q0 11 -1 16h103q-19 -18 -53 -33zM942 803q86 77 151 123t146 75v-282l-2 -2q-96 96 -197 96q-45 0 -82 -22l-50 -30q82 -41 129.5 -101t47.5 -128q0 -81 -66 -149t-179 -107.5t-246 -39.5v-43 q0 -113 210 -194q257 -99 257 -243q0 -69 -115.5 -117.5t-279.5 -48.5q-142 0 -263 26.5t-191.5 71.5t-70.5 99q0 67 66 114.5t158 47.5l2 -2q-60 -54 -60 -127q0 -86 105.5 -147.5t253.5 -61.5q56 0 95.5 24t39.5 58q0 27 -15 51.5t-46.5 47t-58.5 38t-73 37.5 q-85 41 -133.5 83t-48.5 95q0 94 156 191q-208 3 -354 89t-146 207q0 81 68.5 149t186.5 108t257 40q172 0 306 -64zM358 553q0 -121 59 -207t146 -89q5 0 15 -0.5t16 -0.5t16 0.5t15 0.5q78 3 131 77t53 178q0 121 -53 207t-131 89q-5 0 -15 0.5t-16 0.5t-16 -0.5t-15 -0.5 q-86 -3 -145.5 -77t-59.5 -178zM569 198q-118 -81 -118 -153q0 -75 167 -156q41 -20 59 -29.5t53 -31t51 -38.5t30 -43t14 -54q0 -40 -37 -70q90 17 148.5 51.5t58.5 81.5q0 105 -208 184q-98 38 -158 104t-60 149v5zM425 -363q-65 31 -103.5 78.5t-38.5 104.5q0 55 28 99 q-64 -13 -104.5 -50t-40.5 -82q0 -41 69.5 -83.5t189.5 -66.5zM1017 836q7 1 22 1q77 0 158 -55l17 183q-93 -40 -197 -129zM453 272q-160 107 -160 281q0 142 152 239q-150 -27 -244 -100.5t-94 -159.5q0 -87 96.5 -160.5t249.5 -99.5zM725 794q51 -42 80 -118t29 -164 q0 -74 -27.5 -138.5t-74.5 -101.5q124 24 206 95t82 165q0 95 -84 167t-211 95z" />
<glyph unicode="h" horiz-adv-x="1597" d="M1149 754q24 -14 41 -33h-201q-24 20 -44 33h204zM1214 692q6 -8 17 -33h-189q-11 18 -25 33h197zM1240 631q3 -11 5 -33h-173q-4 11 -14 33h182zM1245 414h-155v32h155v-32zM1245 385v-33h-155v33h155zM1245 324v-33h-155v33h155zM1245 262v-33h-155v33h155zM1245 569 v-32h-158q-1 15 -6 32h164zM1245 508v-33h-155v21q0 2 -0.5 6t-0.5 6h156zM1249 168h-162q2 11 2 33h156q0 -11 4 -33zM1257 139q2 -5 17 -33h-206q8 16 12 33h177zM1294 78q9 -11 31 -33h-299q15 17 26 33h242zM491 168h-162q3 16 3 33h155q0 -11 4 -33zM500 139 q4 -11 16 -33h-207q10 22 13 33h178zM537 78q9 -11 31 -33h-300q12 13 25 33h244zM332 414v32h155v-32h-155zM332 385h155v-33h-155v33zM332 324h155v-33h-155v33zM332 262h155v-33h-155v33zM332 999h155v-32h-155v32zM332 938h155v-33h-155v33zM332 877h155v-33h-155v33z M332 815h155v-33h-155v33zM332 754h155v-33h-155v33zM332 692h155v-33h-155v33zM332 631h155v-33h-155v33zM332 569h155v-32h-155v32zM332 508h155v-33h-155v33zM268 1184h216q3 -8 3 -17v-16h-194q-21 29 -25 33zM310 1122h177v-32h-165q-4 14 -12 32zM329 1061h158v-33 h-155q0 16 -3 33zM287 205v819q0 73 -51 128.5t-130 72.5v4l324 31q0 1 9 0h9q52 0 88.5 -27.5t36.5 -65.5v-446q254 108 465 108q121 0 207 -70.5t86 -170.5v-383q0 -73 50.5 -128.5t129.5 -72.5v-4h-647v4q79 17 129.5 72.5t50.5 128.5v291q0 107 -74.5 182t-180.5 75 q-85 0 -216 -54v-494q0 -73 51 -128.5t130 -72.5v-4h-648v4q79 17 130 72.5t51 128.5zM508 205v962q0 28 -20 48t-48 20h-7l-232 -22q50 -31 80 -81t30 -108v-819q0 -112 -97 -180h412q-118 85 -118 180zM809 777q110 -8 185 -89t75 -192v-291q0 -110 -97 -180h411 q-117 84 -117 180v383q0 90 -67 153.5t-161 63.5q-114 0 -229 -28z" />
<glyph unicode="i" horiz-adv-x="860" d="M351 1212q28 13 57 13q24 0 47 -13h-104zM312 1184h176q12 -15 18 -33h-216q7 16 22 33zM282 1122h231q1 -5 1 -16t-1 -16h-231q-1 5 -1 16t1 16zM507 1061q-6 -19 -16 -33h-183q-11 14 -19 33h218zM463 999q-24 -18 -55 -18q-38 0 -67 18h122zM260 1106 q0 -60 43.5 -102.5t104.5 -42.5q53 0 90 42.5t37 102.5q0 58 -37 98.5t-90 40.5q-61 0 -104.5 -40.5t-43.5 -98.5zM236 1106q0 72 51 123t123 51q76 0 130 -51t54 -123t-54 -123t-130 -51q-72 0 -123 51t-51 123zM332 414v32h155v-32h-155zM332 385h155v-33h-155v33z M332 324h155v-33h-155v33zM332 262h155v-33h-155v33zM332 598v16q0 3 -0.5 9t-0.5 8h156v-33h-155zM332 569h155v-32h-155v32zM332 508h155v-33h-155v33zM285 754h213q-1 -5 -2.5 -16t-2.5 -17h-187q-12 21 -21 33zM318 692h171q-2 -22 -2 -33h-159q-2 11 -10 33zM491 168 h-162q3 16 3 33h155q0 -11 4 -33zM500 139q9 -19 17 -33h-207q7 13 12 33h178zM538 78q14 -18 30 -33h-300q15 17 26 33h244zM287 205v409q0 73 -51.5 128t-129.5 73v4l365 4l102 -8v-610q0 -73 51.5 -128t129.5 -73v-4h-648v4q78 18 129.5 73t51.5 128zM311 205 q0 -111 -97 -180h412q-118 85 -118 180v450q1 64 20 139l-58 5l-258 -3q99 -70 99 -182v-409z" />
<glyph unicode="j" horiz-adv-x="768" d="M321 1212q28 13 56 13q24 0 47 -13h-103zM281 1184h176q12 -15 18 -33h-216q7 16 22 33zM251 1122h231q1 -5 1 -16t-1 -16h-231q-1 5 -1 16t1 16zM476 1061q-6 -19 -16 -33h-182q-13 16 -20 33h218zM432 999q-24 -18 -55 -18q-39 0 -67 18h122zM229 1106 q0 -60 43.5 -102.5t104.5 -42.5q53 0 90 42.5t37 102.5q0 58 -37 98.5t-90 40.5q-61 0 -104.5 -40.5t-43.5 -98.5zM205 1106q0 72 51 123t123 51q76 0 130 -51t54 -123t-54 -123t-130 -51q-72 0 -123 51t-51 123zM467 754q-1 -5 -2.5 -16t-2.5 -17h-187q-12 21 -21 33h213z M458 692q-1 -11 -1 -33h-160q-3 17 -9 33h170zM457 168h-156v33h156v-33zM457 139v-33h-156v33h156zM457 78v-31v-2h-156v8v25h156zM457 414h-156v32h156v-32zM457 385v-33h-156v33h156zM457 324v-33h-156v33h156zM457 262v-33h-156v33h156zM457 631v-33h-156v16v17h156z M457 569v-32h-156v32h156zM457 508v-33h-156v33h156zM246 -324h-53q14 22 20 33h85q-28 -21 -52 -33zM331 -262h-103q2 6 8 17t8 16h117q-13 -18 -30 -33zM417 -139h-141q6 22 8 33h146q-8 -22 -13 -33zM403 -168q-6 -11 -20 -33h-128l12 33h136zM452 -16h-154q0 6 1 16 t1 16h156q0 -5 -2 -16t-2 -16zM448 -45q-2 -11 -8 -33h-150q4 22 5 33h153zM543 815v-768q0 -189 -138 -323t-333 -134v4q184 196 184 459v561q0 73 -51 128t-129 73v4l364 4zM498 794l-59 5l-257 -3q99 -70 99 -182v-561q0 -245 -156 -435q152 18 252 140.5t100 288.5v608 q0 55 21 139z" />
<glyph unicode="k" horiz-adv-x="1402" d="M729 385h100q30 -8 67 -33h-174l-21 30zM931 324q21 -21 31 -33h-196l-24 33h189zM984 262l1 -1l1 -1l22 -31h-198l-24 33h198zM1056 168h-203q-4 6 -11.5 17t-11.5 16h200q4 -5 12.5 -16t13.5 -17zM1083 139l33 -33h-219l-23 33h209zM1149 78q28 -22 43 -33h-251l-24 33 h232zM914 692h54l-51 -33h-9q6 27 6 33zM912 754h160l-57 -33h-100q0 17 -3 33zM238 45q12 13 25 33h203l6 -33h-234zM298 168q3 16 3 33h156v-17v-16h-159zM291 139h167q1 -5 2.5 -16t1.5 -17h-183q7 13 12 33zM301 414v32h156v-32h-156zM301 385h156v-33h-156v33zM301 324 h156v-33h-156v33zM301 262h156v-33h-156v33zM301 999h156v-32h-156v32zM301 938h156v-33h-156v33zM301 877h156v-33h-156v33zM301 815h156v-33h-156v33zM301 754h156v-33h-156v33zM301 692h156v-33h-156v33zM301 631h156v-33h-156v33zM301 569h156v-32h-156v32zM301 508h156 v-33h-156v33zM237 1184h217q3 -8 3 -17v-16h-194q-19 26 -26 33zM279 1122h178v-32h-165q-2 8 -13 32zM298 1061h159v-33h-156q0 16 -3 33zM256 205v819q0 73 -51 128t-129 73v4l323 31h18q52 0 89 -28t37 -65v-755l137 14l83 83q107 109 107 209q0 59 -41 101h490 q-103 -31 -283.5 -138.5t-257.5 -184.5l-66 -67l58 5q22 2 32 2q75 0 142 -32.5t111 -92.5l28 -39q65 -90 125.5 -152t141.5 -116v-4h-432l-256 359q-24 36 -82 36q-13 0 -20 -1l-17 -2v-392h-467v4q78 18 129 73t51 128zM498 25q-21 89 -21 159v983q0 28 -20 48t-48 20h-7 l-232 -22q50 -31 80.5 -80.5t30.5 -108.5v-819q0 -110 -98 -180h315zM859 594q160 116 335 201h-317q18 -36 18 -77q0 -58 -36 -124zM657 399q14 -10 25 -26l248 -348h329q-139 87 -228 209l-29 38q-100 139 -213 139q-11 0 -17 -1z" />
<glyph unicode="l" horiz-adv-x="727" d="M229 414v32h156v-32h-156zM229 385h156v-33h-156v33zM229 324h156v-33h-156v33zM229 262h156v-16q0 -3 0.5 -9t0.5 -8h-157v33zM229 999h156v-32h-156v32zM229 938h156v-33h-156v33zM229 877h156v-33h-156v33zM229 815h156v-33h-156v33zM229 754h156v-33h-156v33z M229 692h156v-33h-156v33zM229 631h156v-33h-156v33zM229 569h156v-32h-156v32zM229 508h156v-33h-156v33zM166 1184h216q3 -8 3 -17v-16h-194q-21 29 -25 33zM208 1122h177v-32h-165q-4 14 -12 32zM227 1061h158v-33h-156q0 22 -2 33zM401 168h-167q-5 28 -5 33h161 q3 -11 11 -33zM415 139q9 -15 25 -33h-178q-11 14 -19 33h172zM470 78q19 -16 44 -30l-18 -3h-148q-34 11 -59 33h181zM184 205v819q0 73 -51 128t-129 73v4l324 31h18q52 0 88.5 -27.5t36.5 -65.5v-921q0 -74 51 -129.5t129 -73.5v-4q-146 -47 -250 -47q-90 0 -153.5 62 t-63.5 151zM209 205q0 -79 56 -134t136 -55q83 0 178 27q-77 25 -125 79.5t-48 123.5v921q0 28 -20.5 48t-48.5 20h-7l-232 -22q50 -31 80.5 -80.5t30.5 -108.5v-819z" />
<glyph unicode="m" horiz-adv-x="2252" d="M1819 754q19 -12 38 -33h-200q-19 18 -42 33h204zM1878 692q8 -13 15 -33h-187q-13 21 -23 33h195zM1899 631q2 -14 2 -23v-10h-168q-5 16 -12 33h178zM1901 414h-156v32h156v-32zM1901 385v-33h-156v33h156zM1901 324v-33h-156v33h156zM1901 262v-33h-156v33h156z M1901 569v-32h-157q-2 20 -4 32h161zM1901 508v-33h-156v33h156zM1904 168h-162q3 16 3 33h156q0 -17 3 -33zM1913 139q4 -11 16 -33h-206q7 13 12 33h178zM1950 78q9 -11 31 -33h-299q12 13 25 33h243zM975 45q12 13 25 33h203l6 -33h-234zM1035 168q3 16 3 33h156v-17v-16 h-159zM1029 139h167l3 -33h-183q9 18 13 33zM1038 414v32h156v-32h-156zM1038 385h156v-33h-156v33zM1038 324h156v-33h-156v33zM1038 262h156v-33h-156v33zM1038 508h156v-33h-156v33zM908 754h205q19 -12 38 -33h-201q-20 18 -42 33zM977 692h194q8 -13 15 -33h-187 q-17 27 -22 33zM1014 631h178q2 -14 2 -23v-10h-168q-4 16 -12 33zM1033 569h161v-32h-156q-1 9 -5 32zM488 168h-159q3 16 3 33h155v-17q0 -3 0.5 -8.5t0.5 -7.5zM489 139l3 -33h-183q10 22 13 33h167zM497 78l6 -33h-235q12 13 25 33h204zM332 414v32h155v-32h-155z M332 385h155v-33h-155v33zM332 324h155v-33h-155v33zM332 262h155v-33h-155v33zM332 598v16q0 3 -0.5 9t-0.5 8h156v-33h-155zM332 569h155v-32h-155v32zM332 508h155v-33h-155v33zM285 754h163l24 -33h-166q-12 21 -21 33zM318 692h169v-33h-159q-2 11 -10 33zM993 516 q0 98 -69 167.5t-166 69.5q-75 0 -185 -42v-711h-467v4q79 17 130 72.5t51 128.5v409q0 73 -51.5 128t-129.5 73v4l365 4l90 -94q243 100 447 100q74 0 136.5 -30t98.5 -80q128 55 239.5 82.5t231.5 27.5q113 0 193 -65t80 -156v-403q0 -73 51 -128t129 -73v-4h-647v4 q78 18 129 73t51 128v311q0 98 -69 167.5t-167 69.5q-82 0 -209 -52q25 -44 25 -93v-608h-467v4q78 18 129 73t51 128v311zM508 184v523l-68 92l-228 -3q99 -70 99 -182v-409q0 -112 -97 -180h314q-20 85 -20 159zM1235 25q-21 89 -21 159v424q0 82 -60.5 139.5t-145.5 57.5 q-115 0 -230 -28q101 -8 170.5 -83.5t69.5 -177.5v-311q0 -111 -97 -180h314zM1484 777q101 -8 170.5 -83.5t69.5 -177.5v-311q0 -111 -97 -180h412q-118 85 -118 180v403q0 82 -60.5 139.5t-146.5 57.5q-115 0 -230 -28z" />
<glyph unicode="n" horiz-adv-x="1597" d="M1149 754q24 -14 41 -33h-201q-24 20 -44 33h204zM1214 692q6 -8 17 -33h-189q-11 18 -25 33h197zM1240 631q3 -11 5 -33h-173q-4 11 -14 33h182zM1245 414h-155v32h155v-32zM1245 385v-33h-155v33h155zM1245 324v-33h-155v33h155zM1245 262v-33h-155v33h155zM1245 569 v-32h-158q-1 15 -6 32h164zM1245 508v-33h-155v21q0 2 -0.5 6t-0.5 6h156zM1249 168h-162q3 16 3 33h155q0 -11 4 -33zM1257 139q6 -17 15 -33h-205q9 18 13 33h177zM1293 78q13 -16 30 -33h-297q15 17 26 33h241zM487 414h-155v32h155v-32zM487 385v-33h-155v33h155z M487 324v-33h-155v33h155zM487 262v-33h-155v33h155zM487 692v-33h-159q-2 11 -10 33h169zM487 631v-33h-155v16q0 3 -0.5 9t-0.5 8h156zM487 569v-32h-155v32h155zM487 508v-33h-155v33h155zM491 168h-162q3 16 3 33h155q0 -11 4 -33zM500 139q4 -11 16 -33h-206 q7 13 12 33h178zM536 78q5 -6 32 -33h-300q15 17 26 33h242zM285 754h163l24 -33h-166q-12 21 -21 33zM287 205v409q0 73 -51.5 128t-129.5 73v4l365 4l99 -103q128 54 238.5 81.5t229.5 27.5q121 0 207 -70.5t86 -170.5v-383q0 -73 51 -128t129 -73v-4h-647v4q78 18 129 73 t51 128v291q0 107 -74.5 182t-180.5 75q-85 0 -216 -54v-494q0 -73 51.5 -128t129.5 -73v-4h-648v4q78 18 129.5 73t51.5 128zM508 707l-68 92l-228 -3q99 -70 99 -182v-409q0 -112 -97 -180h412q-118 85 -118 180v502zM809 777q110 -8 185 -89t75 -192v-291 q0 -111 -97 -180h411q-117 76 -117 180v383q0 90 -67 153.5t-161 63.5q-114 0 -229 -28z" />
<glyph unicode="o" d="M257 168q-17 13 -37 33h129q10 -22 16 -33h-108zM296 139h86q3 -5 7 -10.5t9 -12t8 -10.5h-52q-34 17 -58 33zM128 385h177l3 -33h-175q-4 22 -5 33zM141 324h171q1 -4 2 -10.5t2 -12t2 -10.5h-163q-10 22 -14 33zM171 262h155q3 -11 11 -33h-143q-9 11 -23 33zM127 414 q0 16 3 32h173v-16v-16h-176zM371 721q23 10 55 22q-14 -14 -21 -22h-34zM316 692h67q-12 -16 -21 -33h-95q20 16 49 33zM233 631h114q-10 -22 -14 -33h-132q10 11 32 33zM179 569h144q-1 -2 -4.5 -14t-4.5 -18h-155q2 4 20 32zM146 508h163q-2 -11 -4 -33h-170q3 11 11 33z M963 168q5 11 13 33h124q-24 -26 -32 -33h-105zM950 139h82q-24 -18 -51 -33h-50q5 6 19 33zM1008 385h175q-1 -11 -5 -33h-172q2 22 2 33zM1004 324h167q-5 -16 -12 -33h-160q4 22 5 33zM994 262h150q-9 -16 -21 -33h-138q1 4 3 10.5t3.5 12t2.5 10.5zM1007 414q0 10 -2 32 h176q0 -4 1 -10.5t1.5 -11.5t0.5 -10h-177zM918 721q-14 20 -21 29q35 -12 68 -29h-47zM936 692h78q25 -16 44 -33h-106q-10 22 -16 33zM965 631h123q20 -22 29 -33h-141q-2 6 -5.5 17t-5.5 16zM985 569h152q12 -19 18 -32h-162q-1 8 -8 32zM998 508h169q2 -5 3.5 -10.5 t3 -12t2.5 -10.5h-173q-1 11 -5 33zM832 29q161 35 266.5 139.5t105.5 241.5t-107.5 242t-270.5 139q74 -54 117.5 -163.5t43.5 -238.5q0 -115 -41.5 -212t-113.5 -148zM389 430q0 -171 73.5 -293t182.5 -126q5 0 15 -0.5t16 -0.5t16 0.5t15 0.5q108 4 182 114t74 264 q0 171 -73.5 293t-182.5 126q-5 0 -15 0.5t-16 0.5t-16 -0.5t-15 -0.5q-108 -4 -182 -114t-74 -264zM82 410q0 114 79.5 210.5t216.5 152.5t298 56t298 -56t216.5 -152.5t79.5 -210.5t-79.5 -211t-216.5 -153t-298 -56t-298 56t-216.5 153t-79.5 211zM526 28 q-101 61 -151.5 165.5t-50.5 236.5q0 116 50.5 210.5t145.5 149.5q-179 -36 -296.5 -139.5t-117.5 -240.5q0 -138 119.5 -242.5t300.5 -139.5z" />
<glyph unicode="p" horiz-adv-x="1402" d="M426 -139h-156v33h156v-33zM426 -168v-33h-156v33h156zM426 -16h-156v32h156v-32zM426 -45v-33h-156v33h156zM426 45h-156v33h156v-33zM426 168h-156v33h156v-33zM426 139v-33h-156v33h156zM426 414h-156v32h156v-32zM426 385v-33h-156v33h156zM426 324v-33h-156v33h156z M426 262v-33h-156v33h156zM426 721h-182q-14 25 -20 33h179q4 -5 11.5 -15.5t11.5 -15.5v-2zM426 692v-33h-160q-3 17 -9 33h169zM426 631v-33h-156v16v17h156zM426 569v-32h-156v32h156zM426 508v-33h-156v33h156zM468 -324h-231q8 14 17 33h193q9 -17 21 -33zM494 -352 q2 -2 6 -6.5t6 -6.5h-299q5 5 11 13h276zM435 -262h-172q5 16 6 33h159q4 -22 7 -33zM1051 754q27 -14 51 -33h-183q-21 17 -47 33h179zM1134 692q9 -9 27 -33h-183q-22 27 -28 33h184zM1181 631q12 -22 17 -33h-180q-12 22 -19 33h182zM1210 569q9 -25 11 -32h-176 q-6 17 -13 32h178zM1227 508q4 -22 5 -33h-171q-2 11 -8 33h174zM1235 446v-16v-16h-167q0 6 -1 16t-1 16h169zM964 45h-133q34 14 65 33h147q-43 -24 -79 -33zM1147 168h-153q5 6 22 33h154q-13 -21 -23 -33zM1122 139q-16 -18 -36 -33h-151q20 17 35 33h152zM1233 385 q-1 -11 -5 -33h-161q2 22 2 33h164zM1222 324q-1 -4 -2.5 -10.5t-3 -12t-3.5 -10.5h-157q3 11 7 33h159zM1202 262q-10 -22 -16 -33h-154q10 22 14 33h156zM225 -205v819q0 73 -51 128t-129 73v4l365 10l101 -87q219 87 415 87q163 0 279 -117t116 -282q0 -183 -127 -311.5 t-309 -128.5q-168 0 -285 92l2 4q49 -20 103 -20q125 0 222 94t97 229q0 153 -96 261t-232 108q-71 0 -184 -39v-924q0 -73 51 -128t129 -73v-4h-647v4q78 18 129 73t51 128zM718 782q139 -10 235 -124t96 -269q0 -142 -99 -241.5t-230 -105.5q76 -28 165 -28q154 0 262 122 t108 294q0 155 -96.5 265t-232.5 110q-105 0 -208 -23zM446 730l-55 75l-243 -7q46 -31 74 -79.5t28 -104.5v-819q0 -111 -97 -180h411q-118 85 -118 180v935z" />
<glyph unicode="q" horiz-adv-x="1392" d="M404 45q-46 11 -86 33h171q30 -18 67 -33h-152zM211 168q-15 18 -24 33h174q3 -4 7.5 -11t8.5 -12.5t8 -9.5h-174zM236 139h175q14 -15 37 -33h-174q-22 17 -38 33zM128 385h167q1 -11 5 -33h-169zM136 324h170q6 -22 10 -33h-171q-1 4 -3 10.5t-3.5 12t-2.5 10.5z M155 262h173q10 -22 16 -33h-173q-6 11 -16 33zM127 414q0 10 2 32h164v-16v-16h-166zM363 754h99q-19 -13 -40 -33h-122q30 19 63 33zM261 692h133q-16 -17 -27 -33h-141q15 16 35 33zM202 631h146q-12 -22 -17 -33h-151q14 22 22 33zM164 569h154q-5 -14 -10 -32h-158 q2 6 14 32zM141 508h160q-1 -4 -2.5 -10.5t-2.5 -12t-1 -10.5h-162q2 11 8 33zM893 754h219q-4 -22 -5 -33h-190q-11 18 -24 33zM932 692h172q-2 -22 -2 -33h-160q-3 15 -10 33zM946 631h156v-33h-156v21v12zM1102 -139h-156v33h156v-33zM1102 -16h-156v32h156v-32z M1102 -45v-33h-156v33h156zM1102 45h-156v33h156v-33zM1102 168h-156v33h156v-33zM1102 139v-32h-156v32h156zM1102 414h-156v32h156v-32zM1102 385v-33h-156v33h156zM1102 324v-33h-156v33h156zM1102 262v-33h-156v33h156zM1102 569v-32h-156v32h156zM1102 508v-33h-156v33 h156zM1192 -324h-186q-20 18 -30 33h181q19 -21 35 -33zM1135 -262h-175q-8 16 -11 33h168q9 -21 18 -33zM1102 -168q2 -22 5 -33h-161v4v29h156zM1235 -352q-65 -13 -117 -13q-32 0 -65 13h182zM82 410q0 174 127.5 296.5t308.5 122.5q92 0 184 -34l-2 -2 q-133 0 -227 -106.5t-94 -256.5q0 -152 96 -259.5t232 -107.5q76 0 194 43v513q0 59 -39.5 103.5t-101.5 59.5l2 2l282 35h144v-975q0 -74 51 -129t129 -73v-4q-149 -48 -250 -48q-90 0 -153.5 62t-63.5 151v280q-232 -91 -424 -91q-164 0 -279.5 122.5t-115.5 295.5z M926 619v-816q0 -79 56 -133.5t136 -54.5q85 0 178 26q-78 31 -126 84t-48 119v791q0 89 21 160h-97l-202 -25q82 -59 82 -151zM685 40q-156 6 -264 119t-108 271q0 126 77.5 226t204.5 143q-40 6 -77 6q-171 0 -291.5 -116t-120.5 -279t109 -278.5t262 -115.5q101 0 208 24 z" />
<glyph unicode="r" horiz-adv-x="1198" d="M828 721l11 11q16 16 24 22h235q0 -1 2 -2.5t3 -2.5l-23 -28h-252zM799 692h258l-26 -33h-265zM912 782q38 15 82 15q38 0 67 -15h-149zM1008 631l-19 -23q-12 9 -38 23h57zM332 414v32h155v-32h-155zM332 385h155v-33h-155v33zM332 324h155v-33h-155v33zM332 262h155 v-33h-155v33zM332 598v16q0 3 -0.5 9t-0.5 8h153l3 -33h-155zM332 569h155v-8v-24h-155v32zM332 508h155v-33h-155v33zM285 754h163q4 -7 16 -33h-159q-14 25 -20 33zM318 692h156q3 -11 7 -33h-154q-3 17 -9 33zM491 168h-162q3 16 3 33h155q0 -11 4 -33zM500 139 q4 -11 16 -33h-207q10 22 13 33h178zM537 78q9 -11 31 -33h-300q12 13 25 33h244zM287 205v409q0 73 -51 128.5t-130 72.5v4l365 4q102 -105 102 -262v-29l234 232q79 79 187 79q53 0 96 -25t67 -70l-147 -234q-25 47 -75.5 73.5t-113.5 26.5q-112 0 -203 -75l-45 -37v-297 q0 -73 51 -128.5t130 -72.5v-4h-648v4q79 17 130 72.5t51 128.5zM311 205q0 -112 -97 -180h412q-118 85 -118 180v356q0 163 -68 238l-228 -3q45 -32 72 -79.5t27 -102.5v-409zM686 609q65 29 135 29q108 0 171 -59l136 169q-45 70 -134 70q-98 0 -170 -72z" />
<glyph unicode="s" horiz-adv-x="1058" d="M269 78h86q12 -14 19 -21q-55 17 -105 21zM198 139h89q19 -11 41 -33h-164q15 22 34 33zM362 754v-1l-1 -1q0 -16 3 -31h-108q20 19 50 33h56zM371 692q4 -11 14 -33h-168q5 17 15 33h139zM402 631q16 -22 26 -33h-211q-4 15 -4 33h189zM457 569q26 -22 40 -32h-248 q-14 19 -21 32h229zM539 508q21 -14 57 -33h-281q-15 11 -39 33h263zM708 414h-285q-23 10 -63 32h292q20 -10 56 -32zM748 385q20 -17 36 -33h-242q-30 19 -58 33h264zM808 324q11 -15 19 -33h-203q-18 18 -39 33h223zM836 262q4 -18 4 -29v-4h-164q-14 22 -24 33h184z M829 168h-125q-4 16 -12 33h145q-4 -22 -8 -33zM815 139q-10 -17 -26 -33h-76q0 16 -3 33h105zM752 78q-23 -15 -49 -23q1 3 6 23h43zM770 782q26 7 43 16q-1 -2 -1 -8v-8h-42zM809 754l-2 -20q-18 14 -28 20h30zM660 786q106 -36 163 -93l15 144q-60 -46 -178 -51zM92 20 q0 72 44 124.5t104 52.5q31 0 59.5 -14t44 -29t42.5 -44q30 -32 49 -49.5t55 -34t77 -16.5t71 28t30 68q0 151 -256 264q-244 108 -244 261q0 78 69 133t166 55q25 0 95 -4q65 -5 123 -5q196 0 239 93l2 -2v-334h-4q0 62 -59.5 115.5t-154.5 84t-199 30.5q-13 0 -22.5 -11 t-9.5 -26q6 -56 76 -119t176 -115q261 -128 261 -293q0 -101 -105 -172t-254 -71q-129 0 -205 24q-70 22 -170 22q-53 0 -100 -16zM398 795q-87 -1 -146 -50.5t-59 -113.5q0 -70 62 -131t167 -108q270 -119 270 -286q0 -47 -35 -84q104 19 153.5 76.5t49.5 134.5 q0 72 -60.5 133.5t-159.5 109.5q-258 125 -258 276q0 28 16 43zM446 22q-34 23 -78 71q-37 41 -64 60t-64 19q-41 0 -75.5 -33t-44.5 -85q33 6 72 6q106 0 177 -22q39 -11 77 -16z" />
<glyph unicode="t" horiz-adv-x="911" d="M709 758l45 7v-14zM631 45h-151q-46 11 -87 33h173q42 -24 65 -33zM461 168h-170q-9 13 -20 33h167q7 -11 23 -33zM487 139q20 -20 37 -33h-174q-16 12 -35 33h172zM396 324q1 -11 5 -33h-159q-2 22 -2 33h156zM409 262q8 -22 13 -33h-164q-4 11 -10 33h161zM240 414v32 h155v-32h-155zM240 385h155v-33h-155v33zM240 631h155v-33h-155v33zM240 569h155v-32h-155v32zM240 508h155v-33h-155v33zM221 721q-5 9 -18 24l18 9h174v-33h-174zM234 692h161v-33h-155q0 13 -6 33zM376 877h21q-1 -11 -1 -33h-49q11 11 29 33zM316 815h79v-33h-123 q25 17 44 33zM195 328v327q0 37 -29.5 64t-71.5 37v4q124 22 212 106.5t114 208.5h61v-307l328 51v-123l-328 52v-400q0 -113 92.5 -198t231.5 -107v-4q-150 -47 -250 -47q-149 0 -254.5 98.5t-105.5 237.5zM416 348v478q2 102 16 156h-16q-36 -82 -101 -141t-151 -89 q55 -38 55 -97v-327q0 -129 98 -220.5t238 -91.5q71 0 163 23q-132 31 -217 115t-85 194zM575 758l199 -31v61z" />
<glyph unicode="u" horiz-adv-x="1495" d="M449 45q-38 10 -75 33h204q30 -20 66 -33h-195zM294 168q-7 15 -10 33h181q12 -22 19 -33h-190zM310 139h196q15 -18 33 -33h-201q-15 14 -28 33zM281 229v2v31h162q6 -22 10 -33h-172zM281 414v32h155v-32h-155zM281 385h155v-33h-155v33zM281 324h155q0 -11 2 -33h-157 v33zM281 598v16q0 3 -0.5 9t-0.5 8h156v-33h-155zM281 569h155v-32h-155v32zM281 508h155v-33h-155v33zM234 754h213l-6 -33h-187q-14 25 -20 33zM267 692h171q-2 -22 -2 -33h-160q-3 17 -9 33zM1116 45q-35 11 -60 33h188q22 -17 42 -29q-3 0 -10.5 -1.5t-11.5 -2.5h-148z M1001 168q-4 20 -4 33h162q6 -22 11 -33h-169zM1010 139h176q14 -21 26 -33h-183q-13 19 -19 33zM997 414v32h156v-32h-156zM997 385h156v-33h-156v33zM997 324h156v-33h-156v33zM997 262h156v-16q0 -3 0.5 -9t0.5 -8h-157v33zM997 598v16v17h156v-33h-156zM997 569h156v-32 h-156v32zM997 508h156v-33h-156v33zM950 754h214q-4 -22 -5 -33h-188q-12 21 -21 33zM984 692h172l-3 -33h-160q-3 17 -9 33zM522 815v-491q0 -106 75 -181.5t181 -75.5q83 0 196 45q-22 44 -22 93v409q0 73 -50.5 128.5t-129.5 72.5v4l365 4l102 -8v-569q0 -73 50.5 -129.5 t129.5 -73.5v-4q-150 -47 -250 -47q-58 0 -107 27.5t-78 74.5q-251 -104 -456 -104q-121 0 -206.5 70.5t-85.5 170.5v383q0 73 -51 128.5t-130 72.5v4l365 4zM1169 16q81 0 178 27q-78 31 -125.5 84t-47.5 119v389q0 80 20 159l-58 5l-258 -3q45 -32 72 -79.5t27 -102.5 v-409q0 -82 57 -135.5t135 -53.5zM758 43q-126 6 -213.5 87t-87.5 194v331q0 59 20 139l-58 5l-258 -3q45 -32 72 -79.5t27 -102.5v-383q0 -88 77.5 -152.5t190.5 -64.5q111 0 230 29z" />
<glyph unicode="v" horiz-adv-x="1218" d="M1050 754q-5 -6 -14 -17.5t-12 -15.5h-38q-6 17 -15 33h79zM753 168h-258q-2 6 -7 17t-7 16h287zM741 139q-2 -6 -6.5 -17t-7.5 -16h-205l-14 33h233zM714 78q-3 -5 -7.5 -16t-6.5 -17h-152l-14 33h180zM795 262l-15 -33h-311l-14 33h340zM402 385h177q16 -24 24 -33 h-187zM429 324h202q21 -20 45 -33h-233q-2 5 -7 16t-7 17zM391 414q-3 5 -8 15.5t-7 16.5h170l3.5 -7t3.5 -8q2 -3 5 -8.5t4 -8.5h-171zM186 754h232q2 -5 4 -16t4 -17h-211q-9 11 -29 33zM238 692h197l12 -33h-185zM281 631h178q1 -2 3 -6.5t3 -6.5l9 -20h-173 q-6 11 -20 33zM317 569h171l15 -32h-169q-3 5 -8.5 15.5t-8.5 16.5zM348 508h169l15 -33h-168q-2 6 -8 17t-8 16zM729 0h-211l-158 369q-66 159 -136.5 266.5t-178.5 179.5v4h424l174 -368q62 -132 136 -132q69 0 120 119l30 70q23 52 23 106q0 101 -73 205h290l2 -2 q-148 -138 -223 -317zM839 311q-30 -27 -60 -27q-66 0 -119.5 42.5t-87.5 113.5l-89 187q-29 61 -54 168h-316q88 -74 150 -175t120 -242l151 -353h179zM987 631q53 87 126 164h-190q58 -94 64 -164z" />
<glyph unicode="w" horiz-adv-x="1884" d="M1715 754q-18 -22 -26 -33h-37q-6 17 -15 33h78zM418 754q2 -5 4 -16t4 -17h-211q-9 11 -29 33h232zM435 692l12 -33h-185l-24 33h197zM459 631q1 -2 3 -6.5t3 -6.5l9 -20h-173q-6 11 -20 33h178zM488 569q3 -6 8 -16.5t7 -15.5h-169q-3 5 -8.5 15.5t-8.5 16.5h171z M517 508l15 -33h-168q-2 6 -8 17t-8 16h169zM546 446l3.5 -7t3.5 -8q2 -3 5 -8.5t4 -8.5h-171q-3 5 -8 15.5t-7 16.5h170zM579 385q16 -24 24 -33h-187l-14 33h177zM631 324q21 -20 45 -33h-233q-2 5 -7 16t-7 17h202zM768 201l-15 -33h-258q-2 6 -7 17t-7 16h287zM741 139 l-14 -33h-205l-14 33h233zM714 78l-14 -33h-152l-14 33h180zM795 262l-15 -33h-311l-14 33h340zM1134 754q-4 -22 -5 -33h-203l-14 33h222zM1126 692v-11q0 -15 1 -22h-175l-13 33h187zM1131 631q2 -11 10 -33h-162q-3 5 -7.5 16t-6.5 17h166zM1154 569q2 -5 7.5 -15.5 t8.5 -16.5h-165q-2 5 -6.5 15.5t-7.5 16.5h163zM1183 508l15 -33h-167q-3 6 -7 17t-7 16h166zM1212 446q1 -3 3.5 -8l3.5 -7q2 -3 5 -8.5t4 -8.5h-171l-14 32h169zM1245 385q16 -24 24 -33h-186l-14 33h176zM1296 324q19 -18 46 -33h-233l-14 33h201zM1433 201 q-2 -6 -6.5 -17t-7.5 -16h-258l-14 33h286zM1407 139l-15 -33h-205l-13 33h233zM1380 78l-15 -33h-151l-14 33h180zM1460 262l-14 -33h-311l-14 33h339zM1395 0h-211l-224 527l-231 -527h-211l-158 369q-66 160 -136 266.5t-179 179.5v4h424l174 -368q62 -132 136 -132 q68 0 120 119l50 115l-113 266h381q-9 -44 -9 -84q0 -67 27 -127l74 -157q62 -132 135 -132q69 0 121 119l30 70q22 51 22 104q0 102 -73 207h291l2 -2q-142 -130 -223 -317zM873 795l327 -770h179l127 290q-35 -31 -62 -31q-66 0 -119.5 42.5t-87.5 113.5l-74 158 q-16 36 -16 83q0 43 16 114h-290zM429 795h-316q88 -74 150 -175t120 -242l151 -353h179l127 290q-35 -31 -61 -31q-66 0 -119.5 42.5t-87.5 113.5l-89 187q-29 61 -54 168zM1652 629q54 91 127 166h-190q29 -47 44 -82.5t19 -83.5z" />
<glyph unicode="x" horiz-adv-x="1259" d="M701 168l-23 33h197q10 -11 32 -33h-206zM721 139h215q6 -6 17.5 -17t17.5 -16h-227zM764 78h240l39 -33h-256zM529 414l-23 32h177q4 -6 11.5 -16t11.5 -16h-177zM549 385h177q1 -2 4 -6t4 -6l15 -21h-177zM592 324h179q4 -6 12.5 -17t12.5 -16h-181zM635 262h185 q9 -11 29 -33h-191zM463 508h178q4 -5 11 -16t11 -17h-177zM237 754h252l15 -33h-230q-24 22 -37 33zM305 692h214q2 -4 5.5 -10.5t6.5 -12t6 -10.5h-199zM365 631h191q2 -2 5.5 -7t4.5 -8l12 -18h-184q-9 11 -29 33zM417 569h181l23 -32h-179q-9 13 -25 32zM298 168h-12 q8 8 11 13q0 -8 1 -13zM303 139q3 -17 9 -33h-78q20 22 29 33h40zM323 78q10 -22 16 -33h-163q6 5 16.5 16t15.5 17h115zM893 754h107q-12 -10 -38 -33h-54q-6 17 -15 33zM905 632q63 76 181 163h-244q63 -82 63 -163zM764 0l-256 369q-58 82 -65 91l-42 -75 q-50 -90 -50 -175q0 -99 67 -210h-352v4q101 87 175.5 179.5t141.5 211.5l46 82q-165 217 -349 338v4h448l256 -368q2 -3 7 -10t7 -10l50 88q33 57 33 113q0 89 -93 187h367q-104 -83 -171 -151.5t-118 -157.5l-55 -97q96 -137 184 -234t199 -175v-4h-430zM318 246 q-79 -115 -193 -221h251q-60 85 -60 180zM777 25h324q-216 171 -350 360l-169 243q-47 67 -89 167h-341q177 -132 288 -290z" />
<glyph unicode="y" horiz-adv-x="1228" d="M467 -324h-195q-11 11 -24 33h76q35 -12 73 -12q52 0 91 12h12q-24 -26 -33 -33zM421 -352q-31 -13 -59 -13q-25 0 -51 13h110zM235 -262q-6 18 -8 32q19 -19 39 -32h-31zM925 754h126q-20 -22 -29 -33h-77q-6 11 -20 33zM959 692h40q-4 -5 -12.5 -16t-12.5 -17h-2 q-8 22 -13 33zM672 45h-9l-21 33h45zM729 168h-143l-20 33h178zM716 139q-3 -5 -8 -16t-8 -17h-76l-20 33h112zM773 262l-8.5 -17t-7.5 -16h-209l-21 33h246zM450 385h188q13 -16 32 -33h-199zM489 324h216q29 -21 57 -33h-253q-4 6 -10.5 17t-9.5 16zM433 414q-3 5 -10 16 t-11 16h179q4 -6 12 -16.5t12 -15.5h-182zM182 754h233q8 -22 13 -33h-215q-5 6 -15.5 17t-15.5 16zM238 692h203q5 -11 17 -33h-193zM287 631h187q4 -7 8 -13l12 -20h-183zM332 569h180l21 -32h-179q-9 14 -22 32zM373 508h178q3 -6 10 -17t10 -16h-177zM459 819l176 -282 q118 -191 195 -209l79 172q18 39 18 83q0 99 -110 236h363l2 -2q-170 -147 -254 -325l-328 -709q-42 -88 -103 -140.5t-135 -52.5q-75 0 -128.5 61.5t-53.5 147.5q0 43 21 94h4q22 -67 74 -109t118 -42q162 0 233 154l31 67l-253 406q-99 161 -177 261.5t-184 184.5v4h412z M811 296q-75 18 -130 74.5t-116 153.5l-66 105q-45 71 -76 166h-313q89 -80 159.5 -175t158.5 -238l243 -388zM963 606q66 102 157 189h-253q84 -97 96 -189zM567 -228q-70 -55 -170 -55q-59 0 -109 30.5t-81 82.5q-2 -16 -2 -31q0 -77 46.5 -130.5t110.5 -53.5 q122 0 205 157z" />
<glyph unicode="z" horiz-adv-x="1320" d="M689 414h-169q2 2 5 6.5t4 7.5l12 18h170q-4 -5 -11 -15.5zM1001 754q-6 -5 -19.5 -16t-20.5 -17h-239l22 33h257zM929 692q-24 -22 -35 -33h-212l21 33h226zM865 631q-11 -11 -31 -33h-193l22 33h202zM808 569q-4 -6 -14 -16.5t-14 -15.5h-179q4 5 11 16t10 16h186z M757 508q-4 -5 -12.5 -16t-12.5 -17h-172q4 5 11.5 16t10.5 17h175zM670 385q-3 -6 -11 -17t-11 -16h-169q3 5 10.5 16t11.5 17h169zM629 324l-22 -33h-171q4 5 11.5 16t11.5 17h170zM588 262l-22 -33h-176q4 5 12.5 16t12.5 17h173zM547 201q-1 -1 -2 -2.5t-1 -2.5 q-3 -5 -9 -14t-9 -14h-186l27 33h180zM509 139q-12 -22 -17 -33h-208q5 5 15.5 16t15.5 17h194zM480 78q-2 -6 -6.5 -17t-6.5 -16h-246q24 22 35 33h224zM1124 168q8 7 23 22l2 -22h-25zM1090 139h60l2 -33h-108q22 14 46 33zM996 78h158l2 -33h-230q34 14 70 33zM298 754 q-26 -14 -55 -33h-53v33h108zM206 692q-3 -3 -8.5 -8t-7.5 -7v15h16zM476 795h-306v-172q52 68 126.5 107t179.5 65zM145 512v307h1041v-4q-126 -84 -227 -192.5t-197 -253.5l-230 -349q225 0 399.5 75.5t266.5 234.5h4v-330h-1102v4q113 83 202 189t190 260l228 346 q-205 0 -360 -72t-210 -215h-5zM794 25h384l-13 215q-131 -158 -371 -215zM746 795l-234 -356q-91 -138 -169.5 -235t-176.5 -179h316q23 75 79 159l131 198q164 248 397 413h-343z" />
<glyph unicode="{" horiz-adv-x="888" d="M353 1028v14v19h189v-16t1 -17h-190zM352 999h193q1 -11 1 -32h-197q1 6 2 16.5t1 15.5zM345 938h202v-5q0 -15 -3 -28h-205zM332 877h201q-7 -17 -21 -33h-190q4 11 10 33zM311 815h173q-23 -19 -44 -33h-145q2 6 7.5 17t8.5 16zM279 754h107q-38 -18 -85 -33h-44 q8 11 22 33zM343 1274q0 4 -0.5 11t-0.5 10q0 2 0.5 6t0.5 6h211q-3 -11 -7 -33h-204zM344 1245h198q-2 -11 -4 -33h-193q-1 11 -1 33zM347 1184h190v-2q0 -6 0.5 -16t0.5 -15h-189q-1 5 -1 16t-1 17zM351 1122h188q0 -21 1 -32h-188q0 21 -1 32zM444 1491h208 q-18 -22 -26 -33h-221q18 20 39 33zM383 1430h224l-18 -33h-225q6 14 19 33zM353 1368h223q-5 -11 -13 -33h-217q4 22 7 33zM486 414h-175q-12 27 -15 32h146q26 -17 44 -32zM513 385q13 -17 21 -33h-202q-6 22 -10 33h191zM544 324q3 -14 3 -27v-6h-202l-6 33h205zM302 508 q49 -15 86 -33h-109q-14 22 -22 33h45zM542 168h-189v20v13h190q-1 -6 -1 -17v-16zM540 139q-2 -22 -2 -33h-187q1 11 1 33h188zM538 78q0 -5 -0.5 -15t-0.5 -15v-3h-190q1 5 1 16t1 17h189zM546 262q0 -22 -1 -33h-193l-3 33h197zM653 -262h-206q-21 13 -40 33h220 q8 -11 26 -33zM576 -139h-222q-6 22 -8 33h217q8 -22 13 -33zM589 -168q12 -22 19 -33h-224q-13 19 -19 33h224zM542 -16h-198q0 21 1 32h193q2 -20 4 -32zM547 -45q4 -22 7 -33h-211q0 2 -0.5 6.5t-0.5 6.5q0 3 0.5 10t0.5 10h204zM180 559q152 -126 152 -371 q0 -47 -5 -132t-5 -121q0 -103 67.5 -175.5t162.5 -72.5q78 0 145 35q-66 61 -102.5 149.5t-36.5 176.5q0 46 4.5 129.5t4.5 119.5q0 88 -99.5 157.5t-287.5 104.5zM180 670q186 35 286.5 105t100.5 158q0 36 -4.5 119.5t-4.5 129.5q0 89 35.5 176.5t103.5 149.5 q-67 36 -145 36q-95 0 -162.5 -73t-67.5 -176q0 -36 5 -121t5 -132q0 -246 -152 -372zM86 590v4q228 -15 387.5 -99t159.5 -198q0 -37 -5 -121t-5 -128q0 -222 113 -331q-80 -55 -184 -55q-105 0 -180 80t-75 193q0 38 5.5 122.5t5.5 130.5q0 140 -55 244t-167 158zM86 635 v4q112 54 167 158.5t55 244.5q0 46 -5.5 130.5t-5.5 122.5q0 113 75 193t180 80q104 0 184 -55q-113 -109 -113 -331q0 -44 5 -128t5 -121q0 -76 -75 -141.5t-199.5 -106t-272.5 -50.5z" />
<glyph unicode="|" horiz-adv-x="552" d="M357 -262h-189v33h184q1 -11 5 -33zM345 -139h-177v33h176q0 -6 0.5 -17t0.5 -16zM346 -168l3 -33h-181v33h178zM168 1491h189q-4 -22 -5 -33h-184v33zM168 1430h181l-3 -33h-178v33zM168 1368h177q0 -6 -0.5 -17t-0.5 -16h-176v33zM168 1307h176v-33h-176v33zM168 1245 h176v-33h-176v33zM168 -16v32h176v-32h-176zM168 -45h176v-33h-176v33zM168 1184h176v-33h-176v33zM168 45v33h176v-33h-176zM168 168v33h176v-33h-176zM168 139h176v-33h-176v33zM168 414v32h176v-32h-176zM168 385h176v-33h-176v33zM168 324h176v-33h-176v33zM168 262h176 v-33h-176v33zM168 1122h176v-32h-176v32zM168 1061h176v-33h-176v33zM168 999h176v-32h-176v32zM168 938h176v-33h-176v33zM168 877h176v-33h-176v33zM168 815h176v-33h-176v33zM168 754h176v-33h-176v33zM168 692h176v-33h-176v33zM168 631h176v-33h-176v33zM168 569h176 v-32h-176v32zM168 508h176v-33h-176v33zM123 -328v1884h307v-1884h-307zM365 -102v1433q0 101 20 201h-238v-1835h238q-20 100 -20 201z" />
<glyph unicode="}" horiz-adv-x="888" d="M552 414h-178q15 12 48 32h149q-11 -17 -19 -32zM538 385q-5 -11 -13 -33h-207q8 14 25 33h195zM515 324q-6 -22 -8 -33h-206v6q0 15 4 27h210zM501 262q-2 -11 -4 -33h-194q-1 11 -1 33h199zM496 201q0 -2 -0.5 -6.5t-0.5 -6.5q0 -4 0.5 -10t0.5 -10h-189q-1 5 -1 16 t-1 17h191zM617 508q-10 -12 -26 -33h-114q42 19 88 33h52zM505 -16h-196q2 22 2 32h192q2 -22 2 -32zM506 -45v-20v-13h-204q2 11 4 33h200zM501 45h-190v3v30h188q1 -6 1 -17t1 -16zM496 139q0 -11 2 -33h-188q0 11 -2 33h188zM432 -262h-202q12 16 21 33h212 q-14 -20 -31 -33zM499 -139h-210q6 22 8 33h207q-1 -11 -5 -33zM492 -168q-7 -21 -13 -33h-213q5 11 13 33h213zM306 905q-5 15 -5 28v5h206l9 -33h-210zM319 877h207q8 -22 13 -33h-195q-13 15 -25 33zM376 815h177q6 -11 20 -33h-147q-30 18 -50 33zM484 754h109 q3 -4 8.5 -11t10 -12.5t8.5 -9.5h-43q-51 15 -93 33zM311 1151v31v2h190q-1 -6 -1 -17t-1 -16h-188zM310 1122h188q-2 -22 -2 -32h-188q2 22 2 32zM307 1061h189q0 -3 -0.5 -9.5t-0.5 -9.5q0 -2 0.5 -7t0.5 -7h-191q1 5 1 16t1 17zM303 999h194q1 -9 5 -32h-200q0 21 1 32z M231 1491h201q17 -13 31 -33h-211q-3 5 -6.5 10.5t-8 12t-6.5 10.5zM266 1430h214q3 -6 12 -33h-212q-4 11 -14 33zM289 1368h210q4 -22 5 -33h-207q-2 11 -8 33zM303 1307h203v-12v-21h-199q-2 22 -4 33zM309 1245h196q0 -11 -2 -33h-192q0 11 -2 33zM803 641v-4 q-149 10 -273 50t-199 105t-75 141q0 37 5 121t5 128q0 223 -112 331q79 54 184 54t179.5 -80t74.5 -192q0 -38 -5.5 -122.5t-5.5 -130.5q0 -140 55 -243.5t167 -157.5zM803 596v-4q-112 -54 -167 -159t-55 -245q0 -46 5.5 -130.5t5.5 -122.5q0 -113 -74.5 -193t-179.5 -80 q-104 0 -184 55q112 108 112 331q0 44 -5 128t-5 121q0 76 75 141.5t199.5 106.5t272.5 51zM709 672q-87 58 -140 158t-53 212q0 47 5 132t5 121q0 108 -48.5 177.5t-139.5 69.5q-82 0 -146 -34q98 -114 98 -326q0 -46 -4.5 -129.5t-4.5 -119.5q0 -87 119 -160t309 -101z M709 561q-188 -28 -308 -102.5t-120 -161.5q0 -36 4.5 -119.5t4.5 -129.5q0 -100 -20.5 -179.5t-77.5 -145.5q68 -36 146 -36q91 0 139.5 69.5t48.5 178.5q0 36 -5 121t-5 132q0 112 52.5 213t140.5 160z" />
<glyph unicode="~" horiz-adv-x="1187" d="M1018 692q2 -16 2 -22v-11h-867q13 19 28 33h837zM1015 631q-5 -20 -12 -33h-873q4 19 9 33h876zM985 569q-17 -20 -34 -32h-823q-1 8 -1 22v10h858zM1015 765q-95 -46 -234 -46q-81 0 -248 23q-137 19 -200 19q-105 0 -166 -55t-61 -147q0 -58 31 -114q106 63 268 63 q86 0 225 -13q136 -13 215 -13q81 0 138.5 55t57.5 133q0 49 -26 95zM129 410q-47 68 -47 149q0 102 68.5 164.5t182.5 62.5q59 0 203 -20q160 -22 245 -22q172 0 278 74q47 -68 47 -148q0 -103 -69 -165t-184 -62q-65 0 -204 19q-160 22 -244 22q-170 0 -276 -74z" />
<glyph unicode="&#xa1;" horiz-adv-x="655" d="M416 -324h-217v9q0 13 2 24h214q0 -5 0.5 -12.5t0.5 -11.5v-9zM412 -352q-6 -22 -11 -33h-181q-10 14 -16 33h208zM381 -414q-24 -26 -53 -26q-47 0 -81 26h134zM206 -262q1 3 3.5 14.5t3.5 18.5h197q0 -4 1 -11t1.5 -12.5t0.5 -9.5h-207zM232 -139q2 11 8 33h154 q1 -5 2.5 -16t2.5 -17h-167zM226 -168h177q2 -11 4 -33h-188q5 27 7 33zM261 -16q1 5 4 16t4 16h104q1 -6 3 -16t3 -16h-118zM254 -45h130q1 -6 2.5 -17t2.5 -16h-142q1 6 3.5 17t3.5 16zM276 45q1 5 3.5 16t4.5 17h77q1 -6 3.5 -17t3.5 -16h-92zM307 168l9 33h20 q1 -6 3.5 -17t3.5 -16h-36zM300 139h49q1 -5 3.5 -16t3.5 -17h-64q2 5 4 16t4 17zM323 229q1 2 2 6.5t2 7.5q1 -3 2 -7.5t1 -6.5h-7zM328 815q29 0 53 -33h-135q35 33 82 33zM224 754h172q4 -11 8 -33h-193q3 16 13 33zM405 692q0 -18 -3 -33h-187q-6 20 -6 33h196zM392 631 q-8 -17 -22 -33h-109q-18 12 -32 33h163zM164 696q0 68 48 116t116 48t116 -48t48 -116t-48 -116t-116 -48t-116 48t-48 116zM502 -315q0 -72 -51 -123t-123 -51t-123 51t-51 123q0 43 43 225.5t86 343.5l43 162h4q172 -635 172 -731zM188 696q0 -58 41 -98.5t99 -40.5 q41 0 69.5 40.5t28.5 98.5t-29 99t-69 41q-58 0 -99 -41t-41 -99zM436 -315q0 90 -32 275.5t-76 367.5q-150 -571 -150 -643q0 -62 43.5 -104t106.5 -42q45 0 76.5 43t31.5 103z" />
<glyph unicode="&#xa2;" horiz-adv-x="1269" d="M455 999q-14 -16 -26 -32h-85q22 14 60 32h51zM410 938q-7 -11 -19 -33h-128q25 23 39 33h108zM377 877l-12 -33h-158q12 16 27 33h143zM356 815q-1 -4 -3 -10.5t-3.5 -12t-2.5 -10.5h-179q12 22 19 33h169zM342 754q-4 -22 -5 -33h-194q1 5 3 10.5t5 12t4 10.5h187z M335 692q-1 -11 -1 -33h-204l6 33h199zM366 414h-176q-18 28 -20 32h187q2 -6 5 -16t4 -16zM376 385q8 -22 13 -33h-150q-10 11 -28 33h165zM402 324l18 -33h-111q-6 5 -40 33h133zM438 262q16 -22 25 -33h-48q-29 13 -62 33h85zM334 631q0 -22 1 -33h-208v16v17h207z M337 569q1 -6 2 -16t2 -16h-205q-5 17 -6 32h207zM345 508l6 -33h-195q-2 5 -4 10.5t-4.5 12t-3.5 10.5h201zM1040 229q3 4 10 11.5t11 10.5v-22h-21zM1006 201h55v-33h-60q-21 4 -35 5q14 8 40 28zM1000 1061h61v-33h-48q-17 14 -40 29q18 2 27 4zM1061 999v-16 q-2 3 -4.5 5.5t-6 5.5t-5.5 5h16zM524 -287h-24v438q-185 51 -301.5 178t-116.5 285q0 162 117 290.5t301 177.5v454h24v-448q78 18 162 18q41 0 59 -1v431h25v-433q16 0 24 -1q68 -4 111 -4q129 0 197 59h4v-391h-4q0 132 -116 225.5t-279 93.5q-78 0 -144 -57.5 t-104.5 -156.5t-38.5 -216q0 -212 78 -362t188 -150q172 0 294 94t122 226h4v-391h-4q-68 59 -197 59q-45 0 -101 -4q-6 -1 -17 -1.5t-17 -0.5v-412h-25v411q-6 0 -18.5 -0.5t-19.5 -0.5q-96 0 -183 21v-431zM896 1073q122 -51 185 -152v191q-66 -39 -176 -39h-9zM885 156 h20q110 0 176 -39v194q-65 -103 -196 -155zM585 1074q-205 -29 -342 -159.5t-137 -300.5q0 -164 133 -291.5t335 -163.5q-220 141 -220 496q0 138 59.5 249t171.5 170z" />
<glyph unicode="&#xa3;" horiz-adv-x="1546" d="M1092 754h20q5 -18 5 -33h-51q15 17 26 33zM1037 692h79q-1 -15 -8 -33h-87q-3 1 -9.5 3.5t-9.5 3.5q17 12 35 26zM1170 1184h126q0 -6 -0.5 -17t-0.5 -16h-79q-25 18 -53 32q1 0 3.5 0.5t3.5 0.5zM1294 1122q0 -6 -0.5 -16t-0.5 -16h-5q-11 12 -35 32h41zM268 631 q-20 -15 -36 -33h-59q0 11 4 33h91zM207 569q-9 -11 -21 -32h-2q-4 12 -8 32h31zM185 659q7 16 15 29q31 -20 50 -29h-65zM474 45h-355q-10 15 -12 33h356q10 -4 31.5 -11.5t32.5 -11.5q-10 -2 -28 -5.5t-25 -4.5zM139 139h159q18 -6 90 -33h-276q8 19 27 33zM1321 168 q11 8 43 33h57q0 -22 1 -33h-101zM1279 139h145q1 -11 1 -33h-203q28 15 57 33zM1161 78h266q1 -12 1 -33h-75q-115 16 -218 23q18 6 26 10zM516 352v4v29h176v-33h-176zM525 324h167v-33h-142q-17 19 -25 33zM581 262h111q0 -11 2 -33h-71q-23 17 -42 33zM661 201h35 q2 -20 4 -29q-26 20 -39 29zM516 414v32h176v-32h-176zM516 938h176v-33h-176v33zM516 877h176v-33h-176v33zM516 815h176v-33h-176v33zM516 754h176v-33h-176v33zM516 692h176v-33h-176v33zM516 631h176v-33h-176v33zM516 569h176v-32h-176v32zM516 508h176v-33h-176v33z M636 1122h58q-2 -14 -2 -20v-12h-101q17 15 45 32zM563 1061h129v-33h-152q8 15 23 33zM527 999h165v-32h-174q3 15 9 32zM778 53h21q209 0 381.5 83t289.5 245h5v-401q-280 53 -676 53h-58q-90 0 -283.5 -37t-252.5 -37t-101.5 36t-42.5 87t42.5 87t101.5 36q52 0 151 -38 t206 -76t179 -38h17q-19 31 -69.5 70t-97 69.5t-83.5 75t-37 88.5v289h-25q-90 0 -158 -56t-91 -147h-4q-65 65 -65 155q0 89 62 151h5q100 -82 251 -82h25v276q0 119 117 203t282 84q47 0 95 -3q50 -3 106 -3q174 0 266 73h4l11 -454h-4q0 151 -140.5 258.5t-337.5 107.5 q-38 0 -65 -28t-27 -68v-446h66q90 0 158.5 56t91.5 146h4q64 -64 64 -154q0 -89 -62 -151h-4q-100 82 -252 82h-66v-592zM733 118q-20 67 -20 169v815q0 57 55 90v2q-121 -25 -196.5 -95t-75.5 -157v-586q0 -40 35 -77t104.5 -86.5t97.5 -74.5zM1019 53q235 -10 431 -44 l-13 291q-167 -188 -418 -247zM617 48q-58 16 -210 74t-202 58q-51 0 -85 -29.5t-34 -68.5t34 -68.5t85 -29.5q53 0 205.5 28.5t206.5 35.5zM345 650q-83 17 -150 66q-42 -53 -42 -119q0 -59 33 -108q47 116 159 161zM1076 1199q153 -54 236 -172l6 226q-92 -54 -242 -54z M945 660q84 -17 150 -65q42 53 42 119q0 58 -33 108q-48 -117 -159 -162z" />
<glyph unicode="&#xa4;" horiz-adv-x="1269" d="M410 614q0 -93 66 -159t159 -66t159 66t66 159t-66 159.5t-159 66.5t-159 -66.5t-66 -159.5zM455 419l-195 -266l-87 87l266 194q-70 75 -70 180q0 106 70 181l-266 194l87 87l195 -266q76 71 180 71t180 -71l195 266l87 -87l-266 -194q70 -75 70 -181q0 -105 -70 -180 l266 -194l-87 -87l-195 266q-76 -71 -180 -71t-180 71z" />
<glyph unicode="&#xa5;" horiz-adv-x="1474" d="M473 1151h-271q-6 5 -16.5 16t-15.5 17h290q2 -5 6.5 -16t6.5 -17zM485 1122q3 -6 7 -16t7 -16h-242q-10 12 -28 32h256zM512 1061q2 -5 8 -16t8 -17h-224q-4 6 -12.5 17t-12.5 16h233zM543 999q3 -5 8.5 -15.5t8.5 -16.5h-213q-2 3 -23 32h219zM576 938l19 -33h-209 l-21 33h211zM611 877l19 -33h-208l-19 33h208zM647 815l18 -33h-208l-10 18l-9 15h209zM682 754l10 -19q2 -3 5 -7t4 -7h-209l-19 33h209zM721 692q11 -15 31 -33h-225l-19 33h213zM790 631q48 -29 101 -29q1 0 4 0.5t4 0.5l-3 -5h-335l-18 33h247zM873 569q-4 -6 -13 -16.5 t-13 -15.5h-251l-18 32h295zM824 508l-17 -22q-4 -6 -4 -11h-176v3q0 6 -3 10l-11 20h211zM803 414h-176v32h176v-32zM803 385v-33h-176v33h176zM834 168h-233q4 11 10 33h211q1 -4 3.5 -10.5t4.5 -12t4 -10.5zM847 139q2 -4 20 -32h-293q9 16 16 32h257zM888 78 q9 -11 29 -33h-386q12 13 25 33h332zM803 324q0 -22 1 -33h-179q2 22 2 33h176zM808 262l6 -33h-197l6 33h185zM1270 1151h-157l-21 33h213q-24 -22 -35 -33zM1244 1122q-5 -6 -15.5 -16t-15.5 -16h-66q-7 16 -16 32h113zM1191 1061q-8 -9 -22 -29q-1 6 -4.5 16.5t-4.5 12.5 h31zM481 1204h-358q91 -79 162.5 -178t149.5 -236l177 -312v-150q0 -95 -32.5 -175t-94.5 -128h492q-148 114 -148 303v145l132 167q-32 -17 -63 -17q-113 0 -182 122l-119 209q-65 114 -116 250zM164 590v24h343l-93 164q-87 153 -166.5 258.5t-188.5 188.5v4h451l268 -471 q57 -100 130 -100t129 99l65 115q23 39 23 89q0 121 -130 268h418v-4q-90 -79 -159.5 -165.5t-133.5 -197.5l-141 -248h332v-24h-346l-70 -123v-37h416v-24h-416v-78q0 -122 55 -212.5t148 -111.5v-4h-713v4q93 21 148 111.5t55 212.5v78h-424v24h424v41l-68 119h-356z M1150 957q93 143 204 247h-306q102 -131 102 -243v-4z" />
<glyph unicode="&#xa6;" horiz-adv-x="552" d="M344 1061q0 -22 1 -33h-177v33h176zM347 999q1 -5 2 -15.5t2 -16.5h-183v32h179zM355 938q1 -6 2.5 -17t2.5 -16h-192v33h187zM168 1491h189q-4 -22 -5 -33h-184v33zM168 1430h181l-3 -33h-178v33zM168 1368h177q0 -6 -0.5 -17t-0.5 -16h-176v33zM168 1307h176v-33h-176 v33zM168 1245h176v-33h-176v33zM168 1184h176v-33h-176v33zM168 1122h176v-32h-176v32zM357 -262h-189v33h184q1 -11 5 -33zM345 -139h-177v33h176q0 -6 0.5 -17t0.5 -16zM346 -168l3 -33h-181v33h178zM168 -16v32h176v-32h-176zM168 -45h176v-33h-176v33zM168 45v33h176 v-33h-176zM168 168v33h178q-2 -22 -2 -33h-176zM168 139h176v-33h-176v33zM168 291v33h192q-1 -5 -2.5 -16t-2.5 -17h-187zM168 262h183l-3 -33h-180v33zM365 -102v245q0 101 20 201h-238v-647h238q-20 100 -20 201zM365 1085v246q0 101 20 201h-238v-647h238 q-20 100 -20 200zM123 -328v697h307v-697h-307zM123 860v696h307v-696h-307z" />
<glyph unicode="&#xa7;" horiz-adv-x="1146" d="M250 1028v8q0 13 3 25h179q9 -17 21 -33h-203zM255 999h221q9 -11 30 -32h-238q-9 16 -13 32zM286 938h250q26 -22 40 -33h-262q-20 22 -28 33zM345 877h270q20 -14 52 -33h-279q-7 4 -43 33zM433 815h289q31 -15 64 -33h-293q-30 15 -60 33zM325 1151q30 19 74 28 q-1 -6 -1 -9q0 -13 1 -19h-74zM289 1122h116q4 -14 12 -32h-153q8 15 25 32zM834 754q24 -16 45 -33h-255q-14 7 -37.5 18t-32.5 15h280zM911 692q22 -22 30 -33h-203q-28 18 -57 33h230zM959 631q10 -18 14 -33h-148q-36 29 -43 33h177zM979 569v-8q0 -16 -1 -24h-91 q-9 11 -30 32h122zM973 508q-2 -11 -10 -33h-40q-4 11 -16 33h66zM717 -16q-8 18 -17 32h155q-3 -16 -11 -32h-127zM726 -45h101q-19 -23 -41 -33h-56q0 11 -4 33zM680 45q-18 22 -29 33h204q3 -12 3 -26v-7h-178zM535 168q-29 19 -55 33h275q28 -22 40 -33h-260zM578 139 h244q12 -15 22 -33h-224q-20 16 -42 33zM424 229l-14 7q-6 3 -16.5 8t-19 9.5t-16.5 8.5h295q32 -16 59 -33h-288zM167 414q-10 14 -20 32h176q8 -6 24.5 -18t19.5 -14h-200zM190 385h220q27 -17 57 -33h-244q-18 16 -33 33zM259 324h264q12 -6 35.5 -17t34.5 -16h-285 q-34 22 -49 33zM128 508h131q20 -22 31 -33h-155q-6 22 -7 33zM166 631h30q3 -17 9 -33h-60q9 16 21 33zM133 569h85q8 -15 19 -32h-110q1 15 6 32zM858 1184v-33h-16q-23 17 -53 33h69zM327 -106q-22 -7 -36 -15v15h36zM291 -78v28q15 -13 39 -28h-39zM441 -108 q-114 40 -171 107v-157q57 43 171 50zM708 1196q115 -41 171 -106v157q-58 -44 -171 -51zM392 786q-58 -19 -96 -48.5t-38 -66.5q0 -34 26 -71.5t64 -68.5t91.5 -63.5t98.5 -55.5t95 -45q64 -28 124 -64q58 19 95 48t37 66q0 42 -36.5 87.5t-98 86.5t-118.5 72t-120 59 q-64 28 -124 64zM784 286q160 -107 160 -234q0 -78 -71 -135t-168 -57q-25 0 -95 4q-65 5 -123 5q-196 0 -239 -93l-2 2v334h4q0 -62 56.5 -115.5t149 -84t196.5 -30.5q13 0 23 11t10 26q0 68 -86.5 144t-207.5 132q-309 144 -309 332q0 51 25 97.5t67.5 80.5t90.5 58.5 t100 39.5q-160 107 -160 233q0 78 71 135.5t168 57.5q25 0 95 -4q65 -5 123 -5q196 0 239 93l2 -2v-334h-4q0 62 -56.5 115.5t-149 83.5t-196.5 30q-14 0 -23.5 -10.5t-9.5 -25.5q0 -68 86.5 -144t207.5 -132q307 -143 307 -333q0 -51 -25 -97.5t-66.5 -80t-89.5 -58 t-100 -39.5zM700 -116h5q85 0 129.5 49t44.5 119q0 133 -273 255q-84 38 -149 75t-123 82.5t-89.5 98t-31.5 108.5q0 20 17 44q-124 -82 -124 -188q0 -171 296 -310q80 -38 145.5 -81t114 -102t48.5 -115q0 -18 -10 -35zM526 744q388 -174 388 -327q0 -32 -21 -59 q106 71 106 203q0 73 -70.5 143t-198.5 130q-118 55 -214.5 153.5t-96.5 182.5q0 22 17 34q-86 -3 -146.5 -53.5t-60.5 -114.5q0 -48 28 -94t75.5 -83t94 -64t99.5 -51z" />
<glyph unicode="&#xa8;" horiz-adv-x="983" d="M173 1143h143q11 -13 18 -33h-180q6 19 19 33zM338 1081q0 -15 -5 -32h-178q-5 13 -5 32h188zM319 1020q-15 -22 -39 -33h-65q-28 11 -44 33h148zM656 1143h143q11 -13 18 -33h-180q6 19 19 33zM821 1081q0 -15 -5 -32h-178q-5 12 -5 32h188zM803 1020q-15 -22 -40 -33 h-64q-29 11 -45 33h149zM612 1081q0 -50 35.5 -85t85.5 -35q45 0 77 35t32 85q0 47 -33.5 81t-79.5 34q-48 0 -82.5 -34t-34.5 -81zM129 1081q0 -50 35.5 -85t85.5 -35q45 0 76.5 35t31.5 85q0 47 -33 81t-79 34q-48 0 -82.5 -34t-34.5 -81zM586 1083q0 62 43 105t104 43 t104.5 -43.5t43.5 -104.5t-43 -104t-105 -43q-61 0 -104 43t-43 104zM102 1083q0 61 43.5 104.5t104.5 43.5t104 -43.5t43 -104.5t-43 -104t-104 -43t-104.5 43t-43.5 104z" />
<glyph unicode="&#xa9;" horiz-adv-x="1802" d="M689 659h-17q23 14 30 17q-5 -5 -13 -17zM670 631q-12 -22 -17 -33h-58q17 18 36 33h39zM643 569q-7 -24 -8 -32h-85q7 13 21 32h72zM630 508q-1 -9 -1 -29v-4h-105q6 22 11 33h95zM818 168h-177q-18 13 -38 33h167q22 -18 48 -33zM879 139q64 -25 142 -28 q-3 -1 -10 -2.5t-11 -2.5h-230q-45 12 -84 33h193zM635 414h-121q0 10 4 32h113q2 -20 4 -32zM642 385l12 -33h-134q-4 22 -5 33h127zM667 324q12 -22 19 -33h-146q-5 11 -13 33h140zM707 262q18 -22 30 -33h-159q-10 12 -23 33h152zM1215 721h-46q-1 1 -4 3q27 5 51 13 q0 -2 -0.5 -7.5t-0.5 -8.5zM469 406q0 99 60 183t162.5 132.5t223.5 48.5q41 0 87 -3q58 -4 85 -4q116 0 173 50l4 -2l-13 -313h-4q0 105 -94.5 179.5t-228.5 74.5q-86 0 -147.5 -80t-61.5 -193q0 -133 94 -228t226 -95q120 0 235 47l2 -2q-159 -153 -399 -153 q-167 0 -285.5 105t-118.5 253zM1098 739q88 -41 134 -111l5 140q-53 -27 -139 -29zM803 733q-136 -30 -222.5 -121.5t-86.5 -205.5q0 -137 110.5 -235t268.5 -98q154 0 279 69q-53 -10 -117 -10q-160 0 -272.5 101.5t-112.5 245.5q0 79 40.5 145t112.5 109zM901 -348 q162 0 310 60t255 161.5t170.5 242t63.5 294.5t-63.5 294t-170.5 241.5t-255 161.5t-310 60t-310 -60t-255 -161.5t-170.5 -241.5t-63.5 -294t63.5 -294.5t170.5 -242t255 -161.5t310 -60zM901 1188q167 0 318.5 -61.5t261 -165.5t174.5 -248.5t65 -302.5t-65 -302.5 t-174.5 -249t-261 -166t-318.5 -61.5t-318.5 61.5t-261 166t-174.5 249t-65 302.5t65 302.5t174.5 248.5t261 165.5t318.5 61.5z" />
<glyph unicode="&#xaa;" horiz-adv-x="980" d="M582 1184q49 0 87 -33h-114q-21 18 -42 29q36 4 69 4zM694 1122q12 -17 17 -32h-108q-8 15 -21 32h112zM717 1061q2 -14 2 -21v-12h-95q-3 16 -9 33h102zM719 999v-32h-92v24v8h92zM719 938v-33h-92v33h92zM719 877v-33h-92v33h92zM719 815v-4q0 -15 3 -29h-95v33h92z M730 754q8 -19 19 -33h-102q-12 17 -16 33h99zM775 692q4 -3 19 -14q-32 -4 -57 -4q-35 0 -60 18h98zM153 754h69q6 -22 12 -33h-56q-16 13 -25 33zM199 844q28 17 67 30q-16 -15 -26 -30h-41zM165 815h60q-6 -15 -6 -33h-71q1 14 17 33zM582 991q0 69 -49.5 118.5 t-118.5 49.5q-94 0 -157.5 -38t-63.5 -93h-9q-37 45 -37 113v86h11q41 -68 125 -68q156 70 299 70q86 0 147.5 -55.5t61.5 -133.5v-229q0 -51 36 -88t93 -49v-10q-107 -35 -183 -35q-55 0 -97 33t-54 83q-84 -78 -148 -100q-45 -16 -114 -16q-91 0 -156.5 43t-65.5 106 q0 69 90.5 116.5t217.5 47.5q49 0 90 -8v-10q-90 -12 -150.5 -52.5t-60.5 -93.5q0 -40 36.5 -69t88.5 -29q71 0 168 94v217zM238 1139q-44 11 -66 30v-28q0 -30 10 -60q22 36 56 58zM385 657q-62 6 -103.5 40t-41.5 81q0 45 39 80t102 57q-110 -6 -182 -47.5t-72 -89.5 q0 -49 56 -87t141 -38q43 0 61 4zM422 1184q77 -3 130.5 -59t53.5 -134v-217q0 -6 4 -22q11 -42 46.5 -70.5t80.5 -28.5q49 0 119 17q-52 18 -84.5 55.5t-32.5 85.5v229q0 68 -46 116t-111 48q-87 0 -160 -20z" />
<glyph unicode="&#xab;" horiz-adv-x="1024" d="M236 414h-78l40 32h65zM361 569l-26 -32h-27l40 32h13zM312 508l-26 -33h-53l40 33h39zM253 385l26 -33h-55l-40 33h69zM302 324l26 -33h-29l-40 33h43zM352 262l26 -33h-3l-41 33h18zM636 414h-78l40 32h64q-5 -5 -13 -15.5t-13 -16.5zM761 569l-27 -32h-27l40 32h14z M711 508q-5 -6 -13 -17t-13 -16h-52l39 33h39zM652 385l26 -33h-55l-40 33h69zM701 324l27 -33h-29l-41 33h43zM751 262l26 -33h-3l-40 33h17zM868 727l2 -2v-90l-151 -225l151 -226v-88l-2 -2l-366 299v33zM469 727l2 -2v-90l-152 -225l152 -226v-88l-2 -2l-367 299v33z M846 677l-320 -263v-9l320 -261v33l-187 233l187 232v35zM446 677l-319 -263v-9l319 -261v33l-187 233l187 232v35z" />
<glyph unicode="&#xac;" horiz-adv-x="1064" d="M856 414h-94v32h94v-32zM856 385v-33h-94v33h94zM856 324v-33h-94v33h94zM856 262v-33h-94v33h94zM856 659h-686q1 6 2.5 16.5t2.5 16.5h18h663v-33zM856 631v-33h-697l6 33h691zM856 569v-32h-94v32h94zM856 508v-33h-94v33h94zM942 737v-555h-225v350h-615l41 242h2 q3 -17 16.5 -27t31.5 -10h749zM877 713h-684q-20 0 -34 7l-28 -163h610v-350h136v506z" />
<glyph unicode="&#xad;" horiz-adv-x="983" d="M178 403l6 33h568l-6 -33h-568zM189 465l5 30q5 -1 17 -1h555q-5 -11 -8 -29h-569zM123 348l41 242h2q3 -17 16 -27t31 -10h647l-35 -205h-702zM152 373h612l14 87q10 50 28 68h-593q-17 0 -33 8z" />
<glyph unicode="&#xae;" horiz-adv-x="1802" d="M732 754q-1 -5 -2.5 -16t-2.5 -17h-130q-2 4 -4.5 10.5t-5 12t-5.5 10.5h150zM723 692l-3 -33h-105q-2 11 -8 33h116zM719 631v-23v-10h-98q0 11 -2 33h100zM719 414h-98v32h98v-32zM719 385v-33h-98v33h98zM719 324v-33h-98v33h98zM719 262v-33h-98v33h98zM719 569v-32 h-98v32h98zM719 508v-33h-98v33h98zM720 168h-102q2 22 2 33h99q0 -6 0.5 -17t0.5 -16zM721 139q0 -5 1.5 -16t2.5 -17h-122q8 22 10 33h108zM729 78l6 -33h-161q10 15 18 33h137zM1067 414q20 20 28 32h90q-18 -18 -43 -32h-75zM1137 569h107q-1 -15 -6 -32h-105q4 22 4 32 zM1126 508h102q-6 -14 -19 -33h-97q10 22 14 33zM1035 782q-12 10 -19 14q38 -1 74 -14h-55zM1066 754h84q18 -12 39 -33h-97q-14 21 -26 33zM1109 692h104q9 -12 18 -33h-108q-4 11 -14 33zM1131 631h109q3 -11 5 -33h-109q-1 11 -5 33zM972 262q21 -21 31 -33h-49 q-1 3 -3.5 11t-4.5 11q0 2 -2 5.5t-3 5.5h31zM1069 168h-86q-8 14 -17 33h63q26 -24 40 -33zM1127 139q56 -20 124 -20q21 0 42 4q-4 -9 -11 -17h-255q-15 17 -26 33h126zM1210 45h-101q-24 10 -53 33h202q-25 -24 -48 -33zM901 -348q162 0 310 60t255 161.5t170.5 242 t63.5 294.5t-63.5 294t-170.5 241.5t-255 161.5t-310 60t-310 -60t-255 -161.5t-170.5 -241.5t-63.5 -294t63.5 -294.5t170.5 -242t255 -161.5t310 -60zM901 1188q167 0 318.5 -61.5t261 -165.5t174.5 -248.5t65 -302.5t-65 -302.5t-174.5 -249t-261 -166t-318.5 -61.5 t-318.5 61.5t-261 166t-174.5 249t-65 302.5t65 302.5t174.5 248.5t261 165.5t318.5 61.5zM795 373q28 -4 43 -4q105 0 179.5 60.5t74.5 145.5q0 93 -70.5 159.5t-169.5 66.5q-30 0 -57 -6v-422zM795 0h-351v4q60 13 95.5 72t35.5 137v383q0 80 -35.5 140t-95.5 73v4 q113 -10 205 -10q87 0 207 22q89 17 145 17q132 0 226 -74t94 -178q0 -103 -84 -176.5t-203 -73.5q-57 0 -119 18l-4 -8q29 -8 55 -25.5t41 -33t37 -41.5q72 -86 207 -86q91 0 152 80l2 -2q-26 -110 -92 -181t-152 -71q-84 0 -151 68t-107 178q-19 54 -37 84t-43 30 q-18 0 -28 2v-352zM888 332q15 -24 38 -88q38 -104 100 -167t135 -63q55 0 99.5 38.5t72.5 102.5q-40 -16 -82 -16q-145 0 -225 95q-21 25 -35.5 39.5t-38 30t-48.5 23.5zM967 371q31 -6 67 -6q96 0 164 66t68 159q0 94 -78 160.5t-187 66.5q-39 0 -67 -4q80 -24 131 -89.5 t51 -148.5q0 -67 -41 -121t-108 -83zM760 786q-66 -8 -111 -8q-35 0 -113 4q64 -72 64 -186v-383q0 -118 -70 -188h230q-21 107 -21 182v401q0 85 21 178z" />
<glyph unicode="&#xaf;" horiz-adv-x="860" d="M152 1100v22h516v-22h-516zM152 1071h516v-33h-516v33zM754 991h-648v176h648v-176zM688 1016v127h-557v-127h557z" />
<glyph unicode="&#xb0;" horiz-adv-x="573" d="M156 1096q0 -56 38 -94.5t93 -38.5t93 38.5t38 94.5t-38 94.5t-93 38.5t-93 -38.5t-38 -94.5zM123 1096q0 67 48 114t116 47t116 -47t48 -114t-48 -114.5t-116 -47.5t-116 47.5t-48 114.5z" />
<glyph unicode="&#xb1;" horiz-adv-x="1064" d="M174 150h695q-2 -8 -7 -31l-1 -2h-693zM163 88h693q-1 -6 -2.5 -17t-2.5 -16h-693zM102 0l41 242h2q3 -17 16.5 -27t31.5 -10h770l-35 -205h-826zM131 25h735l14 80q8 46 33 75h-720q-18 0 -34 8zM868 823q-4 -13 -7 -32h-691q1 5 3 15.5t3 16.5h692zM856 762l-5 -33 h-292h-94h-305l5 33h691zM559 606h-94v33h94v-33zM559 578v-33h-94v33h94zM559 516v-33h-94v33h94zM559 455v-33h-94v33h94zM559 700v-32h-94v32h94zM465 1130h94v-32h-94v32zM465 1069h94v-33h-94v33zM465 1008h94v-33h-94v33zM465 946h94v-33h-94v33zM465 885h94v-33h-94 v33zM645 881h318l-35 -205h-283v-309h-225v309h-318l41 242h2q3 -17 16.5 -27t31.5 -10h227v305h262v-4q-37 -13 -37 -52v-249zM580 856v274q0 18 6 31h-142v-305h-251q-18 0 -34 8l-28 -164h313v-309h136v309h286l13 77q4 40 32 79h-331z" />
<glyph unicode="&#xb2;" horiz-adv-x="901" d="M226 1349q-13 -6 -25 -14h-32q0 5 0.5 16t0.5 17q24 -11 56 -19zM689 631h57l3 -33h-118q28 14 58 33zM351 938h101q-5 -5 -16.5 -16t-17.5 -17h-99q10 11 32 33zM293 877h96l-30 -33h-93q3 4 8.5 10.5t10 12t8.5 10.5zM243 815h92q-9 -11 -25 -33h-90q7 11 23 33z M202 754h89q-7 -11 -19 -33h-89q12 22 19 33zM169 692h88q-3 -5 -7 -16t-7 -17h-89zM144 631h88q-4 -11 -10 -33h-88q6 22 10 33zM575 1307h41q16 -16 26 -33h-71q2 11 4 33zM565 1245h89q3 -13 3 -28v-5h-102q4 11 10 33zM543 1184h110q-5 -16 -12 -33h-114q6 11 16 33z M510 1122h115q-8 -12 -24 -32h-114q21 29 23 32zM465 1061h112q-20 -22 -31 -33h-109q10 11 28 33zM411 999h106q-7 -7 -25 -23q-1 -2 -4.5 -5t-5.5 -4h-103l10.5 10.5t12 11.5t9.5 10zM795 791h4v-281q-232 43 -508 43q-139 0 -213 -39h-4q0 13 4 43q23 122 87 222.5 t171 207.5q93 93 143.5 173t50.5 167q0 16 -15.5 28.5t-37.5 12.5q-19 0 -65 -6q-120 -19 -201.5 -84t-87.5 -156v-4h-4l8 340h4q46 -74 193 -74q8 0 86 5q62 4 96 4q97 0 165 -51.5t68 -124.5q0 -43 -14.5 -83t-45 -79t-58 -67t-72.5 -70q-104 -97 -163 -172t-85 -168h29 q145 0 266.5 53.5t196.5 156.5zM308 1360q-103 4 -158 43l-3 -137q53 56 161 94zM102 552q52 20 138 24v4q0 8 2 15q16 57 42 106.5t67 98t70 78.5t85 83q86 79 129 138.5t43 117.5q0 55 -40 96.5t-99 52.5q16 -20 16 -39q0 -95 -52.5 -177.5t-149.5 -179.5 q-106 -106 -167 -201.5t-84 -216.5zM497 572q137 -9 277 -33l-14 174q-105 -103 -263 -141z" />
<glyph unicode="&#xb3;" horiz-adv-x="1011" d="M688 938q32 -16 56 -33h-56q-8 17 -18 33h18zM778 877q7 -7 26 -33h-94q-6 22 -10 33h78zM820 815q7 -15 10 -33h-112q0 4 -0.5 10.5t-1 12t-1.5 10.5h105zM834 754v-2q0 -14 -5 -31h-114q4 22 4 33h115zM816 692q-13 -20 -27 -33h-91q8 22 11 33h107zM752 631 q-28 -17 -65 -33h-23q16 22 21 33h67zM232 598q-42 4 -66 4q-16 0 -28 -1q9 20 19 30h66q15 -8 40 -33h-31zM663 1184h57q-7 -18 -17 -33h-46q1 4 2.5 10.5t2.5 12t1 10.5zM649 1122h29q-18 -16 -42 -30q6 11 13 30zM636 1307h45q23 -16 34 -33h-64q-7 20 -15 33zM659 1245 h69q1 -4 1 -12q0 -14 -1 -21h-65q0 11 -4 33zM299 1139h4q81 -111 154 -111h12q61 0 105 52t44 124t-57 123t-137 51q-108 0 -186 -64.5t-78 -154.5v-4h-4v303h2l8 -10q41 -51 174 -51q57 0 84 2q25 2 72 2q128 0 218.5 -48.5t90.5 -119.5q0 -77 -73 -138t-177 -75 q144 -14 249 -91.5t105 -176.5q0 -64 -58 -118t-156.5 -85t-213.5 -31q-81 0 -172 21q-81 18 -143 18q-49 0 -84 -12q0 59 29.5 101t70.5 42q36 0 67 -21t66 -59q61 -67 152 -67q86 0 146.5 65.5t60.5 159.5q0 99 -57.5 169.5t-137.5 70.5h-22q-53 0 -88.5 -29t-65.5 -78h-4 v240zM289 1374q-69 7 -109 30v-94q35 39 109 64zM579 1049q75 18 123 68t48 116q0 54 -62 94t-152 48q48 -26 77.5 -71.5t29.5 -99.5q0 -93 -64 -155zM335 558q-26 20 -38 34q-65 72 -115 72q-23 0 -44 -23t-29 -64q30 5 57 5q62 0 149 -19q14 -4 20 -5zM596 989 q47 -36 74.5 -95t27.5 -128q0 -68 -31 -125t-84 -91q116 18 193.5 73t77.5 129q0 85 -73.5 150t-184.5 87zM394 1019q-33 17 -70 55v-105q32 35 70 50z" />
<glyph unicode="&#xb4;" horiz-adv-x="634" d="M297 1081h128q-16 -13 -48 -32h-107zM247 1020h71q-44 -19 -92 -33h-6zM393 1171q22 11 45 11q8 0 16 -11h-61zM351 1143h110q-2 -18 -11 -33h-130q17 20 31 33zM104 911l-2 2l176 217q80 99 162 99q38 0 65 -27t27 -65q0 -40 -34.5 -76t-96 -63.5t-135 -48.5t-162.5 -38 zM162 948q319 83 319 199q0 23 -12.5 39t-30.5 16q-69 0 -141 -88z" />
<glyph unicode="&#xb6;" horiz-adv-x="1597" d="M150 905q-3 13 -3 27q0 1 0.5 3t0.5 3h94v-6q0 -18 1 -27h-93zM158 877h90q6 -22 10 -33h-83q-12 18 -17 33zM196 815h75q9 -17 21 -33h-62q-13 10 -34 33zM270 754h46q16 -18 36 -33h-13q-30 11 -69 33zM292 1122h36q-16 -14 -29 -32h-59q21 16 52 32zM207 1061h72 q-12 -22 -17 -33h-82q12 16 27 33zM163 999h88q-4 -13 -7 -32h-92q5 19 11 32zM623 -262q4 4 7.5 9.5t7.5 12.5t6 11h138q1 -11 5 -33h-164zM682 -139q6 22 8 33h84q0 -6 0.5 -17t0.5 -16h-93zM672 -168h104l3 -33h-120q5 11 13 33zM700 -16v16v16h74v-32h-74zM699 -45h75 v-33h-79q2 11 4 33zM700 45v33h74v-33h-74zM700 168v33h74v-33h-74zM700 139h74v-33h-74v33zM700 414v32h74v-32h-74zM700 385h74v-33h-74v33zM700 324h74v-33h-74v33zM700 262h74v-33h-74v33zM700 1151v23h90q0 -4 -1 -11.5t-2 -11.5h-87zM700 1122h82q0 -5 -1 -16t-2 -16 h-79v32zM700 1061h76q-1 -11 -1 -33h-75v33zM700 999h74v-6v-26h-74v32zM700 938h74v-33h-74v33zM700 877h74v-33h-74v33zM700 815h74v-33h-74v33zM700 754h74v-33h-74v33zM700 692h74v-33h-74v33zM700 631h74v-33h-74v33zM700 569h74v-32h-74v32zM700 508h74v-33h-74v33z M1151 -262v33h138q16 -22 25 -33h-163zM1151 -139v33h85l9 -33h-94zM1151 -168h105q10 -22 16 -33h-121v33zM1151 -16v32h74v-16v-16h-74zM1151 -45h76q2 -22 4 -33h-80v33zM1151 45v33h74v-33h-74zM1151 168v33h74v-33h-74zM1151 139h74v-33h-74v33zM1151 414v32h74v-32 h-74zM1151 385h74v-33h-74v33zM1151 324h74v-33h-74v33zM1151 262h74v-33h-74v33zM1151 1151v23h183q-7 -7 -21 -23h-162zM1151 1122h140q-18 -28 -20 -32h-120v32zM1151 1061h106q-2 -5 -4 -10.5t-4.5 -12t-3.5 -10.5h-94v33zM1151 999h86q-1 -2 -6 -32h-80v32zM1151 938 h76q-2 -22 -2 -33h-74v33zM1151 877h74v-33h-74v33zM1151 815h74v-33h-74v33zM1151 754h74v-33h-74v33zM1151 692h74v-33h-74v33zM1151 631h74v-33h-74v33zM1151 569h74v-32h-74v32zM1151 508h74v-33h-74v33zM1106 -328v1526h-246v-1526h-405v4q93 20 146.5 111t53.5 213 v645h-137q-172 0 -294 84.5t-122 202.5t122 202.5t294 84.5h993v-5q-93 -20 -146.5 -110.5t-53.5 -212.5v-891q0 -122 53.5 -213t146.5 -111v-4h-405zM655 1198h-30q-123 0 -210 -78t-87 -188t87 -188t210 -78h30v532zM1130 -303h261q-146 102 -146 303v891q0 201 146 303 h-261v-1497zM815 -303q-20 100 -20 201v1095q0 101 20 201h-135v-1194q0 -94 -32.5 -175t-92.5 -128h260zM483 671q-99 37 -160 106t-61 155t61 155t160 106q-152 -9 -254 -85.5t-102 -175.5t102 -175.5t254 -85.5z" />
<glyph unicode="&#xb7;" horiz-adv-x="450" d="M116 659q7 16 22 33h152q9 -11 16 -33h-190zM108 631h204q1 -5 1 -17v-16h-205q-2 10 -2 16q0 7 2 17zM181 721q22 8 44 8q16 0 32 -8h-76zM292 537h-156q-16 20 -21 32h192q-5 -16 -15 -32zM264 508q-18 -12 -39 -12q-28 0 -52 12h91zM61 614q0 68 48.5 116t115.5 48 q72 0 123 -48t51 -116q0 -67 -51 -115t-123 -48q-68 0 -116 48t-48 115zM86 614q0 -58 40.5 -98.5t98.5 -40.5q45 0 77 40.5t32 98.5q0 56 -32 96t-77 40q-58 0 -98.5 -40t-40.5 -96z" />
<glyph unicode="&#xb8;" horiz-adv-x="557" d="M389 -262h-60q1 5 1 15q0 12 -1 18h52q8 -18 8 -33zM316 -168q27 -16 44 -33h-37q-5 17 -12 33h5zM360 -324h-54q11 16 17 33h61q-8 -18 -24 -33zM243 -120q66 -46 66 -127q0 -91 -119 -135q15 -2 50 -2q71 0 120.5 34.5t49.5 83.5q0 52 -47.5 91.5t-119.5 54.5zM211 -93 q107 -5 180.5 -54.5t73.5 -118.5q0 -60 -66 -101.5t-159 -41.5q-78 0 -148 27v4q85 10 139 43.5t54 87.5q0 50 -34 87.5t-85 41.5l52 122h34z" />
<glyph unicode="&#xb9;" horiz-adv-x="722" d="M332 1184h101v-33h-101v33zM332 1122h101v-32h-101v32zM332 1061h101v-33h-101v33zM332 999h101v-32h-101v32zM332 938h101v-33h-101v33zM332 877h101v-33h-101v33zM332 815h101v-33h-101v33zM332 754h101v-33h-101v33zM332 692h101v-6q0 -9 2 -27h-105q2 18 2 27v6z M323 631h119q8 -21 16 -33h-150q8 13 15 33zM433 1307v-33h-51q4 5 12.5 16t12.5 17h26zM433 1245v-33h-99q4 6 13 17t13 16h73zM287 1189l-18 -24q-28 -35 -43 -74.5t-31 -101.5l-1 -4l-4 1q-63 14 -103 73l-3 5l6 2q54 13 95.5 46.5t84.5 90.5l147 190h93v-707 q0 -55 39 -96.5t99 -54.5h3v-11h-504v11h3q58 13 97.5 55.5t39.5 95.5v503zM201 1094q-34 -27 -76 -43q22 -24 51 -35q12 45 25 78zM304 1207q8 -8 8 -18v-503q0 -82 -74 -137h301q-86 53 -86 137v682h-24z" />
<glyph unicode="&#xba;" horiz-adv-x="983" d="M733 905v21v12h101q0 -11 -4 -33h-97zM730 877h93q-6 -17 -15 -33h-83q4 22 5 33zM718 815h71q-18 -22 -30 -33h-52q8 22 11 33zM695 754h28q-20 -14 -41 -25q7 10 13 25zM692 1122h36q24 -17 39 -32h-61q-2 6 -14 32zM715 1061h77q6 -8 20 -33h-89q-2 11 -8 33zM728 999 h96q7 -24 8 -32h-100q-2 20 -4 32zM117 938h102q0 -5 0.5 -10.5t1.5 -12t1 -10.5h-102q-3 17 -3 33zM129 877h97q2 -11 8 -33h-88q-12 18 -17 33zM167 815h77q2 -5 4.5 -10.5t5.5 -12t5 -10.5h-59q-12 10 -33 33zM240 754h35q10 -17 21 -29q-37 17 -56 29zM233 1122h34 q-12 -19 -18 -32h-58q19 18 42 32zM163 1061h74q-2 -5 -3.5 -10.5t-3 -12t-2.5 -10.5h-87q10 18 22 33zM128 999h94q0 -4 -1 -10.5t-1.5 -11.5t-0.5 -10h-100q3 15 9 32zM295 954q0 -119 50.5 -202.5t124.5 -86.5h22h21q73 3 124 78.5t51 182.5q0 119 -50.5 202.5 t-124.5 86.5h-21h-22q-73 -3 -124 -78.5t-51 -182.5zM72 940q0 124 123 211t297 87t296.5 -87t122.5 -211t-122.5 -211t-296.5 -87t-297 87t-123 211zM374 679q-134 98 -134 275q0 154 129 246q-121 -28 -197 -100t-76 -160t77.5 -161t200.5 -100zM614 680q106 32 173 101.5 t67 158.5q0 90 -68.5 160t-176.5 101q48 -41 76 -115.5t28 -159.5q0 -76 -26.5 -142t-72.5 -104z" />
<glyph unicode="&#xbb;" horiz-adv-x="1024" d="M741 385h71l-36 -33h-57zM700 324h44l-36 -33h-30zM658 262h19l-37 -33h-4zM757 414q-4 5 -11 16t-11 16h67q6 -5 18.5 -15.5t18.5 -16.5h-82zM653 569h13q6 -5 18.5 -15.5t18.5 -16.5h-28zM694 508h40q6 -5 18.5 -16t18.5 -17h-55zM342 385h70l-36 -33h-56q4 5 11.5 16 t10.5 17zM300 324h45l-36 -33h-31zM259 262h18l-36 -33h-4zM358 414l-22 32h67l36 -32h-81zM253 569h14l36 -32h-28zM295 508h40l36 -33h-54zM156 94l-2 2v90l151 226l-151 225v88l2 2l366 -299v-33zM555 94l-2 2v90l152 226l-152 225v88l2 2l367 -299v-33zM178 145l289 262 v9l-289 261v-33l157 -232l-157 -233v-34zM578 145l288 262v9l-288 261v-33l156 -232l-156 -233v-34z" />
<glyph unicode="&#xbf;" horiz-adv-x="1249" d="M658 815h79q16 -10 29 -33h-151q20 24 43 33zM597 754h181q4 -15 6 -33h-195q1 16 8 33zM784 692q-2 -18 -6 -33h-181q-7 17 -8 33h195zM766 631q-13 -23 -29 -33h-79q-23 9 -43 33h151zM1015 -324q16 13 34 33h12v-33h-46zM978 -352h83v-33h-7q-39 17 -92 23 q3 1 8.5 4.5t7.5 5.5zM374 -324q-38 15 -69 33h106q15 -18 33 -33h-70zM262 -262q-14 10 -37 33h146q7 -17 18 -33h-127zM167 -139q-4 11 -8 33h194q-3 -14 -3 -27v-6h-183zM179 -168h174q4 -22 7 -33h-160q-12 17 -21 33zM173 -16q7 16 19 32h234q-18 -20 -28 -32h-225z M162 -45h216q-9 -15 -16 -33h-204q0 18 4 33zM216 45q11 11 37 33h243q-25 -20 -40 -33h-240zM352 139h239q-2 -1 -6.5 -3.5t-6.5 -3.5q-16 -8 -42 -26h-242q28 19 58 33zM417 168q40 16 74 33h194q-19 -15 -47 -33h-221zM662 352q5 12 8 22q15 -6 31 -22h-39zM646 324h76 q8 -17 11 -33h-112q16 18 25 33zM590 262h145q-1 -15 -18 -33h-173q24 14 46 33zM596 -385q-100 33 -162.5 100t-62.5 152q0 62 68 131.5t149 115.5q53 30 82.5 49t57.5 47.5t28 53.5q0 51 -27.5 88t-73.5 48q-13 -72 -78 -122t-171 -93q-269 -109 -269 -267 q0 -124 134.5 -212.5t324.5 -90.5zM113 -82q0 92 77.5 165t205.5 125q237 97 237 218q74 0 126 -48.5t52 -117.5q0 -57 -49 -102.5t-141 -97.5q-43 -25 -70 -42.5t-56.5 -42.5t-44 -52t-14.5 -56q0 -104 84 -177.5t203 -73.5q158 2 268.5 100t110.5 237h4v-430h-2 q-36 47 -98 60.5t-159 13.5q-56 0 -119 -3q-86 -4 -124 -4q-133 0 -246.5 44t-179 119.5t-65.5 164.5zM870 707q0 -68 -48 -116t-115 -48t-115.5 48.5t-48.5 115.5t48 115t116 48q67 0 115 -48t48 -115zM882 -378q66 -1 112.5 -9.5t86.5 -35.5v211q-67 -115 -199 -166z M567 707q0 -58 41 -99t99 -41q40 0 69 41t29 99t-28.5 98.5t-69.5 40.5q-58 0 -99 -40.5t-41 -98.5z" />
<glyph unicode="&#xc0;" horiz-adv-x="1566" d="M548 1520q-9 14 -9 26v6h103q14 -14 29 -32h-123zM576 1491h119q5 -5 13.5 -16t12.5 -17h-94q-31 16 -51 33zM690 1430h55q3 -5 10 -13.5t10 -12.5q-32 9 -75 26zM922 1321q-428 80 -428 225q0 38 27 65t65 27q82 0 162 -99l176 -216zM821 1368l-127 156q-22 27 -34 40.5 t-32.5 26.5t-41.5 13q-28 0 -48 -17t-20 -41q0 -50 81.5 -96.5t221.5 -81.5zM672 967q-18 9 -41 9h-5q-6 1 -7 0l10 23h267q2 -5 6 -15.5t6 -16.5h-236zM707 938h213q0 -1 1 -2.5t1 -2.5l11 -28h-202q-16 24 -24 33zM747 877h198l14 -33h-196q-5 11 -16 33zM776 815h195 l13 -33h-194q-2 6 -6.5 17t-7.5 16zM694 1151q2 5 6.5 16t7.5 17h132q1 -5 4 -16t4 -17h-154zM681 1122h174q2 -6 5 -16.5t5 -15.5h-198q3 5 7.5 15.5t6.5 16.5zM655 1061h219q2 -6 5.5 -17t5.5 -16h-244q3 6 7 17t7 16zM996 754q2 -5 7 -16t7 -17h-195l-14 33h195z M1021 692l14 -33h-194l-14 33h194zM1047 631l14 -33h-195q-2 5 -6.5 16t-6.5 17h194zM1072 569l14 -32h-194l-14 32h194zM1098 508q2 -5 6 -16t7 -17h-193l-14 33h194zM1123 446q1 -2 3 -6.5t3 -6.5t3.5 -8.5t4.5 -10.5h-194l-13 32h193zM1269 168h-223l-14 33h215 q14 -22 22 -33zM1291 139l27 -33h-247q-3 6 -7 17t-6 16h233zM1344 78l33 -33h-280q-2 6 -7 17t-7 16h261zM1149 385l15 -33h-195l-14 33h194zM1178 324q5 -11 17 -33h-200l-14 33h197zM1210 262q12 -22 19 -33h-209q-2 5 -6.5 16t-7.5 17h204zM285 168h-43q3 5 10.5 16 t11.5 17h14q4 -22 7 -33zM295 139q8 -22 13 -33h-112q4 5 12.5 16.5t12.5 16.5h74zM322 78q6 -11 20 -33h-198q20 22 29 33h149zM389 502h469l-99 235q-45 107 -72 150.5t-56 43.5q-30 0 -63 -45.5t-76 -146.5zM290 283q-84 -145 -193 -258h283q-90 126 -90 258zM344 449 l334 780h211l322 -778q69 -165 136.5 -270.5t174.5 -176.5v-4h-455l-196 471h-495l-13 -31q-37 -88 -37 -138q0 -160 98 -300l-2 -2h-381l-2 2q192 179 305 447zM782 747l301 -722h348q-96 80 -161 179.5t-122 236.5l-207 500q-58 141 -85 263h-162l-115 -268q25 20 52 20 q42 0 73 -48t78 -161z" />
<glyph unicode="&#xc1;" horiz-adv-x="1566" d="M831 1491h128q-22 -18 -47 -33h-108zM781 1430h71q-44 -19 -92 -33h-5q5 5 13.5 16t12.5 17zM928 1581q20 10 45 10q8 0 15 -10h-60zM886 1552h109q-2 -17 -11 -32h-130q10 12 32 32zM639 1321l-2 2l175 216q80 99 163 99q38 0 65 -27t27 -65q0 -145 -428 -225zM697 1358 q319 83 319 198q0 23 -12.5 39.5t-30.5 16.5q-70 0 -142 -88zM672 967q-18 9 -41 9h-5q-6 1 -7 0l10 23h267q2 -5 6 -15.5t6 -16.5h-236zM707 938h213q0 -1 1 -2.5t1 -2.5l11 -28h-202q-16 24 -24 33zM747 877h198l14 -33h-196q-5 11 -16 33zM776 815h195l13 -33h-194 q-2 6 -6.5 17t-7.5 16zM694 1151q2 5 6.5 16t7.5 17h132q1 -5 4 -16t4 -17h-154zM681 1122h174q2 -6 5 -16.5t5 -15.5h-198q3 5 7.5 15.5t6.5 16.5zM655 1061h219q2 -6 5.5 -17t5.5 -16h-244q3 6 7 17t7 16zM996 754q2 -5 7 -16t7 -17h-195l-14 33h195zM1021 692l14 -33 h-194l-14 33h194zM1047 631l14 -33h-195q-2 5 -6.5 16t-6.5 17h194zM1072 569l14 -32h-194l-14 32h194zM1098 508q2 -5 6 -16t7 -17h-193l-14 33h194zM1123 446q1 -2 3 -6.5t3 -6.5t3.5 -8.5t4.5 -10.5h-194l-13 32h193zM1269 168h-223l-14 33h215q14 -22 22 -33zM1291 139 l27 -33h-247q-3 6 -7 17t-6 16h233zM1344 78l33 -33h-280q-2 6 -7 17t-7 16h261zM1149 385l15 -33h-195l-14 33h194zM1178 324q5 -11 17 -33h-200l-14 33h197zM1210 262q12 -22 19 -33h-209q-2 5 -6.5 16t-7.5 17h204zM285 168h-43q3 5 10.5 16t11.5 17h14q4 -22 7 -33z M295 139q8 -22 13 -33h-112q4 5 12.5 16.5t12.5 16.5h74zM322 78q6 -11 20 -33h-198q20 22 29 33h149zM389 502h469l-99 235q-45 107 -72 150.5t-56 43.5q-30 0 -63 -45.5t-76 -146.5zM290 283q-84 -145 -193 -258h283q-90 126 -90 258zM344 449l334 780h211l322 -778 q69 -165 136.5 -270.5t174.5 -176.5v-4h-455l-196 471h-495l-13 -31q-37 -88 -37 -138q0 -160 98 -300l-2 -2h-381l-2 2q192 179 305 447zM782 747l301 -722h348q-96 80 -161 179.5t-122 236.5l-207 500q-58 141 -85 263h-162l-115 -268q25 20 52 20q42 0 73 -48t78 -161z " />
<glyph unicode="&#xc2;" horiz-adv-x="1566" d="M893 1552l47 -32h-73q-12 20 -17 32h43zM981 1491l47 -33h-111l-19 21q-8 8 -11 12h94zM1037 1430l-28 -33h-36l-30 33h94zM705 1552q-4 -12 -14 -32h-77q8 6 25 16.5t25 15.5h41zM673 1491l-10 -12l-19 -21h-123l50 33h102zM617 1430l-30 -33h-42l-34 33h106zM783 1602 h-5q-34 -103 -82 -154l-127 -137l-144 138l288 189h135l287 -189l-144 -138l-126 137q-48 51 -82 154zM742 1614h-22l-256 -169l104 -99l110 119q40 43 64 149zM804 1614l2 -5q31 -94 77 -144l110 -119l87 101l-239 167h-37zM672 967q-18 9 -41 9h-5q-6 1 -7 0l10 23h267 q2 -5 6 -15.5t6 -16.5h-236zM707 938h213q0 -1 1 -2.5t1 -2.5l11 -28h-202q-16 24 -24 33zM747 877h198l14 -33h-196q-5 11 -16 33zM776 815h195l13 -33h-194q-2 6 -6.5 17t-7.5 16zM694 1151q2 5 6.5 16t7.5 17h132q1 -5 4 -16t4 -17h-154zM681 1122h174q2 -6 5 -16.5 t5 -15.5h-198q3 5 7.5 15.5t6.5 16.5zM655 1061h219q2 -6 5.5 -17t5.5 -16h-244q3 6 7 17t7 16zM996 754q2 -5 7 -16t7 -17h-195l-14 33h195zM1021 692l14 -33h-194l-14 33h194zM1047 631l14 -33h-195q-2 5 -6.5 16t-6.5 17h194zM1072 569l14 -32h-194l-14 32h194zM1098 508 q2 -5 6 -16t7 -17h-193l-14 33h194zM1123 446q1 -2 3 -6.5t3 -6.5t3.5 -8.5t4.5 -10.5h-194l-13 32h193zM1269 168h-223l-14 33h215q14 -22 22 -33zM1291 139l27 -33h-247q-3 6 -7 17t-6 16h233zM1344 78l33 -33h-280q-2 6 -7 17t-7 16h261zM1149 385l15 -33h-195l-14 33 h194zM1178 324q5 -11 17 -33h-200l-14 33h197zM1210 262q12 -22 19 -33h-209q-2 5 -6.5 16t-7.5 17h204zM285 168h-43q3 5 10.5 16t11.5 17h14q4 -22 7 -33zM295 139q8 -22 13 -33h-112q4 5 12.5 16.5t12.5 16.5h74zM322 78q6 -11 20 -33h-198q20 22 29 33h149zM389 502h469 l-99 235q-45 107 -72 150.5t-56 43.5q-30 0 -63 -45.5t-76 -146.5zM290 283q-84 -145 -193 -258h283q-90 126 -90 258zM344 449l334 780h211l322 -778q69 -165 136.5 -270.5t174.5 -176.5v-4h-455l-196 471h-495l-13 -31q-37 -88 -37 -138q0 -160 98 -300l-2 -2h-381l-2 2 q192 179 305 447zM782 747l301 -722h348q-96 80 -161 179.5t-122 236.5l-207 500q-58 141 -85 263h-162l-115 -268q25 20 52 20q42 0 73 -48t78 -161z" />
<glyph unicode="&#xc3;" horiz-adv-x="1566" d="M471 1430h95q-46 -9 -90 -33q-4 19 -5 33zM535 1552h175q17 -3 29 -7q70 -18 132 -25h-376q18 21 40 32zM478 1491h597q-2 -21 -8 -33h-597q2 17 8 33zM988 1520q40 6 81 24q4 -13 5 -24h-86zM1047 1430q-25 -25 -57 -33h-90q-32 4 -97.5 16.5t-99.5 16.5h344zM456 1330 q-31 54 -31 119q0 68 51 116t123 48q58 0 151 -24q112 -28 187 -28q97 0 170 60q30 -52 30 -119q0 -68 -50.5 -116t-122.5 -48q-59 0 -152 24q-112 28 -187 28q-95 0 -169 -60zM465 1367q72 47 160 47q59 0 168.5 -20.5t165.5 -20.5t96.5 36.5t40.5 88.5q0 35 -16 75 q-65 -37 -143 -37q-75 0 -193 29q-87 23 -145 23q-63 0 -106.5 -41t-43.5 -98q0 -44 16 -82zM672 967q-18 9 -41 9h-5q-6 1 -7 0l10 23h267q2 -5 6 -15.5t6 -16.5h-236zM707 938h213q0 -1 1 -2.5t1 -2.5l11 -28h-202q-16 24 -24 33zM747 877h198l14 -33h-196q-5 11 -16 33z M776 815h195l13 -33h-194q-2 6 -6.5 17t-7.5 16zM694 1151q2 5 6.5 16t7.5 17h132q1 -5 4 -16t4 -17h-154zM681 1122h174q2 -6 5 -16.5t5 -15.5h-198q3 5 7.5 15.5t6.5 16.5zM655 1061h219q2 -6 5.5 -17t5.5 -16h-244q3 6 7 17t7 16zM996 754q2 -5 7 -16t7 -17h-195l-14 33 h195zM1021 692l14 -33h-194l-14 33h194zM1047 631l14 -33h-195q-2 5 -6.5 16t-6.5 17h194zM1072 569l14 -32h-194l-14 32h194zM1098 508q2 -5 6 -16t7 -17h-193l-14 33h194zM1123 446q1 -2 3 -6.5t3 -6.5t3.5 -8.5t4.5 -10.5h-194l-13 32h193zM1269 168h-223l-14 33h215 q14 -22 22 -33zM1291 139l27 -33h-247q-3 6 -7 17t-6 16h233zM1344 78l33 -33h-280q-2 6 -7 17t-7 16h261zM1149 385l15 -33h-195l-14 33h194zM1178 324q5 -11 17 -33h-200l-14 33h197zM1210 262q12 -22 19 -33h-209q-2 5 -6.5 16t-7.5 17h204zM285 168h-43q3 5 10.5 16 t11.5 17h14q4 -22 7 -33zM295 139q8 -22 13 -33h-112q4 5 12.5 16.5t12.5 16.5h74zM322 78q6 -11 20 -33h-198q20 22 29 33h149zM389 502h469l-99 235q-45 107 -72 150.5t-56 43.5q-30 0 -63 -45.5t-76 -146.5zM290 283q-84 -145 -193 -258h283q-90 126 -90 258zM344 449 l334 780h211l322 -778q69 -165 136.5 -270.5t174.5 -176.5v-4h-455l-196 471h-495l-13 -31q-37 -88 -37 -138q0 -160 98 -300l-2 -2h-381l-2 2q192 179 305 447zM782 747l301 -722h348q-96 80 -161 179.5t-122 236.5l-207 500q-58 141 -85 263h-162l-115 -268q25 20 52 20 q42 0 73 -48t78 -161z" />
<glyph unicode="&#xc4;" horiz-adv-x="1566" d="M462 1552h142q12 -13 18 -32h-179q6 17 19 32zM627 1491q0 -16 -5 -33h-178q-6 15 -6 33h189zM608 1430q-15 -22 -39 -33h-65q-29 11 -45 33h149zM945 1552h143q12 -13 18 -32h-180q6 17 19 32zM1110 1491q0 -16 -5 -33h-178q-5 12 -5 33h188zM1092 1430q-15 -22 -40 -33 h-65q-28 11 -44 33h149zM901 1491q0 -50 35.5 -85.5t85.5 -35.5q45 0 76.5 35.5t31.5 85.5q0 47 -33 81t-79 34q-48 0 -82.5 -34t-34.5 -81zM418 1491q0 -50 35.5 -85.5t85.5 -35.5q45 0 76.5 35.5t31.5 85.5q0 47 -33 81t-79 34q-48 0 -82.5 -34t-34.5 -81zM874 1493 q0 61 43 104t105 43t104.5 -43t42.5 -104t-42.5 -104t-104.5 -43q-61 0 -104.5 43t-43.5 104zM391 1493q0 61 43.5 104t104.5 43t104 -43t43 -104t-43 -104t-104 -43t-104.5 43t-43.5 104zM672 967q-18 9 -41 9h-5q-6 1 -7 0l10 23h267q2 -5 6 -15.5t6 -16.5h-236zM707 938 h213q0 -1 1 -2.5t1 -2.5l11 -28h-202q-16 24 -24 33zM747 877h198l14 -33h-196q-5 11 -16 33zM776 815h195l13 -33h-194q-2 6 -6.5 17t-7.5 16zM694 1151q2 5 6.5 16t7.5 17h132q1 -5 4 -16t4 -17h-154zM681 1122h174q2 -6 5 -16.5t5 -15.5h-198q3 5 7.5 15.5t6.5 16.5z M655 1061h219q2 -6 5.5 -17t5.5 -16h-244q3 6 7 17t7 16zM996 754q2 -5 7 -16t7 -17h-195l-14 33h195zM1021 692l14 -33h-194l-14 33h194zM1047 631l14 -33h-195q-2 5 -6.5 16t-6.5 17h194zM1072 569l14 -32h-194l-14 32h194zM1098 508q2 -5 6 -16t7 -17h-193l-14 33h194z M1123 446q1 -2 3 -6.5t3 -6.5t3.5 -8.5t4.5 -10.5h-194l-13 32h193zM1269 168h-223l-14 33h215q14 -22 22 -33zM1291 139l27 -33h-247q-3 6 -7 17t-6 16h233zM1344 78l33 -33h-280q-2 6 -7 17t-7 16h261zM1149 385l15 -33h-195l-14 33h194zM1178 324q5 -11 17 -33h-200 l-14 33h197zM1210 262q12 -22 19 -33h-209q-2 5 -6.5 16t-7.5 17h204zM285 168h-43q3 5 10.5 16t11.5 17h14q4 -22 7 -33zM295 139q8 -22 13 -33h-112q4 5 12.5 16.5t12.5 16.5h74zM322 78q6 -11 20 -33h-198q20 22 29 33h149zM389 502h469l-99 235q-45 107 -72 150.5 t-56 43.5q-30 0 -63 -45.5t-76 -146.5zM290 283q-84 -145 -193 -258h283q-90 126 -90 258zM344 449l334 780h211l322 -778q69 -165 136.5 -270.5t174.5 -176.5v-4h-455l-196 471h-495l-13 -31q-37 -88 -37 -138q0 -160 98 -300l-2 -2h-381l-2 2q192 179 305 447zM782 747 l301 -722h348q-96 80 -161 179.5t-122 236.5l-207 500q-58 141 -85 263h-162l-115 -268q25 20 52 20q42 0 73 -48t78 -161z" />
<glyph unicode="&#xc5;" horiz-adv-x="1566" d="M285 168h-43q3 5 10.5 16t11.5 17h14q4 -22 7 -33zM295 139q8 -22 13 -33h-112q4 5 12.5 16.5t12.5 16.5h74zM322 78q6 -11 20 -33h-198q20 22 29 33h149zM672 967q-18 9 -41 9h-12q1 4 5 11.5t5 11.5h267q2 -5 6 -15.5t6 -16.5h-236zM707 938h213q0 -1 1 -2.5t1 -2.5 l11 -28h-202q-16 24 -24 33zM747 877h198q3 -6 7 -17t7 -16h-196q-5 11 -16 33zM776 815h195q2 -5 6.5 -16t6.5 -17h-194q-2 6 -6.5 17t-7.5 16zM694 1151q2 5 6.5 15t6.5 15q35 -14 75 -14q30 0 60 9q1 -4 3 -12.5t3 -12.5h-154zM682 1122h173q2 -6 5 -16.5t5 -15.5h-197z M655 1061h219q2 -6 5.5 -17t5.5 -16h-244q3 6 7 17t7 16zM996 754l14 -33h-195l-14 33h195zM1021 692q2 -6 7 -17t7 -16h-194l-14 33h194zM1047 631l14 -33h-195q-2 5 -6.5 16t-6.5 17h194zM1072 569l14 -32h-194l-14 32h194zM1098 508l13 -33h-193l-14 33h194zM1123 446 l6 -13q1 -2 3.5 -8.5t4.5 -10.5h-194l-13 32h193zM1269 168h-223l-14 33h215q14 -22 22 -33zM1291 139q4 -6 13 -16t14 -16h-247q-3 6 -7 16.5t-6 15.5h233zM1344 78l33 -33h-280q-2 6 -7 17t-7 16h261zM1149 385l15 -33h-195l-14 33h194zM1178 324q5 -11 17 -33h-200 l-14 33h197zM1210 262q12 -22 19 -33h-209q-2 5 -6.5 16t-7.5 17h204zM782 1552q-70 0 -120 -50t-50 -120t50 -120t120 -50t120 50t50 120t-50 120t-120 50zM782 1528q60 0 103 -43t43 -103t-43 -102.5t-103 -42.5t-102.5 42.5t-42.5 102.5t42.5 103t102.5 43zM782 1577 q80 0 137.5 -57.5t57.5 -137.5q0 -49 -23 -91t-62 -69l319 -771q69 -165 136.5 -270.5t174.5 -176.5v-4h-455l-196 471h-495l-13 -31q-37 -88 -37 -138q0 -160 98 -300l-2 -2h-381l-2 2q192 179 305 447l330 772q-40 27 -63 69.5t-23 91.5q0 80 57 137.5t137 57.5zM782 1503 q-50 0 -85.5 -35.5t-35.5 -85.5t35.5 -85t85.5 -35t85.5 35t35.5 85t-35.5 85.5t-85.5 35.5zM782 747l301 -722h348q-96 80 -161 179.5t-122 236.5l-207 500q-58 139 -85 261q-36 -14 -74 -14q-46 0 -86 20l-117 -272q25 20 52 20q42 0 73 -48t78 -161zM290 283 q-84 -145 -193 -258h283q-90 126 -90 258zM389 502h469l-99 235q-45 107 -72 150.5t-56 43.5q-30 0 -63 -45.5t-76 -146.5z" />
<glyph unicode="&#xc6;" horiz-adv-x="2017" d="M1483 692h7v-33h-52q29 19 45 33zM1490 631v-33h-26q-26 17 -59 33h85zM1174 1151h-257q-19 19 -44 33h306q-1 -6 -2.5 -17t-2.5 -16zM1170 1122q0 -5 -1 -15.5t-2 -16.5h-207q-6 14 -19 32h229zM1165 1061q-1 -11 -1 -33h-183q-3 16 -9 33h193zM1163 414h-176v32h176 v-32zM1163 385v-33h-176v33h176zM1163 324v-33h-177q1 11 1 33h176zM1163 999v-32h-176q0 10 -2 32h178zM1163 938v-33h-176v33h176zM1163 877v-33h-176v33h176zM1163 815v-33h-176v33h176zM1163 754v-33h-176v33h176zM1163 692v-33h-176v33h176zM1163 631v-33h-176v33h176z M1163 569v-32h-176v32h176zM1163 508v-33h-176v33h176zM1166 168h-205q4 11 10 33h193q0 -11 2 -33zM1168 139l3 -33h-237q6 11 16 33h218zM1174 78l6 -33h-288q12 13 25 33h257zM1163 262q0 -6 0.5 -16.5t0.5 -16.5h-186q4 22 5 33h180zM285 168h-43q3 5 10.5 16t11.5 17 h13q2 -11 8 -33zM294 139q8 -22 13 -33h-111q4 5 12.5 16.5t12.5 16.5h73zM321 78q6 -11 20 -33h-197q20 22 29 33h148zM1659 1212q12 2 26.5 5.5t32.5 8t29 6.5q0 -3 -0.5 -10t-0.5 -10h-87zM1745 1184q-1 -5 -1 -16t-1 -17h-115q-26 18 -54 33h171zM1741 1122 q-1 -6 -1 -16.5v-15.5h-36q-24 22 -37 32h74zM1602 45q34 16 62 33h154l-2 -33h-214zM1782 168q22 22 32 33h10q0 -6 -1 -17t-1 -16h-40zM1751 139h70l-2 -33h-111q20 13 43 33zM1482 23q202 -5 351 -51l15 307q-59 -92 -154 -158t-212 -98zM1463 1208q173 -54 292 -205 l14 255q-153 -40 -306 -50zM290 283q-84 -145 -193 -258h283q-90 119 -90 258zM1204 1204h-510l-25 -58q49 42 103 42q92 0 143.5 -65t51.5 -160v-635q0 -94 -33 -174.5t-93 -128.5h363q-20 101 -20 262v717q0 101 20 200zM678 1229h657q241 0 459 61l-2 -383h-2 q-81 142 -210.5 221.5t-285.5 79.5h-45v-563q173 11 285 170h2l-2 -358h-2q-81 147 -283 168v-605h25q226 0 398 115.5t220 308.5h2l-39 -505q-81 28 -175 42t-161.5 16.5t-183.5 2.5h-594v4q92 20 146.5 111t54.5 213v293h-502l-77 -181q-37 -88 -37 -138q0 -160 98 -300 l-2 -2h-381l-2 2q190 177 305 447zM453 651h489v312q0 87 -45 143.5t-125 56.5q-99 0 -164 -151zM1333 634q113 -31 177 -103l1 216q-78 -84 -178 -113z" />
<glyph unicode="&#xc7;" d="M1057 45q31 19 48 33h71q0 -6 1 -17t1 -16h-121zM1169 139h4q1 -5 1 -16t1 -17h-37q6 5 31 33zM1161 1184v-33h-57q-25 20 -47 33h104zM1161 1122v-25q-7 8 -24 25h24zM343 168q-12 10 -38 33h126q4 -6 10.5 -17t9.5 -16h-108zM382 139h90q18 -22 28 -33h-64 q-21 11 -54 33zM498 78h30q3 -3 6 -5.5t7.5 -6t6.5 -5.5q-22 6 -50 17zM162 414q-1 2 -5.5 14t-6.5 18h195q1 -6 3 -16t3 -16h-189zM173 385h185q2 -5 4 -16t4 -17h-177q-6 11 -16 33zM206 324h169l12 -33h-160zM248 262h151q10 -22 16 -33h-139q-10 11 -28 33zM125 598v14 v19h207v-17v-16h-207zM127 569h206q0 -21 1 -32h-204q0 6 -1 16.5t-2 15.5zM135 508h202q1 -6 2 -17t2 -16h-199q-3 11 -7 33zM499 1151q32 12 49 17q-14 -12 -19 -17h-30zM437 1122h63q-8 -9 -27 -32h-91q17 12 55 32zM343 1061h109l-21 -33h-126q26 23 38 33zM277 999h139 q-9 -16 -16 -32h-151q10 12 28 32zM228 938h160l-12 -33h-170q4 6 11 17t11 16zM190 877h177l-9 -33h-184q10 22 16 33zM162 815h190q-1 -6 -3.5 -17t-3.5 -16h-194q3 11 11 33zM143 754h198q-1 -6 -2 -17t-2 -16h-202q2 11 8 33zM131 692h204q-2 -22 -2 -33h-206q2 22 4 33 zM847 -262h-60v15l1 9q0 9 -1 9h51q8 -17 9 -33zM774 -168q25 -14 44 -33h-37q-3 11 -13 33h6zM818 -324h-54q11 16 17 33h61q-8 -18 -24 -33zM768 -352q-22 -8 -40 -10q2 2 6 5.5t6 4.5h28zM668 -93q107 -5 181 -54.5t74 -118.5q0 -60 -66.5 -101.5t-159.5 -41.5 q-80 0 -147 26v5q84 10 138 43.5t54 87.5q0 50 -33.5 87.5t-84.5 41.5l47 110q-163 13 -298.5 98.5t-214 223.5t-78.5 298q0 170 86.5 314.5t235 228.5t323.5 84q49 0 103 -3q78 -4 119 -4q199 0 257 75h2v-430h-4q0 94 -59 172t-159 123t-218 46q-94 0 -174.5 -81 t-127 -220t-46.5 -303t46.5 -303t127 -219.5t174.5 -80.5q181 2 309.5 100.5t128.5 240.5h4l21 -430h-2q-27 35 -76.5 52.5t-89.5 20t-114 2.5q-41 0 -119 -4q-54 -3 -103 -3h-21zM701 -121q66 -46 66 -126q0 -91 -120 -135q22 -3 50 -3q71 0 120.5 35t49.5 84q0 52 -47 91 t-119 54zM646 19q-148 79 -221 236t-73 359t73 359.5t221 236.5q-231 -29 -386.5 -199.5t-155.5 -398.5q0 -226 155.5 -395t386.5 -198zM960 1207q151 -55 222 -172v219q-72 -45 -222 -47zM960 21q58 0 89 -1.5t76.5 -11.5t76.5 -30l-11 228q-33 -61 -93.5 -109t-137.5 -76z " />
<glyph unicode="&#xc8;" horiz-adv-x="1402" d="M444 1520q-10 15 -10 26q0 1 0.5 3t0.5 3h103q14 -14 29 -32h-123zM471 1491h119l27 -33h-95q-32 16 -51 33zM586 1430h54q4 -4 11 -12.5t10 -13.5q-32 9 -75 26zM817 1321q-428 80 -428 225q0 38 27 65t65 27q83 0 163 -99l175 -216zM717 1368l-127 156q-21 27 -34 40.5 t-33.5 26.5t-41.5 13q-28 0 -47.5 -17t-19.5 -41q0 -50 81.5 -96.5t221.5 -81.5zM1045 1212q12 2 26.5 5.5t32.5 8t29 6.5l-1 -20h-87zM1130 1184l-1 -33h-115q-26 18 -54 33h170zM1127 1122l-2 -32h-35q-19 17 -38 32h75zM988 45q34 16 62 33h153q-1 -6 -1 -17v-16h-214z M1168 168q11 11 31 33h10q-1 -6 -1 -17v-16h-40zM1136 139h70v-16t-1 -17h-111q16 10 42 33zM856 692h10q0 -6 -0.5 -17t-0.5 -16h-56q18 11 47 33zM865 631v-33h-30q-36 23 -61 33h91zM258 45q12 13 25 33h257q1 -6 2.5 -17t2.5 -16h-287zM327 168q4 11 10 33h192 q0 -11 2 -33h-204zM316 139h217l3 -33h-236q6 11 16 33zM352 324h176v-33h-177q1 11 1 33zM348 262h180q0 -6 0.5 -16.5t0.5 -16.5h-186q4 22 5 33zM352 414v32h176v-32h-176zM352 385h176v-33h-176v33zM352 877h176v-33h-176v33zM352 815h176v-33h-176v33zM352 754h176v-33 h-176v33zM352 692h176v-33h-176v33zM352 631h176v-33h-176v33zM352 569h176v-32h-176v32zM352 508h176v-33h-176v33zM283 1151q-13 20 -25 33h287l-6 -33h-256zM300 1122h235q-1 -5 -2 -16t-1 -16h-216q-7 16 -16 32zM327 1061h203q-1 -11 -1 -33h-192q-6 22 -10 33z M343 999h185v-32h-180q-1 9 -5 32zM351 938h177v-33h-176q0 22 -1 33zM614 645q183 12 295 170h2l-2 -358h-2q-80 146 -293 168v-605h45q226 0 398.5 115.5t220.5 308.5h2l-39 -505q-81 28 -175 42t-161.5 16.5t-183.5 2.5h-615v4q92 20 146.5 111t54.5 213v573 q0 122 -54.5 213t-146.5 111v4h615q241 0 459 61l-2 -383h-2q-81 142 -210.5 221.5t-285.5 79.5h-66v-563zM569 25q-20 101 -20 262v717q0 101 20 200h-363q60 -47 93 -127.5t33 -175.5v-573q0 -95 -33 -175.5t-93 -127.5h363zM700 634q116 -31 185 -105l1 219 q-82 -85 -186 -114zM867 23q203 -5 352 -51l14 307q-59 -92 -154 -158t-212 -98zM848 1208q174 -54 293 -205l14 255q-153 -40 -307 -50z" />
<glyph unicode="&#xc9;" horiz-adv-x="1402" d="M727 1491h128q-19 -17 -48 -33h-107zM677 1430h71q-44 -19 -92 -33h-6zM823 1581q20 10 45 10q9 0 16 -10h-61zM781 1552h110q-2 -17 -11 -32h-130q13 16 31 32zM535 1321l-3 2l176 216q80 99 162 99q38 0 65.5 -27t27.5 -65q0 -145 -428 -225zM592 1358q319 83 319 198 q0 23 -12.5 39.5t-30.5 16.5q-69 0 -141 -88zM1045 1212q12 2 26.5 5.5t32.5 8t29 6.5l-1 -20h-87zM1130 1184l-1 -33h-115q-26 18 -54 33h170zM1127 1122l-2 -32h-35q-19 17 -38 32h75zM988 45q34 16 62 33h153q-1 -6 -1 -17v-16h-214zM1168 168q11 11 31 33h10 q-1 -6 -1 -17v-16h-40zM1136 139h70v-16t-1 -17h-111q16 10 42 33zM856 692h10q0 -6 -0.5 -17t-0.5 -16h-56q18 11 47 33zM865 631v-33h-30q-36 23 -61 33h91zM258 45q12 13 25 33h257q1 -6 2.5 -17t2.5 -16h-287zM327 168q4 11 10 33h192q0 -11 2 -33h-204zM316 139h217 l3 -33h-236q6 11 16 33zM352 324h176v-33h-177q1 11 1 33zM348 262h180q0 -6 0.5 -16.5t0.5 -16.5h-186q4 22 5 33zM352 414v32h176v-32h-176zM352 385h176v-33h-176v33zM352 877h176v-33h-176v33zM352 815h176v-33h-176v33zM352 754h176v-33h-176v33zM352 692h176v-33h-176 v33zM352 631h176v-33h-176v33zM352 569h176v-32h-176v32zM352 508h176v-33h-176v33zM283 1151q-13 20 -25 33h287l-6 -33h-256zM300 1122h235q-1 -5 -2 -16t-1 -16h-216q-7 16 -16 32zM327 1061h203q-1 -11 -1 -33h-192q-6 22 -10 33zM343 999h185v-32h-180q-1 9 -5 32z M351 938h177v-33h-176q0 22 -1 33zM614 645q183 12 295 170h2l-2 -358h-2q-80 146 -293 168v-605h45q226 0 398.5 115.5t220.5 308.5h2l-39 -505q-81 28 -175 42t-161.5 16.5t-183.5 2.5h-615v4q92 20 146.5 111t54.5 213v573q0 122 -54.5 213t-146.5 111v4h615 q241 0 459 61l-2 -383h-2q-81 142 -210.5 221.5t-285.5 79.5h-66v-563zM569 25q-20 101 -20 262v717q0 101 20 200h-363q60 -47 93 -127.5t33 -175.5v-573q0 -95 -33 -175.5t-93 -127.5h363zM700 634q116 -31 185 -105l1 219q-82 -85 -186 -114zM867 23q203 -5 352 -51 l14 307q-59 -92 -154 -158t-212 -98zM848 1208q174 -54 293 -205l14 255q-153 -40 -307 -50z" />
<glyph unicode="&#xca;" horiz-adv-x="1402" d="M789 1552l47 -32h-73q-12 20 -17 32h43zM877 1491l47 -33h-112l-19 21q-4 4 -10 12h94zM933 1430l-28 -33h-36l-30 33h94zM600 1552q-4 -12 -14 -32h-76q8 6 25 16.5t25 15.5h40zM569 1491l-11 -12l-19 -21h-122l49 33h103zM513 1430l-30 -33h-43l-34 33h107zM678 1602 h-4q-34 -103 -82 -154l-127 -137l-144 138l287 189h136l287 -189l-144 -138l-127 137q-48 51 -82 154zM637 1614h-22l-255 -169l104 -99l109 119q40 43 64 149zM700 1614l1 -5q31 -94 77 -144l110 -119l87 101l-239 167h-36zM1045 1212q12 2 26.5 5.5t32.5 8t29 6.5l-1 -20 h-87zM1130 1184l-1 -33h-115q-26 18 -54 33h170zM1127 1122l-2 -32h-35q-19 17 -38 32h75zM988 45q34 16 62 33h153q-1 -6 -1 -17v-16h-214zM1168 168q11 11 31 33h10q-1 -6 -1 -17v-16h-40zM1136 139h70v-16t-1 -17h-111q16 10 42 33zM856 692h10q0 -6 -0.5 -17t-0.5 -16 h-56q18 11 47 33zM865 631v-33h-30q-36 23 -61 33h91zM258 45q12 13 25 33h257q1 -6 2.5 -17t2.5 -16h-287zM327 168q4 11 10 33h192q0 -11 2 -33h-204zM316 139h217l3 -33h-236q6 11 16 33zM352 324h176v-33h-177q1 11 1 33zM348 262h180q0 -6 0.5 -16.5t0.5 -16.5h-186 q4 22 5 33zM352 414v32h176v-32h-176zM352 385h176v-33h-176v33zM352 877h176v-33h-176v33zM352 815h176v-33h-176v33zM352 754h176v-33h-176v33zM352 692h176v-33h-176v33zM352 631h176v-33h-176v33zM352 569h176v-32h-176v32zM352 508h176v-33h-176v33zM283 1151 q-13 20 -25 33h287l-6 -33h-256zM300 1122h235q-1 -5 -2 -16t-1 -16h-216q-7 16 -16 32zM327 1061h203q-1 -11 -1 -33h-192q-6 22 -10 33zM343 999h185v-32h-180q-1 9 -5 32zM351 938h177v-33h-176q0 22 -1 33zM614 645q183 12 295 170h2l-2 -358h-2q-80 146 -293 168v-605 h45q226 0 398.5 115.5t220.5 308.5h2l-39 -505q-81 28 -175 42t-161.5 16.5t-183.5 2.5h-615v4q92 20 146.5 111t54.5 213v573q0 122 -54.5 213t-146.5 111v4h615q241 0 459 61l-2 -383h-2q-81 142 -210.5 221.5t-285.5 79.5h-66v-563zM569 25q-20 101 -20 262v717 q0 101 20 200h-363q60 -47 93 -127.5t33 -175.5v-573q0 -95 -33 -175.5t-93 -127.5h363zM700 634q116 -31 185 -105l1 219q-82 -85 -186 -114zM867 23q203 -5 352 -51l14 307q-59 -92 -154 -158t-212 -98zM848 1208q174 -54 293 -205l14 255q-153 -40 -307 -50z" />
<glyph unicode="&#xcb;" horiz-adv-x="1402" d="M357 1552h143q12 -13 18 -32h-180q6 17 19 32zM522 1491q0 -16 -5 -33h-178q-5 12 -5 33h188zM504 1430q-15 -22 -40 -33h-64q-29 11 -45 33h149zM840 1552h143q12 -13 18 -32h-179q6 19 18 32zM1006 1491q0 -16 -5 -33h-178q-6 15 -6 33h189zM987 1430q-15 -22 -39 -33 h-65q-29 11 -45 33h149zM797 1491q0 -50 35.5 -85.5t85.5 -35.5q45 0 76.5 35.5t31.5 85.5q0 47 -33.5 81t-79.5 34q-48 0 -82 -34t-34 -81zM313 1491q0 -50 35.5 -85.5t85.5 -35.5q45 0 77 35.5t32 85.5q0 47 -33.5 81t-79.5 34q-48 0 -82.5 -34t-34.5 -81zM770 1493 q0 61 43 104t105 43t104.5 -43t42.5 -104t-42.5 -104t-104.5 -43q-61 0 -104.5 43t-43.5 104zM287 1493q0 61 43 104t104 43t104.5 -43t43.5 -104t-43.5 -104t-104.5 -43t-104 43t-43 104zM1045 1212q12 2 26.5 5.5t32.5 8t29 6.5l-1 -20h-87zM1130 1184l-1 -33h-115 q-26 18 -54 33h170zM1127 1122l-2 -32h-35q-19 17 -38 32h75zM988 45q34 16 62 33h153q-1 -6 -1 -17v-16h-214zM1168 168q11 11 31 33h10q-1 -6 -1 -17v-16h-40zM1136 139h70v-16t-1 -17h-111q16 10 42 33zM856 692h10q0 -6 -0.5 -17t-0.5 -16h-56q18 11 47 33zM865 631v-33 h-30q-36 23 -61 33h91zM258 45q12 13 25 33h257q1 -6 2.5 -17t2.5 -16h-287zM327 168q4 11 10 33h192q0 -11 2 -33h-204zM316 139h217l3 -33h-236q6 11 16 33zM352 324h176v-33h-177q1 11 1 33zM348 262h180q0 -6 0.5 -16.5t0.5 -16.5h-186q4 22 5 33zM352 414v32h176v-32 h-176zM352 385h176v-33h-176v33zM352 877h176v-33h-176v33zM352 815h176v-33h-176v33zM352 754h176v-33h-176v33zM352 692h176v-33h-176v33zM352 631h176v-33h-176v33zM352 569h176v-32h-176v32zM352 508h176v-33h-176v33zM283 1151q-13 20 -25 33h287l-6 -33h-256z M300 1122h235q-1 -5 -2 -16t-1 -16h-216q-7 16 -16 32zM327 1061h203q-1 -11 -1 -33h-192q-6 22 -10 33zM343 999h185v-32h-180q-1 9 -5 32zM351 938h177v-33h-176q0 22 -1 33zM614 645q183 12 295 170h2l-2 -358h-2q-80 146 -293 168v-605h45q226 0 398.5 115.5 t220.5 308.5h2l-39 -505q-81 28 -175 42t-161.5 16.5t-183.5 2.5h-615v4q92 20 146.5 111t54.5 213v573q0 122 -54.5 213t-146.5 111v4h615q241 0 459 61l-2 -383h-2q-81 142 -210.5 221.5t-285.5 79.5h-66v-563zM569 25q-20 101 -20 262v717q0 101 20 200h-363 q60 -47 93 -127.5t33 -175.5v-573q0 -95 -33 -175.5t-93 -127.5h363zM700 634q116 -31 185 -105l1 219q-82 -85 -186 -114zM867 23q203 -5 352 -51l14 307q-59 -92 -154 -158t-212 -98zM848 1208q174 -54 293 -205l14 255q-153 -40 -307 -50z" />
<glyph unicode="&#xcc;" horiz-adv-x="921" d="M229 1520q-10 15 -10 26q0 1 0.5 3t0.5 3h103q14 -14 29 -32h-123zM256 1491h119l27 -33h-95q-31 16 -51 33zM370 1430h55q4 -4 11 -12.5t10 -13.5q-35 10 -76 26zM602 1321q-428 80 -428 225q0 38 27 65t65 27q83 0 163 -99l175 -216zM502 1368l-127 156 q-21 27 -34 40.5t-33.5 26.5t-41.5 13q-28 0 -47.5 -17t-19.5 -41q0 -50 81.5 -96.5t221.5 -81.5zM352 414v32h176v-32h-176zM352 385h176v-33h-176v33zM352 877h176v-33h-176v33zM352 815h176v-33h-176v33zM352 754h176v-33h-176v33zM352 692h176v-33h-176v33zM352 631h176 v-33h-176v33zM352 569h176v-32h-176v32zM352 508h176v-33h-176v33zM282 1151q-20 27 -25 33h384q-20 -22 -29 -33h-330zM300 1122h292q-11 -17 -19 -32h-257q-7 16 -16 32zM327 1061h232l-12 -33h-210q-6 22 -10 33zM343 999h197q-4 -13 -7 -32h-185q-1 9 -5 32zM351 938 h179q-2 -22 -2 -33h-176q0 22 -1 33zM559 168h-232q4 11 10 33h210q1 -5 3 -10.5t5 -12t4 -10.5zM572 139q6 -11 20 -33h-292q6 11 16 33h256zM612 78q9 -11 29 -33h-384q10 12 26 33h329zM528 324q0 -11 2 -33h-179q1 11 1 33h176zM533 262l6 -33h-196q4 22 5 33h185z M332 328q0 -95 -32.5 -175t-93.5 -128h489q-146 114 -146 303v573q0 189 146 303h-489q60 -47 93 -128t33 -175v-573zM307 328v573q0 122 -54.5 212.5t-146.5 111.5v4h709v-4q-92 -21 -146.5 -111.5t-54.5 -212.5v-573q0 -122 54.5 -212.5t146.5 -111.5v-4h-709v4 q92 21 146.5 111.5t54.5 212.5z" />
<glyph unicode="&#xcd;" horiz-adv-x="921" d="M512 1491h128q-20 -17 -48 -33h-107zM462 1430h71q-44 -19 -92 -33h-6zM608 1581q20 10 45 10q9 0 16 -10h-61zM566 1552h110q-2 -17 -11 -32h-130q13 16 31 32zM319 1321l-2 2l176 216q80 99 162 99q38 0 65.5 -27t27.5 -65q0 -145 -429 -225zM377 1358q319 83 319 198 q0 23 -12.5 39.5t-30.5 16.5q-69 0 -141 -88zM352 414v32h176v-32h-176zM352 385h176v-33h-176v33zM352 877h176v-33h-176v33zM352 815h176v-33h-176v33zM352 754h176v-33h-176v33zM352 692h176v-33h-176v33zM352 631h176v-33h-176v33zM352 569h176v-32h-176v32zM352 508 h176v-33h-176v33zM282 1151q-20 27 -25 33h384q-20 -22 -29 -33h-330zM300 1122h292q-11 -17 -19 -32h-257q-7 16 -16 32zM327 1061h232l-12 -33h-210q-6 22 -10 33zM343 999h197q-4 -13 -7 -32h-185q-1 9 -5 32zM351 938h179q-2 -22 -2 -33h-176q0 22 -1 33zM559 168h-232 q4 11 10 33h210q1 -5 3 -10.5t5 -12t4 -10.5zM572 139q6 -11 20 -33h-292q6 11 16 33h256zM612 78q9 -11 29 -33h-384q10 12 26 33h329zM528 324q0 -11 2 -33h-179q1 11 1 33h176zM533 262l6 -33h-196q4 22 5 33h185zM332 328q0 -95 -32.5 -175t-93.5 -128h489 q-146 114 -146 303v573q0 189 146 303h-489q60 -47 93 -128t33 -175v-573zM307 328v573q0 122 -54.5 212.5t-146.5 111.5v4h709v-4q-92 -21 -146.5 -111.5t-54.5 -212.5v-573q0 -122 54.5 -212.5t146.5 -111.5v-4h-709v4q92 21 146.5 111.5t54.5 212.5z" />
<glyph unicode="&#xce;" horiz-adv-x="921" d="M574 1552l47 -32h-73q-12 20 -17 32h43zM662 1491l47 -33h-112l-19 21q-4 4 -10 12h94zM718 1430l-28 -33h-36l-30 33h94zM385 1552q-4 -12 -14 -32h-76q8 5 24.5 16t24.5 16h41zM354 1491l-11 -12l-19 -21h-122l49 33h103zM298 1430l-30 -33h-43l-34 33h107zM463 1602 h-4q-34 -101 -83 -154l-126 -137l-144 138l287 189h136l287 -189l-144 -138l-127 137q-48 51 -82 154zM422 1614h-22l-255 -169l104 -99l109 119q40 43 64 149zM485 1614l1 -5q31 -94 77 -144l110 -119l87 101l-239 167h-36zM352 414v32h176v-32h-176zM352 385h176v-33h-176 v33zM352 877h176v-33h-176v33zM352 815h176v-33h-176v33zM352 754h176v-33h-176v33zM352 692h176v-33h-176v33zM352 631h176v-33h-176v33zM352 569h176v-32h-176v32zM352 508h176v-33h-176v33zM282 1151q-20 27 -25 33h384q-20 -22 -29 -33h-330zM300 1122h292 q-11 -17 -19 -32h-257q-7 16 -16 32zM327 1061h232l-12 -33h-210q-6 22 -10 33zM343 999h197q-4 -13 -7 -32h-185q-1 9 -5 32zM351 938h179q-2 -22 -2 -33h-176q0 22 -1 33zM559 168h-232q4 11 10 33h210q1 -5 3 -10.5t5 -12t4 -10.5zM572 139q6 -11 20 -33h-292q6 11 16 33 h256zM612 78q9 -11 29 -33h-384q10 12 26 33h329zM528 324q0 -11 2 -33h-179q1 11 1 33h176zM533 262l6 -33h-196q4 22 5 33h185zM332 328q0 -95 -32.5 -175t-93.5 -128h489q-146 114 -146 303v573q0 189 146 303h-489q60 -47 93 -128t33 -175v-573zM307 328v573 q0 122 -54.5 212.5t-146.5 111.5v4h709v-4q-92 -21 -146.5 -111.5t-54.5 -212.5v-573q0 -122 54.5 -212.5t146.5 -111.5v-4h-709v4q92 21 146.5 111.5t54.5 212.5z" />
<glyph unicode="&#xcf;" horiz-adv-x="921" d="M142 1552h143q12 -13 18 -32h-180q6 17 19 32zM307 1491q0 -16 -5 -33h-178q-5 12 -5 33h188zM289 1430q-15 -22 -40 -33h-64q-29 11 -45 33h149zM625 1552h143q12 -13 18 -32h-179q6 19 18 32zM791 1491q0 -16 -5 -33h-178q-6 15 -6 33h189zM772 1430q-15 -22 -39 -33 h-65q-29 11 -45 33h149zM582 1491q0 -50 35 -85.5t85 -35.5q45 0 77 35.5t32 85.5q0 47 -33.5 81t-79.5 34q-48 0 -82 -34t-34 -81zM98 1491q0 -50 35.5 -85.5t85.5 -35.5q45 0 77 35.5t32 85.5q0 47 -33.5 81t-79.5 34q-48 0 -82.5 -34t-34.5 -81zM555 1493q0 61 42.5 104 t104.5 43t105 -43t43 -104t-43 -104t-105 -43q-61 0 -104 43t-43 104zM72 1493q0 61 43 104t104 43t104.5 -43t43.5 -104t-43.5 -104t-104.5 -43t-104 43t-43 104zM352 414v32h176v-32h-176zM352 385h176v-33h-176v33zM352 877h176v-33h-176v33zM352 815h176v-33h-176v33z M352 754h176v-33h-176v33zM352 692h176v-33h-176v33zM352 631h176v-33h-176v33zM352 569h176v-32h-176v32zM352 508h176v-33h-176v33zM282 1151q-20 27 -25 33h384q-20 -22 -29 -33h-330zM300 1122h292q-11 -17 -19 -32h-257q-7 16 -16 32zM327 1061h232l-12 -33h-210 q-6 22 -10 33zM343 999h197q-4 -13 -7 -32h-185q-1 9 -5 32zM351 938h179q-2 -22 -2 -33h-176q0 22 -1 33zM559 168h-232q4 11 10 33h210q1 -5 3 -10.5t5 -12t4 -10.5zM572 139q6 -11 20 -33h-292q6 11 16 33h256zM612 78q9 -11 29 -33h-384q10 12 26 33h329zM528 324 q0 -11 2 -33h-179q1 11 1 33h176zM533 262l6 -33h-196q4 22 5 33h185zM332 328q0 -95 -32.5 -175t-93.5 -128h489q-146 114 -146 303v573q0 189 146 303h-489q60 -47 93 -128t33 -175v-573zM307 328v573q0 122 -54.5 212.5t-146.5 111.5v4h709v-4q-92 -21 -146.5 -111.5 t-54.5 -212.5v-573q0 -122 54.5 -212.5t146.5 -111.5v-4h-709v4q92 21 146.5 111.5t54.5 212.5z" />
</font>
</defs>
</svg>
