<?xml version="1.0" encoding="utf-8"?>
<!-- Generator: Adobe Illustrator 18.0.0, SVG Export Plug-In . SVG Version: 6.00 Build 0)  -->
<!DOCTYPE svg PUBLIC "-//W3C//DTD SVG 1.1//EN" "http://www.w3.org/Graphics/SVG/1.1/DTD/svg11.dtd">
<svg version="1.1" id="Layer_1" xmlns="http://www.w3.org/2000/svg" xmlns:xlink="http://www.w3.org/1999/xlink" x="0px" y="0px"
	 viewBox="0 0 99.2 50" enable-background="new 0 0 99.2 50" xml:space="preserve">
<g>
	<g>
		<path d="M14.1,22.5h1.8v2.6c0,1.1-0.3,2-0.8,2.6c-0.5,0.7-1.4,1-2.7,1c-0.7,0-1.3-0.1-1.7-0.3c-0.5-0.2-0.8-0.4-1.1-0.8
			c-0.3-0.3-0.5-0.7-0.6-1.2c-0.1-0.5-0.2-0.9-0.2-1.5V10.9c0-0.5,0.1-1,0.2-1.5C9.2,9,9.3,8.6,9.6,8.3c0.3-0.3,0.6-0.6,1.1-0.8
			c0.5-0.2,1-0.3,1.7-0.3c1.3,0,2.2,0.3,2.7,1c0.5,0.7,0.8,1.6,0.8,2.7v2.3h-1.8v-2.3c0-0.5-0.1-1-0.4-1.4c-0.3-0.4-0.7-0.6-1.3-0.6
			c-0.6,0-1.1,0.2-1.3,0.6c-0.2,0.4-0.3,0.8-0.3,1.4v14.2c0,0.5,0.1,1,0.4,1.4c0.2,0.4,0.7,0.6,1.3,0.6c0.6,0,1.1-0.2,1.3-0.6
			c0.2-0.4,0.4-0.8,0.4-1.4V22.5z"/>
		<path d="M24.7,7.2c0.7,0,1.2,0.1,1.7,0.3c0.5,0.2,0.8,0.4,1.1,0.8C27.8,8.6,28,9,28.1,9.4c0.1,0.5,0.2,0.9,0.2,1.5v14.2
			c0,0.5-0.1,1-0.2,1.5c-0.1,0.5-0.3,0.8-0.6,1.2c-0.3,0.3-0.6,0.6-1.1,0.8c-0.5,0.2-1,0.3-1.7,0.3c-0.7,0-1.3-0.1-1.7-0.3
			c-0.5-0.2-0.8-0.4-1.1-0.8c-0.3-0.3-0.5-0.7-0.6-1.2c-0.1-0.5-0.2-0.9-0.2-1.5V10.9c0-0.5,0.1-1,0.2-1.5c0.1-0.4,0.3-0.8,0.6-1.2
			c0.3-0.3,0.6-0.6,1.1-0.8C23.4,7.3,24,7.2,24.7,7.2z M24.7,27.2c0.6,0,1.1-0.2,1.3-0.6c0.2-0.4,0.3-0.8,0.3-1.4V10.9
			c0-0.6-0.1-1.1-0.3-1.4c-0.2-0.4-0.7-0.6-1.3-0.6c-0.6,0-1.1,0.2-1.3,0.6c-0.2,0.4-0.3,0.8-0.3,1.4v14.2c0,0.6,0.1,1.1,0.3,1.4
			C23.6,27,24,27.2,24.7,27.2z"/>
		<path d="M35.8,16.9c0,1.5,0.1,3.2,0.1,4.9v6.8h-1.8v-21h1.9l4.4,16.4c0-1.7-0.1-3.3-0.1-4.8c0-1.5-0.1-3.1-0.1-4.8V7.5H42v21h-1.9
			l-4.4-16.4C35.8,13.8,35.8,15.4,35.8,16.9z"/>
		<path d="M51.3,28.5h-1.9V9.4h-2.5V7.5h6.9v1.8h-2.5V28.5z"/>
		<path d="M65.7,28.5h-1.9l-0.6-4.8h-3.1l-0.6,4.8h-1.9l2.9-21h2.3L65.7,28.5z M60.3,22H63l-1.3-11.6L60.3,22z"/>
		<path d="M75.7,22.5h1.8v2.6c0,1.1-0.3,2-0.8,2.6c-0.5,0.7-1.4,1-2.7,1c-0.7,0-1.3-0.1-1.7-0.3c-0.5-0.2-0.8-0.4-1.1-0.8
			c-0.3-0.3-0.5-0.7-0.6-1.2c-0.1-0.5-0.2-0.9-0.2-1.5V10.9c0-0.5,0.1-1,0.2-1.5C70.8,9,71,8.6,71.3,8.3c0.3-0.3,0.6-0.6,1.1-0.8
			c0.5-0.2,1-0.3,1.7-0.3c1.3,0,2.2,0.3,2.7,1c0.5,0.7,0.8,1.6,0.8,2.7v2.3h-1.8v-2.3c0-0.5-0.1-1-0.4-1.4c-0.3-0.4-0.7-0.6-1.3-0.6
			c-0.6,0-1.1,0.2-1.3,0.6c-0.2,0.4-0.3,0.8-0.3,1.4v14.2c0,0.5,0.1,1,0.4,1.4c0.2,0.4,0.7,0.6,1.3,0.6c0.6,0,1.1-0.2,1.3-0.6
			c0.2-0.4,0.4-0.8,0.4-1.4V22.5z"/>
		<path d="M86.3,28.5h-1.9V9.4h-2.5V7.5h6.9v1.8h-2.5V28.5z"/>
	</g>
	<g>
		<g>
			<path fill="#BFA63C" d="M39,42.8c-2,0-3.6-1.6-3.6-3.6s1.6-3.6,3.6-3.6c2,0,3.6,1.6,3.6,3.6S40.9,42.8,39,42.8z M39,37.6
				c-0.9,0-1.6,0.7-1.6,1.6s0.7,1.6,1.6,1.6c0.9,0,1.6-0.7,1.6-1.6S39.8,37.6,39,37.6z"/>
		</g>
		<g>
			<path fill="#BFA63C" d="M49.9,42.8c-2,0-3.6-1.6-3.6-3.6s1.6-3.6,3.6-3.6s3.6,1.6,3.6,3.6S51.8,42.8,49.9,42.8z M49.9,37.6
				c-0.9,0-1.6,0.7-1.6,1.6s0.7,1.6,1.6,1.6s1.6-0.7,1.6-1.6S50.7,37.6,49.9,37.6z"/>
		</g>
		<g>
			<path fill="#BFA63C" d="M60.8,42L60.8,42c-1,0-1.9,0-2.6-0.7c-0.7-0.7-1-1.4-1-2.4c0-1.9,1.7-3.4,3.6-3.4c2.1,0,3.6,1.4,3.6,3.3
				C64.3,40.8,62.7,42,60.8,42z M60.8,38c-0.9,0-1.6,0.5-1.6,1.3c0,0.4,0.1,0.7,0.4,1c0.3,0.3,0.9,0.4,1.3,0.4l0.3,0.9v-1
				c0,0,1.4-0.5,1.4-1.3c0-0.9-0.8-1.4-1.7-1.4C60.9,38,60.8,38,60.8,38z"/>
		</g>
	</g>
</g>
</svg>
