<?xml version="1.0" encoding="utf-8"?>
<!-- Generator: Adobe Illustrator 18.0.0, SVG Export Plug-In . SVG Version: 6.00 Build 0)  -->
<!DOCTYPE svg PUBLIC "-//W3C//DTD SVG 1.1//EN" "http://www.w3.org/Graphics/SVG/1.1/DTD/svg11.dtd">
<svg version="1.1" id="Layer_1" xmlns="http://www.w3.org/2000/svg" xmlns:xlink="http://www.w3.org/1999/xlink" x="0px" y="0px"
	 viewBox="8.2 281.4 397.7 68.9" enable-background="new 8.2 281.4 397.7 68.9" xml:space="preserve">
<g>
	<g>
		<g>
			<path fill="#BAAA5C" d="M228.2,329.1c4.4-3,9.6-5,15-6.2c5.4-1.3,11-1.8,16.6-1.6c5.5,0.1,11,1.1,16.3,2.8
				c5.1,1.8,10.2,4.1,15.1,6.5c5.1,2.3,10.2,4.7,16,5.8c2.8,0.6,5.8,0.8,8.8,0.6c3-0.3,5.8-1,8.5-2c5.4-2.1,10-5.2,14.2-8.5
				c4.1-3.4,7.9-7.4,9.8-12.3c0.8-2.4,1.1-5.1,0.4-7.6c-0.3-1.3-0.8-2.5-1.7-3.5c-0.8-1.1-2.1-2-3.5-2.5c-1.4-0.6-3.1-0.6-4.5-0.4
				c-1.4,0.3-3,0.6-4.2,1.3c-2.7,1.3-4.5,3.7-5.1,6.1c-0.6,2.5-0.1,5.1,0.8,7.5c1,2.4,2.7,4.5,4.8,6.2c1.1,0.8,2.3,1.6,3.7,2
				c1.4,0.4,2.8,0.8,4.2,0.8c3,0.3,5.8-0.3,8.5-1c5.5-1.6,10.5-4.1,15.6-5.9c2.5-1,5.4-1.7,8.1-2c2.8-0.3,5.7-0.3,8.4,0.4
				c2.7,0.7,5.2,2,7.2,3.5c2.1,1.7,3.8,3.5,5.4,5.7c1.6,2.1,2.8,4.2,4.1,6.4c0.6,1.1,1.1,2.3,1.8,3.4c0.4,1.1,1.4,2.1,1,3.7
				c-0.1,0.6,0.1,1.1,0.8,1.3c0.6,0.1,1.3-0.1,1.4-0.7c0.1-0.4-0.1-1-0.6-1.1c-1.7-0.7-1.8-2-2.4-3.1c-0.6-1.1-1.1-2.3-1.7-3.4
				c-1.3-2.3-2.5-4.4-4.1-6.5s-3.3-4.1-5.4-5.7c-2.1-1.7-4.7-3-7.4-3.7c-2.7-0.7-5.7-0.8-8.5-0.6c-2.8,0.3-5.7,1-8.2,2
				c-5.2,1.8-10.2,4.4-15.6,5.8c-2.7,0.7-5.5,1.1-8.2,0.8c-2.8-0.3-5.4-1.1-7.4-2.8c-2-1.6-3.5-3.7-4.4-5.9c-1-2.3-1.3-4.7-0.7-6.9
				c0.6-2.3,2.1-4.4,4.5-5.4c2.3-1,5.2-1.6,7.6-0.7c2.4,0.8,3.8,3.1,4.2,5.4c0.6,2.3,0.3,4.7-0.6,6.9c-1.7,4.5-5.5,8.2-9.5,11.6
				c-4.1,3.3-8.6,6.2-13.7,8.1c-2.5,1-5.2,1.6-7.9,1.7s-5.5,0-8.1-0.6c-5.4-1.1-10.3-3.4-15.3-5.7s-10-4.7-15.4-6.7
				c-5.4-1.8-11.3-2.8-17-3c-5.8-0.1-11.6,0.6-17.1,2c-5.5,1.4-10.9,3.7-15.3,6.9l0,0c-0.3,0.3-0.3,0.6-0.1,0.8
				C227.5,329.2,227.9,329.2,228.2,329.1"/>
		</g>
		<g>
			<path fill="#BAAA5C" d="M297.8,333.2c2.4,1.1,5,2,7.5,2.7c2.5,0.7,5.1,1.3,7.6,2.1c2.4,0.8,4.8,2,6.5,3.8c0.8,0.8,1.6,1.8,2.1,3
				c0.3,0.6,0.4,1.1,0.7,1.7c0.1,0.6,0.3,1.1-0.3,1.8c-0.4,0.6-0.3,1.1,0.3,1.6s1.4,0.3,1.8-0.3s0.3-1.1-0.3-1.6l0,0l0,0
				c-0.8-0.4-1.1-1-1.3-1.6c-0.1-0.6-0.4-1.1-0.7-1.7c-0.6-1.1-1.1-2.1-2-3.1c-1.6-1.8-4-3.4-6.4-4.4c-2.4-1-5.1-1.7-7.6-2.4
				c-2.5-0.7-5-1.6-7.2-2.7c-0.3-0.1-0.7-0.1-1,0.1C297.4,332.6,297.5,332.9,297.8,333.2C297.8,333,297.8,333,297.8,333.2
				L297.8,333.2z"/>
		</g>
		<g>
			<path fill="#BAAA5C" d="M323.4,342.2c0.3,0.3,0.4,0.4,0.7,0.4c0.1,0.1,0.4,0.1,0.6,0.3c0.4,0.1,0.8,0.3,1.6,0.1
				c0.1,0,0.1-0.1,0.1-0.1l0,0c-0.1-0.6-0.7-0.8-1.1-1c-0.3,0-0.6-0.1-0.8,0C324,341.8,323.7,341.8,323.4,342.2L323.4,342.2
				C323.4,342.1,323.4,342.2,323.4,342.2"/>
		</g>
		<g>
			<path fill="#BAAA5C" d="M228.4,321.3c4.4,3,9.6,5,15,6.2c5.4,1.3,11,1.8,16.6,1.6c5.5-0.1,11-1.1,16.3-2.8
				c5.1-1.8,10.2-4.1,15.1-6.5c5.1-2.3,10.2-4.7,16-5.8c2.8-0.6,5.8-0.8,8.8-0.6c3,0.3,5.8,1,8.5,2c5.4,2.1,10,5.2,14.2,8.5
				c4.1,3.4,7.9,7.4,9.8,12.3c0.8,2.4,1.1,5.1,0.4,7.6c-0.3,1.3-0.8,2.5-1.7,3.5c-0.8,1.1-2.1,2-3.5,2.5c-1.4,0.6-3.1,0.6-4.5,0.4
				c-1.4-0.3-3-0.6-4.2-1.3c-2.7-1.3-4.5-3.7-5.1-6.1c-0.6-2.5-0.1-5.1,0.8-7.5c1-2.4,2.7-4.5,4.8-6.2c1.1-0.8,2.3-1.6,3.7-2
				s2.8-0.8,4.2-0.8c3-0.3,5.8,0.3,8.5,1c5.5,1.6,10.5,4.1,15.6,5.9c2.5,1,5.4,1.7,8.1,2c2.8,0.3,5.7,0.3,8.4-0.4
				c2.7-0.7,5.2-2,7.2-3.5c2.1-1.7,3.8-3.5,5.4-5.7c1.6-2.1,2.8-4.2,4.1-6.4c0.6-1.1,1.1-2.3,1.8-3.4c0.4-1.1,1.4-2.1,1-3.7
				c-0.1-0.6,0.1-1.1,0.8-1.3c0.6-0.1,1.3,0.1,1.4,0.7c0.1,0.4-0.1,1-0.6,1.1c-1.7,0.7-1.8,2-2.4,3.1c-0.6,1.1-1.1,2.3-1.7,3.4
				c-1.3,2.3-2.5,4.4-4.1,6.5c-1.6,2.1-3.3,4.1-5.4,5.7c-2.1,1.7-4.7,3-7.4,3.7s-5.7,0.8-8.5,0.6c-2.8-0.3-5.7-1-8.2-2
				c-5.2-1.8-10.2-4.4-15.6-5.8c-2.7-0.7-5.5-1.1-8.2-0.8c-2.8,0.3-5.4,1.1-7.4,2.8c-2,1.6-3.5,3.7-4.4,5.9s-1.3,4.7-0.7,6.9
				c0.6,2.3,2.1,4.4,4.5,5.4c2.3,1,5.2,1.6,7.6,0.7c2.4-0.8,3.8-3.1,4.2-5.4c0.6-2.3,0.3-4.7-0.6-6.9c-1.7-4.5-5.5-8.2-9.5-11.6
				c-4.1-3.3-8.6-6.2-13.7-8.1c-2.5-1-5.2-1.6-7.9-1.7c-2.7-0.1-5.5,0-8.1,0.6c-5.4,1.1-10.3,3.4-15.3,5.7c-5,2.3-10,4.7-15.4,6.7
				c-5.4,1.8-11.2,2.8-17,3c-5.8,0.1-11.6-0.6-17.1-2c-5.5-1.4-10.9-3.7-15.3-6.9l0,0c-0.3-0.3-0.3-0.6-0.1-0.8
				C227.7,321.2,228.2,321,228.4,321.3"/>
		</g>
		<g>
			<path fill="#BAAA5C" d="M298.2,317.2c2.4-1.1,5-2,7.5-2.7c2.5-0.7,5.1-1.3,7.6-2.1c2.4-0.8,4.8-2,6.5-3.8c0.8-0.8,1.6-1.8,2.1-3
				c0.3-0.6,0.4-1.1,0.7-1.6c0.1-0.6,0.3-1.1-0.3-1.8c-0.4-0.6-0.3-1.1,0.3-1.6c0.6-0.4,1.4-0.3,1.8,0.3s0.3,1.1-0.3,1.6l0,0l0,0
				c-0.8,0.4-1.1,1-1.3,1.6s-0.4,1.1-0.7,1.7c-0.6,1.1-1.1,2.1-2,3.1c-1.6,1.8-3.8,3.4-6.4,4.4c-2.5,1-5.1,1.7-7.6,2.4
				c-2.5,0.7-5,1.6-7.2,2.7c-0.3,0.1-0.7,0.1-1-0.1C297.8,317.8,297.9,317.5,298.2,317.2L298.2,317.2L298.2,317.2z"/>
		</g>
		<g>
			<path fill="#BAAA5C" d="M323.8,308.1c0.3-0.3,0.4-0.3,0.7-0.4c0.1-0.1,0.4-0.1,0.6-0.3c0.4-0.1,0.8-0.3,1.6-0.1
				c0.1,0,0.1,0.1,0.1,0.1l0,0c-0.1,0.6-0.7,0.8-1.1,1c-0.3,0-0.6,0.1-0.8,0C324.4,308.6,324.1,308.4,323.8,308.1L323.8,308.1
				C323.8,308.3,323.8,308.1,323.8,308.1"/>
		</g>
	</g>
	<g>
		<g>
			<path fill="#BAAA5C" d="M185.8,329.1c-4.4-3-9.6-5-15-6.2c-5.4-1.3-11-1.8-16.6-1.6c-5.5,0.1-11,1.1-16.3,2.8
				c-5.1,1.8-10.2,4.1-15.1,6.5c-5.1,2.3-10.2,4.7-16,5.8c-2.8,0.6-5.8,0.8-8.8,0.6s-5.8-1-8.5-2c-5.4-2.1-10-5.2-14.2-8.5
				c-4.1-3.4-7.9-7.4-9.8-12.3c-0.8-2.4-1.1-5.1-0.4-7.6c0.3-1.3,0.8-2.5,1.7-3.5c0.8-1.1,2.1-2,3.5-2.5c1.4-0.6,3.1-0.6,4.5-0.4
				c1.4,0.3,3,0.6,4.2,1.3c2.7,1.3,4.5,3.7,5.1,6.1c0.6,2.5,0.1,5.1-0.8,7.5c-1,2.4-2.7,4.5-4.8,6.2c-1.1,0.8-2.3,1.6-3.7,2
				c-1.4,0.4-2.8,0.8-4.2,0.8c-3,0.3-5.8-0.3-8.5-1c-5.5-1.6-10.5-4.1-15.6-5.9c-2.5-1-5.4-1.7-8.1-2c-2.8-0.3-5.7-0.3-8.4,0.4
				c-2.7,0.7-5.2,2-7.2,3.5c-2.1,1.7-3.8,3.5-5.4,5.7c-1.6,2.1-2.8,4.2-4.1,6.4c-0.8,1.3-1.4,2.4-2.1,3.5c-0.4,1.1-1.4,2.1-1,3.7
				c0.1,0.6-0.1,1.1-0.8,1.3c-0.6,0.1-1.3-0.1-1.4-0.7c-0.1-0.4,0.1-1,0.6-1.1c1.7-0.7,1.8-2,2.4-3.1c0.6-1.1,1.1-2.3,1.7-3.4
				c1.3-2.3,2.5-4.4,4.1-6.5c1.6-2.1,3.3-4.1,5.4-5.7c2.1-1.7,4.7-3,7.4-3.7c2.7-0.7,5.7-0.8,8.5-0.6s5.7,1,8.2,2
				c5.2,1.8,10.2,4.4,15.6,5.8c2.7,0.7,5.5,1.1,8.2,0.8c2.8-0.3,5.4-1.1,7.4-2.8c2-1.6,3.5-3.7,4.4-5.9c1-2.3,1.3-4.7,0.7-6.9
				s-2.1-4.4-4.5-5.4c-2.3-1-5.2-1.6-7.6-0.7c-2.4,0.8-3.8,3.1-4.2,5.4c-0.6,2.3-0.3,4.7,0.6,6.9c1.7,4.5,5.5,8.2,9.5,11.6
				c4.1,3.3,8.6,6.2,13.7,8.1c2.5,1,5.2,1.6,7.9,1.7c2.7,0.1,5.5,0,8.1-0.6c5.4-1.1,10.3-3.4,15.3-5.7c5-2.3,10-4.7,15.4-6.7
				c5.4-1.8,11.2-2.8,17-3s11.6,0.6,17.1,2c5.5,1.4,10.9,3.7,15.3,6.9l0,0c0.3,0.3,0.3,0.6,0.1,0.8
				C186.5,329.2,186.1,329.2,185.8,329.1"/>
		</g>
		<g>
			<path fill="#BAAA5C" d="M116.2,333.2c-2.4,1.1-5,2-7.5,2.7c-2.5,0.7-5.1,1.3-7.6,2.1c-2.4,0.8-4.8,2-6.5,3.8
				c-0.8,0.8-1.6,1.8-2.1,3c-0.3,0.6-0.4,1.1-0.7,1.7c-0.1,0.6-0.3,1.1,0.3,1.8c0.4,0.6,0.3,1.1-0.3,1.6c-0.6,0.4-1.4,0.3-1.8-0.3
				s-0.3-1.1,0.3-1.6l0,0l0,0c0.8-0.4,1.1-1,1.3-1.6c0.1-0.6,0.4-1.1,0.7-1.7c0.6-1.1,1.1-2.1,2-3.1c1.6-1.8,4-3.4,6.4-4.4
				c2.5-1,5.1-1.7,7.6-2.4c2.5-0.7,5-1.6,7.2-2.7c0.3-0.1,0.7-0.1,1,0.1C116.6,332.6,116.5,332.9,116.2,333.2
				C116.2,333,116.2,333,116.2,333.2L116.2,333.2z"/>
		</g>
		<g>
			<path fill="#BAAA5C" d="M90.6,342.2c-0.3,0.3-0.4,0.4-0.7,0.4c-0.1,0.1-0.4,0.1-0.6,0.3c-0.4,0.1-0.8,0.3-1.6,0.1
				c-0.1,0-0.1-0.1-0.1-0.1l0,0c0.1-0.6,0.7-0.8,1.1-1c0.3,0,0.6-0.1,0.8,0C90,341.8,90.3,341.8,90.6,342.2L90.6,342.2
				C90.6,342.1,90.6,342.2,90.6,342.2"/>
		</g>
		<g>
			<path fill="#BAAA5C" d="M185.6,321.3c-4.4,3-9.6,5-15,6.2c-5.4,1.3-11,1.8-16.6,1.6c-5.5-0.1-11-1.1-16.3-2.8
				c-5.1-1.8-10.2-4.1-15.1-6.5c-5.1-2.3-10.2-4.7-16-5.8c-2.8-0.6-5.8-0.8-8.8-0.6c-3,0.3-5.8,1-8.5,2c-5.4,2.1-10,5.2-14.2,8.5
				c-4.1,3.4-7.9,7.4-9.8,12.3c-0.8,2.4-1.1,5.1-0.4,7.6c0.3,1.3,0.8,2.5,1.7,3.5c0.8,1.1,2.1,2,3.5,2.5c1.4,0.6,3.1,0.6,4.5,0.4
				c1.4-0.3,3-0.6,4.2-1.3c2.7-1.3,4.5-3.7,5.1-6.1c0.6-2.5,0.1-5.1-0.8-7.5c-1-2.4-2.7-4.5-4.8-6.2c-1.1-0.8-2.3-1.6-3.7-2
				s-2.8-0.7-4.2-0.8c-3-0.3-5.8,0.3-8.5,1c-5.5,1.6-10.5,4.1-15.6,5.9c-2.5,1-5.4,1.7-8.1,2c-2.8,0.3-5.7,0.3-8.4-0.4
				c-2.7-0.7-5.2-2-7.2-3.5c-2.1-1.7-3.8-3.5-5.4-5.7c-1.6-2.1-2.8-4.2-4.1-6.4c-0.6-1.1-1.1-2.3-1.8-3.4c-0.4-1.1-1.4-2.1-1-3.7
				c0.1-0.6-0.1-1.1-0.8-1.3c-0.6-0.1-1.3,0.1-1.4,0.7c-0.1,0.4,0.1,1,0.6,1.1c1.7,0.7,1.8,2,2.4,3.1c0.6,1.1,1.1,2.3,1.7,3.4
				c1.3,2.3,2.5,4.4,4.1,6.5c1.6,2.1,3.3,4.1,5.4,5.7c2.1,1.7,4.7,3,7.4,3.7s5.7,0.8,8.5,0.6c2.8-0.3,5.7-1,8.2-2
				c5.2-1.8,10.2-4.4,15.6-5.8c2.7-0.7,5.5-1.1,8.2-0.8c2.8,0.3,5.4,1.1,7.4,2.8c2,1.6,3.5,3.7,4.4,5.9s1.3,4.7,0.7,6.9
				c-0.6,2.3-2.1,4.4-4.5,5.4c-2.3,1-5.2,1.6-7.6,0.7c-2.4-0.8-3.8-3.1-4.2-5.4c-0.6-2.3-0.3-4.7,0.6-6.9c1.7-4.5,5.5-8.2,9.5-11.6
				c4.1-3.3,8.6-6.2,13.7-8.1c2.5-1,5.2-1.6,7.9-1.7c2.7-0.1,5.5,0,8.1,0.6c5.4,1.1,10.3,3.4,15.3,5.7c5,2.3,10,4.7,15.4,6.7
				c5.4,1.8,11.2,2.8,17,3c5.8,0.1,11.6-0.6,17.1-2s10.9-3.7,15.3-6.9l0,0c0.3-0.3,0.3-0.6,0.1-0.8
				C186.3,321.2,185.8,321,185.6,321.3"/>
		</g>
		<g>
			<path fill="#BAAA5C" d="M115.8,317.2c-2.4-1.1-5-2-7.5-2.7c-2.5-0.7-5.1-1.3-7.6-2.1c-2.4-0.8-4.8-2-6.5-3.8
				c-0.8-0.8-1.6-1.8-2.1-3c-0.3-0.6-0.4-1.1-0.7-1.6c-0.1-0.6-0.3-1.1,0.3-1.8c0.4-0.6,0.3-1.1-0.3-1.6c-0.6-0.4-1.4-0.3-1.8,0.3
				s-0.3,1.1,0.3,1.6l0,0l0,0c0.8,0.4,1.1,1,1.3,1.6c0.1,0.6,0.4,1.1,0.7,1.7c0.6,1.1,1.1,2.1,2,3.1c1.6,1.8,3.8,3.4,6.4,4.4
				c2.4,1,5.1,1.7,7.6,2.4c2.5,0.7,5,1.6,7.2,2.7c0.3,0.1,0.7,0.1,1-0.1C116.2,317.8,116.1,317.5,115.8,317.2L115.8,317.2
				L115.8,317.2z"/>
		</g>
		<g>
			<path fill="#BAAA5C" d="M90.2,308.1c-0.3-0.3-0.4-0.3-0.7-0.4c-0.1-0.1-0.4-0.1-0.6-0.3c-0.4-0.1-0.8-0.3-1.6-0.1
				c-0.1,0-0.1,0.1-0.1,0.1l0,0c0.1,0.6,0.7,0.8,1.1,1c0.3,0,0.6,0.1,0.8,0C89.6,308.6,89.9,308.4,90.2,308.1L90.2,308.1
				C90.2,308.3,90.2,308.1,90.2,308.1"/>
		</g>
	</g>
</g>
<g enable-background="new    ">
	<path d="M159.4,284.7h9.2c1.5,0,2.8,0.2,3.9,0.6c1.1,0.4,2.1,0.9,2.8,1.7c0.7,0.7,1.2,1.4,1.6,2.3c0.4,0.8,0.6,1.7,0.6,2.6
		c0,1-0.2,1.9-0.6,2.7c-0.4,0.8-1,1.5-1.7,2.1s-1.6,1.1-2.6,1.4c-1,0.3-2.1,0.5-3.3,0.5h-9.9v-0.4h0.5c0.9,0,1.5-0.2,1.9-0.6
		c0.4-0.4,0.6-1,0.6-1.9v-8.1c0-0.9-0.2-1.5-0.6-1.9c-0.4-0.4-1-0.6-1.9-0.6h-0.5V284.7z M165.3,285v13.1h2.7c0.8,0,1.4,0,1.9-0.1
		c0.5-0.1,1-0.2,1.4-0.4s0.7-0.5,1-0.8c1.1-1.1,1.6-2.8,1.6-5.2c0-0.8-0.1-1.5-0.2-2.2c-0.1-0.7-0.3-1.3-0.6-1.8s-0.6-1-1-1.4
		c-0.3-0.3-0.7-0.6-1.1-0.8c-0.4-0.2-0.9-0.3-1.4-0.4c-0.5-0.1-1.2-0.1-1.9-0.1H165.3z"/>
	<path d="M188.9,291.8h-3.1v3.9c0,0.8,0.2,1.5,0.6,1.9c0.4,0.4,1,0.6,1.9,0.6h0.4v0.4h-8.8v-0.4h0.4c0.9,0,1.5-0.2,1.9-0.6
		c0.4-0.4,0.6-1,0.6-1.9v-8.1c0-0.9-0.2-1.5-0.6-1.9c-0.4-0.4-1-0.6-1.9-0.6h-0.4v-0.4h10.8c1.5,0,2.6,0.1,3.5,0.3
		c0.8,0.2,1.5,0.6,2,1.1c0.3,0.3,0.5,0.6,0.7,1s0.3,0.8,0.3,1.2c0,1-0.5,1.9-1.6,2.5c-0.4,0.2-1,0.4-1.6,0.6
		c-0.7,0.2-1.4,0.3-2.1,0.3c-0.5,0-1.3,0.1-2.4,0.1v0c0.5,0.3,1,0.6,1.4,0.9c0.4,0.2,0.9,0.4,1.3,0.6s0.9,0.3,1.5,0.4l0.3,0.5
		c0.2,0.3,0.4,0.6,0.5,0.7c0.1,0.2,0.2,0.3,0.4,0.5c0.4,0.6,0.7,1.1,1.1,1.5c0.3,0.4,0.6,0.7,0.8,0.9c0.4,0.3,1,0.4,1.8,0.4h0.4v0.4
		h-5.2L188.9,291.8z M185.7,291.4h4c0.9,0,1.7-0.1,2.3-0.3c0.6-0.2,1-0.6,1.3-1c0.3-0.5,0.4-1.1,0.4-1.8c0-2.1-1.3-3.2-4-3.2h-4
		V291.4z"/>
	<path d="M200.3,298.2h0.4c0.9,0,1.5-0.2,1.9-0.6c0.4-0.4,0.6-1,0.6-1.9c0.1-0.4,0.1-0.7,0.1-0.9c0-0.3,0-0.6,0.1-0.9
		c0-0.4,0-0.8,0-1.3c0-2.3-0.1-4-0.2-5.1c0-0.5-0.1-0.8-0.2-1.1c-0.1-0.3-0.3-0.5-0.5-0.6c-0.4-0.4-1-0.5-1.8-0.5h-0.4v-0.4h8.7v0.4
		h-0.4c-0.9,0-1.5,0.2-1.9,0.6c-0.4,0.4-0.6,1-0.6,1.9v8.1c0,0.9,0.2,1.5,0.6,1.9c0.4,0.4,1,0.6,1.9,0.6h0.4v0.4h-8.7V298.2z"/>
	<path d="M210.8,284.7h5.6l9.6,10v-6c0-0.7-0.1-1.4-0.4-1.9c-0.2-0.5-0.6-1-1.1-1.2c-0.3-0.2-0.5-0.3-0.8-0.3
		c-0.3-0.1-0.6-0.1-1.1-0.1v-0.4h6.9v0.4h-0.1c-1,0-1.8,0.3-2.3,1c-0.5,0.6-0.8,1.6-0.8,2.8v9.9h-0.3l-12-12.3v8.2
		c0,0.8,0.1,1.4,0.3,1.9c0.2,0.5,0.5,0.9,0.9,1.1c0.4,0.2,0.8,0.3,1.3,0.4c0.3,0,0.7,0.1,1.2,0.1v0.4h-7.2v-0.4
		c0.7,0,1.3-0.2,1.8-0.4s0.8-0.6,1-1c0.2-0.4,0.3-1,0.3-1.6v-7.8c0-0.5-0.1-0.9-0.3-1.2c-0.2-0.3-0.5-0.6-0.9-0.8
		c-0.4-0.2-0.9-0.3-1.5-0.3h-0.2V284.7z"/>
	<path d="M231,284.7h8.8v0.3h-0.4c-0.8,0-1.5,0.2-1.9,0.6c-0.4,0.4-0.6,1.1-0.6,1.9v6l6.6-5.3c0.4-0.4,0.7-0.7,0.9-0.9
		c0.1-0.2,0.2-0.5,0.2-0.8c0-0.5-0.2-0.9-0.6-1.2s-1-0.4-1.7-0.4h-0.3v-0.3h8.1v0.3h-0.2c-1.1,0-2.7,0.8-4.8,2.5l-2.7,2.2l4.2,6.4
		c0.5,0.7,1,1.2,1.5,1.6c0.5,0.3,1.1,0.5,1.8,0.5h0.3v0.4h-8.6v-0.4h0.4c1.3,0,1.9-0.3,1.9-0.9c0-0.1,0-0.2-0.1-0.3
		c-0.1-0.1-0.2-0.3-0.3-0.6l-3.2-4.9l-3.3,2.6v1.6c0,0.8,0.2,1.5,0.6,1.9c0.4,0.4,1.1,0.6,1.9,0.6h0.4v0.4H231v-0.4h0.4
		c0.9,0,1.5-0.2,1.9-0.6c0.4-0.4,0.6-1,0.6-1.9v-8.1c0-0.9-0.2-1.5-0.6-1.9c-0.4-0.4-1.1-0.6-1.9-0.6H231V284.7z"/>
</g>
</svg>
