<?xml version="1.0" encoding="utf-8"?>
<!-- Generator: Adobe Illustrator 18.0.0, SVG Export Plug-In . SVG Version: 6.00 Build 0)  -->
<!DOCTYPE svg PUBLIC "-//W3C//DTD SVG 1.1//EN" "http://www.w3.org/Graphics/SVG/1.1/DTD/svg11.dtd">
<svg version="1.1" id="Layer_1" xmlns="http://www.w3.org/2000/svg" xmlns:xlink="http://www.w3.org/1999/xlink" x="0px" y="0px"
	 viewBox="0 0 115 50" enable-background="new 0 0 115 50" xml:space="preserve">
<g>
	<g>
		<path d="M31.1,1h14.1v5.1h-0.3c-0.3-0.9-0.5-1.6-0.7-2s-0.5-0.9-0.8-1.3c-0.4-0.5-0.8-0.8-1.3-1c-0.8-0.3-1.7-0.5-2.8-0.5h-2.6
			v6.3h0.7c1,0,1.9-0.4,2.5-1.3c0.3-0.5,0.6-1,0.7-1.7c0.1-0.3,0.1-0.7,0.2-1.2h0.3v8.7h-0.3c-0.1-0.5-0.2-0.9-0.3-1.3
			c-0.1-0.4-0.2-0.8-0.4-1S39.9,9.3,39.6,9C39.1,8.3,38.3,8,37.2,8h-0.6v5.9h2.2c0.6,0,1.2,0,1.7-0.1c0.5-0.1,1-0.2,1.4-0.4
			c0.4-0.2,0.8-0.4,1.2-0.8c0.6-0.5,1.1-1.2,1.4-2c0.2-0.4,0.4-1.1,0.6-1.8h0.4v5.5H31.1l0-0.4h0.4c1.6,0,2.4-0.8,2.4-2.4V3.8
			c0-0.8-0.2-1.4-0.6-1.8s-1-0.6-1.8-0.6h-0.4V1z"/>
		<path d="M56.3,0.7h0.4L62,12.3c0.2,0.4,0.4,0.7,0.6,0.9s0.5,0.4,0.7,0.5c0.3,0.1,0.6,0.2,0.9,0.2h0.4v0.4h-7.7v-0.4h1
			c0.5,0,0.9-0.1,1.1-0.2c0.2-0.1,0.3-0.3,0.3-0.6c0-0.2,0-0.4-0.1-0.6c-0.1-0.3-0.3-0.7-0.6-1.4c0,0,0-0.1-0.1-0.2
			c0-0.1-0.1-0.2-0.1-0.3l-0.2-0.5h-5.6l-0.4,1c-0.1,0.3-0.2,0.7-0.2,1c0,0.3,0.1,0.6,0.2,0.9c0.2,0.3,0.4,0.5,0.6,0.6
			c0.2,0.1,0.3,0.2,0.5,0.2c0.1,0,0.3,0.1,0.6,0.1v0.4h-5.4v-0.4c0.4,0,0.7-0.1,0.9-0.2c0.2-0.1,0.5-0.3,0.8-0.5
			c0.7-0.5,1.3-1.5,2-2.9L56.3,0.7z M55.3,3.8l-2.6,5.9H58L55.3,3.8z"/>
		<path d="M66.3,1h15.6v6.7l-0.3,0c-0.2-1.7-0.7-3.1-1.5-4.3c-1-1.4-2.3-2.1-3.9-2.1h-0.7v10.1c0,1.6,0.8,2.4,2.4,2.4h2v0.4H68.3
			v-0.4h2c1.6,0,2.4-0.8,2.4-2.4V1.4h-0.9c-1.6,0-2.9,0.7-3.9,2.2c-0.5,0.7-0.9,1.6-1.1,2.6c-0.1,0.3-0.2,0.9-0.2,1.6h-0.3V1z"/>
		<path d="M25.5,28.3h3.5c0.7,0,1.3,0.1,1.8,0.3s0.8,0.4,1.1,0.7c0.3,0.3,0.5,0.7,0.6,1.1c0.1,0.5,0.2,0.9,0.2,1.5v13.7
			c0,0.5-0.1,1-0.2,1.5c-0.1,0.5-0.3,0.8-0.6,1.1c-0.3,0.3-0.6,0.6-1.1,0.7s-1,0.3-1.8,0.3h-3.5V28.3z M28.9,47.5
			c0.7,0,1.2-0.2,1.4-0.5c0.2-0.3,0.4-0.8,0.4-1.4V31.9c0-0.6-0.1-1-0.4-1.3c-0.3-0.3-0.7-0.5-1.4-0.5h-1.6v17.4H28.9z"/>
		<path d="M38.6,28.3H42c0.7,0,1.3,0.1,1.8,0.3s0.8,0.4,1.1,0.7c0.3,0.3,0.5,0.7,0.6,1.1c0.1,0.5,0.1,0.9,0.1,1.5v4.7
			c0,0.9-0.2,1.7-0.5,2.3c-0.4,0.6-1,1-1.8,1.2l3.4,9.2h-2.1l-3.1-9.1h-1v9.1h-1.9V28.3z M41.9,38.5c0.7,0,1.2-0.2,1.4-0.5
			c0.2-0.3,0.4-0.8,0.4-1.4v-4.7c0-0.6-0.1-1-0.4-1.3c-0.3-0.3-0.7-0.5-1.4-0.5h-1.4v8.4H41.9z"/>
		<path d="M51.4,28.3h1.9v21h-1.9V28.3z"/>
		<path d="M61.2,37.6c0,1.5,0.1,3.2,0.1,4.9v6.8h-1.8v-21h1.9l4.4,16.4c0-1.7-0.1-3.3-0.1-4.8c0-1.5-0.1-3.1-0.1-4.8v-6.8h1.8v21
			h-1.9l-4.4-16.4C61.2,34.5,61.2,36.1,61.2,37.6z"/>
		<path d="M75.3,37.9l3.5-9.6h2.1l-4,10.4l4.2,10.6H79l-3.7-9.8v9.8h-1.9v-21h1.9V37.9z"/>
		<path d="M87.8,28.3l-0.5,14.1H86l-0.5-14.1H87.8z M87.8,47v2.3h-2.2V47H87.8z"/>
	</g>
	<g>
		<line fill="#FFFFFF" x1="8" y1="23" x2="107" y2="23"/>
		<rect x="8" y="22" width="99" height="1"/>
	</g>
	<g>
		<path fill="#BFA63C" d="M88.9,8.1c0.5,0.4,1.2,0.7,1.9,0.7c0.4,0,0.7,0,1-0.1c0.5-0.1,1.3-0.4,2.4-0.8c1.9-0.7,3.4-1.2,4.5-1.5
			c0.5-0.1,1.1-0.2,1.7-0.2c1.1,0,2.1,0.4,2.9,1.1c0.8,0.8,1.2,1.9,1.3,3.5h-0.9c-0.2-0.9-0.5-1.6-1-2c-0.5-0.4-1.1-0.6-1.8-0.6
			c-0.7,0-1.8,0.3-3.4,0.9c-2.2,0.8-3.6,1.3-4.2,1.5c-0.6,0.2-1.2,0.2-1.8,0.2c-1.2,0-2.2-0.4-3-1.2c-0.8-0.8-1.3-1.9-1.3-3.4H88
			C88.1,7,88.4,7.6,88.9,8.1z"/>
	</g>
	<g>
		<path fill="#BFA63C" d="M27.4,6.1h0.9c-0.1,1.5-0.5,2.7-1.3,3.4c-0.8,0.8-1.8,1.2-3,1.2c-0.6,0-1.2-0.1-1.8-0.2
			c-0.6-0.2-2-0.6-4.2-1.5c-1.6-0.6-2.7-0.9-3.4-0.9c-0.7,0-1.3,0.2-1.8,0.6c-0.5,0.4-0.8,1-1,2h-0.9c0.1-1.6,0.5-2.7,1.3-3.5
			c0.8-0.8,1.7-1.1,2.9-1.1c0.6,0,1.1,0.1,1.7,0.2c1.1,0.3,2.6,0.8,4.5,1.5c1,0.4,1.8,0.7,2.4,0.8c0.3,0.1,0.7,0.1,1,0.1
			c0.8,0,1.4-0.2,1.9-0.7C27,7.6,27.3,7,27.4,6.1z"/>
	</g>
</g>
</svg>
