<?xml version="1.0" encoding="utf-8"?>
<!-- Generator: Adobe Illustrator 18.0.0, SVG Export Plug-In . SVG Version: 6.00 Build 0)  -->
<!DOCTYPE svg PUBLIC "-//W3C//DTD SVG 1.1//EN" "http://www.w3.org/Graphics/SVG/1.1/DTD/svg11.dtd">
<svg version="1.1" id="Layer_1" xmlns="http://www.w3.org/2000/svg" xmlns:xlink="http://www.w3.org/1999/xlink" x="0px" y="0px"
	 viewBox="0 210 414 97.8" enable-background="new 0 210 414 97.8" xml:space="preserve">
<path d="M112,228.6h50.8V247h-1.1c-1.1-3.2-1.8-5.8-2.5-7.2s-1.8-3.2-2.9-4.7c-1.4-1.8-2.9-2.9-4.7-3.6c-2.9-1.1-6.1-1.8-10.1-1.8
	h-9.4v22.7h2.5c3.6,0,6.8-1.4,9-4.7c1.1-1.8,2.2-3.6,2.5-6.1c0.4-1.1,0.4-2.5,0.7-4.3h1.1v31.3h-1.1c-0.4-1.8-0.7-3.2-1.1-4.7
	c-0.4-1.4-0.7-2.9-1.4-3.6s-0.7-1.8-1.8-2.9c-1.8-2.5-4.7-3.6-8.6-3.6h-2.2V275h7.9c2.2,0,4.3,0,6.1-0.4c1.8-0.4,3.6-0.7,5-1.4
	s2.9-1.4,4.3-2.9c2.2-1.8,4-4.3,5-7.2c0.7-1.4,1.4-4,2.2-6.5h1.4v19.8H112V275h1.4c5.8,0,8.6-2.9,8.6-8.6v-27.7c0-2.9-0.7-5-2.2-6.5
	c-1.4-1.4-3.6-2.2-6.5-2.2H112L112,228.6L112,228.6z"/>
<path d="M202.7,227.5h1.4l19.1,41.8c0.7,1.4,1.4,2.5,2.2,3.2s1.8,1.4,2.5,1.8c1.1,0.4,2.2,0.7,3.2,0.7h1.4v1.4h-27.7V275h3.6
	c1.8,0,3.2-0.4,4-0.7c0.7-0.4,1.1-1.1,1.1-2.2c0-0.7,0-1.4-0.4-2.2c-0.4-1.1-1.1-2.5-2.2-5c0,0,0-0.4-0.4-0.7c0-0.4-0.4-0.7-0.4-1.1
	l-0.7-1.8h-20.2l-1.4,3.6c-0.4,1.1-0.7,2.5-0.7,3.6s0.4,2.2,0.7,3.2c0.7,1.1,1.4,1.8,2.2,2.2c0.7,0.4,1.1,0.7,1.8,0.7
	c0.4,0,1.1,0.4,2.2,0.4v1.4h-19.4V275c1.4,0,2.5-0.4,3.2-0.7c0.7-0.4,1.8-1.1,2.9-1.8c2.5-1.8,4.7-5.4,7.2-10.4L202.7,227.5z
	 M199.1,238.7l-9.4,21.2h19.1L199.1,238.7z"/>
<path d="M238.7,228.6h56.2v24.1h-1.1c-0.7-6.1-2.5-11.2-5.4-15.5c-3.6-5-8.3-7.6-14-7.6h-2.5V266c0,5.8,2.9,8.6,8.6,8.6h7.2v1.4
	h-41.8v-1.4h7.2c5.8,0,8.6-2.9,8.6-8.6v-36h-3.2c-5.8,0-10.4,2.5-14,7.9c-1.8,2.5-3.2,5.8-4,9.4c-0.4,1.1-0.7,3.2-0.7,5.8h-1.1
	V228.6z"/>
<g>
	<line fill="none" x1="28.8" y1="307.8" x2="385.2" y2="307.8"/>
	<rect x="28.8" y="304.2" width="356.4" height="3.6"/>
</g>
<g>
	<path fill="#BFA63C" d="M320,254.2c1.8,1.4,4.3,2.5,6.8,2.5c1.4,0,2.5,0,3.6-0.4c1.8-0.4,4.7-1.4,8.6-2.9
		c6.8-2.5,12.2-4.3,16.2-5.4c1.8-0.4,4-0.7,6.1-0.7c4,0,7.6,1.4,10.4,4c2.9,2.9,4.3,6.8,4.7,12.6h-3.2c-0.7-3.2-1.8-5.8-3.6-7.2
		c-1.8-1.4-4-2.2-6.5-2.2c-2.5,0-6.5,1.1-12.2,3.2c-7.9,2.9-13,4.7-15.1,5.4s-4.3,0.7-6.5,0.7c-4.3,0-7.9-1.4-10.8-4.3
		c-2.9-2.9-4.7-6.8-4.7-12.2h2.9C317.2,250.2,318.2,252.4,320,254.2z"/>
</g>
<g>
	<path fill="#BFA63C" d="M98.6,247h3.2c-0.4,5.4-1.8,9.7-4.7,12.2c-2.9,2.9-6.5,4.3-10.8,4.3c-2.2,0-4.3-0.4-6.5-0.7
		c-2.2-0.7-7.2-2.2-15.1-5.4c-5.8-2.2-9.7-3.2-12.2-3.2c-2.5,0-4.7,0.7-6.5,2.2c-1.8,1.4-2.9,3.6-3.6,7.2h-3.2
		c0.4-5.8,1.8-9.7,4.7-12.6c2.9-2.9,6.1-4,10.4-4c2.2,0,4,0.4,6.1,0.7c4,1.1,9.4,2.9,16.2,5.4c3.6,1.4,6.5,2.5,8.6,2.9
		c1.1,0.4,2.5,0.4,3.6,0.4c2.9,0,5-0.7,6.8-2.5C97.2,252.4,98.3,250.2,98.6,247z"/>
</g>
</svg>
