<?xml version="1.0" encoding="utf-8"?>
<!-- Generator: Adobe Illustrator 18.0.0, SVG Export Plug-In . SVG Version: 6.00 Build 0)  -->
<!DOCTYPE svg PUBLIC "-//W3C//DTD SVG 1.1//EN" "http://www.w3.org/Graphics/SVG/1.1/DTD/svg11.dtd">
<svg version="1.1" id="Layer_1" xmlns="http://www.w3.org/2000/svg" xmlns:xlink="http://www.w3.org/1999/xlink" x="0px" y="0px"
	 viewBox="0 0 292.5 43" enable-background="new 0 0 292.5 43" xml:space="preserve">
<g>
	<path fill="#BAAA5C" d="M161.9,24.2c3.1-2.1,6.8-3.5,10.6-4.4c3.8-0.9,7.8-1.3,11.7-1.1c3.9,0.1,7.8,0.8,11.5,2
		c3.6,1.3,7.2,2.9,10.7,4.6c3.6,1.6,7.2,3.3,11.3,4.1c2,0.4,4.1,0.6,6.2,0.4c2.1-0.2,4.1-0.7,6-1.4c3.8-1.5,7.1-3.7,10-6
		c2.9-2.4,5.6-5.2,6.9-8.7c0.6-1.7,0.8-3.6,0.3-5.4c-0.2-0.9-0.6-1.8-1.2-2.5c-0.6-0.8-1.5-1.4-2.5-1.8c-1-0.4-2.2-0.4-3.2-0.3
		c-1,0.2-2.1,0.4-3,0.9c-1.9,0.9-3.2,2.6-3.6,4.3c-0.4,1.8-0.1,3.6,0.6,5.3c0.7,1.7,1.9,3.2,3.4,4.4c0.8,0.6,1.6,1.1,2.6,1.4
		c1,0.3,2,0.6,3,0.6c2.1,0.2,4.1-0.2,6-0.7c3.9-1.1,7.4-2.9,11-4.2c1.8-0.7,3.8-1.2,5.7-1.4c2-0.2,4-0.2,5.9,0.3
		c1.9,0.5,3.7,1.4,5.1,2.5c1.5,1.2,2.7,2.5,3.8,4c1.1,1.5,2,3,2.9,4.5c0.4,0.8,0.8,1.6,1.3,2.4c0.3,0.8,1,1.5,0.7,2.6
		c-0.1,0.4,0.1,0.8,0.6,0.9c0.4,0.1,0.9-0.1,1-0.5c0.1-0.3-0.1-0.7-0.4-0.8c-1.2-0.5-1.3-1.4-1.7-2.2c-0.4-0.8-0.8-1.6-1.2-2.4
		c-0.9-1.6-1.8-3.1-2.9-4.6c-1.1-1.5-2.3-2.9-3.8-4c-1.5-1.2-3.3-2.1-5.2-2.6c-1.9-0.5-4-0.6-6-0.4c-2,0.2-4,0.7-5.8,1.4
		c-3.7,1.3-7.2,3.1-11,4.1c-1.9,0.5-3.9,0.8-5.8,0.6c-2-0.2-3.8-0.8-5.2-2c-1.4-1.1-2.5-2.6-3.1-4.2c-0.7-1.6-0.9-3.3-0.5-4.9
		c0.4-1.6,1.5-3.1,3.2-3.8c1.6-0.7,3.7-1.1,5.4-0.5c1.7,0.6,2.7,2.2,3,3.8c0.4,1.6,0.2,3.3-0.4,4.9c-1.2,3.2-3.9,5.8-6.7,8.2
		c-2.9,2.3-6.1,4.4-9.7,5.7c-1.8,0.7-3.7,1.1-5.6,1.2c-1.9,0.1-3.9,0-5.7-0.4c-3.8-0.8-7.3-2.4-10.8-4c-3.5-1.6-7.1-3.3-10.9-4.7
		c-3.8-1.3-8-2-12-2.1c-4.1-0.1-8.2,0.4-12.1,1.4c-3.9,1-7.7,2.6-10.8,4.9l0,0c-0.2,0.2-0.2,0.4-0.1,0.6
		C161.4,24.3,161.7,24.3,161.9,24.2"/>
	<path fill="#BAAA5C" d="M211.2,27.1c1.7,0.8,3.5,1.4,5.3,1.9c1.8,0.5,3.6,0.9,5.4,1.5c1.7,0.6,3.4,1.4,4.6,2.7
		c0.6,0.6,1.1,1.3,1.5,2.1c0.2,0.4,0.3,0.8,0.5,1.2c0.1,0.4,0.2,0.8-0.2,1.3c-0.3,0.4-0.2,0.8,0.2,1.1c0.4,0.3,1,0.2,1.3-0.2
		c0.3-0.4,0.2-0.8-0.2-1.1c0,0,0,0,0,0l0,0c-0.6-0.3-0.8-0.7-0.9-1.1c-0.1-0.4-0.3-0.8-0.5-1.2c-0.4-0.8-0.8-1.5-1.4-2.2
		c-1.1-1.3-2.8-2.4-4.5-3.1c-1.7-0.7-3.6-1.2-5.4-1.7c-1.8-0.5-3.5-1.1-5.1-1.9c-0.2-0.1-0.5-0.1-0.7,0.1
		C210.9,26.7,211,26.9,211.2,27.1C211.2,27,211.2,27,211.2,27.1L211.2,27.1z"/>
	<path fill="#BAAA5C" d="M229.3,33.5c0.2,0.2,0.3,0.3,0.5,0.3c0.1,0.1,0.3,0.1,0.4,0.2c0.3,0.1,0.6,0.2,1.1,0.1
		c0.1,0,0.1-0.1,0.1-0.1c0,0,0,0,0,0c-0.1-0.4-0.5-0.6-0.8-0.7c-0.2,0-0.4-0.1-0.6,0C229.7,33.2,229.5,33.2,229.3,33.5L229.3,33.5
		C229.3,33.4,229.3,33.5,229.3,33.5"/>
	<path fill="#BAAA5C" d="M162.2,18.7c3.1,2.1,6.8,3.5,10.6,4.4c3.8,0.9,7.8,1.3,11.7,1.1c3.9-0.1,7.8-0.8,11.5-2
		c3.6-1.3,7.2-2.9,10.7-4.6c3.6-1.6,7.2-3.3,11.3-4.1c2-0.4,4.1-0.6,6.2-0.4c2.1,0.2,4.1,0.7,6,1.4c3.8,1.5,7.1,3.7,10,6
		c2.9,2.4,5.6,5.2,6.9,8.7c0.6,1.7,0.8,3.6,0.3,5.4c-0.2,0.9-0.6,1.8-1.2,2.5c-0.6,0.8-1.5,1.4-2.5,1.8c-1,0.4-2.2,0.4-3.2,0.3
		c-1-0.2-2.1-0.4-3-0.9c-1.9-0.9-3.2-2.6-3.6-4.3c-0.4-1.8-0.1-3.6,0.6-5.3c0.7-1.7,1.9-3.2,3.4-4.4c0.8-0.6,1.6-1.1,2.6-1.4
		c1-0.3,2-0.6,3-0.6c2.1-0.2,4.1,0.2,6,0.7c3.9,1.1,7.4,2.9,11,4.2c1.8,0.7,3.8,1.2,5.7,1.4c2,0.2,4,0.2,5.9-0.3
		c1.9-0.5,3.7-1.4,5.1-2.5c1.5-1.2,2.7-2.5,3.8-4c1.1-1.5,2-3,2.9-4.5c0.4-0.8,0.8-1.6,1.3-2.4c0.3-0.8,1-1.5,0.7-2.6
		c-0.1-0.4,0.1-0.8,0.6-0.9c0.4-0.1,0.9,0.1,1,0.5c0.1,0.3-0.1,0.7-0.4,0.8c-1.2,0.5-1.3,1.4-1.7,2.2c-0.4,0.8-0.8,1.6-1.2,2.4
		c-0.9,1.6-1.8,3.1-2.9,4.6c-1.1,1.5-2.3,2.9-3.8,4c-1.5,1.2-3.3,2.1-5.2,2.6c-1.9,0.5-4,0.6-6,0.4c-2-0.2-4-0.7-5.8-1.4
		c-3.7-1.3-7.2-3.1-11-4.1c-1.9-0.5-3.9-0.8-5.8-0.6c-2,0.2-3.8,0.8-5.2,2c-1.4,1.1-2.5,2.6-3.1,4.2c-0.6,1.6-0.9,3.3-0.5,4.9
		c0.4,1.6,1.5,3.1,3.2,3.8c1.6,0.7,3.7,1.1,5.4,0.5c1.7-0.6,2.7-2.2,3-3.8c0.4-1.6,0.2-3.3-0.4-4.9c-1.2-3.2-3.9-5.8-6.7-8.2
		c-2.9-2.3-6.1-4.4-9.7-5.7c-1.8-0.7-3.7-1.1-5.6-1.2c-1.9-0.1-3.9,0-5.7,0.4c-3.8,0.8-7.3,2.4-10.8,4c-3.5,1.6-7.1,3.3-10.9,4.7
		c-3.8,1.3-7.9,2-12,2.1c-4.1,0.1-8.2-0.4-12.1-1.4c-3.9-1-7.7-2.6-10.8-4.9l0,0c-0.2-0.2-0.2-0.4-0.1-0.6
		C161.7,18.6,162,18.5,162.2,18.7"/>
	<path fill="#BAAA5C" d="M211.5,15.8c1.7-0.8,3.5-1.4,5.3-1.9c1.8-0.5,3.6-0.9,5.4-1.5c1.7-0.6,3.4-1.4,4.6-2.7
		c0.6-0.6,1.1-1.3,1.5-2.1c0.2-0.4,0.3-0.8,0.5-1.1c0.1-0.4,0.2-0.8-0.2-1.3c-0.3-0.4-0.2-0.8,0.2-1.1c0.4-0.3,1-0.2,1.3,0.2
		c0.3,0.4,0.2,0.8-0.2,1.1c0,0,0,0,0,0l0,0c-0.6,0.3-0.8,0.7-0.9,1.1c-0.1,0.4-0.3,0.8-0.5,1.2c-0.4,0.8-0.8,1.5-1.4,2.2
		c-1.1,1.3-2.7,2.4-4.5,3.1c-1.8,0.7-3.6,1.2-5.4,1.7c-1.8,0.5-3.5,1.1-5.1,1.9c-0.2,0.1-0.5,0.1-0.7-0.1
		C211.1,16.2,211.2,16,211.5,15.8C211.5,15.8,211.5,15.8,211.5,15.8L211.5,15.8z"/>
	<path fill="#BAAA5C" d="M229.6,9.4c0.2-0.2,0.3-0.2,0.5-0.3c0.1-0.1,0.3-0.1,0.4-0.2c0.3-0.1,0.6-0.2,1.1-0.1
		c0.1,0,0.1,0.1,0.1,0.1c0,0,0,0,0,0c-0.1,0.4-0.5,0.6-0.8,0.7c-0.2,0-0.4,0.1-0.6,0C229.9,9.7,229.8,9.6,229.6,9.4L229.6,9.4
		C229.6,9.5,229.6,9.4,229.6,9.4"/>
</g>
<g>
	<path fill="#BAAA5C" d="M132.1,24.2c-3.1-2.1-6.8-3.5-10.6-4.4c-3.8-0.9-7.8-1.3-11.7-1.1c-3.9,0.1-7.8,0.8-11.5,2
		c-3.6,1.3-7.2,2.9-10.7,4.6c-3.6,1.6-7.2,3.3-11.3,4.1c-2,0.4-4.1,0.6-6.2,0.4c-2.1-0.2-4.1-0.7-6-1.4c-3.8-1.5-7.1-3.7-10-6
		c-2.9-2.4-5.6-5.2-6.9-8.7c-0.6-1.7-0.8-3.6-0.3-5.4c0.2-0.9,0.6-1.8,1.2-2.5c0.6-0.8,1.5-1.4,2.5-1.8c1-0.4,2.2-0.4,3.2-0.3
		c1,0.2,2.1,0.4,3,0.9c1.9,0.9,3.2,2.6,3.6,4.3c0.4,1.8,0.1,3.6-0.6,5.3c-0.7,1.7-1.9,3.2-3.4,4.4c-0.8,0.6-1.6,1.1-2.6,1.4
		c-1,0.3-2,0.6-3,0.6c-2.1,0.2-4.1-0.2-6-0.7c-3.9-1.1-7.4-2.9-11-4.2c-1.8-0.7-3.8-1.2-5.7-1.4c-2-0.2-4-0.2-5.9,0.3
		c-1.9,0.5-3.7,1.4-5.1,2.5c-1.5,1.2-2.7,2.5-3.8,4c-1.1,1.5-2,3-2.9,4.5c-0.4,0.8-0.8,1.6-1.3,2.4c-0.3,0.8-1,1.5-0.7,2.6
		c0.1,0.4-0.1,0.8-0.6,0.9c-0.4,0.1-0.9-0.1-1-0.5c-0.1-0.3,0.1-0.7,0.4-0.8c1.2-0.5,1.3-1.4,1.7-2.2c0.4-0.8,0.8-1.6,1.2-2.4
		c0.9-1.6,1.8-3.1,2.9-4.6c1.1-1.5,2.3-2.9,3.8-4c1.5-1.2,3.3-2.1,5.2-2.6c1.9-0.5,4-0.6,6-0.4c2,0.2,4,0.7,5.8,1.4
		c3.7,1.3,7.2,3.1,11,4.1c1.9,0.5,3.9,0.8,5.8,0.6c2-0.2,3.8-0.8,5.2-2c1.4-1.1,2.5-2.6,3.1-4.2c0.7-1.6,0.9-3.3,0.5-4.9
		C59.2,7.4,58,6,56.3,5.2c-1.6-0.7-3.7-1.1-5.4-0.5c-1.7,0.6-2.7,2.2-3,3.8c-0.4,1.6-0.2,3.3,0.4,4.9c1.2,3.2,3.9,5.8,6.7,8.2
		c2.9,2.3,6.1,4.4,9.7,5.7c1.8,0.7,3.7,1.1,5.6,1.2c1.9,0.1,3.9,0,5.7-0.4c3.8-0.8,7.3-2.4,10.8-4c3.5-1.6,7.1-3.3,10.9-4.7
		c3.8-1.3,7.9-2,12-2.1c4.1-0.1,8.2,0.4,12.1,1.4c3.9,1,7.7,2.6,10.8,4.9l0,0c0.2,0.2,0.2,0.4,0.1,0.6
		C132.6,24.3,132.3,24.3,132.1,24.2"/>
	<path fill="#BAAA5C" d="M82.8,27.1c-1.7,0.8-3.5,1.4-5.3,1.9c-1.8,0.5-3.6,0.9-5.4,1.5c-1.7,0.6-3.4,1.4-4.6,2.7
		c-0.6,0.6-1.1,1.3-1.5,2.1c-0.2,0.4-0.3,0.8-0.5,1.2c-0.1,0.4-0.2,0.8,0.2,1.3c0.3,0.4,0.2,0.8-0.2,1.1c-0.4,0.3-1,0.2-1.3-0.2
		c-0.3-0.4-0.2-0.8,0.2-1.1c0,0,0,0,0,0l0,0c0.6-0.3,0.8-0.7,0.9-1.1c0.1-0.4,0.3-0.8,0.5-1.2c0.4-0.8,0.8-1.5,1.4-2.2
		c1.1-1.3,2.8-2.4,4.5-3.1c1.8-0.7,3.6-1.2,5.4-1.7c1.8-0.5,3.5-1.1,5.1-1.9c0.2-0.1,0.5-0.1,0.7,0.1C83.2,26.7,83.1,26.9,82.8,27.1
		C82.8,27,82.8,27,82.8,27.1L82.8,27.1z"/>
	<path fill="#BAAA5C" d="M64.7,33.5c-0.2,0.2-0.3,0.3-0.5,0.3c-0.1,0.1-0.3,0.1-0.4,0.2c-0.3,0.1-0.6,0.2-1.1,0.1
		c-0.1,0-0.1-0.1-0.1-0.1c0,0,0,0,0,0c0.1-0.4,0.5-0.6,0.8-0.7c0.2,0,0.4-0.1,0.6,0C64.4,33.2,64.5,33.2,64.7,33.5L64.7,33.5
		C64.8,33.4,64.7,33.5,64.7,33.5"/>
	<path fill="#BAAA5C" d="M131.8,18.7c-3.1,2.1-6.8,3.5-10.6,4.4c-3.8,0.9-7.8,1.3-11.7,1.1c-3.9-0.1-7.8-0.8-11.5-2
		c-3.6-1.3-7.2-2.9-10.7-4.6c-3.6-1.6-7.2-3.3-11.3-4.1c-2-0.4-4.1-0.6-6.2-0.4c-2.1,0.2-4.1,0.7-6,1.4c-3.8,1.5-7.1,3.7-10,6
		c-2.9,2.4-5.6,5.2-6.9,8.7c-0.6,1.7-0.8,3.6-0.3,5.4c0.2,0.9,0.6,1.8,1.2,2.5c0.6,0.8,1.5,1.4,2.5,1.8c1,0.4,2.2,0.4,3.2,0.3
		c1-0.2,2.1-0.4,3-0.9c1.9-0.9,3.2-2.6,3.6-4.3c0.4-1.8,0.1-3.6-0.6-5.3c-0.7-1.7-1.9-3.2-3.4-4.4c-0.8-0.6-1.6-1.1-2.6-1.4
		c-1-0.3-2-0.5-3-0.6c-2.1-0.2-4.1,0.2-6,0.7c-3.9,1.1-7.4,2.9-11,4.2c-1.8,0.7-3.8,1.2-5.7,1.4c-2,0.2-4,0.2-5.9-0.3
		c-1.9-0.5-3.7-1.4-5.1-2.5c-1.5-1.2-2.7-2.5-3.8-4c-1.1-1.5-2-3-2.9-4.5c-0.4-0.8-0.8-1.6-1.3-2.4c-0.3-0.8-1-1.5-0.7-2.6
		c0.1-0.4-0.1-0.8-0.6-0.9c-0.4-0.1-0.9,0.1-1,0.5c-0.1,0.3,0.1,0.7,0.4,0.8c1.2,0.5,1.3,1.4,1.7,2.2c0.4,0.8,0.8,1.6,1.2,2.4
		c0.9,1.6,1.8,3.1,2.9,4.6c1.1,1.5,2.3,2.9,3.8,4c1.5,1.2,3.3,2.1,5.2,2.6c1.9,0.5,4,0.6,6,0.4c2-0.2,4-0.7,5.8-1.4
		c3.7-1.3,7.2-3.1,11-4.1c1.9-0.5,3.9-0.8,5.8-0.6c2,0.2,3.8,0.8,5.2,2c1.4,1.1,2.5,2.6,3.1,4.2c0.6,1.6,0.9,3.3,0.5,4.9
		c-0.4,1.6-1.5,3.1-3.2,3.8c-1.6,0.7-3.7,1.1-5.4,0.5c-1.7-0.6-2.7-2.2-3-3.8c-0.4-1.6-0.2-3.3,0.4-4.9c1.2-3.2,3.9-5.8,6.7-8.2
		c2.9-2.3,6.1-4.4,9.7-5.7c1.8-0.7,3.7-1.1,5.6-1.2c1.9-0.1,3.9,0,5.7,0.4c3.8,0.8,7.3,2.4,10.8,4c3.5,1.6,7.1,3.3,10.9,4.7
		c3.8,1.3,7.9,2,12,2.1c4.1,0.1,8.2-0.4,12.1-1.4c3.9-1,7.7-2.6,10.8-4.9l0,0c0.2-0.2,0.2-0.4,0.1-0.6
		C132.3,18.6,132,18.5,131.8,18.7"/>
	<path fill="#BAAA5C" d="M82.6,15.8c-1.7-0.8-3.5-1.4-5.3-1.9c-1.8-0.5-3.6-0.9-5.4-1.5c-1.7-0.6-3.4-1.4-4.6-2.7
		c-0.6-0.6-1.1-1.3-1.5-2.1c-0.2-0.4-0.3-0.8-0.5-1.1c-0.1-0.4-0.2-0.8,0.2-1.3c0.3-0.4,0.2-0.8-0.2-1.1c-0.4-0.3-1-0.2-1.3,0.2
		c-0.3,0.4-0.2,0.8,0.2,1.1c0,0,0,0,0,0l0,0c0.6,0.3,0.8,0.7,0.9,1.1c0.1,0.4,0.3,0.8,0.5,1.2c0.4,0.8,0.8,1.5,1.4,2.2
		c1.1,1.3,2.7,2.4,4.5,3.1c1.7,0.7,3.6,1.2,5.4,1.7c1.8,0.5,3.5,1.1,5.1,1.9c0.2,0.1,0.5,0.1,0.7-0.1C82.9,16.2,82.8,16,82.6,15.8
		C82.6,15.8,82.6,15.8,82.6,15.8L82.6,15.8z"/>
	<path fill="#BAAA5C" d="M64.5,9.4c-0.2-0.2-0.3-0.2-0.5-0.3c-0.1-0.1-0.3-0.1-0.4-0.2c-0.3-0.1-0.6-0.2-1.1-0.1
		c-0.1,0-0.1,0.1-0.1,0.1c0,0,0,0,0,0c0.1,0.4,0.5,0.6,0.8,0.7c0.2,0,0.4,0.1,0.6,0C64.1,9.7,64.3,9.6,64.5,9.4L64.5,9.4
		C64.5,9.5,64.5,9.4,64.5,9.4"/>
</g>
</svg>
