<?xml version="1.0" encoding="utf-8"?>
<!-- Generator: Adobe Illustrator 18.0.0, SVG Export Plug-In . SVG Version: 6.00 Build 0)  -->
<!DOCTYPE svg PUBLIC "-//W3C//DTD SVG 1.1//EN" "http://www.w3.org/Graphics/SVG/1.1/DTD/svg11.dtd">
<svg version="1.1" id="Layer_1" xmlns="http://www.w3.org/2000/svg" xmlns:xlink="http://www.w3.org/1999/xlink" x="0px" y="0px"
	 viewBox="0 0 204.3 50" enable-background="new 0 0 204.3 50" xml:space="preserve">
<g>
	<g>
		<path d="M80.3,8.3c1.2,0,2.4,0.2,3.4,0.6c1,0.4,1.9,1,2.7,1.7c0.6,0.6,1.1,1.4,1.5,2.2c0.3,0.8,0.5,1.6,0.5,2.4
			c0,1.2-0.4,2.4-1.1,3.4c-0.7,1.1-1.7,1.9-2.9,2.5c-1.2,0.6-2.5,0.9-4,0.9c-1.1,0-2.1-0.2-3.1-0.5s-1.8-0.8-2.6-1.5
			c-0.7-0.6-1.3-1.4-1.7-2.2c-0.4-0.8-0.6-1.7-0.6-2.7c0-1.2,0.4-2.4,1.1-3.4c0.7-1.1,1.7-1.9,2.9-2.5S78.9,8.3,80.3,8.3z M80.6,8.7
			c-0.6,0-1.1,0.1-1.6,0.3c-0.5,0.2-0.9,0.5-1.3,0.8c-0.4,0.4-0.7,0.9-1,1.4c-0.3,0.5-0.5,1.2-0.6,1.8c-0.1,0.7-0.2,1.4-0.2,2.2
			c0,1,0.1,1.9,0.3,2.7c0.2,0.8,0.5,1.5,0.9,2.1c0.4,0.6,0.9,1,1.5,1.3c0.6,0.3,1.2,0.5,1.9,0.5c0.9,0,1.8-0.3,2.4-0.8
			s1.2-1.3,1.6-2.3s0.6-2.2,0.6-3.5c0-0.9-0.1-1.7-0.3-2.5c-0.2-0.8-0.5-1.4-0.9-2c-0.4-0.6-0.8-1-1.4-1.4c-0.3-0.2-0.6-0.3-0.9-0.4
			C81.2,8.7,80.9,8.7,80.6,8.7z"/>
		<path d="M92.1,8.6h9.2V9h-1.1c-0.8,0-1.4,0.2-1.8,0.6c-0.4,0.4-0.6,1-0.6,1.8v6.7c0,0.8,0.2,1.4,0.5,2s0.9,1,1.5,1.3
			c0.7,0.3,1.5,0.4,2.4,0.4c0.8,0,1.6-0.1,2.3-0.3c0.7-0.2,1.3-0.5,1.7-1c0.8-0.8,1.1-1.9,1.1-3.2v-4.7c0-1.5-0.4-2.6-1.3-3.1
			c-0.3-0.2-0.5-0.3-0.8-0.3C104.9,9,104.5,9,103.9,9V8.6h6.4V9c-0.4,0-0.7,0.1-0.9,0.2c-0.2,0.1-0.5,0.2-0.7,0.4
			c-0.4,0.3-0.6,0.6-0.8,1.1c-0.2,0.5-0.3,1-0.3,1.6v5.3c0,1.4-0.4,2.5-1.1,3.2c-0.4,0.4-0.9,0.7-1.4,0.9c-1,0.4-2.2,0.6-3.6,0.6
			c-1,0-2-0.1-2.8-0.3c-0.8-0.2-1.5-0.5-2.1-0.9c-1-0.7-1.6-1.7-1.6-3.1v-6.5C95,9.8,94.2,9,92.6,9h-0.5V8.6z"/>
		<path d="M121.9,15.4h-3v3.7c0,0.8,0.2,1.4,0.6,1.8c0.4,0.4,1,0.6,1.8,0.6h0.4v0.4h-8.4v-0.4h0.4c0.8,0,1.4-0.2,1.8-0.6
			s0.6-1,0.6-1.8v-7.7c0-0.8-0.2-1.4-0.6-1.8s-1-0.6-1.8-0.6h-0.4V8.6h10.3c1.4,0,2.5,0.1,3.3,0.3c0.8,0.2,1.5,0.5,1.9,1
			c0.3,0.3,0.5,0.6,0.7,1s0.2,0.7,0.2,1.1c0,1-0.5,1.8-1.6,2.4c-0.4,0.2-0.9,0.4-1.6,0.6c-0.7,0.2-1.3,0.3-2,0.3
			c-0.5,0-1.3,0.1-2.3,0.1v0c0.5,0.3,1,0.6,1.4,0.8c0.4,0.2,0.8,0.4,1.2,0.5c0.4,0.1,0.9,0.3,1.4,0.4l0.3,0.5
			c0.2,0.3,0.4,0.5,0.5,0.7c0.1,0.2,0.2,0.3,0.4,0.5c0.4,0.5,0.7,1,1,1.4c0.3,0.4,0.6,0.7,0.8,0.8c0.4,0.3,1,0.4,1.8,0.4h0.4v0.4h-5
			L121.9,15.4z M118.9,15h3.8c0.9,0,1.6-0.1,2.2-0.3c0.6-0.2,1-0.6,1.3-1c0.3-0.4,0.4-1,0.4-1.7c0-2-1.3-3-3.8-3h-3.8V15z"/>
		<path d="M9.9,31.9h7.9c0.5,0,1,0,1.5,0c0.6,0,1.1,0.1,1.5,0.1c0.4,0,0.8,0.1,1.1,0.2c1,0.2,1.8,0.6,2.4,1.2
			c0.6,0.6,0.8,1.3,0.8,2.1c0,0.6-0.1,1.1-0.4,1.6c-0.3,0.5-0.7,0.8-1.2,1.2c-0.5,0.3-1.1,0.6-1.9,0.7s-1.6,0.2-2.5,0.2h-3.6v3.2
			c0,1.6,0.8,2.4,2.4,2.4h0.7v0.4H9.8v-0.4h0.5c1.6,0,2.4-0.8,2.4-2.4v-7.7c0-1.6-0.8-2.4-2.4-2.4H9.9V31.9z M15.5,32.3v6.6h2.6
			c1.3,0,2.3-0.3,2.9-0.8c0.6-0.5,0.9-1.4,0.9-2.5c0-1.3-0.4-2.2-1.3-2.8c-0.3-0.2-0.7-0.3-1.1-0.4s-0.9-0.1-1.6-0.1H15.5z"/>
		<path d="M28,44.8h0.4c0.8,0,1.4-0.2,1.8-0.6s0.6-1,0.6-1.8c0-0.4,0-0.9,0-1.3s0-1,0-1.9c0-0.8,0-1.8,0-2.8s0-1.7,0-2.1
			c-0.1-0.4-0.1-0.7-0.2-1c-0.1-0.2-0.3-0.4-0.5-0.6c-0.4-0.3-1-0.5-1.7-0.5H28v-0.4h8.4v0.4H36c-0.8,0-1.4,0.2-1.8,0.6
			c-0.4,0.4-0.6,1-0.6,1.8v3.6h7.1v-3.6c0-0.8-0.2-1.4-0.6-1.8s-1-0.6-1.8-0.6h-0.3v-0.4h8.3v0.4H46c-0.8,0-1.4,0.2-1.8,0.6
			c-0.4,0.4-0.6,1-0.6,1.8v7.7c0,0.8,0.2,1.4,0.6,1.8s1,0.6,1.8,0.6h0.4v0.4h-8.3v-0.4h0.3c0.8,0,1.4-0.2,1.8-0.6s0.6-1,0.6-1.8
			v-3.8h-7.1v3.8c0,0.8,0.2,1.4,0.6,1.8s1,0.6,1.8,0.6h0.3v0.4H28V44.8z"/>
		<path d="M49.5,44.8h0.4c0.8,0,1.4-0.2,1.8-0.6c0.4-0.4,0.6-1,0.6-1.8c0-0.4,0-0.7,0-1c0-0.3,0-0.6,0-0.9c0-0.3,0-0.7,0-1.2
			c0-2.2,0-3.9,0-4.9c-0.1-0.4-0.1-0.8-0.2-1s-0.3-0.5-0.5-0.6c-0.4-0.3-1-0.5-1.7-0.5h-0.4v-0.4h8.4v0.4h-0.4
			c-0.8,0-1.4,0.2-1.8,0.6s-0.6,1-0.6,1.8v7.7c0,0.8,0.2,1.4,0.6,1.8s1,0.6,1.8,0.6h0.4v0.4h-8.4V44.8z"/>
		<path d="M60.9,31.9h9.1v0.4h-1c-0.8,0-1.4,0.2-1.8,0.6s-0.6,1-0.6,1.8v10.2H70c0.7,0,1.3-0.2,1.9-0.5c0.6-0.3,1.1-0.7,1.6-1.3
			c0.3-0.3,0.5-0.7,0.7-1c0.2-0.3,0.4-0.7,0.6-1.2c0.2-0.5,0.4-1,0.5-1.6h0.4v5.9H60.9l0-0.4h0.5c1.6,0,2.4-0.8,2.4-2.4v-7.7
			c0-1.6-0.8-2.4-2.4-2.4h-0.5V31.9z"/>
		<path d="M87.1,31.7c1.2,0,2.4,0.2,3.4,0.6c1,0.4,1.9,1,2.7,1.7c0.6,0.6,1.1,1.4,1.5,2.2c0.3,0.8,0.5,1.6,0.5,2.4
			c0,1.2-0.4,2.4-1.1,3.4c-0.7,1.1-1.7,1.9-2.9,2.5c-1.2,0.6-2.5,0.9-4,0.9c-1.1,0-2.1-0.2-3.1-0.5s-1.8-0.8-2.6-1.5
			c-0.7-0.6-1.3-1.4-1.7-2.2c-0.4-0.8-0.6-1.7-0.6-2.7c0-1.2,0.4-2.4,1.1-3.4c0.7-1.1,1.7-1.9,2.9-2.5S85.7,31.7,87.1,31.7z
			 M87.3,32c-0.6,0-1.1,0.1-1.6,0.3c-0.5,0.2-0.9,0.5-1.3,0.8c-0.4,0.4-0.7,0.9-1,1.4c-0.3,0.5-0.5,1.2-0.6,1.8
			c-0.1,0.7-0.2,1.4-0.2,2.2c0,1,0.1,1.9,0.3,2.7c0.2,0.8,0.5,1.5,0.9,2.1c0.4,0.6,0.9,1,1.5,1.3c0.6,0.3,1.2,0.5,1.9,0.5
			c0.9,0,1.8-0.3,2.4-0.8s1.2-1.3,1.6-2.3s0.6-2.2,0.6-3.5c0-0.9-0.1-1.7-0.3-2.5c-0.2-0.8-0.5-1.4-0.9-2c-0.4-0.6-0.8-1-1.4-1.4
			c-0.3-0.2-0.6-0.3-0.9-0.4C88,32.1,87.7,32,87.3,32z"/>
		<path d="M111.2,32.2h0.3v4.5h-0.3c-0.4-1.1-0.9-2-1.4-2.6c-0.4-0.4-0.8-0.8-1.4-1.1c-0.6-0.3-1.2-0.6-1.9-0.8s-1.4-0.3-2.1-0.3
			c-0.5,0-1,0.1-1.4,0.2c-0.4,0.1-0.8,0.4-1,0.6c-0.2,0.2-0.4,0.4-0.5,0.7c-0.1,0.3-0.2,0.5-0.2,0.7c0,0.4,0.2,0.8,0.5,1.1
			c0.2,0.2,0.4,0.3,0.7,0.5c0.3,0.1,0.7,0.3,1.1,0.4c0.5,0.1,1.1,0.3,2,0.5c0.2,0.1,0.4,0.1,0.5,0.1l0.5,0.1l0.7,0.2
			c1.3,0.3,2.2,0.6,2.7,0.9c0.6,0.2,1.1,0.6,1.5,1c0.3,0.3,0.6,0.6,0.7,1c0.2,0.4,0.3,0.8,0.3,1.3c0,0.5-0.1,0.9-0.3,1.4
			s-0.5,0.9-0.8,1.2c-0.5,0.5-1,0.8-1.7,1.1c-0.7,0.2-1.5,0.4-2.4,0.4c-0.6,0-1.2-0.1-1.7-0.2c-0.5-0.1-1.2-0.3-2-0.7
			c-0.5-0.2-0.9-0.3-1.2-0.4c-0.3-0.1-0.5-0.1-0.8-0.1c-0.4,0-0.8,0.1-1.1,0.4s-0.5,0.6-0.6,1h-0.3v-6.1h0.3c0.1,1.1,0.6,2.1,1.3,3
			c0.4,0.5,1,1,1.7,1.4s1.4,0.8,2.2,1c0.8,0.2,1.5,0.4,2.2,0.4c0.6,0,1.2-0.1,1.7-0.3s0.9-0.5,1.2-0.8s0.4-0.8,0.4-1.2
			c0-0.5-0.2-0.9-0.6-1.3c-0.2-0.2-0.4-0.3-0.7-0.5c-0.3-0.1-0.6-0.3-1.1-0.4c-0.4-0.2-1.1-0.3-1.8-0.5l-1-0.3
			c-1.5-0.4-2.5-0.7-3.1-0.9c-0.6-0.2-1.1-0.5-1.5-0.7c-0.4-0.2-0.7-0.5-0.9-0.9c-0.4-0.5-0.6-1.1-0.6-1.7c0-0.7,0.2-1.4,0.7-2
			c0.4-0.6,1-1,1.8-1.4c0.8-0.3,1.7-0.5,2.6-0.5c1.4,0,2.9,0.4,4.5,1.2c0.5,0.3,0.9,0.4,1.1,0.4C110.6,33.3,111,32.9,111.2,32.2z"/>
		<path d="M124,31.7c1.2,0,2.4,0.2,3.4,0.6c1,0.4,1.9,1,2.7,1.7c0.6,0.6,1.1,1.4,1.5,2.2c0.3,0.8,0.5,1.6,0.5,2.4
			c0,1.2-0.4,2.4-1.1,3.4c-0.7,1.1-1.7,1.9-2.9,2.5c-1.2,0.6-2.5,0.9-4,0.9c-1.1,0-2.1-0.2-3.1-0.5s-1.8-0.8-2.6-1.5
			c-0.7-0.6-1.3-1.4-1.7-2.2c-0.4-0.8-0.6-1.7-0.6-2.7c0-1.2,0.4-2.4,1.1-3.4c0.7-1.1,1.7-1.9,2.9-2.5S122.6,31.7,124,31.7z
			 M124.3,32c-0.6,0-1.1,0.1-1.6,0.3c-0.5,0.2-0.9,0.5-1.3,0.8c-0.4,0.4-0.7,0.9-1,1.4c-0.3,0.5-0.5,1.2-0.6,1.8
			c-0.1,0.7-0.2,1.4-0.2,2.2c0,1,0.1,1.9,0.3,2.7c0.2,0.8,0.5,1.5,0.9,2.1c0.4,0.6,0.9,1,1.5,1.3c0.6,0.3,1.2,0.5,1.9,0.5
			c0.9,0,1.8-0.3,2.4-0.8s1.2-1.3,1.6-2.3s0.6-2.2,0.6-3.5c0-0.9-0.1-1.7-0.3-2.5c-0.2-0.8-0.5-1.4-0.9-2c-0.4-0.6-0.8-1-1.4-1.4
			c-0.3-0.2-0.6-0.3-0.9-0.4C124.9,32.1,124.6,32,124.3,32z"/>
		<path d="M135.4,31.9h7.9c0.5,0,1,0,1.5,0c0.6,0,1.1,0.1,1.5,0.1c0.4,0,0.8,0.1,1.1,0.2c1,0.2,1.8,0.6,2.4,1.2
			c0.6,0.6,0.8,1.3,0.8,2.1c0,0.6-0.1,1.1-0.4,1.6c-0.3,0.5-0.7,0.8-1.2,1.2c-0.5,0.3-1.1,0.6-1.9,0.7s-1.6,0.2-2.5,0.2h-3.6v3.2
			c0,1.6,0.8,2.4,2.4,2.4h0.7v0.4h-8.8v-0.4h0.5c1.6,0,2.4-0.8,2.4-2.4v-7.7c0-1.6-0.8-2.4-2.4-2.4h-0.4V31.9z M141.1,32.3v6.6h2.6
			c1.3,0,2.3-0.3,2.9-0.8c0.6-0.5,0.9-1.4,0.9-2.5c0-1.3-0.4-2.2-1.3-2.8c-0.3-0.2-0.7-0.3-1.1-0.4s-0.9-0.1-1.6-0.1H141.1z"/>
		<path d="M153.6,44.8h0.4c0.8,0,1.4-0.2,1.8-0.6s0.6-1,0.6-1.8c0-0.4,0-0.9,0-1.3s0-1,0-1.9c0-0.8,0-1.8,0-2.8s0-1.7,0-2.1
			c-0.1-0.4-0.1-0.7-0.2-1c-0.1-0.2-0.3-0.4-0.5-0.6c-0.4-0.3-1-0.5-1.7-0.5h-0.5v-0.4h8.4v0.4h-0.3c-0.8,0-1.4,0.2-1.8,0.6
			c-0.4,0.4-0.6,1-0.6,1.8v3.6h7.1v-3.6c0-0.8-0.2-1.4-0.6-1.8s-1-0.6-1.8-0.6h-0.3v-0.4h8.3v0.4h-0.4c-0.8,0-1.4,0.2-1.8,0.6
			c-0.4,0.4-0.6,1-0.6,1.8v7.7c0,0.8,0.2,1.4,0.6,1.8s1,0.6,1.8,0.6h0.4v0.4h-8.3v-0.4h0.3c0.8,0,1.4-0.2,1.8-0.6s0.6-1,0.6-1.8
			v-3.8h-7.1v3.8c0,0.8,0.2,1.4,0.6,1.8s1,0.6,1.8,0.6h0.3v0.4h-8.3V44.8z"/>
		<path d="M174.9,31.9h8.5v0.3h-1c-0.4,0-0.7,0.1-0.9,0.2c-0.2,0.1-0.3,0.4-0.3,0.6c0,0.1,0,0.3,0.1,0.4s0.2,0.4,0.6,0.9l3.3,4.5
			l3-3.9c0.4-0.5,0.6-0.9,0.6-1.3c0-0.4-0.2-0.8-0.5-1c-0.3-0.3-0.8-0.4-1.4-0.4h-0.9v-0.4h6.8v0.3c-0.4,0.1-0.9,0.1-1.2,0.3
			c-0.4,0.1-0.7,0.3-1,0.5c-0.3,0.2-0.6,0.4-0.9,0.8c-0.3,0.3-0.6,0.7-0.9,1.1l-3.3,4.4v3.2c0,0.8,0.2,1.4,0.6,1.8
			c0.4,0.4,1,0.6,1.8,0.6h0.9v0.4h-9.4v-0.4h0.9c0.8,0,1.4-0.2,1.8-0.6s0.6-1,0.6-1.8v-2.9l-4-5.4c-0.5-0.7-1-1.2-1.5-1.4
			s-1.1-0.4-1.9-0.4h-0.2V31.9z"/>
	</g>
	<g>
		<g>
			<g>
				<g>
					<path fill="#BFA63C" d="M138.2,14.4c0,0,0-0.1-0.7-0.4l-0.8,0.3l0.6,0.4c0,0,17.8,12.8,42.8,6.3l-0.1-0.6
						C157.8,26,141.4,16.4,138.2,14.4z"/>
				</g>
			</g>
			<g>
				<g>
					<path fill="#BFA63C" d="M138,14.8l0.1-0.6c0,0,5.1,1.7,12.9,2.5l0,0c7.8,0.8,18.3,0.8,29.2-2.5l0,0c5.1-1.5,10.3-3.9,15.3-7.2
						l0,0l0.4,0.6c-5,3.3-10.3,5.7-15.4,7.4l0,0C158.6,21.7,138.2,14.8,138,14.8L138,14.8z"/>
				</g>
			</g>
			<g>
				<g>
					<path fill="#BFA63C" d="M138.2,14.8l-0.3-0.7c0,0,12.8,2.8,29.3-2.4l0,0c4.6-1.4,9.6-3.5,14.7-6.4l0,0l0,0l0.3,0.6
						c-5.1,2.9-10.1,5-14.7,6.5l0,0C150.7,17.5,138.2,14.8,138.2,14.8L138.2,14.8z"/>
				</g>
			</g>
			<g>
				<g>
					<path fill="#BFA63C" d="M195.3,6.9c-0.1-0.6,0.3-1,0.7-1.1c0.6-0.1,1,0.3,1.1,0.8s-0.3,1-0.7,1.1
						C195.9,7.8,195.4,7.5,195.3,6.9z"/>
				</g>
			</g>
			<g>
				<g>
					<path fill="#BFA63C" d="M179.5,20.5c-0.1-0.6,0.3-1,0.7-1.1c0.6-0.1,1,0.3,1.1,0.8c0.1,0.6-0.3,1-0.7,1.1
						C180.2,21.4,179.6,21,179.5,20.5z"/>
				</g>
			</g>
			<g>
				<g>
					<path fill="#BFA63C" d="M181.5,5.7c-0.1-0.6,0.3-1,0.7-1.1c0.6-0.1,1,0.3,1.1,0.8c0.1,0.6-0.3,1-0.7,1.1
						C182.1,6.5,181.5,6.1,181.5,5.7z"/>
				</g>
			</g>
		</g>
		<g>
			<g>
				<g>
					<path fill="#BFA63C" d="M24.5,20.4L24.3,21c25,6.5,42.8-6.3,42.8-6.3l0.6-0.4L66.9,14c-0.7,0.3-0.7,0.4-0.7,0.4
						C63,16.4,46.6,26,24.5,20.4z"/>
				</g>
			</g>
			<g>
				<g>
					<path fill="#BFA63C" d="M66.3,14.8c-0.1,0-20.6,6.8-42.5,0.1l0,0c-5.1-1.7-10.4-4-15.4-7.4l0.4-0.6l0,0
						c5,3.3,10.1,5.7,15.3,7.2l0,0c10.8,3.3,21.4,3.3,29.2,2.5l0,0c7.8-0.8,12.9-2.5,12.9-2.5L66.3,14.8L66.3,14.8z"/>
				</g>
			</g>
			<g>
				<g>
					<path fill="#BFA63C" d="M66.2,14.8c0,0-12.5,2.6-29.3-2.4l0,0c-4.6-1.5-9.6-3.6-14.7-6.5l0.3-0.6l0,0l0,0
						c5.1,2.9,10.1,5,14.7,6.4l0,0c16.5,5.1,29.3,2.4,29.3,2.4L66.2,14.8L66.2,14.8z"/>
				</g>
			</g>
			<g>
				<g>
					<path fill="#BFA63C" d="M7.9,7.8C7.5,7.6,7.1,7.2,7.2,6.6c0.1-0.6,0.6-1,1.1-0.8C8.8,5.9,9.2,6.4,9,6.9S8.5,7.8,7.9,7.8z"/>
				</g>
			</g>
			<g>
				<g>
					<path fill="#BFA63C" d="M23.8,21.4c-0.4-0.1-0.8-0.6-0.7-1.1s0.6-1,1.1-0.8c0.4,0.1,0.8,0.6,0.7,1.1
						C24.7,21,24.2,21.4,23.8,21.4z"/>
				</g>
			</g>
			<g>
				<g>
					<path fill="#BFA63C" d="M21.7,6.5c-0.4-0.1-0.8-0.6-0.7-1.1c0.1-0.6,0.6-1,1.1-0.8c0.4,0.1,0.8,0.6,0.7,1.1
						C22.8,6.1,22.2,6.5,21.7,6.5z"/>
				</g>
			</g>
		</g>
	</g>
</g>
</svg>
