<?xml version="1.0" encoding="utf-8"?>
<!-- Generator: Adobe Illustrator 18.0.0, SVG Export Plug-In . SVG Version: 6.00 Build 0)  -->
<!DOCTYPE svg PUBLIC "-//W3C//DTD SVG 1.1//EN" "http://www.w3.org/Graphics/SVG/1.1/DTD/svg11.dtd">
<svg version="1.1" id="Layer_1" xmlns="http://www.w3.org/2000/svg" xmlns:xlink="http://www.w3.org/1999/xlink" x="0px" y="0px"
	 viewBox="8 539.2 414.3 90.7" enable-background="new 8 539.2 414.3 90.7" xml:space="preserve">
<g>
	<path d="M193.5,539.5c1.3,0,2.5,0.2,3.6,0.6c1.1,0.4,2.1,1,2.9,1.8c0.7,0.7,1.2,1.5,1.6,2.3c0.4,0.8,0.6,1.7,0.6,2.6
		c0,1.3-0.4,2.5-1.1,3.7c-0.8,1.1-1.8,2-3.1,2.7c-1.3,0.7-2.7,1-4.3,1c-1.2,0-2.3-0.2-3.3-0.6c-1-0.4-2-0.9-2.7-1.6
		c-0.8-0.7-1.4-1.5-1.9-2.4c-0.4-0.9-0.7-1.8-0.7-2.8c0-1.3,0.4-2.5,1.1-3.7c0.8-1.1,1.8-2,3.1-2.7
		C190.6,539.8,192,539.5,193.5,539.5z M193.7,539.8c-0.6,0-1.2,0.1-1.7,0.3c-0.5,0.2-1,0.5-1.4,0.9c-0.4,0.4-0.8,0.9-1,1.5
		c-0.3,0.6-0.5,1.2-0.6,1.9c-0.1,0.7-0.2,1.5-0.2,2.3c0,1,0.1,2,0.3,2.8c0.2,0.9,0.6,1.6,1,2.2s0.9,1.1,1.6,1.4
		c0.6,0.3,1.3,0.5,2,0.5c1,0,1.9-0.3,2.6-0.9c0.7-0.6,1.3-1.4,1.7-2.4c0.4-1.1,0.6-2.3,0.6-3.8c0-0.9-0.1-1.8-0.3-2.6
		c-0.2-0.8-0.5-1.5-0.9-2.1c-0.4-0.6-0.9-1.1-1.5-1.4c-0.3-0.2-0.6-0.3-1-0.5C194.4,539.9,194.1,539.8,193.7,539.8z"/>
	<path d="M204.9,539.7h9.8v0.4h-1.1c-0.9,0-1.5,0.2-1.9,0.6s-0.6,1.1-0.6,1.9v7.2c0,0.8,0.2,1.5,0.6,2.1c0.4,0.6,0.9,1,1.6,1.4
		c0.7,0.3,1.6,0.5,2.5,0.5c0.9,0,1.7-0.1,2.4-0.4c0.7-0.2,1.3-0.6,1.8-1c0.8-0.8,1.2-2,1.2-3.5v-5c0-1.6-0.5-2.7-1.4-3.3
		c-0.3-0.2-0.6-0.3-0.9-0.4c-0.3-0.1-0.7-0.1-1.3-0.1v-0.4h6.9v0.4c-0.4,0-0.8,0.1-1,0.2c-0.3,0.1-0.5,0.2-0.8,0.4
		c-0.4,0.3-0.7,0.7-0.9,1.2c-0.2,0.5-0.3,1-0.3,1.7v5.6c0,1.5-0.4,2.6-1.2,3.4c-0.5,0.4-0.9,0.7-1.4,0.9c-1.1,0.4-2.4,0.6-3.9,0.6
		c-1.1,0-2.1-0.1-3-0.3c-0.9-0.2-1.6-0.5-2.2-0.9c-1.1-0.8-1.7-1.9-1.7-3.3v-6.9c0-1.7-0.9-2.6-2.6-2.6h-0.6V539.7z"/>
	<path d="M235.5,546.9h-3.2v3.9c0,0.9,0.2,1.5,0.6,1.9c0.4,0.4,1.1,0.6,1.9,0.6h0.4v0.4h-8.9v-0.4h0.4c0.9,0,1.5-0.2,1.9-0.6
		c0.4-0.4,0.6-1.1,0.6-1.9v-8.2c0-0.9-0.2-1.5-0.6-1.9c-0.4-0.4-1.1-0.6-1.9-0.6h-0.4v-0.4h11c1.5,0,2.7,0.1,3.5,0.3
		c0.9,0.2,1.6,0.6,2.1,1.1c0.3,0.3,0.5,0.6,0.7,1c0.2,0.4,0.3,0.8,0.3,1.2c0,1.1-0.6,1.9-1.7,2.6c-0.4,0.2-1,0.4-1.7,0.6
		c-0.7,0.2-1.4,0.3-2.1,0.4c-0.5,0-1.3,0.1-2.4,0.1v0c0.5,0.3,1,0.6,1.5,0.9s0.9,0.4,1.3,0.6c0.4,0.2,1,0.3,1.5,0.4l0.3,0.5
		c0.2,0.3,0.4,0.6,0.5,0.7c0.1,0.2,0.2,0.3,0.4,0.6c0.4,0.6,0.7,1.1,1.1,1.5c0.3,0.4,0.6,0.7,0.8,0.9c0.4,0.3,1.1,0.4,1.9,0.4h0.4
		v0.4h-5.3L235.5,546.9z M232.4,546.6h4c1,0,1.7-0.1,2.3-0.3c0.6-0.2,1.1-0.6,1.4-1.1s0.5-1.1,0.5-1.8c0-2.1-1.4-3.2-4.1-3.2h-4.1
		V546.6z"/>
	<path d="M122.2,562h8.5c0.5,0,1,0,1.6,0.1c0.6,0,1.1,0.1,1.6,0.1s0.9,0.1,1.2,0.2c1.1,0.2,2,0.7,2.6,1.3c0.6,0.6,0.9,1.4,0.9,2.3
		c0,0.6-0.1,1.2-0.4,1.7c-0.3,0.5-0.7,0.9-1.3,1.2c-0.6,0.3-1.2,0.6-2,0.8c-0.8,0.2-1.7,0.3-2.7,0.3h-3.9v3.4c0,1.7,0.9,2.6,2.6,2.6
		h0.7v0.4h-9.3v-0.4h0.5c1.7,0,2.6-0.9,2.6-2.6V565c0-1.7-0.9-2.6-2.6-2.6h-0.5V562z M128.2,562.4v7h2.8c1.4,0,2.4-0.3,3.1-0.9
		c0.7-0.6,1-1.5,1-2.7c0-1.4-0.5-2.4-1.4-2.9c-0.3-0.2-0.7-0.3-1.2-0.4c-0.4-0.1-1-0.1-1.7-0.1H128.2z"/>
	<path d="M140.4,575.7h0.5c0.9,0,1.5-0.2,1.9-0.6c0.4-0.4,0.6-1.1,0.6-1.9c0.1-0.5,0.1-0.9,0.2-1.4c0-0.4,0-1.1,0-1.9
		c0-0.9,0-1.9-0.1-3c0-1.1-0.1-1.8-0.1-2.2c0-0.5-0.1-0.9-0.2-1.1c-0.1-0.3-0.3-0.5-0.5-0.6c-0.4-0.4-1-0.5-1.8-0.5h-0.5V562h8.9
		v0.4H149c-0.9,0-1.5,0.2-1.9,0.6c-0.4,0.4-0.6,1.1-0.6,1.9v3.8h7.6V565c0-0.9-0.2-1.5-0.6-1.9c-0.4-0.4-1.1-0.6-1.9-0.6h-0.3V562
		h8.9v0.4h-0.4c-0.9,0-1.5,0.2-1.9,0.6s-0.6,1.1-0.6,1.9v8.2c0,0.9,0.2,1.5,0.6,1.9c0.4,0.4,1.1,0.6,1.9,0.6h0.4v0.4h-8.9v-0.4h0.3
		c0.9,0,1.5-0.2,1.9-0.6c0.4-0.4,0.6-1.1,0.6-1.9v-4h-7.6v4c0,0.9,0.2,1.5,0.6,1.9c0.4,0.4,1.1,0.6,1.9,0.6h0.3v0.4h-8.9V575.7z"/>
	<path d="M162.2,575.7h0.4c0.9,0,1.5-0.2,1.9-0.6c0.4-0.4,0.6-1.1,0.6-1.9c0.1-0.4,0.1-0.7,0.1-1s0-0.6,0.1-1c0-0.4,0-0.8,0-1.4
		c0-2.3-0.1-4-0.2-5.2c0-0.5-0.1-0.8-0.2-1.1c-0.1-0.3-0.3-0.5-0.5-0.7c-0.4-0.4-1-0.5-1.8-0.5h-0.4V562h8.9v0.4h-0.4
		c-0.9,0-1.5,0.2-1.9,0.6c-0.4,0.4-0.6,1.1-0.6,1.9v8.2c0,0.9,0.2,1.5,0.6,1.9c0.4,0.4,1.1,0.6,1.9,0.6h0.4v0.4h-8.9V575.7z"/>
	<path d="M173.2,562h9.7v0.4h-1c-0.9,0-1.5,0.2-1.9,0.6c-0.4,0.4-0.6,1.1-0.6,1.9v10.8h3.7c0.7,0,1.4-0.2,2-0.5
		c0.6-0.3,1.2-0.8,1.7-1.3c0.3-0.4,0.5-0.7,0.8-1.1c0.2-0.4,0.4-0.8,0.6-1.3c0.2-0.5,0.4-1.1,0.6-1.7h0.4v6.2h-15.8l0-0.4h0.5
		c1.7,0,2.6-0.9,2.6-2.6V565c0-1.7-0.9-2.6-2.6-2.6h-0.5V562z"/>
	<path d="M200.1,561.7c1.3,0,2.5,0.2,3.6,0.6c1.1,0.4,2.1,1,2.9,1.8c0.7,0.7,1.2,1.5,1.6,2.3c0.4,0.8,0.6,1.7,0.6,2.6
		c0,1.3-0.4,2.5-1.1,3.7c-0.8,1.1-1.8,2-3.1,2.7c-1.3,0.7-2.7,1-4.3,1c-1.2,0-2.3-0.2-3.3-0.6c-1-0.4-2-0.9-2.7-1.6
		c-0.8-0.7-1.4-1.5-1.9-2.4c-0.4-0.9-0.7-1.8-0.7-2.8c0-1.3,0.4-2.5,1.1-3.7c0.8-1.1,1.8-2,3.1-2.7
		C197.2,562.1,198.6,561.7,200.1,561.7z M200.4,562.1c-0.6,0-1.2,0.1-1.7,0.3c-0.5,0.2-1,0.5-1.4,0.9c-0.4,0.4-0.8,0.9-1,1.5
		c-0.3,0.6-0.5,1.2-0.6,1.9c-0.1,0.7-0.2,1.5-0.2,2.3c0,1,0.1,2,0.3,2.8c0.2,0.9,0.6,1.6,1,2.2s0.9,1.1,1.6,1.4
		c0.6,0.3,1.3,0.5,2,0.5c1,0,1.9-0.3,2.6-0.9c0.7-0.6,1.3-1.4,1.7-2.4c0.4-1.1,0.6-2.3,0.6-3.8c0-0.9-0.1-1.8-0.3-2.6
		c-0.2-0.8-0.5-1.5-0.9-2.1c-0.4-0.6-0.9-1.1-1.5-1.4c-0.3-0.2-0.6-0.3-1-0.5C201.1,562.2,200.7,562.1,200.4,562.1z"/>
	<path d="M224.7,562.3h0.4v4.8h-0.4c-0.4-1.2-0.9-2.1-1.5-2.7c-0.4-0.5-0.9-0.9-1.5-1.2c-0.6-0.3-1.3-0.6-2-0.8s-1.5-0.3-2.2-0.3
		c-0.6,0-1.1,0.1-1.5,0.2c-0.4,0.2-0.8,0.4-1.1,0.7c-0.2,0.2-0.4,0.5-0.5,0.7c-0.1,0.3-0.2,0.5-0.2,0.8c0,0.5,0.2,0.9,0.5,1.2
		c0.2,0.2,0.4,0.3,0.7,0.5c0.3,0.2,0.7,0.3,1.2,0.5c0.5,0.1,1.2,0.3,2.1,0.5c0.2,0.1,0.4,0.1,0.5,0.1l0.5,0.1l0.8,0.2
		c1.3,0.3,2.3,0.6,2.9,0.9c0.6,0.3,1.1,0.6,1.6,1c0.3,0.3,0.6,0.7,0.8,1.1c0.2,0.4,0.3,0.9,0.3,1.4c0,0.5-0.1,1-0.3,1.5
		c-0.2,0.5-0.5,0.9-0.9,1.3c-0.5,0.5-1.1,0.9-1.8,1.2c-0.7,0.3-1.6,0.4-2.5,0.4c-0.7,0-1.3-0.1-1.9-0.2c-0.6-0.1-1.3-0.4-2.1-0.7
		c-0.5-0.2-1-0.4-1.2-0.4c-0.3-0.1-0.6-0.1-0.8-0.1c-0.5,0-0.9,0.1-1.2,0.4c-0.3,0.3-0.6,0.6-0.7,1.1h-0.4v-6.5h0.4
		c0.1,1.2,0.6,2.2,1.4,3.2c0.5,0.6,1.1,1.1,1.8,1.5c0.7,0.5,1.5,0.8,2.3,1.1c0.8,0.3,1.6,0.4,2.3,0.4c0.7,0,1.3-0.1,1.8-0.3
		c0.5-0.2,1-0.5,1.3-0.9c0.3-0.4,0.5-0.8,0.5-1.3c0-0.5-0.2-1-0.6-1.4c-0.2-0.2-0.4-0.3-0.7-0.5c-0.3-0.2-0.7-0.3-1.2-0.5
		s-1.1-0.4-2-0.6l-1-0.3c-1.6-0.4-2.7-0.8-3.3-1c-0.7-0.2-1.2-0.5-1.6-0.7s-0.7-0.6-1-0.9c-0.4-0.5-0.6-1.1-0.6-1.8
		c0-0.8,0.2-1.5,0.7-2.1c0.5-0.6,1.1-1.1,2-1.5c0.8-0.3,1.8-0.5,2.8-0.5c1.5,0,3.1,0.4,4.8,1.3c0.6,0.3,1,0.4,1.2,0.4
		C224.1,563.5,224.5,563.1,224.7,562.3z"/>
	<path d="M237.3,561.7c1.3,0,2.5,0.2,3.6,0.6c1.1,0.4,2.1,1,2.9,1.8c0.7,0.7,1.2,1.5,1.6,2.3c0.4,0.8,0.6,1.7,0.6,2.6
		c0,1.3-0.4,2.5-1.1,3.7c-0.8,1.1-1.8,2-3.1,2.7c-1.3,0.7-2.7,1-4.3,1c-1.2,0-2.3-0.2-3.3-0.6c-1-0.4-2-0.9-2.7-1.6
		c-0.8-0.7-1.4-1.5-1.8-2.4s-0.7-1.8-0.7-2.8c0-1.3,0.4-2.5,1.1-3.7c0.8-1.1,1.8-2,3.1-2.7S235.8,561.7,237.3,561.7z M237.6,562.1
		c-0.6,0-1.2,0.1-1.7,0.3c-0.5,0.2-1,0.5-1.4,0.9c-0.4,0.4-0.8,0.9-1,1.5c-0.3,0.6-0.5,1.2-0.6,1.9s-0.2,1.5-0.2,2.3
		c0,1,0.1,2,0.3,2.8c0.2,0.9,0.6,1.6,1,2.2s0.9,1.1,1.6,1.4s1.3,0.5,2,0.5c1,0,1.9-0.3,2.6-0.9c0.7-0.6,1.3-1.4,1.7-2.4
		s0.6-2.3,0.6-3.8c0-0.9-0.1-1.8-0.3-2.6c-0.2-0.8-0.5-1.5-0.9-2.1s-0.9-1.1-1.5-1.4c-0.3-0.2-0.6-0.3-1-0.5
		C238.3,562.2,237.9,562.1,237.6,562.1z"/>
	<path d="M248.3,562h8.5c0.5,0,1,0,1.6,0.1c0.6,0,1.1,0.1,1.6,0.1c0.5,0.1,0.9,0.1,1.2,0.2c1.1,0.2,2,0.7,2.6,1.3
		c0.6,0.6,0.9,1.4,0.9,2.3c0,0.6-0.1,1.2-0.4,1.7c-0.3,0.5-0.7,0.9-1.3,1.2s-1.2,0.6-2,0.8c-0.8,0.2-1.7,0.3-2.7,0.3h-3.9v3.4
		c0,1.7,0.9,2.6,2.6,2.6h0.7v0.4h-9.3v-0.4h0.5c1.7,0,2.6-0.9,2.6-2.6V565c0-1.7-0.9-2.6-2.6-2.6h-0.5V562z M254.4,562.4v7h2.8
		c1.4,0,2.4-0.3,3.1-0.9c0.7-0.6,1-1.5,1-2.7c0-1.4-0.5-2.4-1.4-2.9c-0.3-0.2-0.7-0.3-1.2-0.4s-1-0.1-1.7-0.1H254.4z"/>
	<path d="M266.6,575.7h0.5c0.9,0,1.5-0.2,1.9-0.6c0.4-0.4,0.6-1.1,0.6-1.9c0.1-0.5,0.1-0.9,0.2-1.4c0-0.4,0-1.1,0-1.9
		c0-0.9,0-1.9-0.1-3c0-1.1-0.1-1.8-0.1-2.2c0-0.5-0.1-0.9-0.2-1.1c-0.1-0.3-0.3-0.5-0.5-0.6c-0.4-0.4-1-0.5-1.8-0.5h-0.5V562h8.9
		v0.4h-0.3c-0.9,0-1.5,0.2-1.9,0.6c-0.4,0.4-0.6,1.1-0.6,1.9v3.8h7.6V565c0-0.9-0.2-1.5-0.6-1.9c-0.4-0.4-1.1-0.6-1.9-0.6h-0.3V562
		h8.8v0.4h-0.4c-0.9,0-1.5,0.2-1.9,0.6s-0.6,1.1-0.6,1.9v8.2c0,0.9,0.2,1.5,0.6,1.9c0.4,0.4,1.1,0.6,1.9,0.6h0.4v0.4h-8.8v-0.4h0.3
		c0.9,0,1.5-0.2,1.9-0.6c0.4-0.4,0.6-1.1,0.6-1.9v-4h-7.6v4c0,0.9,0.2,1.5,0.6,1.9c0.4,0.4,1.1,0.6,1.9,0.6h0.3v0.4h-8.9V575.7z"/>
	<path d="M288.2,562h9.1v0.4h-1.1c-0.4,0-0.7,0.1-1,0.2c-0.2,0.2-0.4,0.4-0.4,0.7c0,0.1,0,0.3,0.1,0.4c0.1,0.1,0.3,0.4,0.6,0.9
		l3.5,4.8l3.2-4.1c0.4-0.5,0.6-1,0.6-1.4c0-0.4-0.2-0.8-0.6-1.1c-0.4-0.3-0.9-0.4-1.4-0.4H300V562h7.3v0.4c-0.5,0.1-0.9,0.1-1.3,0.3
		c-0.4,0.1-0.7,0.3-1.1,0.5c-0.3,0.2-0.7,0.5-1,0.8c-0.3,0.3-0.7,0.7-1,1.1l-3.6,4.7v3.4c0,0.9,0.2,1.5,0.6,1.9
		c0.4,0.4,1.1,0.6,1.9,0.6h1v0.4h-10.1v-0.4h1c0.9,0,1.5-0.2,1.9-0.6c0.4-0.4,0.6-1.1,0.6-1.9v-3l-4.2-5.8c-0.5-0.7-1.1-1.3-1.6-1.5
		s-1.2-0.4-2-0.4h-0.3V562z"/>
</g>
<g>
	<g>
		<g>
			<path fill="#BAAA5C" d="M237.2,607.8c4.6-3.1,10-5.2,15.6-6.5c5.6-1.4,11.5-1.9,17.3-1.7c5.7,0.1,11.5,1.1,17,2.9
				c5.3,1.9,10.6,4.3,15.7,6.8c5.3,2.4,10.6,4.9,16.7,6c2.9,0.6,6,0.8,9.2,0.6c3.1-0.3,6-1,8.8-2.1c5.6-2.2,10.4-5.4,14.8-8.8
				c4.3-3.5,8.2-7.7,10.2-12.8c0.8-2.5,1.1-5.3,0.4-7.9c-0.3-1.4-0.8-2.6-1.8-3.6c-0.8-1.1-2.2-2.1-3.6-2.6
				c-1.5-0.5-3.2-0.6-4.7-0.4c-1.5,0.3-3.1,0.6-4.4,1.4c-2.8,1.4-4.7,3.9-5.3,6.4c-0.6,2.6-0.1,5.3,0.8,7.8s2.8,4.7,5,6.5
				c1.1,0.8,2.4,1.7,3.9,2.1c1.5,0.4,2.9,0.8,4.4,0.8c3.1,0.3,6-0.3,8.8-1c5.7-1.7,10.9-4.3,16.2-6.1c2.6-1,5.6-1.8,8.4-2.1
				c2.9-0.3,5.9-0.3,8.7,0.4c2.8,0.7,5.4,2.1,7.5,3.6c2.2,1.8,4,3.6,5.6,5.9c1.7,2.2,2.9,4.4,4.3,6.7c0.6,1.1,1.1,2.4,1.9,3.5
				c0.4,1.1,1.5,2.2,1,3.9c-0.1,0.6,0.1,1.1,0.8,1.4c0.6,0.1,1.4-0.1,1.5-0.7c0.1-0.4-0.1-1-0.6-1.1c-1.8-0.7-1.9-2.1-2.5-3.2
				s-1.1-2.4-1.8-3.5c-1.4-2.4-2.6-4.6-4.3-6.8c-1.7-2.2-3.4-4.3-5.6-5.9c-2.2-1.8-4.9-3.1-7.7-3.9c-2.8-0.7-5.9-0.8-8.8-0.6
				c-2.9,0.3-5.9,1-8.5,2.1c-5.4,1.9-10.6,4.6-16.2,6c-2.8,0.7-5.7,1.1-8.5,0.8c-2.9-0.3-5.6-1.1-7.7-2.9c-2.1-1.7-3.6-3.9-4.6-6.1
				c-1-2.4-1.4-4.9-0.7-7.2c0.6-2.4,2.2-4.6,4.7-5.6c2.4-1,5.4-1.7,7.9-0.7c2.5,0.8,4,3.2,4.4,5.6c0.6,2.4,0.3,4.9-0.6,7.2
				c-1.8,4.7-5.7,8.5-9.9,12.1c-4.3,3.4-9,6.5-14.3,8.4c-2.6,1-5.4,1.7-8.2,1.8c-2.8,0.1-5.7,0-8.4-0.6c-5.6-1.1-10.7-3.5-15.9-5.9
				s-10.4-4.9-16-7c-5.6-1.9-11.8-2.9-17.7-3.1c-6-0.1-12.1,0.6-17.8,2.1c-5.7,1.5-11.3,3.9-15.9,7.2l0,0c-0.3,0.3-0.3,0.6-0.1,0.8
				C236.5,607.9,236.9,607.9,237.2,607.8"/>
		</g>
		<g>
			<path fill="#BAAA5C" d="M309.7,612c2.5,1.1,5.2,2.1,7.8,2.8c2.6,0.7,5.3,1.4,7.9,2.2c2.5,0.8,5,2.1,6.8,4
				c0.8,0.8,1.7,1.9,2.2,3.1c0.3,0.6,0.4,1.1,0.7,1.8c0.1,0.6,0.3,1.1-0.3,1.9c-0.4,0.6-0.3,1.1,0.3,1.7c0.6,0.4,1.5,0.3,1.9-0.3
				s0.3-1.1-0.3-1.7l0,0l0,0c-0.8-0.4-1.1-1-1.4-1.7c-0.1-0.6-0.4-1.1-0.7-1.8c-0.6-1.1-1.1-2.2-2.1-3.2c-1.7-1.9-4.2-3.5-6.7-4.6
				c-2.5-1-5.3-1.8-7.9-2.5c-2.6-0.7-5.2-1.7-7.5-2.8c-0.3-0.1-0.7-0.1-1,0.1C309.3,611.4,309.4,611.7,309.7,612
				C309.7,611.8,309.7,611.8,309.7,612L309.7,612z"/>
		</g>
		<g>
			<path fill="#BAAA5C" d="M336.3,621.4c0.3,0.3,0.4,0.4,0.7,0.4c0.1,0.1,0.4,0.1,0.6,0.3c0.4,0.1,0.8,0.3,1.7,0.1
				c0.1,0,0.1-0.1,0.1-0.1l0,0c-0.1-0.6-0.7-0.8-1.1-1c-0.3,0-0.6-0.1-0.8,0C336.9,621,336.6,621,336.3,621.4L336.3,621.4
				C336.3,621.3,336.3,621.4,336.3,621.4"/>
		</g>
		<g>
			<path fill="#BAAA5C" d="M237.4,599.7c4.6,3.1,10,5.2,15.6,6.5c5.6,1.4,11.5,1.9,17.3,1.7c5.7-0.1,11.5-1.1,17-2.9
				c5.3-1.9,10.6-4.3,15.7-6.8c5.3-2.4,10.6-4.9,16.7-6c2.9-0.6,6-0.8,9.2-0.6c3.1,0.3,6,1,8.8,2.1c5.6,2.2,10.4,5.4,14.8,8.8
				c4.3,3.5,8.2,7.7,10.2,12.8c0.8,2.5,1.1,5.3,0.4,7.9c-0.3,1.4-0.8,2.6-1.8,3.6c-0.8,1.1-2.2,2.1-3.6,2.6
				c-1.5,0.6-3.2,0.6-4.7,0.4c-1.5-0.3-3.1-0.6-4.4-1.4c-2.8-1.4-4.7-3.9-5.3-6.4c-0.6-2.6-0.1-5.3,0.8-7.8c1-2.5,2.8-4.7,5-6.5
				c1.1-0.8,2.4-1.7,3.9-2.1s2.9-0.8,4.4-0.8c3.1-0.3,6,0.3,8.8,1c5.7,1.7,10.9,4.3,16.2,6.1c2.6,1,5.6,1.8,8.4,2.1
				c2.9,0.3,5.9,0.3,8.7-0.4c2.8-0.7,5.4-2.1,7.5-3.6c2.2-1.8,4-3.6,5.6-5.9c1.7-2.2,2.9-4.4,4.3-6.7c0.6-1.1,1.1-2.4,1.9-3.5
				c0.4-1.1,1.5-2.2,1-3.9c-0.1-0.6,0.1-1.1,0.8-1.4c0.6-0.1,1.4,0.1,1.5,0.7c0.1,0.4-0.1,1-0.6,1.1c-1.8,0.7-1.9,2.1-2.5,3.2
				c-0.6,1.1-1.1,2.4-1.8,3.5c-1.4,2.4-2.6,4.6-4.3,6.8c-1.7,2.2-3.4,4.3-5.6,5.9c-2.2,1.8-4.9,3.1-7.7,3.9
				c-2.8,0.7-5.9,0.8-8.8,0.6c-2.9-0.3-5.9-1-8.5-2.1c-5.4-1.9-10.6-4.6-16.2-6c-2.8-0.7-5.7-1.1-8.5-0.8c-2.9,0.3-5.6,1.1-7.7,2.9
				c-2.1,1.7-3.6,3.9-4.6,6.1s-1.4,4.9-0.7,7.2c0.6,2.4,2.2,4.6,4.7,5.6c2.4,1,5.4,1.7,7.9,0.7c2.5-0.8,4-3.2,4.4-5.6
				c0.6-2.4,0.3-4.9-0.6-7.2c-1.8-4.7-5.7-8.5-9.9-12.1c-4.3-3.4-9-6.5-14.3-8.4c-2.6-1-5.4-1.7-8.2-1.8c-2.8-0.1-5.7,0-8.4,0.6
				c-5.6,1.1-10.7,3.5-15.9,5.9c-5.2,2.4-10.4,4.9-16,7c-5.6,1.9-11.7,2.9-17.7,3.1c-6,0.1-12.1-0.6-17.8-2.1
				c-5.7-1.5-11.3-3.9-15.9-7.2l0,0c-0.3-0.3-0.3-0.6-0.1-0.8C236.7,599.4,237.2,599.3,237.4,599.7"/>
		</g>
		<g>
			<path fill="#BAAA5C" d="M310.1,595.4c2.5-1.1,5.2-2.1,7.8-2.8c2.6-0.7,5.3-1.4,7.9-2.2c2.5-0.8,5-2.1,6.8-4
				c0.8-0.8,1.7-1.9,2.2-3.1c0.3-0.6,0.4-1.1,0.7-1.7c0.1-0.6,0.3-1.1-0.3-1.9c-0.4-0.6-0.3-1.1,0.3-1.7c0.6-0.4,1.5-0.3,1.9,0.3
				s0.3,1.1-0.3,1.7l0,0l0,0c-0.8,0.4-1.1,1-1.4,1.7c-0.1,0.6-0.4,1.1-0.7,1.8c-0.6,1.1-1.1,2.2-2.1,3.2c-1.7,1.9-4,3.5-6.7,4.6
				c-2.6,1-5.3,1.8-7.9,2.5c-2.6,0.7-5.2,1.7-7.5,2.8c-0.3,0.1-0.7,0.1-1-0.1C309.7,595.9,309.8,595.7,310.1,595.4L310.1,595.4
				L310.1,595.4z"/>
		</g>
		<g>
			<path fill="#BAAA5C" d="M336.7,585.9c0.3-0.3,0.4-0.3,0.7-0.4c0.1-0.1,0.4-0.1,0.6-0.3c0.4-0.1,0.8-0.3,1.7-0.1
				c0.1,0,0.1,0.1,0.1,0.1l0,0c-0.1,0.6-0.7,0.8-1.1,1c-0.3,0-0.6,0.1-0.8,0C337.4,586.3,337,586.2,336.7,585.9L336.7,585.9
				C336.7,586.1,336.7,585.9,336.7,585.9"/>
		</g>
	</g>
	<g>
		<g>
			<path fill="#BAAA5C" d="M193.1,607.8c-4.6-3.1-10-5.2-15.6-6.5c-5.6-1.4-11.5-1.9-17.3-1.7c-5.7,0.1-11.5,1.1-17,2.9
				c-5.3,1.9-10.6,4.3-15.7,6.8c-5.3,2.4-10.6,4.9-16.7,6c-2.9,0.6-6,0.8-9.2,0.6c-3.1-0.3-6-1-8.8-2.1c-5.6-2.2-10.4-5.4-14.8-8.8
				c-4.3-3.5-8.2-7.7-10.2-12.8c-0.8-2.5-1.1-5.3-0.4-7.9c0.3-1.4,0.8-2.6,1.8-3.6c0.8-1.1,2.2-2.1,3.6-2.6c1.5-0.6,3.2-0.6,4.7-0.4
				c1.5,0.3,3.1,0.6,4.4,1.4c2.8,1.4,4.7,3.9,5.3,6.4c0.6,2.6,0.1,5.3-0.8,7.8c-1,2.5-2.8,4.7-5,6.5c-1.1,0.8-2.4,1.7-3.9,2.1
				s-2.9,0.8-4.4,0.8c-3.1,0.3-6-0.3-8.8-1c-5.7-1.7-10.9-4.3-16.2-6.1c-2.6-1-5.6-1.8-8.4-2.1c-2.9-0.3-5.9-0.3-8.7,0.4
				c-2.8,0.7-5.4,2.1-7.5,3.6c-2.2,1.8-4,3.6-5.6,5.9c-1.7,2.2-2.9,4.4-4.3,6.7c-0.8,1.4-1.5,2.5-2.2,3.6c-0.4,1.1-1.5,2.2-1,3.9
				c0.1,0.6-0.1,1.1-0.8,1.4c-0.6,0.1-1.4-0.1-1.5-0.7c-0.1-0.4,0.1-1,0.6-1.1c1.8-0.7,1.9-2.1,2.5-3.2c0.6-1.1,1.1-2.4,1.8-3.5
				c1.4-2.4,2.6-4.6,4.3-6.8s3.4-4.3,5.6-5.9c2.2-1.8,4.9-3.1,7.7-3.9s5.9-0.8,8.8-0.6c2.9,0.2,5.9,1,8.5,2.1
				c5.4,1.9,10.6,4.6,16.2,6c2.8,0.7,5.7,1.1,8.5,0.8c2.9-0.3,5.6-1.1,7.7-2.9c2.1-1.7,3.6-3.9,4.6-6.1c1-2.4,1.4-4.9,0.7-7.2
				c-0.6-2.4-2.2-4.6-4.7-5.6c-2.4-1-5.4-1.7-7.9-0.7c-2.5,0.8-4,3.2-4.4,5.6c-0.6,2.4-0.3,4.9,0.6,7.2c1.8,4.7,5.7,8.5,9.9,12.1
				c4.3,3.4,9,6.5,14.3,8.4c2.6,1,5.4,1.7,8.2,1.8s5.7,0,8.4-0.6c5.6-1.1,10.7-3.5,15.9-5.9s10.4-4.9,16-7
				c5.6-1.9,11.7-2.9,17.7-3.1c6-0.2,12.1,0.6,17.8,2.1c5.7,1.5,11.3,3.9,15.9,7.2l0,0c0.3,0.3,0.3,0.6,0.1,0.8
				C193.8,607.9,193.4,607.9,193.1,607.8"/>
		</g>
		<g>
			<path fill="#BAAA5C" d="M120.6,612c-2.5,1.1-5.2,2.1-7.8,2.8s-5.3,1.4-7.9,2.2c-2.5,0.8-5,2.1-6.8,4c-0.8,0.8-1.7,1.9-2.2,3.1
				c-0.3,0.6-0.4,1.1-0.7,1.8c-0.1,0.6-0.3,1.1,0.3,1.9c0.4,0.6,0.3,1.1-0.3,1.7c-0.6,0.4-1.5,0.3-1.9-0.3s-0.3-1.1,0.3-1.7l0,0l0,0
				c0.8-0.4,1.1-1,1.4-1.7c0.1-0.6,0.4-1.1,0.7-1.8c0.6-1.1,1.1-2.2,2.1-3.2c1.7-1.9,4.2-3.5,6.7-4.6c2.6-1,5.3-1.8,7.9-2.5
				c2.6-0.7,5.2-1.7,7.5-2.8c0.3-0.1,0.7-0.1,1,0.1C121,611.4,120.9,611.7,120.6,612C120.6,611.8,120.6,611.8,120.6,612L120.6,612z"
				/>
		</g>
		<g>
			<path fill="#BAAA5C" d="M94,621.4c-0.3,0.3-0.4,0.4-0.7,0.4c-0.1,0.1-0.4,0.1-0.6,0.3c-0.4,0.1-0.8,0.3-1.7,0.1
				c-0.1,0-0.1-0.1-0.1-0.1l0,0c0.1-0.6,0.7-0.8,1.1-1c0.3,0,0.6-0.1,0.8,0C93.4,621,93.7,621,94,621.4L94,621.4
				C94,621.3,94,621.4,94,621.4"/>
		</g>
		<g>
			<path fill="#BAAA5C" d="M192.9,599.7c-4.6,3.1-10,5.2-15.6,6.5c-5.6,1.4-11.5,1.9-17.3,1.7c-5.7-0.1-11.5-1.1-17-2.9
				c-5.3-1.9-10.6-4.3-15.7-6.8c-5.3-2.4-10.6-4.9-16.7-6c-2.9-0.6-6-0.8-9.2-0.6s-6,1-8.8,2.1c-5.6,2.2-10.4,5.4-14.8,8.8
				c-4.3,3.5-8.2,7.7-10.2,12.8c-0.8,2.5-1.1,5.3-0.4,7.9c0.3,1.4,0.8,2.6,1.8,3.6c0.8,1.1,2.2,2.1,3.6,2.6c1.5,0.6,3.2,0.6,4.7,0.4
				c1.5-0.3,3.1-0.6,4.4-1.4c2.8-1.4,4.7-3.9,5.3-6.4c0.6-2.6,0.1-5.3-0.8-7.8c-1-2.5-2.8-4.7-5-6.5c-1.1-0.8-2.4-1.7-3.9-2.1
				s-2.9-0.7-4.4-0.8c-3.1-0.3-6,0.3-8.8,1c-5.7,1.7-10.9,4.3-16.2,6.1c-2.6,1-5.6,1.8-8.4,2.1c-2.9,0.3-5.9,0.3-8.7-0.4
				s-5.4-2.1-7.5-3.6c-2.2-1.8-4-3.6-5.6-5.9c-1.7-2.2-2.9-4.4-4.3-6.7c-0.6-1.1-1.1-2.4-1.9-3.5c-0.4-1.1-1.5-2.2-1-3.9
				c0.1-0.6-0.1-1.1-0.8-1.4c-0.6-0.1-1.4,0.1-1.5,0.7c-0.1,0.4,0.1,1,0.6,1.1c1.8,0.7,1.9,2.1,2.5,3.2c0.6,1.1,1.1,2.4,1.8,3.5
				c1.4,2.4,2.6,4.6,4.3,6.8c1.7,2.2,3.4,4.3,5.6,5.9c2.2,1.8,4.9,3.1,7.7,3.9s5.9,0.8,8.8,0.6c2.9-0.2,5.9-1,8.5-2.1
				c5.4-1.9,10.6-4.6,16.2-6c2.8-0.7,5.7-1.1,8.5-0.8c2.9,0.3,5.6,1.1,7.7,2.9c2.1,1.7,3.6,3.9,4.6,6.1s1.4,4.9,0.7,7.2
				c-0.6,2.4-2.2,4.6-4.7,5.6c-2.4,1-5.4,1.7-7.9,0.7c-2.5-0.8-4-3.2-4.4-5.6c-0.6-2.4-0.3-4.9,0.6-7.2c1.8-4.7,5.7-8.5,9.9-12.1
				c4.3-3.4,9-6.5,14.3-8.4c2.6-1,5.4-1.7,8.2-1.8c2.8-0.1,5.7,0,8.4,0.6c5.6,1.1,10.7,3.5,15.9,5.9c5.2,2.4,10.4,4.9,16,7
				c5.6,1.9,11.7,2.9,17.7,3.1c6,0.1,12.1-0.6,17.8-2.1c5.7-1.5,11.3-3.9,15.9-7.2l0,0c0.3-0.3,0.3-0.6,0.1-0.8
				C193.6,599.4,193.1,599.3,192.9,599.7"/>
		</g>
		<g>
			<path fill="#BAAA5C" d="M120.2,595.4c-2.5-1.1-5.2-2.1-7.8-2.8c-2.6-0.7-5.3-1.4-7.9-2.2c-2.5-0.8-5-2.1-6.8-4
				c-0.8-0.8-1.7-1.9-2.2-3.1c-0.3-0.6-0.4-1.1-0.7-1.7c-0.1-0.6-0.3-1.1,0.3-1.9c0.4-0.6,0.3-1.1-0.3-1.7c-0.6-0.4-1.5-0.3-1.9,0.3
				s-0.3,1.1,0.3,1.7l0,0l0,0c0.8,0.4,1.1,1,1.4,1.7c0.1,0.6,0.4,1.1,0.7,1.8c0.6,1.1,1.1,2.2,2.1,3.2c1.7,1.9,4,3.5,6.7,4.6
				c2.5,1,5.3,1.8,7.9,2.5c2.6,0.7,5.2,1.7,7.5,2.8c0.3,0.1,0.7,0.1,1-0.1C120.6,595.9,120.5,595.7,120.2,595.4L120.2,595.4
				L120.2,595.4z"/>
		</g>
		<g>
			<path fill="#BAAA5C" d="M93.6,585.9c-0.3-0.3-0.4-0.3-0.7-0.4c-0.1-0.1-0.4-0.1-0.6-0.3c-0.4-0.1-0.8-0.3-1.7-0.1
				c-0.1,0-0.1,0.1-0.1,0.1l0,0c0.1,0.6,0.7,0.8,1.1,1c0.3,0,0.6,0.1,0.8,0C92.9,586.3,93.2,586.2,93.6,585.9L93.6,585.9
				C93.6,586.1,93.6,585.9,93.6,585.9"/>
		</g>
	</g>
</g>
</svg>
