<?xml version="1.0" encoding="utf-8"?>
<!-- Generator: Adobe Illustrator 18.0.0, SVG Export Plug-In . SVG Version: 6.00 Build 0)  -->
<!DOCTYPE svg PUBLIC "-//W3C//DTD SVG 1.1//EN" "http://www.w3.org/Graphics/SVG/1.1/DTD/svg11.dtd">
<svg version="1.1" id="Layer_1" xmlns="http://www.w3.org/2000/svg" xmlns:xlink="http://www.w3.org/1999/xlink" x="0px" y="0px"
	 viewBox="0 0 147.1 50" enable-background="new 0 0 147.1 50" xml:space="preserve">
<g>
	<path d="M25,6.7H33c0.5,0,1,0,1.5,0c0.6,0,1.1,0.1,1.5,0.1c0.4,0,0.8,0.1,1.1,0.2c1,0.2,1.8,0.6,2.4,1.2c0.6,0.6,0.8,1.3,0.8,2.1
		c0,0.6-0.1,1.1-0.4,1.6c-0.3,0.5-0.7,0.8-1.2,1.2c-0.5,0.3-1.1,0.6-1.9,0.7S35.3,14,34.3,14h-3.6v3.2c0,1.6,0.8,2.4,2.4,2.4h0.7V20
		H25v-0.4h0.5c1.6,0,2.4-0.8,2.4-2.4V9.5c0-1.6-0.8-2.4-2.4-2.4H25V6.7z M30.7,7v6.6h2.6c1.3,0,2.3-0.3,2.9-0.8
		c0.6-0.5,0.9-1.4,0.9-2.5c0-1.3-0.4-2.2-1.3-2.8c-0.3-0.2-0.7-0.3-1.1-0.4S33.9,7,33.2,7H30.7z"/>
	<path d="M43.2,19.6h0.4c0.8,0,1.4-0.2,1.8-0.6s0.6-1,0.6-1.8c0-0.4,0-0.9,0-1.3s0-1,0-1.9c0-0.8,0-1.8,0-2.8s0-1.7,0-2.1
		c-0.1-0.4-0.1-0.7-0.2-1c-0.1-0.2-0.3-0.4-0.5-0.6c-0.4-0.3-1-0.5-1.7-0.5h-0.5V6.7h8.4V7h-0.3c-0.8,0-1.4,0.2-1.8,0.6
		c-0.4,0.4-0.6,1-0.6,1.8V13h7.1V9.5c0-0.8-0.2-1.4-0.6-1.8S54.4,7,53.5,7h-0.3V6.7h8.3V7h-0.4c-0.8,0-1.4,0.2-1.8,0.6
		c-0.4,0.4-0.6,1-0.6,1.8v7.7c0,0.8,0.2,1.4,0.6,1.8s1,0.6,1.8,0.6h0.4V20h-8.3v-0.4h0.3c0.8,0,1.4-0.2,1.8-0.6s0.6-1,0.6-1.8v-3.8
		h-7.1v3.8c0,0.8,0.2,1.4,0.6,1.8s1,0.6,1.8,0.6h0.3V20h-8.3V19.6z"/>
	<path d="M72.8,6.4c1.2,0,2.4,0.2,3.4,0.6c1,0.4,1.9,1,2.7,1.7c0.6,0.6,1.1,1.4,1.5,2.2c0.3,0.8,0.5,1.6,0.5,2.4
		c0,1.2-0.4,2.4-1.1,3.4c-0.7,1.1-1.7,1.9-2.9,2.5c-1.2,0.6-2.5,0.9-4,0.9c-1.1,0-2.1-0.2-3.1-0.5s-1.8-0.8-2.6-1.5
		c-0.7-0.6-1.3-1.4-1.7-2.2c-0.4-0.8-0.6-1.7-0.6-2.7c0-1.2,0.4-2.4,1.1-3.4c0.7-1.1,1.7-1.9,2.9-2.5S71.4,6.4,72.8,6.4z M73.1,6.8
		c-0.6,0-1.1,0.1-1.6,0.3c-0.5,0.2-0.9,0.5-1.3,0.8c-0.4,0.4-0.7,0.9-1,1.4c-0.3,0.5-0.5,1.2-0.6,1.8c-0.1,0.7-0.2,1.4-0.2,2.2
		c0,1,0.1,1.9,0.3,2.7c0.2,0.8,0.5,1.5,0.9,2.1c0.4,0.6,0.9,1,1.5,1.3c0.6,0.3,1.2,0.5,1.9,0.5c0.9,0,1.8-0.3,2.4-0.8
		s1.2-1.3,1.6-2.3s0.6-2.2,0.6-3.5c0-0.9-0.1-1.7-0.3-2.5c-0.2-0.8-0.5-1.4-0.9-2c-0.4-0.6-0.8-1-1.4-1.4c-0.3-0.2-0.6-0.3-0.9-0.4
		C73.7,6.8,73.4,6.8,73.1,6.8z"/>
	<path d="M84.5,6.7h15.6v6.7l-0.3,0c-0.2-1.7-0.7-3.1-1.5-4.3c-1-1.4-2.3-2.1-3.9-2.1h-0.7v10.1c0,1.6,0.8,2.4,2.4,2.4h2V20H86.5
		v-0.4h2c1.6,0,2.4-0.8,2.4-2.4V7H90c-1.6,0-2.9,0.7-3.9,2.2c-0.5,0.7-0.9,1.6-1.1,2.6c-0.1,0.3-0.2,0.9-0.2,1.6h-0.3V6.7z"/>
	<path d="M111.6,6.4c1.2,0,2.4,0.2,3.4,0.6c1,0.4,1.9,1,2.7,1.7c0.6,0.6,1.1,1.4,1.5,2.2c0.3,0.8,0.5,1.6,0.5,2.4
		c0,1.2-0.4,2.4-1.1,3.4c-0.7,1.1-1.7,1.9-2.9,2.5c-1.2,0.6-2.5,0.9-4,0.9c-1.1,0-2.1-0.2-3.1-0.5s-1.8-0.8-2.6-1.5
		c-0.7-0.6-1.3-1.4-1.7-2.2c-0.4-0.8-0.6-1.7-0.6-2.7c0-1.2,0.4-2.4,1.1-3.4c0.7-1.1,1.7-1.9,2.9-2.5S110.2,6.4,111.6,6.4z
		 M111.8,6.8c-0.6,0-1.1,0.1-1.6,0.3c-0.5,0.2-0.9,0.5-1.3,0.8c-0.4,0.4-0.7,0.9-1,1.4c-0.3,0.5-0.5,1.2-0.6,1.8
		c-0.1,0.7-0.2,1.4-0.2,2.2c0,1,0.1,1.9,0.3,2.7c0.2,0.8,0.5,1.5,0.9,2.1c0.4,0.6,0.9,1,1.5,1.3c0.6,0.3,1.2,0.5,1.9,0.5
		c0.9,0,1.8-0.3,2.4-0.8s1.2-1.3,1.6-2.3s0.6-2.2,0.6-3.5c0-0.9-0.1-1.7-0.3-2.5c-0.2-0.8-0.5-1.4-0.9-2c-0.4-0.6-0.8-1-1.4-1.4
		c-0.3-0.2-0.6-0.3-0.9-0.4C112.5,6.8,112.1,6.8,111.8,6.8z"/>
	<path d="M23.2,30.1h0.4l0.1,5.7h-0.3c-0.2-0.7-0.4-1.2-0.6-1.6c-0.2-0.4-0.4-0.8-0.6-1.1c-0.6-0.9-1.4-1.6-2.4-2.1
		c-0.9-0.5-1.9-0.8-2.9-0.8c-0.5,0-1,0.1-1.5,0.3c-0.5,0.2-0.9,0.4-1.2,0.8c-0.5,0.5-0.9,1.3-1.1,2.2s-0.4,2.1-0.4,3.6
		c0,0.4,0,0.9,0.1,1.3s0.1,0.8,0.2,1.1c0.1,0.3,0.1,0.7,0.2,1s0.2,0.6,0.3,0.8c0.2,0.3,0.4,0.6,0.7,0.9c0.2,0.2,0.5,0.5,0.9,0.6
		s0.7,0.3,1.1,0.4s0.8,0.1,1.2,0.1c0.5,0,1.1-0.1,1.6-0.2c0.5-0.1,1-0.3,1.3-0.5c0.6-0.4,0.9-1,0.9-1.7v-0.7c0-1.6-0.8-2.4-2.4-2.4
		h-1.1v-0.4h9.1v0.4h-0.3c-0.8,0-1.4,0.2-1.8,0.6c-0.4,0.4-0.6,1-0.6,1.8v3.1h-0.4c-0.3-0.3-0.5-0.4-0.7-0.5
		c-0.2-0.1-0.5-0.1-0.8-0.1c-0.3,0-0.5,0-0.8,0.1c-0.2,0.1-0.6,0.2-1,0.3c-0.7,0.2-1.2,0.4-1.6,0.5c-0.4,0.1-0.9,0.1-1.5,0.1
		c-1.1,0-2.2-0.2-3.1-0.5c-1-0.3-1.8-0.8-2.5-1.4c-0.7-0.6-1.3-1.3-1.7-2.2c-0.4-0.8-0.6-1.7-0.6-2.7c0-0.6,0.1-1.2,0.2-1.7
		c0.2-0.6,0.4-1.1,0.7-1.6c0.3-0.5,0.6-0.9,1.1-1.4c0.5-0.5,1-0.9,1.6-1.2c0.6-0.3,1.2-0.6,1.9-0.8c0.7-0.2,1.3-0.3,2-0.3
		s1.3,0.1,1.9,0.3c0.6,0.2,1.3,0.4,2.1,0.8c0.6,0.3,1,0.4,1.2,0.4c0.2,0,0.5-0.1,0.7-0.3C22.7,30.8,22.9,30.5,23.2,30.1z"/>
	<path d="M36.7,29.8H37l5.3,11.6c0.2,0.4,0.4,0.7,0.6,0.9s0.5,0.4,0.7,0.5c0.3,0.1,0.6,0.2,0.9,0.2h0.4v0.4h-7.7v-0.4h1
		c0.5,0,0.9-0.1,1.1-0.2c0.2-0.1,0.3-0.3,0.3-0.6c0-0.2,0-0.4-0.1-0.6c-0.1-0.3-0.3-0.7-0.6-1.4c0,0,0-0.1-0.1-0.2
		c0-0.1-0.1-0.2-0.1-0.3l-0.2-0.5h-5.6l-0.4,1c-0.1,0.3-0.2,0.7-0.2,1c0,0.3,0.1,0.6,0.2,0.9c0.2,0.3,0.4,0.5,0.6,0.6
		c0.2,0.1,0.3,0.2,0.5,0.2c0.1,0,0.3,0.1,0.6,0.1v0.4h-5.4v-0.4c0.4,0,0.7-0.1,0.9-0.2c0.2-0.1,0.5-0.3,0.8-0.5
		c0.7-0.5,1.3-1.5,2-2.9L36.7,29.8z M35.7,32.9l-2.6,5.9h5.3L35.7,32.9z"/>
	<path d="M47.5,30h9.1v0.4h-1c-0.8,0-1.4,0.2-1.8,0.6s-0.6,1-0.6,1.8v10.2h3.4c0.7,0,1.3-0.2,1.9-0.5c0.6-0.3,1.1-0.7,1.6-1.3
		c0.3-0.3,0.5-0.7,0.7-1c0.2-0.3,0.4-0.7,0.6-1.2c0.2-0.5,0.4-1,0.5-1.6h0.4v5.9H47.5l0-0.4H48c1.6,0,2.4-0.8,2.4-2.4v-7.7
		c0-1.6-0.8-2.4-2.4-2.4h-0.5V30z"/>
	<path d="M65.1,30h9.1v0.4h-1c-0.8,0-1.4,0.2-1.8,0.6s-0.6,1-0.6,1.8v10.2h3.4c0.7,0,1.3-0.2,1.9-0.5c0.6-0.3,1.1-0.7,1.6-1.3
		c0.3-0.3,0.5-0.7,0.7-1c0.2-0.3,0.4-0.7,0.6-1.2c0.2-0.5,0.4-1,0.5-1.6h0.4v5.9H65.1l0-0.4h0.5c1.6,0,2.4-0.8,2.4-2.4v-7.7
		c0-1.6-0.8-2.4-2.4-2.4h-0.5V30z"/>
	<path d="M82.7,30h14.1v5.1h-0.3c-0.3-0.9-0.5-1.6-0.7-2s-0.5-0.9-0.8-1.3c-0.4-0.5-0.8-0.8-1.3-1c-0.8-0.3-1.7-0.5-2.8-0.5h-2.6
		v6.3H89c1,0,1.9-0.4,2.5-1.3c0.3-0.5,0.6-1,0.7-1.7c0.1-0.3,0.1-0.7,0.2-1.2h0.3v8.7h-0.3c-0.1-0.5-0.2-0.9-0.3-1.3
		c-0.1-0.4-0.2-0.8-0.4-1s-0.3-0.5-0.5-0.8c-0.6-0.7-1.4-1.1-2.4-1.1h-0.6v5.9h2.2c0.6,0,1.2,0,1.7-0.1c0.5-0.1,1-0.2,1.4-0.4
		c0.4-0.2,0.8-0.4,1.2-0.8c0.6-0.5,1.1-1.2,1.4-2c0.2-0.4,0.4-1.1,0.6-1.8h0.4v5.5H82.7l0-0.4h0.4c1.6,0,2.4-0.8,2.4-2.4v-7.7
		c0-0.8-0.2-1.4-0.6-1.8s-1-0.6-1.8-0.6h-0.4V30z"/>
	<path d="M109.2,36.8h-3v3.7c0,0.8,0.2,1.4,0.6,1.8c0.4,0.4,1,0.6,1.8,0.6h0.4v0.4h-8.4v-0.4h0.4c0.8,0,1.4-0.2,1.8-0.6
		s0.6-1,0.6-1.8v-7.7c0-0.8-0.2-1.4-0.6-1.8s-1-0.6-1.8-0.6h-0.4V30H111c1.4,0,2.5,0.1,3.3,0.3c0.8,0.2,1.5,0.5,1.9,1
		c0.3,0.3,0.5,0.6,0.7,1s0.2,0.7,0.2,1.1c0,1-0.5,1.8-1.6,2.4c-0.4,0.2-0.9,0.4-1.6,0.6c-0.7,0.2-1.3,0.3-2,0.3
		c-0.5,0-1.3,0.1-2.3,0.1v0c0.5,0.3,1,0.6,1.4,0.8c0.4,0.2,0.8,0.4,1.2,0.5c0.4,0.1,0.9,0.3,1.4,0.4l0.3,0.5
		c0.2,0.3,0.4,0.5,0.5,0.7c0.1,0.2,0.2,0.3,0.4,0.5c0.4,0.5,0.7,1,1,1.4c0.3,0.4,0.6,0.7,0.8,0.8c0.4,0.3,1,0.4,1.8,0.4h0.4v0.4h-5
		L109.2,36.8z M106.3,36.5h3.8c0.9,0,1.6-0.1,2.2-0.3c0.6-0.2,1-0.6,1.3-1c0.3-0.4,0.4-1,0.4-1.7c0-2-1.3-3-3.8-3h-3.8V36.5z"/>
	<path d="M119.7,30h8.5v0.3h-1c-0.4,0-0.7,0.1-0.9,0.2c-0.2,0.1-0.3,0.4-0.3,0.6c0,0.1,0,0.3,0.1,0.4s0.2,0.4,0.6,0.9l3.3,4.5l3-3.9
		c0.4-0.5,0.6-0.9,0.6-1.3c0-0.4-0.2-0.8-0.5-1c-0.3-0.3-0.8-0.4-1.4-0.4h-0.9V30h6.8v0.3c-0.4,0.1-0.9,0.1-1.2,0.3
		c-0.4,0.1-0.7,0.3-1,0.5c-0.3,0.2-0.6,0.4-0.9,0.8c-0.3,0.3-0.6,0.7-0.9,1.1l-3.3,4.4v3.2c0,0.8,0.2,1.4,0.6,1.8
		c0.4,0.4,1,0.6,1.8,0.6h0.9v0.4h-9.4v-0.4h0.9c0.8,0,1.4-0.2,1.8-0.6s0.6-1,0.6-1.8v-2.9l-4-5.4c-0.5-0.7-1-1.2-1.5-1.4
		s-1.1-0.4-1.9-0.4h-0.2V30z"/>
</g>
</svg>
