<?xml version="1.0" encoding="utf-8"?>
<!-- Generator: Adobe Illustrator 18.0.0, SVG Export Plug-In . SVG Version: 6.00 Build 0)  -->
<!DOCTYPE svg PUBLIC "-//W3C//DTD SVG 1.1//EN" "http://www.w3.org/Graphics/SVG/1.1/DTD/svg11.dtd">
<svg version="1.1" id="Layer_1" xmlns="http://www.w3.org/2000/svg" xmlns:xlink="http://www.w3.org/1999/xlink" x="0px" y="0px"
	 viewBox="394 277.3 453 164.7" enable-background="new 394 277.3 453 164.7" xml:space="preserve">
<g>
	<g>
		<g>
			<path fill="#BAAA5C" d="M409.4,356.5c-2.8,0.5-5.4-1.3-5.9-4c-0.5-2.7,1.4-5.3,4.2-5.8c2.8-0.5,5.4,1.3,5.9,4
				C414,353.4,412.2,356,409.4,356.5z"/>
		</g>
	</g>
	<g>
		<g>
			<path fill="#BAAA5C" d="M498.9,378.6c-2.8,0.5-5.4-1.3-5.9-4c-0.5-2.7,1.4-5.3,4.2-5.8c2.8-0.5,5.4,1.3,5.9,4
				C503.5,375.5,501.7,378.1,498.9,378.6z"/>
		</g>
	</g>
	<g>
		<g>
			<path fill="#BAAA5C" d="M480.3,417.6c-2.8-0.1-5-2.4-4.9-5.2c0.1-2.7,2.5-4.9,5.4-4.8c2.8,0.1,5,2.4,4.9,5.2
				C485.5,415.6,483.1,417.8,480.3,417.6z"/>
		</g>
	</g>
	<g>
		<g>
			<path fill="#BAAA5C" d="M481,412.7c-0.9-0.2-1.8,0.4-2,1.3c-4.1,17.6-19.1,21-36.2,17.3c-15.1-3.4-24.3-20.5-20.5-37.3
				c1.4-6.3,4.7-12.6,10.2-18.1c14.2-14.2,34.6-12.2,45.2-9.8c4.2,1,6.8,1.9,6.8,1.9c0,0.1,6.9,2.3,14.2,8.1
				c0.2-1.2,0.5-2.3,0.8-3.4c-7.3-5.5-13.8-7.8-13.9-7.8c0,0-2.7-1-7.2-2c-11-2.5-32.7-4.8-48.3,10.7c-6,5.9-9.5,12.8-11.1,19.7
				c-4.1,18.4,5.7,37.4,23,41.3c17.7,4,35.7,0.1,40.2-19.8C482.5,413.8,481.9,412.9,481,412.7z"/>
		</g>
	</g>
	<g>
		<g>
			<path fill="#BAAA5C" d="M430.3,377.8c-0.1,0-9.3,3.7-18.2,1.8l0,0c-4.3-1-8.6-3.3-11.3-8.1l0,0c-2.7-4.6-3.3-8.5-2.6-11.7l0,0
				c1.6-6.7,8-9.1,8.2-9.2l0,0c0.8-0.3,1.8,0.1,2.2,0.9l0,0c0.3,0.9-0.1,1.8-0.9,2.2l0,0c0,0-1.3,0.6-2.7,1.7l0,0
				c-1.4,1.1-3,2.8-3.5,5.2l0,0c-0.5,2.2-0.2,5.2,2.2,9.3l0,0c2.3,3.9,5.6,5.7,9.2,6.5l0,0c7.6,1.8,16.3-1.6,16.3-1.6l0,0l0,0
				c0.9-0.3,1.8,0.1,2.1,0.9l0,0c0.1,0.3,0.2,0.7,0.1,1l0,0C431.2,377.2,430.9,377.6,430.3,377.8L430.3,377.8z"/>
		</g>
		<g>
			<path fill="#BAAA5C" d="M430.4,376.4c0-0.1,0-0.3,0-0.4l0,0c-0.1-0.2-0.3-0.4-0.5-0.4l0,0c-0.1,0-0.2,0-0.4,0l0,0
				c-0.3,0.1-0.2,0.1-0.5,0.2l0,0c-0.3,0.1-0.7,0.2-1.1,0.4l0,0c-1,0.3-2.3,0.7-3.9,1l0,0c-3.2,0.6-7.3,1-11.3,0.2l0,0
				c-0.1,0-0.2,0-0.1,0l0,0c-3.8-0.9-7.4-2.9-9.8-7l0,0c-2.5-4.2-2.9-7.5-2.3-9.8l0,0c0-0.1,0-0.2,0-0.2l0,0l0-0.1l0,0
				c0.6-2.6,2.3-4.4,3.8-5.6l0,0c1-0.8,2-1.3,2.5-1.6l0,0l0-0.1l0.5-0.2c0.2-0.1,0.4-0.3,0.4-0.5l0,0c0-0.1,0-0.3,0-0.4l0,0
				c-0.1-0.2-0.3-0.4-0.5-0.4l0,0c-0.1,0-0.3,0-0.2-0.1l0,0c-0.5,0.3-0.6,0.3-1.3,0.7l0,0c-0.6,0.3-1.4,0.8-2.3,1.5l0,0
				c-1.7,1.4-3.6,3.5-4.3,6.6l0,0c-0.7,2.9-0.2,6.6,2.5,11l0,0c2.6,4.5,6.6,6.7,10.6,7.6l0,0c0,0,0.1,0,0.1,0l0,0l-0.1,0.6l0.2-0.6
				c8.2,1.8,16.6-1.3,17.7-1.7l0,0l0,0C430.2,376.9,430.4,376.7,430.4,376.4L430.4,376.4z"/>
		</g>
	</g>
</g>
<g>
	<g>
		<g>
			<path fill="#BAAA5C" d="M831,356.5c2.8,0.5,5.4-1.3,5.9-4c0.5-2.7-1.4-5.3-4.2-5.8c-2.8-0.5-5.4,1.3-5.9,4
				C826.4,353.4,828.2,356,831,356.5z"/>
		</g>
	</g>
	<g>
		<g>
			<path fill="#BAAA5C" d="M741.5,378.6c2.8,0.5,5.4-1.3,5.9-4c0.5-2.7-1.4-5.3-4.2-5.8c-2.8-0.5-5.4,1.3-5.9,4
				C736.8,375.5,738.7,378.1,741.5,378.6z"/>
		</g>
	</g>
	<g>
		<g>
			<path fill="#BAAA5C" d="M760.1,417.6c2.8-0.1,5-2.4,4.9-5.2c-0.1-2.7-2.5-4.9-5.4-4.8c-2.8,0.1-5,2.4-4.9,5.2
				C754.8,415.6,757.2,417.8,760.1,417.6z"/>
		</g>
	</g>
	<g>
		<g>
			<path fill="#BAAA5C" d="M759.3,412.7c0.9-0.2,1.8,0.4,2,1.3c4.1,17.6,19.1,21,36.2,17.3c15.1-3.4,24.3-20.5,20.5-37.3
				c-1.4-6.3-4.7-12.6-10.2-18.1c-14.2-14.2-34.6-12.2-45.2-9.8c-4.2,1-6.8,1.9-6.8,1.9c0,0.1-6.9,2.3-14.2,8.1
				c-0.2-1.2-0.5-2.3-0.8-3.4c7.3-5.5,13.9-7.8,13.9-7.8c0,0,2.7-1,7.1-2c11-2.5,32.7-4.8,48.3,10.7c5.9,5.9,9.5,12.8,11.1,19.7
				c4.1,18.4-5.7,37.4-23,41.3c-17.7,4-35.7,0.1-40.2-19.8C757.9,413.8,758.4,412.9,759.3,412.7z"/>
		</g>
	</g>
	<g>
		<g>
			<path fill="#BAAA5C" d="M810,377.8c0.1,0,9.3,3.7,18.2,1.8l0,0c4.3-1,8.6-3.3,11.3-8.1l0,0c2.7-4.6,3.3-8.5,2.6-11.7l0,0
				c-1.6-6.7-8-9.1-8.2-9.2l0,0c-0.8-0.3-1.8,0.1-2.2,0.9l0,0c-0.3,0.9,0.1,1.8,0.9,2.2l0,0c0,0,1.3,0.6,2.7,1.7l0,0
				c1.4,1.1,3,2.8,3.5,5.2l0,0c0.5,2.2,0.2,5.2-2.2,9.3l0,0c-2.3,3.9-5.6,5.7-9.2,6.5l0,0c-7.6,1.8-16.3-1.6-16.3-1.6l0,0v0
				c-0.8-0.3-1.8,0.1-2.1,0.9l0,0c-0.1,0.3-0.2,0.7-0.1,1l0,0C809.1,377.2,809.5,377.6,810,377.8L810,377.8z"/>
		</g>
		<g>
			<path fill="#BAAA5C" d="M809.9,376.4c0,0.2,0.2,0.4,0.4,0.5v0l0,0c1.1,0.4,9.5,3.5,17.7,1.7l0.2,0.6l-0.1-0.6l0,0c0,0,0,0,0.1,0
				l0,0c4-0.9,8-3.2,10.6-7.6l0,0c2.6-4.4,3.1-8.1,2.5-11l0,0c-0.7-3.1-2.6-5.2-4.3-6.6l0,0c-0.9-0.7-1.7-1.2-2.3-1.5l0,0
				c-0.7-0.4-0.8-0.4-1.3-0.7l0,0c0.1,0.1,0,0.1-0.2,0.1l0,0c-0.2,0-0.4,0.2-0.5,0.4l0,0c0,0.1,0,0.3,0,0.4l0,0
				c0,0.2,0.2,0.4,0.4,0.5l0.5,0.2l0,0.1l0,0c0.5,0.3,1.5,0.8,2.5,1.6l0,0c1.5,1.2,3.2,3,3.8,5.6l0,0l0,0.1l0,0c0,0,0,0.1,0,0.2l0,0
				c0.5,2.4,0.2,5.6-2.3,9.8l0,0c-2.4,4.1-6,6.1-9.8,7l0,0c0.1,0,0,0-0.1,0l0,0c-4,0.9-8.1,0.5-11.3-0.2l0,0c-1.6-0.3-2.9-0.7-3.9-1
				l0,0c-0.5-0.2-0.9-0.3-1.1-0.4l0,0c-0.3-0.1-0.2-0.1-0.5-0.2l0,0c-0.1,0-0.2,0-0.4,0l0,0c-0.2,0.1-0.4,0.2-0.5,0.4l0,0
				C809.9,376.2,809.9,376.3,809.9,376.4L809.9,376.4z"/>
		</g>
	</g>
</g>
<g>
	<path d="M426.8,287.8h26.9c1.6,0,3.3,0.1,5.2,0.2c1.9,0.1,3.6,0.2,5.1,0.4c1.5,0.2,2.8,0.3,3.7,0.6c3.5,0.8,6.3,2.1,8.1,4
		c1.9,1.9,2.8,4.4,2.8,7.2c0,2-0.5,3.7-1.4,5.3c-0.9,1.5-2.2,2.9-4,3.9c-1.8,1.1-3.9,1.9-6.4,2.4c-2.5,0.6-5.4,0.8-8.6,0.8H446v10.7
		c0,5.5,2.7,8.3,8.2,8.3h2.3v1.2h-29.7v-1.2h1.6c5.5,0,8.2-2.8,8.2-8.3v-26.2c0-5.5-2.7-8.2-8.2-8.2h-1.5V287.8z M446,289v22.4h9
		c4.4,0,7.7-0.9,9.9-2.8c2.1-1.8,3.2-4.7,3.2-8.5c0-4.5-1.5-7.6-4.4-9.4c-1.1-0.6-2.3-1.1-3.7-1.4c-1.4-0.3-3.2-0.4-5.3-0.4H446z"/>
	<path d="M516.8,310.8h-10.1v12.6c0,2.8,0.7,4.8,2,6.2c1.4,1.4,3.4,2,6.2,2h1.3v1.3h-28.4v-1.3h1.2c2.8,0,4.8-0.7,6.2-2
		c1.3-1.3,2-3.4,2-6.2v-26.2c0-2.8-0.7-4.9-2-6.2c-1.3-1.3-3.4-2-6.2-2h-1.2v-1.2h34.9c4.7,0,8.5,0.3,11.2,1
		c2.8,0.7,4.9,1.8,6.5,3.5c0.9,0.9,1.7,2,2.2,3.3c0.5,1.3,0.8,2.5,0.8,3.8c0,3.4-1.8,6.1-5.3,8.2c-1.3,0.7-3.1,1.3-5.4,1.9
		s-4.5,0.9-6.7,1.1c-1.7,0.1-4.3,0.2-7.8,0.2v0.1c1.7,1.1,3.3,2,4.7,2.8c1.4,0.7,2.8,1.3,4.2,1.9c1.4,0.5,3,1,4.8,1.4l1.1,1.6
		c0.7,1,1.2,1.8,1.6,2.3c0.3,0.5,0.7,1.1,1.2,1.8c1.2,1.8,2.3,3.4,3.4,4.8s2,2.3,2.7,2.8c1.4,0.9,3.4,1.4,6,1.4h1.3v1.3h-16.9
		L516.8,310.8z M506.7,309.6h12.8c3,0,5.5-0.4,7.5-1.1c1.9-0.7,3.4-1.9,4.4-3.4c1-1.5,1.4-3.5,1.4-5.9c0-6.8-4.4-10.2-13.1-10.2h-13
		V309.6z"/>
	<path d="M557.3,331.6h1.3c2.8,0,4.8-0.7,6.2-2c1.3-1.3,2-3.4,2-6.2c0.2-1.2,0.3-2.2,0.4-3.1c0.1-0.9,0.2-1.9,0.2-3.1
		c0-1.1,0-2.6,0-4.3c-0.1-7.3-0.3-12.9-0.6-16.6c-0.1-1.5-0.4-2.7-0.7-3.5c-0.4-0.8-0.9-1.5-1.6-2.1c-1.3-1.1-3.2-1.7-5.8-1.7h-1.3
		v-1.2h28.4v1.2h-1.3c-2.8,0-4.8,0.7-6.2,2c-1.3,1.3-2,3.4-2,6.2v26.2c0,2.8,0.7,4.8,2,6.2c1.3,1.3,3.4,2,6.1,2h1.3v1.3h-28.4V331.6
		z"/>
	<path d="M593.4,287.8h26.3v1.2h-3.2c-1.5,0-2.6,0.3-3.4,0.9c-0.8,0.6-1.3,1.5-1.3,2.5c0,1,0.3,2.3,0.9,3.7L625,323l10.3-23.2
		c0.8-1.8,1.2-3.3,1.2-4.6c0-1.8-0.6-3.3-1.7-4.4c-1.2-1.1-2.7-1.7-4.8-1.8v-1.2h18.1v1.2c-1.7,0.2-3.3,0.7-4.6,1.5s-2.6,2-3.7,3.5
		c-1.1,1.5-2.2,3.5-3.4,6l-15,33.7l-1.1,0.1l-17.4-38c-2.1-4.5-4.7-6.7-8-6.7h-1.6V287.8z"/>
	<path d="M668.9,286.9h1.2l18.1,39.4c0.6,1.2,1.2,2.2,2,3c0.7,0.8,1.5,1.4,2.4,1.7s2,0.5,3.2,0.5h1.2v1.3h-26.1v-1.3h3.4
		c1.7,0,2.9-0.2,3.7-0.7c0.8-0.5,1.2-1.2,1.2-2.1c0-0.6-0.2-1.3-0.5-2.2s-1-2.4-2-4.7c-0.1-0.1-0.2-0.3-0.3-0.6s-0.3-0.6-0.4-0.9
		l-0.7-1.6h-19.1l-1.5,3.4c-0.5,1.1-0.7,2.3-0.7,3.4c0,1,0.3,2,0.8,2.9s1.3,1.7,2.1,2.2c0.6,0.3,1.1,0.6,1.6,0.7
		c0.5,0.1,1.1,0.2,2,0.2v1.3h-18.3v-1.3c1.3-0.2,2.4-0.4,3.2-0.7s1.7-0.9,2.6-1.6c2.3-1.8,4.5-5.1,6.7-10L668.9,286.9z M665.5,297.4
		l-8.8,20.1h17.9L665.5,297.4z"/>
	<path d="M700.8,287.8h52.8v22.9l-1,0.1c-0.5-5.7-2.3-10.6-5.2-14.7c-3.4-4.7-7.8-7-13.1-7H732v34.4c0,5.5,2.7,8.2,8.2,8.2h6.8v1.3
		h-39.3v-1.3h6.7c5.5,0,8.2-2.7,8.2-8.2V289h-2.9c-5.4,0-9.7,2.5-13.1,7.5c-1.7,2.5-2.9,5.4-3.8,8.8c-0.3,1.2-0.6,2.9-0.8,5.3h-1.1
		V287.8z"/>
	<path d="M761.5,287.8h47.9v17.4h-1c-0.9-3.1-1.7-5.3-2.4-6.8c-0.7-1.5-1.6-2.9-2.7-4.3c-1.4-1.6-2.8-2.8-4.4-3.4
		c-2.6-1.1-5.9-1.6-9.6-1.6h-8.9v21.4h2.4c3.5,0,6.4-1.5,8.4-4.6c1.1-1.6,1.9-3.4,2.4-5.6c0.3-0.9,0.5-2.3,0.7-4.1h1.1v29.5h-1.1
		c-0.3-1.6-0.6-3.1-0.9-4.5c-0.4-1.4-0.8-2.6-1.2-3.4c-0.4-0.9-1-1.8-1.7-2.6c-1.9-2.4-4.7-3.6-8.3-3.6h-1.9v20.1h7.4
		c2.2,0,4.2-0.2,5.9-0.5c1.8-0.3,3.3-0.8,4.7-1.5c1.4-0.7,2.7-1.5,3.9-2.6c2.1-1.8,3.7-4,4.9-6.7c0.7-1.5,1.4-3.6,2.1-6.2h1.2v18.5
		h-49l-0.1-1.2h1.2c5.5,0,8.2-2.8,8.2-8.3v-26.2c0-2.8-0.7-4.9-2-6.2c-1.3-1.3-3.4-2-6.2-2h-1.2V287.8z"/>
	<path d="M519.3,355.8h10c2.1,0,3.8,0.3,5.2,0.8c1.3,0.5,2.4,1.2,3.2,2.2c0.8,0.9,1.3,2,1.7,3.3c0.3,1.3,0.5,2.8,0.5,4.4v13.9
		c0,3.1-0.8,5.6-2.4,7.5c-1.6,2-4.4,2.9-8.3,2.9h-4.3v26.6h-5.5V355.8z M529.1,385.7c2.1,0,3.4-0.5,4.2-1.4c0.7-0.9,1.1-2.3,1.1-4
		v-13.9c0-1.7-0.4-3-1.2-3.9c-0.8-0.9-2.2-1.4-4.1-1.4h-4.2v24.6H529.1z"/>
	<path d="M573.7,417.4h-5.6l-1.7-14.1h-9.1l-1.7,14.1H550l8.4-61.6h6.9L573.7,417.4z M557.9,398.2h7.9l-3.9-34L557.9,398.2z"/>
	<path d="M586,355.8h10.1c2.1,0,3.8,0.3,5.2,0.8c1.3,0.5,2.4,1.2,3.2,2.2c0.8,0.9,1.3,2,1.6,3.3c0.3,1.3,0.4,2.8,0.4,4.4v13.9
		c0,2.6-0.5,4.9-1.5,6.6c-1,1.8-2.8,2.9-5.4,3.5l9.9,26.9h-6.2l-9.1-26.6h-2.8v26.6H586V355.8z M595.8,385.7c2.1,0,3.4-0.5,4.2-1.4
		c0.7-0.9,1.1-2.3,1.1-4v-13.9c0-1.7-0.4-3-1.2-3.9c-0.8-0.9-2.2-1.4-4.1-1.4h-4.2v24.6H595.8z"/>
	<path d="M630.5,417.4h-5.5v-56.2h-7.4v-5.4h20.2v5.4h-7.3V417.4z"/>
	<path d="M649.7,355.8h5.5v61.6h-5.5V355.8z"/>
	<path d="M676.2,412.1h12v5.3h-17.5v-61.6h17.5v5.4h-12v22.6h10.3v5.1h-10.3V412.1z"/>
	<path d="M715.2,400c0-3-0.4-5.4-1.1-7.1c-0.7-1.8-1.7-3.2-2.8-4.4c-1.1-1.1-2.3-2.1-3.7-2.9c-1.3-0.8-2.5-1.8-3.7-2.9
		c-1.1-1.1-2-2.6-2.8-4.4c-0.7-1.8-1.1-4.2-1.1-7.2v-5.3c0-1.6,0.1-3,0.4-4.4c0.3-1.3,0.8-2.5,1.6-3.4c0.8-1,1.8-1.7,3.2-2.2
		c1.3-0.5,3-0.8,5.1-0.8c2.1,0,3.8,0.3,5.1,0.8c1.3,0.5,2.4,1.3,3.2,2.2c0.8,1,1.3,2.1,1.6,3.4c0.3,1.3,0.4,2.8,0.4,4.4v6.8h-5.5
		v-6.8c0-1.6-0.3-2.9-1-4.1c-0.6-1.1-1.9-1.7-3.8-1.7c-1.9,0-3.2,0.5-3.8,1.6c-0.6,1.1-0.9,2.5-0.9,4.2v5.2c0,2.5,0.4,4.5,1.1,6
		c0.7,1.5,1.7,2.7,2.8,3.7c1.1,1,2.3,1.9,3.7,2.7s2.5,1.9,3.7,3.3c1.1,1.3,2,3,2.8,5.1c0.7,2.1,1.1,4.8,1.1,8.3v7.6
		c0,1.6-0.1,3-0.4,4.4c-0.3,1.3-0.8,2.5-1.6,3.4c-0.8,1-1.8,1.7-3.2,2.2c-1.4,0.5-3.1,0.8-5.1,0.8c-2.1,0-3.8-0.3-5.1-0.8
		c-1.4-0.5-2.4-1.3-3.2-2.2c-0.8-1-1.3-2.1-1.6-3.4c-0.3-1.3-0.4-2.8-0.4-4.4v-7.7h5.5v7.7c0,1.6,0.3,3,1,4.2
		c0.7,1.1,1.9,1.7,3.7,1.7c1.9,0,3.2-0.6,3.8-1.7c0.6-1.1,0.9-2.5,0.9-4.2V400z"/>
</g>
</svg>
