<?xml version="1.0" encoding="utf-8"?>
<!-- Generator: Adobe Illustrator 18.0.0, SVG Export Plug-In . SVG Version: 6.00 Build 0)  -->
<!DOCTYPE svg PUBLIC "-//W3C//DTD SVG 1.1//EN" "http://www.w3.org/Graphics/SVG/1.1/DTD/svg11.dtd">
<svg version="1.1" id="Layer_1" xmlns="http://www.w3.org/2000/svg" xmlns:xlink="http://www.w3.org/1999/xlink" x="0px" y="0px"
	 viewBox="0 0 295.6 100" enable-background="new 0 0 295.6 100" xml:space="preserve">
<g>
	<g>
		<path d="M32.2,2.6h15.8c0.9,0,2,0,3.1,0.1c1.1,0.1,2.1,0.1,3,0.2C55,3,55.8,3.2,56.3,3.3c2.1,0.4,3.7,1.2,4.8,2.4
			c1.1,1.1,1.7,2.6,1.7,4.3c0,1.2-0.3,2.2-0.8,3.1c-0.5,0.9-1.3,1.7-2.3,2.3c-1,0.6-2.3,1.1-3.8,1.4s-3.2,0.5-5.1,0.5h-7.3v6.3
			c0,3.2,1.6,4.9,4.8,4.9h1.3v0.7H32.2v-0.7h0.9c3.2,0,4.8-1.6,4.8-4.9V8.1c0-3.2-1.6-4.8-4.8-4.8h-0.9V2.6z M43.5,3.3v13.2h5.3
			c2.6,0,4.6-0.5,5.8-1.6c1.3-1.1,1.9-2.8,1.9-5c0-2.6-0.9-4.5-2.6-5.5c-0.6-0.4-1.3-0.6-2.2-0.8c-0.8-0.2-1.9-0.2-3.1-0.2H43.5z"/>
		<path d="M86.4,16.2h-6v7.4c0,1.6,0.4,2.8,1.2,3.6c0.8,0.8,2,1.2,3.6,1.2h0.8v0.7H69.3v-0.7H70c1.6,0,2.8-0.4,3.6-1.2
			s1.2-2,1.2-3.6V8.1c0-1.6-0.4-2.9-1.2-3.6s-2-1.2-3.6-1.2h-0.7V2.6h20.6c2.8,0,5,0.2,6.6,0.6c1.6,0.4,2.9,1.1,3.9,2.1
			c0.5,0.5,1,1.2,1.3,1.9s0.5,1.5,0.5,2.2c0,2-1,3.6-3.1,4.8c-0.8,0.4-1.8,0.8-3.2,1.1c-1.3,0.3-2.7,0.6-4,0.7
			c-1,0.1-2.5,0.1-4.6,0.1v0.1c1,0.7,1.9,1.2,2.8,1.6c0.8,0.4,1.7,0.8,2.5,1.1c0.8,0.3,1.8,0.6,2.8,0.8l0.6,0.9
			c0.4,0.6,0.7,1.1,0.9,1.4c0.2,0.3,0.4,0.7,0.7,1c0.7,1.1,1.4,2,2,2.8c0.6,0.8,1.2,1.3,1.6,1.7c0.8,0.5,2,0.8,3.5,0.8h0.7v0.7h-10
			L86.4,16.2z M80.5,15.5H88c1.8,0,3.3-0.2,4.4-0.7c1.1-0.4,2-1.1,2.6-2c0.6-0.9,0.8-2,0.8-3.4c0-4-2.6-6-7.7-6h-7.7V15.5z"/>
		<path d="M111.5,28.4h0.7c1.6,0,2.8-0.4,3.6-1.2c0.8-0.8,1.2-2,1.2-3.6c0-0.7,0-1.4,0-2c0-0.6,0-1.2,0-1.7c0-0.5,0-1.4,0-2.5
			c0-4.5,0-7.7,0-9.9c-0.1-0.8-0.3-1.5-0.5-2s-0.5-0.9-0.9-1.2c-0.8-0.7-1.9-1-3.4-1h-0.7V2.6h16.7v0.7h-0.7c-1.6,0-2.8,0.4-3.6,1.2
			s-1.2,2-1.2,3.6v15.4c0,1.6,0.4,2.8,1.2,3.6s2,1.2,3.6,1.2h0.7v0.7h-16.7V28.4z"/>
		<path d="M133.9,2.6h15.5v0.7h-1.9c-0.9,0-1.5,0.2-2,0.5s-0.7,0.9-0.7,1.5c0,0.6,0.2,1.3,0.6,2.2l7.2,15.9l6.1-13.7
			c0.5-1.1,0.7-2,0.7-2.7c0-1.1-0.3-2-1-2.6c-0.7-0.6-1.6-1-2.8-1.1V2.6h10.7v0.7c-1,0.1-1.9,0.4-2.7,0.9c-0.8,0.5-1.5,1.2-2.2,2.1
			c-0.7,0.9-1.3,2.1-2,3.6l-8.8,19.8l-0.7,0L139.5,7.3c-1.2-2.6-2.8-4-4.7-4h-0.9V2.6z"/>
		<path d="M179.6,2.1h0.7l10.7,23.2c0.3,0.7,0.7,1.3,1.1,1.8s0.9,0.8,1.4,1c0.5,0.2,1.2,0.3,1.9,0.3h0.7v0.7h-15.4v-0.7h2
			c1,0,1.7-0.1,2.2-0.4c0.5-0.3,0.7-0.7,0.7-1.3c0-0.4-0.1-0.8-0.3-1.3c-0.2-0.5-0.6-1.4-1.2-2.8c0-0.1-0.1-0.2-0.2-0.4
			c-0.1-0.2-0.2-0.3-0.2-0.5l-0.4-1H172l-0.9,2c-0.3,0.7-0.4,1.3-0.4,2c0,0.6,0.2,1.2,0.5,1.7c0.3,0.6,0.7,1,1.3,1.3
			c0.3,0.2,0.6,0.3,0.9,0.4c0.3,0.1,0.7,0.1,1.2,0.1v0.7h-10.8v-0.7c0.8-0.1,1.4-0.2,1.9-0.4c0.5-0.2,1-0.5,1.5-1
			c1.3-1,2.7-3,3.9-5.9L179.6,2.1z M177.5,8.3l-5.2,11.8h10.5L177.5,8.3z"/>
		<path d="M199.5,2.6h31.1v13.5l-0.6,0c-0.3-3.4-1.3-6.3-3-8.7c-2-2.7-4.6-4.1-7.7-4.1h-1.4v20.3c0,3.2,1.6,4.8,4.8,4.8h4v0.7h-23.2
			v-0.7h4c3.2,0,4.8-1.6,4.8-4.8V3.3h-1.7c-3.2,0-5.7,1.5-7.7,4.4c-1,1.5-1.7,3.2-2.2,5.2c-0.2,0.7-0.3,1.7-0.5,3.1h-0.7V2.6z"/>
		<path d="M236.4,2.6h28.2v10.3h-0.6c-0.5-1.8-1-3.1-1.4-4s-0.9-1.7-1.6-2.5c-0.8-0.9-1.7-1.6-2.6-2c-1.6-0.6-3.5-1-5.7-1h-5.2v12.6
			h1.4c2.1,0,3.7-0.9,5-2.7c0.6-0.9,1.1-2,1.4-3.3c0.2-0.5,0.3-1.3,0.4-2.4h0.7v17.4h-0.7c-0.2-0.9-0.3-1.8-0.5-2.7
			c-0.2-0.8-0.4-1.5-0.7-2s-0.6-1-1-1.6c-1.1-1.4-2.8-2.1-4.9-2.1h-1.1v11.9h4.4c1.3,0,2.5-0.1,3.5-0.3c1-0.2,2-0.5,2.8-0.9
			c0.8-0.4,1.6-0.9,2.3-1.5c1.2-1.1,2.2-2.4,2.9-3.9c0.4-0.9,0.8-2.1,1.2-3.6h0.7v10.9h-28.9l0-0.7h0.7c3.2,0,4.8-1.6,4.8-4.9V8.1
			c0-1.6-0.4-2.9-1.2-3.6s-2-1.2-3.6-1.2h-0.7V2.6z"/>
		<path d="M75.6,49.2h6.8c1.4,0,2.6,0.2,3.5,0.5s1.7,0.9,2.2,1.5c0.5,0.6,0.9,1.4,1.1,2.3c0.2,0.9,0.3,1.9,0.3,3v9.5
			c0,2.1-0.6,3.8-1.7,5.1c-1.1,1.3-3,2-5.7,2h-2.9v18.1h-3.8V49.2z M82.2,69.6c1.4,0,2.3-0.3,2.8-1c0.5-0.6,0.8-1.5,0.8-2.7v-9.5
			c0-1.2-0.3-2-0.8-2.7c-0.5-0.6-1.5-0.9-2.8-0.9h-2.9v16.7H82.2z"/>
		<path d="M114.5,91.2h-3.8l-1.1-9.6h-6.2l-1.1,9.6h-3.8l5.8-42h4.7L114.5,91.2z M103.7,78.1h5.4l-2.6-23.2L103.7,78.1z"/>
		<path d="M124.7,49.2h6.9c1.4,0,2.6,0.2,3.5,0.5s1.7,0.9,2.2,1.5c0.5,0.6,0.9,1.4,1.1,2.3c0.2,0.9,0.3,1.9,0.3,3v9.5
			c0,1.8-0.3,3.3-1,4.5c-0.7,1.2-1.9,2-3.7,2.4l6.8,18.4h-4.2L130.4,73h-1.9v18.1h-3.8V49.2z M131.3,69.6c1.4,0,2.3-0.3,2.8-1
			c0.5-0.6,0.8-1.5,0.8-2.7v-9.5c0-1.2-0.3-2-0.8-2.7c-0.5-0.6-1.5-0.9-2.8-0.9h-2.9v16.7H131.3z"/>
		<path d="M156.8,91.2H153V52.8h-5v-3.7h13.8v3.7h-5V91.2z"/>
		<path d="M171.6,49.2h3.8v42h-3.8V49.2z"/>
		<path d="M191.5,87.6h8.2v3.6h-11.9v-42h11.9v3.7h-8.2v15.4h7v3.5h-7V87.6z"/>
		<path d="M219.9,79.3c0-2-0.2-3.7-0.8-4.9s-1.1-2.2-1.9-3s-1.6-1.4-2.5-2c-0.9-0.6-1.7-1.2-2.5-2c-0.8-0.8-1.4-1.8-1.9-3
			c-0.5-1.2-0.8-2.8-0.8-4.9v-3.6c0-1.1,0.1-2.1,0.3-3c0.2-0.9,0.6-1.7,1.1-2.3s1.2-1.2,2.2-1.5c0.9-0.4,2.1-0.5,3.5-0.5
			s2.6,0.2,3.5,0.5c0.9,0.4,1.6,0.9,2.2,1.5c0.5,0.7,0.9,1.4,1.1,2.3c0.2,0.9,0.3,1.9,0.3,3v4.6h-3.8v-4.6c0-1.1-0.2-2-0.7-2.8
			c-0.4-0.8-1.3-1.2-2.6-1.2c-1.3,0-2.2,0.4-2.6,1.1c-0.4,0.7-0.6,1.7-0.6,2.9v3.5c0,1.7,0.2,3.1,0.8,4.1c0.5,1,1.1,1.8,1.9,2.5
			c0.8,0.7,1.6,1.3,2.5,1.9c0.9,0.6,1.7,1.3,2.5,2.2c0.8,0.9,1.4,2.1,1.9,3.5c0.5,1.4,0.8,3.3,0.8,5.6v5.2c0,1.1-0.1,2.1-0.3,3
			c-0.2,0.9-0.6,1.7-1.1,2.3c-0.5,0.7-1.2,1.2-2.2,1.5c-0.9,0.4-2.1,0.5-3.5,0.5s-2.6-0.2-3.5-0.5c-0.9-0.4-1.6-0.9-2.2-1.5
			s-0.9-1.4-1.1-2.3c-0.2-0.9-0.3-1.9-0.3-3v-5.2h3.8v5.2c0,1.1,0.2,2.1,0.7,2.9c0.5,0.8,1.3,1.2,2.6,1.2c1.3,0,2.2-0.4,2.6-1.1
			c0.4-0.8,0.6-1.7,0.6-2.9V79.3z"/>
	</g>
	<g>
		<g>
			<g>
				<path fill="#BFA63C" d="M20,51.8c-1.3,0-2.4-1.2-2.3-2.6c0.1-1.4,1.2-2.5,2.5-2.5c1.3,0,2.4,1.2,2.3,2.6
					C22.5,50.7,21.4,51.9,20,51.8z"/>
				<path fill="#BFA63C" d="M20.1,52.1L20.1,52.1c-0.7,0-1.4-0.3-1.9-0.8c-0.5-0.5-0.8-1.3-0.8-2.1c0.1-1.6,1.3-2.8,2.7-2.8
					c0.7,0,1.4,0.3,1.9,0.8c0.5,0.6,0.8,1.3,0.8,2.1C22.8,50.9,21.6,52.1,20.1,52.1z M20.2,46.9c-1.2,0-2.2,1-2.3,2.3
					c0,0.6,0.2,1.3,0.6,1.7c0.4,0.4,0.9,0.6,1.4,0.6l0.1,0.3v-0.2c1.2,0,2.2-1,2.2-2.3c0-0.7-0.2-1.3-0.6-1.7
					C21.3,47.2,20.8,46.9,20.2,46.9L20.2,46.9z"/>
			</g>
		</g>
		<g>
			<g>
				<path fill="#BFA63C" d="M47.7,89.7c-1.3-0.2-2.2-1.5-2-3c0.2-1.4,1.4-2.4,2.8-2.1c1.3,0.2,2.2,1.5,2,3
					C50.3,89,49,89.9,47.7,89.7z"/>
				<path fill="#BFA63C" d="M48.1,90c-0.1,0-0.3,0-0.4,0c-1.4-0.2-2.4-1.7-2.2-3.2c0.2-1.5,1.6-2.6,3.1-2.3c1.5,0.3,2.5,1.7,2.2,3.2
					C50.5,89,49.4,90,48.1,90z M48.1,84.8c-1.1,0-2,0.8-2.1,2c-0.2,1.3,0.6,2.5,1.8,2.7c1.2,0.2,2.3-0.7,2.5-1.9
					c0.2-1.3-0.6-2.5-1.8-2.7C48.3,84.8,48.2,84.8,48.1,84.8z"/>
			</g>
		</g>
		<g>
			<g>
				<path fill="#BFA63C" d="M48.3,87.2c-0.4-0.2-0.9,0.1-1,0.5c-2.8,8.9-10.1,9.7-17.9,6.8c-6.9-2.7-10.3-12-7.6-20.4
					c1-3.2,2.9-6.2,5.8-8.7c7.4-6.5,16.9-4.3,21.7-2.4c1.9,0.7,3.1,1.4,3.1,1.4c0,0,3.1,1.6,6.2,5c0.2-0.6,0.3-1.2,0.6-1.7
					C56,64.4,53,62.8,53,62.8c0,0-1.2-0.7-3.2-1.5c-5-1.9-15.1-4.4-23.2,2.7c-3.1,2.7-5.2,6-6.3,9.5c-2.9,9.2,0.7,19.6,8.6,22.6
					c8.1,3.1,16.7,2.1,19.9-7.8C48.9,87.8,48.7,87.3,48.3,87.2z"/>
				<path fill="#BFA63C" d="M36.6,97.9L36.6,97.9c-2.4,0-5.1-0.5-7.8-1.6C20.9,93.3,17,83,20,73.4c1.2-3.7,3.4-7,6.3-9.6
					c3.6-3.2,8-4.8,13.1-4.8c4.2,0,8,1.1,10.4,2.1c0.3,0.1,2.7,1.1,3.3,1.6l0,0c0.7,0.4,3.4,2,6.1,4.8l0.1,0.1l-0.1,0.1
					c-0.2,0.5-0.4,1-0.6,1.7l-0.1,0.4l-0.3-0.3c-1.8-1.9-3.9-3.7-6-4.9c-0.1,0-0.1,0-0.1-0.1c-0.1-0.1-1.2-0.7-3-1.4
					c-2.3-0.9-5.8-1.9-9.7-1.9c-4.6,0-8.5,1.4-11.8,4.3c-2.7,2.3-4.6,5.3-5.7,8.6c-2.7,8.3,0.8,17.5,7.5,20.1c2.7,1,5.1,1.5,7.3,1.5
					c5.1,0,8.6-2.7,10.3-8.1c0.2-0.6,0.8-0.9,1.3-0.7c0.5,0.2,0.8,0.8,0.6,1.4C46.5,96.3,40.9,97.9,36.6,97.9z M39.5,59.5
					c-4.9,0-9.2,1.6-12.7,4.6c-2.9,2.5-5,5.8-6.2,9.4c-3,9.4,0.8,19.4,8.4,22.3c2.7,1,5.3,1.5,7.6,1.5l0,0c4.1,0,9.5-1.6,12-9.2
					c0.1-0.3,0-0.7-0.3-0.8c-0.3-0.1-0.6,0.1-0.7,0.4c-1.8,5.6-5.4,8.5-10.8,8.5c-2.2,0-4.7-0.5-7.5-1.5C22.3,92,18.8,82.5,21.5,74
					c1.1-3.4,3.1-6.5,5.8-8.8c3.3-2.9,7.4-4.4,12.1-4.4c4,0,7.6,1.1,9.9,2c1.9,0.7,3.1,1.4,3.1,1.4l0.1,0.1c2.1,1.2,4.1,2.8,5.9,4.7
					c0.1-0.4,0.3-0.8,0.4-1.2c-2.7-2.8-5.2-4.3-5.9-4.7l0,0v0c0,0-1.2-0.7-3.2-1.5C47.3,60.6,43.6,59.5,39.5,59.5z"/>
			</g>
		</g>
		<g>
			<g>
				<path fill="#BFA63C" d="M28,64.8c-0.1,0-4.7,0.9-8.6-1l0,0c-1.9-0.9-3.6-2.6-4.4-5.3l0,0c-0.8-2.6-0.7-4.7,0-6.2l0,0
					c1.4-3.2,4.6-3.8,4.7-3.9l0,0c0.4-0.1,0.8,0.2,0.9,0.7l0,0c0.1,0.5-0.2,0.9-0.7,1l0,0c0,0-0.7,0.2-1.4,0.6l0,0
					c-0.8,0.4-1.7,1.1-2.1,2.3l0,0c-0.5,1.1-0.6,2.6,0.1,4.9l0,0c0.7,2.2,2,3.5,3.6,4.3l0,0c3.3,1.7,7.7,0.9,7.7,0.9l0,0l0,0
					c0.4-0.1,0.8,0.2,0.9,0.7l0,0c0,0.2,0,0.4-0.1,0.5l0,0C28.5,64.6,28.3,64.8,28,64.8L28,64.8z"/>
				<path fill="#BFA63C" d="M25.3,65.3c-2.2,0-4.3-0.4-5.9-1.2c-1.6-0.8-3.6-2.3-4.5-5.4c-0.7-2.4-0.7-4.6,0-6.4
					c1.2-2.7,3.5-3.6,4.8-4l0.1,0c0.6-0.1,1.1,0.3,1.2,0.9c0.1,0.6-0.3,1.2-0.8,1.3l0,0c0,0-0.6,0.2-1.4,0.6c-0.7,0.4-1.6,1-2,2.1
					c-0.5,1.3-0.5,2.8,0.1,4.8c0.6,1.9,1.7,3.2,3.5,4.1c1.7,0.9,3.7,1,5.1,1c1.1,0,2.1-0.1,2.4-0.2l0,0l0.1,0
					c0.6-0.1,1.1,0.3,1.2,0.9c0,0.2,0,0.4-0.1,0.6c-0.1,0.3-0.4,0.6-0.8,0.6C27.2,65.2,26.2,65.3,25.3,65.3z M19.8,48.8
					C19.8,48.8,19.8,48.8,19.8,48.8c-1.3,0.3-3.5,1.2-4.5,3.7c-0.7,1.6-0.7,3.7,0,6c0.9,2.9,2.8,4.4,4.3,5.1c2,1,4.2,1.2,5.7,1.2
					c0.9,0,1.9-0.1,2.7-0.2l0.1,0c0.1,0,0.3-0.2,0.4-0.3c0.1-0.1,0.1-0.2,0-0.4c0-0.3-0.3-0.5-0.6-0.5v0c-0.5,0.1-1.8,0.2-2.6,0.2
					c-1.4,0-3.5-0.2-5.3-1.1c-1.9-0.9-3.1-2.4-3.7-4.4c-0.6-2.1-0.6-3.7-0.1-5.1c0.5-1.2,1.5-2,2.2-2.4c0.8-0.4,1.5-0.6,1.5-0.6
					c0.3-0.1,0.5-0.4,0.5-0.7C20.4,49,20.1,48.7,19.8,48.8z"/>
			</g>
			<g>
				<path fill="#BFA63C" d="M28.2,64.1c0-0.1,0-0.1,0-0.2l0,0c0-0.1-0.1-0.2-0.2-0.3l0,0c-0.1,0-0.1,0-0.2,0l0,0
					c-0.1,0-0.1,0-0.2,0.1l0,0c-0.1,0-0.3,0-0.6,0.1l0,0c-0.5,0-1.1,0.1-1.9,0.1l0,0c-1.5,0-3.5-0.2-5.2-1.1l0,0c0,0-0.1,0,0,0l0,0
					c-1.7-0.8-3.1-2.2-3.8-4.6l0,0c-0.7-2.4-0.6-4.1-0.1-5.2l0,0c0-0.1,0-0.1,0-0.1l0,0l0,0l0,0c0.5-1.3,1.5-2,2.3-2.5l0,0
					c0.5-0.3,1-0.5,1.3-0.6l0,0l0,0l0.2,0c0.1,0,0.2-0.1,0.3-0.2l0,0c0-0.1,0-0.1,0-0.2l0,0c0-0.1-0.1-0.2-0.2-0.3l0,0
					C20,49,19.9,49,20,49l0,0c-0.3,0.1-0.3,0.1-0.6,0.2l0,0c-0.3,0.1-0.7,0.3-1.2,0.5l0,0c-0.9,0.5-2,1.4-2.7,2.9l0,0
					c-0.6,1.4-0.8,3.3,0,5.8l0,0c0.7,2.5,2.3,4.1,4.1,5l0,0c0,0,0,0,0,0l0,0l-0.1,0.3l0.2-0.3c3.6,1.8,7.8,1,8.3,0.9l0,0l0,0
					C28.1,64.3,28.2,64.2,28.2,64.1L28.2,64.1z"/>
				<path fill="#BFA63C" d="M25.3,64.8L25.3,64.8c-2.1,0-3.9-0.4-5.5-1.1l0,0.1l-0.5-0.2l0-0.1c-2-1.1-3.4-2.8-4.1-5
					c-0.7-2.3-0.7-4.3,0-6c0.7-1.6,1.9-2.5,2.8-3c0.6-0.3,1-0.5,1.3-0.6c0.2-0.1,0.3-0.1,0.4-0.1c0.1,0,0.1,0,0.2-0.1l0.1,0.2
					l0.1-0.1c0.2,0.1,0.4,0.3,0.4,0.5c0,0.1,0,0.3,0,0.3C20.3,49.8,20.2,50,20,50l-0.2,0.1c-0.4,0.1-0.9,0.3-1.3,0.5
					c-1,0.6-1.8,1.4-2.2,2.3c0,0.1,0,0.1,0,0.1c-0.6,1.3-0.5,3,0.1,5.1c0.6,2,1.8,3.5,3.7,4.4l0,0.1l0-0.1c1.4,0.7,3.2,1.1,5.2,1.1
					c0.8,0,1.4-0.1,1.9-0.1l0.2,0c0.1,0,0.2,0,0.3,0c0.1,0,0.1,0,0.2,0l0.2,0c0.1,0,0.2,0,0.3,0.1c0.2,0.1,0.3,0.3,0.3,0.5
					c0,0.1,0,0.2,0,0.3c-0.1,0.2-0.2,0.3-0.3,0.3l0,0l-0.1,0C27.1,64.7,26.2,64.8,25.3,64.8z M19.7,63.2L19.7,63.2
					c1.6,0.8,3.5,1.2,5.6,1.2l0,0c0.9,0,1.7-0.1,2.6-0.2l0,0l0.1,0c0,0,0,0,0-0.1c0,0,0,0,0-0.1c0,0,0-0.1-0.1-0.1c0,0,0,0,0,0
					c-0.1,0-0.1,0-0.1,0c0,0,0,0-0.1,0c-0.1,0-0.2,0-0.4,0.1l-0.2,0c-0.4,0-1.1,0.1-1.9,0.1c-2.1,0-3.9-0.4-5.3-1.1c0,0,0,0-0.1,0
					c-2-1-3.3-2.6-3.9-4.7c-0.7-2.2-0.7-4-0.1-5.4c0,0,0-0.1,0-0.1c0.5-1.1,1.3-2,2.4-2.6c0.4-0.2,0.8-0.4,1.2-0.5l0,0l0.1-0.1
					l0.2,0c0,0,0.1,0,0.1-0.1c0,0,0-0.1,0-0.1c0,0,0-0.1-0.1-0.1c0,0,0,0,0,0c-0.1,0-0.1,0-0.2,0c-0.1,0-0.2,0-0.3,0.1
					c-0.2,0.1-0.7,0.2-1.2,0.5c-0.8,0.4-1.9,1.3-2.5,2.8c-0.7,1.5-0.6,3.5,0,5.7C16.3,60.5,17.7,62.1,19.7,63.2z"/>
			</g>
		</g>
	</g>
	<g>
		<g>
			<g>
				<path fill="#BFA63C" d="M275.5,51.8c1.3,0,2.4-1.2,2.3-2.6c-0.1-1.4-1.2-2.5-2.5-2.5c-1.3,0-2.4,1.2-2.3,2.6
					C273.1,50.7,274.2,51.9,275.5,51.8z"/>
				<path fill="#BFA63C" d="M275.5,52.1c-1.5,0-2.6-1.2-2.7-2.8c0-0.8,0.2-1.5,0.8-2.1c0.5-0.5,1.1-0.8,1.8-0.8h0
					c1.5,0,2.7,1.2,2.8,2.8c0,0.8-0.3,1.5-0.8,2.1C276.9,51.8,276.2,52.1,275.5,52.1L275.5,52.1z M275.4,46.9
					c-0.6,0-1.1,0.2-1.5,0.7c-0.4,0.5-0.6,1.1-0.6,1.7c0.1,1.3,1,2.3,2.2,2.3l0.1,0c0.5,0,1.1-0.2,1.4-0.6c0.4-0.4,0.7-1.1,0.6-1.7
					C277.6,47.9,276.6,46.9,275.4,46.9z"/>
			</g>
		</g>
		<g>
			<g>
				<path fill="#BFA63C" d="M247.9,89.7c1.3-0.2,2.2-1.5,2-3c-0.2-1.4-1.4-2.4-2.8-2.1c-1.3,0.2-2.2,1.5-2,3
					C245.3,89,246.6,89.9,247.9,89.7z"/>
				<path fill="#BFA63C" d="M247.5,90c-1.3,0-2.4-1-2.6-2.4c-0.2-1.5,0.8-3,2.2-3.2c1.5-0.3,2.8,0.8,3.1,2.3c0.2,1.5-0.8,3-2.2,3.2
					C247.8,90,247.6,90,247.5,90z M247.5,84.8c-0.1,0-0.2,0-0.3,0c-1.2,0.2-2,1.4-1.8,2.7c0.2,1.3,1.3,2.1,2.5,1.9
					c1.2-0.2,2-1.4,1.8-2.7C249.5,85.6,248.6,84.8,247.5,84.8z"/>
			</g>
		</g>
		<g>
			<g>
				<path fill="#BFA63C" d="M247.3,87.2c0.4-0.2,0.9,0.1,1,0.5c2.8,8.9,10.1,9.7,17.9,6.8c6.9-2.7,10.3-12,7.6-20.4
					c-1-3.2-2.9-6.2-5.8-8.7c-7.4-6.5-16.9-4.3-21.7-2.4c-1.9,0.7-3.1,1.4-3.1,1.4c0,0-3.1,1.6-6.2,5c-0.2-0.6-0.3-1.2-0.6-1.7
					c3.1-3.3,6.1-4.8,6.1-4.8c0,0,1.2-0.7,3.2-1.5c5-1.9,15.1-4.4,23.2,2.7c3.1,2.7,5.2,6,6.3,9.5c2.9,9.2-0.7,19.6-8.6,22.6
					c-8.1,3.1-16.7,2.1-19.9-7.8C246.7,87.8,246.9,87.3,247.3,87.2z"/>
				<path fill="#BFA63C" d="M259,97.9c-4.3,0-9.9-1.7-12.4-9.6c-0.2-0.6,0.1-1.2,0.6-1.4c0.5-0.2,1.1,0.1,1.3,0.7
					c1.7,5.4,5.2,8.1,10.3,8.1c2.2,0,4.6-0.5,7.3-1.5c6.7-2.6,10.1-11.8,7.5-20.1c-1.1-3.3-3-6.3-5.7-8.6c-3.2-2.8-7.2-4.3-11.8-4.3
					c-3.9,0-7.4,1-9.7,1.9c-1.8,0.7-2.9,1.3-3,1.4c0,0-0.1,0-0.1,0.1c-2.1,1.2-4.3,3-6,4.9l-0.3,0.3l-0.1-0.4
					c-0.2-0.7-0.4-1.2-0.6-1.7l-0.1-0.1l0.1-0.1c2.8-2.9,5.4-4.5,6.1-4.9l0,0c0.6-0.5,3-1.4,3.3-1.5c2.4-0.9,6.2-2.1,10.4-2.1
					c5,0,9.4,1.6,13.1,4.8c3,2.6,5.2,5.9,6.3,9.6c3,9.6-0.9,19.9-8.7,22.9C264.1,97.4,261.4,97.9,259,97.9z M247.5,87.4
					c-0.1,0-0.1,0-0.2,0c-0.3,0.1-0.4,0.5-0.3,0.8c2.4,7.6,7.9,9.2,12,9.2c2.4,0,5-0.5,7.6-1.5c7.6-2.9,11.4-13,8.4-22.3
					c-1.2-3.6-3.3-6.9-6.2-9.4c-3.6-3.1-7.8-4.6-12.8-4.6c-4.1,0-7.8,1.1-10.2,2c-1.9,0.7-3,1.4-3.2,1.4l-0.1,0
					c-0.7,0.4-3.2,1.9-5.9,4.7c0.1,0.4,0.3,0.7,0.4,1.2c1.7-1.8,3.8-3.5,5.9-4.7l0.1-0.1c0,0,1.2-0.7,3.1-1.4c2.3-0.9,5.9-2,9.9-2
					c4.7,0,8.8,1.5,12.1,4.4c2.7,2.4,4.7,5.4,5.8,8.8c2.7,8.6-0.8,18.1-7.8,20.7c-2.7,1-5.2,1.5-7.5,1.5c-5.4,0-9-2.8-10.8-8.5
					C248,87.5,247.8,87.4,247.5,87.4z"/>
			</g>
		</g>
		<g>
			<g>
				<path fill="#BFA63C" d="M267.5,64.8c0.1,0,4.7,0.9,8.6-1l0,0c1.9-0.9,3.6-2.6,4.4-5.3l0,0c0.8-2.6,0.7-4.7,0-6.2l0,0
					c-1.4-3.2-4.6-3.8-4.7-3.9l0,0c-0.4-0.1-0.8,0.2-0.9,0.7l0,0c-0.1,0.5,0.2,0.9,0.7,1l0,0c0,0,0.7,0.2,1.4,0.6l0,0
					c0.8,0.4,1.7,1.1,2.1,2.3l0,0c0.5,1.1,0.6,2.6-0.1,4.9l0,0c-0.7,2.2-2,3.5-3.6,4.3l0,0c-3.3,1.7-7.7,0.9-7.7,0.9l0,0l0,0
					c-0.4-0.1-0.8,0.2-0.9,0.7l0,0c0,0.2,0,0.4,0.1,0.5l0,0C267.1,64.6,267.3,64.8,267.5,64.8L267.5,64.8z"/>
				<path fill="#BFA63C" d="M270.3,65.3C270.3,65.3,270.3,65.3,270.3,65.3c-1,0-1.9-0.1-2.8-0.2c-0.4-0.1-0.7-0.3-0.8-0.7
					c-0.1-0.2-0.1-0.4-0.1-0.6c0.1-0.6,0.6-1,1.2-0.9l0.1,0c0.3,0.1,1.2,0.2,2.4,0.2c1.4,0,3.4-0.2,5.1-1c1.8-0.9,2.9-2.2,3.5-4.1
					c0.6-1.9,0.6-3.5,0.1-4.8c-0.4-1.1-1.3-1.8-2-2.1c-0.7-0.4-1.4-0.6-1.4-0.6c-0.5-0.1-0.9-0.7-0.8-1.3c0.1-0.6,0.6-1,1.2-0.9
					l0.1,0c1.3,0.3,3.6,1.3,4.8,4c0.8,1.8,0.8,4,0,6.4c-0.9,3.1-3,4.6-4.5,5.4C274.1,65.1,271.9,65.3,270.3,65.3z M267.6,63.4
					c-0.3,0-0.5,0.2-0.5,0.5c0,0.1,0,0.3,0,0.4c0.1,0.2,0.2,0.3,0.4,0.3c0.9,0.2,1.8,0.2,2.7,0.2c0,0,0,0,0,0c1.5,0,3.7-0.2,5.7-1.2
					c1.5-0.7,3.4-2.2,4.3-5.1c0.7-2.3,0.7-4.4,0-6c-1.1-2.5-3.3-3.4-4.5-3.7c0,0-0.1,0-0.1,0c-0.3,0-0.5,0.2-0.6,0.5
					c0,0.3,0.2,0.7,0.5,0.7c0,0,0.7,0.2,1.5,0.6c0.7,0.4,1.7,1.2,2.2,2.4c0.6,1.4,0.6,3-0.1,5.1c-0.6,2-1.8,3.5-3.7,4.4
					c-1.8,0.9-3.9,1.1-5.3,1.1C269.4,63.6,268.1,63.5,267.6,63.4L267.6,63.4C267.7,63.4,267.7,63.4,267.6,63.4z"/>
			</g>
			<g>
				<path fill="#BFA63C" d="M267.4,64.1c0,0.1,0.1,0.2,0.2,0.2l0,0l0,0c0.5,0.1,4.7,0.8,8.3-0.9l0.2,0.3l-0.1-0.3l0,0c0,0,0,0,0,0
					l0,0c1.8-0.9,3.4-2.4,4.1-5l0,0c0.8-2.5,0.6-4.4,0-5.8l0,0c-0.7-1.5-1.7-2.4-2.7-2.9l0,0c-0.5-0.3-0.9-0.4-1.2-0.5l0,0
					c-0.4-0.1-0.4-0.1-0.6-0.2l0,0c0.1,0,0,0.1-0.1,0.1l0,0c-0.1,0-0.2,0.1-0.2,0.3l0,0c0,0.1,0,0.1,0,0.2l0,0
					c0,0.1,0.1,0.2,0.3,0.2l0.2,0l0,0l0,0c0.3,0.1,0.8,0.3,1.3,0.6l0,0c0.8,0.4,1.8,1.2,2.3,2.5l0,0l0,0l0,0c0,0,0,0,0,0.1l0,0
					c0.5,1.1,0.7,2.8-0.1,5.2l0,0c-0.7,2.3-2.1,3.7-3.8,4.6l0,0c0,0,0,0,0,0l0,0c-1.7,0.9-3.7,1.1-5.2,1.1l0,0
					c-0.8,0-1.4-0.1-1.9-0.1l0,0c-0.2,0-0.4,0-0.6-0.1l0,0c-0.2,0-0.1,0-0.2-0.1l0,0c-0.1,0-0.1,0-0.2,0l0,0c-0.1,0-0.2,0.1-0.2,0.3
					l0,0C267.3,64,267.3,64.1,267.4,64.1L267.4,64.1z"/>
				<path fill="#BFA63C" d="M270.3,64.8C270.3,64.8,270.3,64.8,270.3,64.8c-0.9,0-1.9-0.1-2.7-0.2l-0.1,0c-0.1-0.1-0.3-0.2-0.3-0.3
					c0-0.1-0.1-0.2,0-0.3c0-0.2,0.1-0.4,0.3-0.5c0.1-0.1,0.2-0.1,0.3-0.1l0,0l0,0l0,0.3l0-0.2c0,0,0.1,0,0.1,0c0.1,0,0.2,0,0.3,0
					l0.2,0c0.4,0,1.1,0.1,1.9,0.1c2,0,3.7-0.4,5.1-1.1c0,0-0.1,0.1-0.1,0.3l0.2-0.1l0,0l0-0.1l-0.1-0.1l0,0c1.9-0.9,3.1-2.4,3.7-4.4
					c0.6-2,0.6-3.7,0.1-5l0-0.1c-0.4-1-1.2-1.8-2.2-2.4c-0.4-0.2-0.8-0.4-1.3-0.5l-0.2-0.1c-0.2,0-0.3-0.2-0.4-0.4
					c0-0.1-0.1-0.2-0.1-0.3c0-0.2,0.2-0.4,0.3-0.5l0,0c0,0-0.1,0.1-0.1,0.2l0.2,0l0.1-0.3c0.1,0,0.2,0.1,0.2,0.1
					c0.1,0,0.2,0,0.4,0.1c0.2,0.1,0.7,0.2,1.2,0.5c0.9,0.5,2.1,1.4,2.8,3c0.7,1.7,0.7,3.7,0,6c-0.7,2.2-2,3.9-4.1,5l0,0.1l-0.5,0.2
					l0-0.1C274.3,64.5,272.4,64.8,270.3,64.8z M267.8,64.1c0.8,0.1,1.7,0.2,2.6,0.2c2.1,0,4-0.4,5.5-1.1l0.1,0c2-1,3.3-2.6,4-4.8
					c0.7-2.2,0.7-4.1,0-5.7c-0.7-1.5-1.7-2.3-2.5-2.8c-0.5-0.3-1-0.4-1.2-0.5c-0.2-0.1-0.3-0.1-0.3-0.1c-0.1,0-0.1,0-0.2,0
					c0,0,0,0,0,0c0,0,0,0,0,0.1c0,0,0,0,0,0.1c0,0,0,0,0.1,0.1l0.4,0.1l0,0c0.4,0.1,0.8,0.3,1.2,0.5c1.1,0.6,2,1.5,2.4,2.6l0.1,0.2
					c0.6,1.4,0.6,3.2-0.1,5.4c-0.6,2.1-1.9,3.6-3.8,4.6l0,0l-0.2,0.1c-1.5,0.7-3.3,1.1-5.3,1.1c-0.8,0-1.5-0.1-1.9-0.1l-0.2,0
					c-0.1,0-0.3,0-0.4-0.1c0,0-0.1,0-0.1,0c0,0-0.1,0-0.1,0c0,0,0,0,0,0c0,0,0,0-0.1,0.1c0,0,0,0.1,0,0.1c0,0,0,0.1,0.1,0.1
					L267.8,64.1z"/>
			</g>
		</g>
	</g>
</g>
</svg>
