<?xml version="1.0" encoding="utf-8"?>
<!-- Generator: Adobe Illustrator 18.0.0, SVG Export Plug-In . SVG Version: 6.00 Build 0)  -->
<!DOCTYPE svg PUBLIC "-//W3C//DTD SVG 1.1//EN" "http://www.w3.org/Graphics/SVG/1.1/DTD/svg11.dtd">
<svg version="1.1" id="Layer_1" xmlns="http://www.w3.org/2000/svg" xmlns:xlink="http://www.w3.org/1999/xlink" x="0px" y="0px"
	 viewBox="0 0 174.5 174" enable-background="new 0 0 174.5 174" xml:space="preserve">
<rect x="58.7" y="-1.4" fill="#C0A73C" width="57.2" height="43.2"/>
<g>
	<g>
		<g>
			<defs>
				<rect id="SVGID_1_" x="7.3" y="13.4" width="160" height="160"/>
			</defs>
			<clipPath id="SVGID_2_">
				<use xlink:href="#SVGID_1_"  overflow="visible"/>
			</clipPath>
			<g clip-path="url(#SVGID_2_)">
				<path fill="#FBF6E7" d="M87.3,172.6c43.8,0,79.3-35.6,79.3-79.3S131,13.9,87.3,13.9C43.5,14.1,7.9,49.6,7.9,93.4
					S43.5,172.6,87.3,172.6"/>
			</g>
		</g>
		<g>
			<defs>
				<rect id="SVGID_3_" x="7.3" y="13.4" width="160" height="160"/>
			</defs>
			<clipPath id="SVGID_4_">
				<use xlink:href="#SVGID_3_"  overflow="visible"/>
			</clipPath>
			<g clip-path="url(#SVGID_4_)">
				<path fill="#BAAA5C" d="M87.3,173.4c-44.1,0-80-35.9-80-80s35.9-80,80-80s80,35.9,80,80S131.4,173.4,87.3,173.4z M87.3,14.7
					C44,14.7,8.8,50,8.8,93.4c0,43.3,35.2,78.5,78.5,78.5s78.5-35.2,78.5-78.5C165.8,50,130.5,14.7,87.3,14.7z"/>
			</g>
		</g>
	</g>
	<g>
		<g>
			<defs>
				<rect id="SVGID_5_" x="7.3" y="13.4" width="160" height="160"/>
			</defs>
			<clipPath id="SVGID_6_">
				<use xlink:href="#SVGID_5_"  overflow="visible"/>
			</clipPath>
			<g clip-path="url(#SVGID_6_)">
				<path fill="#FBF6E7" d="M87.3,168.5c41.6,0,75.1-33.7,75.1-75.1c0-41.6-33.7-75.1-75.1-75.1C45.7,18.1,12,51.8,12,93.4
					C12,134.8,45.7,168.5,87.3,168.5"/>
			</g>
		</g>
		<g>
			<defs>
				<rect id="SVGID_7_" x="7.3" y="13.4" width="160" height="160"/>
			</defs>
			<clipPath id="SVGID_8_">
				<use xlink:href="#SVGID_7_"  overflow="visible"/>
			</clipPath>
			<g clip-path="url(#SVGID_8_)">
				<path fill="#BAAA5C" d="M87.3,169c-41.8,0-75.6-33.9-75.6-75.6s33.9-75.6,75.6-75.6s75.6,33.9,75.6,75.6
					C162.9,135,128.9,169,87.3,169z M87.3,18.6c-41.3,0-74.8,33.5-74.8,74.8s33.5,74.8,74.8,74.8s74.8-33.5,74.8-74.8
					S128.5,18.6,87.3,18.6z"/>
			</g>
		</g>
		<g>
			<defs>
				<rect id="SVGID_9_" x="7.3" y="13.4" width="160" height="160"/>
			</defs>
			<clipPath id="SVGID_10_">
				<use xlink:href="#SVGID_9_"  overflow="visible"/>
			</clipPath>
			<g clip-path="url(#SVGID_10_)">
				<path fill="#C0A73C" d="M88.3,92.6c3.9,3.2,7,7.2,10.1,11.1c3,3.9,5.9,7.9,9.1,11.4s7,6.7,11.6,8.4c2.3,0.8,4.7,1.3,7.2,1.3
					c1.2,0,2.5,0,3.7,0s2.5-0.3,3.4-1.8c0.7-1,2.2-1.3,3.4-0.7c1,0.7,1.3,2.2,0.7,3.4c-0.7,1-2.2,1.3-3.4,0.7l0,0l0,0
					c-1.5-1-2.7-1.2-3.9-1c-1.2,0-2.5,0-3.7,0c-2.5-0.2-4.9-0.5-7.4-1.2c-4.9-1.3-9.1-4.2-12.6-7.7s-6.5-7.5-9.6-11.2
					c-3-3.9-6.2-7.4-10.1-10.4c-0.5-0.5-0.7-1.2-0.2-1.8C86.9,92.2,87.8,92.2,88.3,92.6L88.3,92.6L88.3,92.6z"/>
			</g>
		</g>
		<g>
			<defs>
				<rect id="SVGID_11_" x="7.3" y="13.4" width="160" height="160"/>
			</defs>
			<clipPath id="SVGID_12_">
				<use xlink:href="#SVGID_11_"  overflow="visible"/>
			</clipPath>
			<g clip-path="url(#SVGID_12_)">
				<path fill="#C0A73C" d="M86.1,94.1c-3.9-3.2-7-7.2-10.1-11.1c-3-3.9-5.9-7.9-9.1-11.4c-3.2-3.5-7-6.7-11.6-8.4
					c-2.3-0.8-4.7-1.3-7.2-1.3c-1.2,0-2.5,0-3.7,0c-1.2,0-2.5,0.3-3.4,1.8c-0.7,1-2.2,1.3-3.4,0.7c-1-0.7-1.3-2.2-0.7-3.4
					c0.7-1,2.2-1.3,3.4-0.7l0,0l0,0c1.5,1,2.7,1.2,3.9,1c1.2,0,2.5,0,3.7,0c2.5,0.2,4.9,0.5,7.4,1.2c4.9,1.3,9.1,4.2,12.6,7.7
					s6.5,7.5,9.6,11.2c3,3.9,6.2,7.4,10.1,10.4c0.5,0.5,0.7,1.2,0.2,1.8C87.6,94.4,86.8,94.6,86.1,94.1
					C86.3,94.1,86.3,94.1,86.1,94.1L86.1,94.1z"/>
			</g>
		</g>
		<g>
			<defs>
				<rect id="SVGID_13_" x="7.3" y="13.4" width="160" height="160"/>
			</defs>
			<clipPath id="SVGID_14_">
				<use xlink:href="#SVGID_13_"  overflow="visible"/>
			</clipPath>
			<g clip-path="url(#SVGID_14_)">
				<path fill="#C0A73C" d="M87.9,94.4c-3.2,3.9-7.2,7-11.1,10.1c-3.9,3-7.9,5.9-11.4,9.1s-6.7,7-8.4,11.6c-0.8,2.3-1.3,4.7-1.3,7.2
					c0,1.2,0,2.5,0,3.7s0.3,2.5,1.8,3.4c1,0.7,1.3,2.2,0.7,3.4c-0.7,1-2.2,1.3-3.4,0.7c-1-0.7-1.3-2.2-0.7-3.4l0,0l0,0
					c1-1.5,1.2-2.7,1-3.9c0-1.2,0-2.5,0-3.7c0.2-2.5,0.5-4.9,1.2-7.4c1.3-4.9,4.2-9.1,7.7-12.6s7.5-6.5,11.2-9.6
					c3.9-3,7.4-6.2,10.4-10.1c0.5-0.5,1.2-0.7,1.8-0.2C88.3,93.1,88.4,93.9,87.9,94.4L87.9,94.4L87.9,94.4z"/>
			</g>
		</g>
		<g>
			<defs>
				<rect id="SVGID_15_" x="7.3" y="13.4" width="160" height="160"/>
			</defs>
			<clipPath id="SVGID_16_">
				<use xlink:href="#SVGID_15_"  overflow="visible"/>
			</clipPath>
			<g clip-path="url(#SVGID_16_)">
				<path fill="#C0A73C" d="M86.6,92.2c3.2-3.9,7.2-7,11.1-10.1c3.9-3,7.9-5.9,11.4-9.1c3.5-3.2,6.7-7,8.4-11.6
					c0.8-2.3,1.3-4.7,1.3-7.2c0-1.2,0-2.5,0-3.7c0-1.2-0.3-2.5-1.8-3.4c-1-0.7-1.3-2.2-0.7-3.4c0.7-1,2.2-1.3,3.4-0.7
					c1,0.7,1.3,2.2,0.7,3.4l0,0l0,0c-1,1.5-1.2,2.7-1,3.9c0,1.2,0,2.5,0,3.7c-0.2,2.5-0.5,4.9-1.2,7.4c-1.3,4.9-4.2,9.1-7.7,12.6
					c-3.5,3.5-7.5,6.5-11.2,9.6c-3.9,3-7.4,6.2-10.4,10.1c-0.5,0.5-1.2,0.7-1.8,0.2C86.1,93.7,86.1,92.9,86.6,92.2
					C86.4,92.4,86.4,92.4,86.6,92.2L86.6,92.2z"/>
			</g>
		</g>
		<g>
			<defs>
				<rect id="SVGID_17_" x="7.3" y="13.4" width="160" height="160"/>
			</defs>
			<clipPath id="SVGID_18_">
				<use xlink:href="#SVGID_17_"  overflow="visible"/>
			</clipPath>
			<g clip-path="url(#SVGID_18_)">
				<path fill="#C0A73C" d="M88.4,93.6c0.5,5,0,10.1-0.7,14.9c-0.7,4.9-1.5,9.7-1.7,14.6c-0.2,4.9,0.3,9.7,2.3,14.1
					c1,2.2,2.3,4.2,4,6c0.8,0.8,1.7,1.7,2.7,2.5c0.8,0.8,2,1.5,3.7,1.2c1.3-0.2,2.5,0.7,2.9,1.8c0.2,1.3-0.7,2.5-1.8,2.9
					c-1.3,0.2-2.5-0.7-2.9-1.8c0,0,0,0,0-0.2l0,0c-0.3-1.8-1-2.7-2-3.5c-1-0.8-1.8-1.7-2.7-2.7c-1.7-1.8-3.2-3.9-4.4-6
					c-2.5-4.4-3.5-9.4-3.5-14.4c0-5,0.7-9.9,1.2-14.8c0.5-4.9,0.8-9.7,0.3-14.4c0-0.7,0.5-1.3,1.2-1.3
					C87.8,92.4,88.4,92.9,88.4,93.6L88.4,93.6L88.4,93.6z"/>
			</g>
		</g>
		<g>
			<defs>
				<rect id="SVGID_19_" x="7.3" y="13.4" width="160" height="160"/>
			</defs>
			<clipPath id="SVGID_20_">
				<use xlink:href="#SVGID_19_"  overflow="visible"/>
			</clipPath>
			<g clip-path="url(#SVGID_20_)">
				<path fill="#C0A73C" d="M85.9,93.1c-0.3-5,0-10.1,0.7-14.9c0.7-4.9,1.5-9.7,1.7-14.6c0.2-4.9-0.3-9.7-2.3-14.1
					c-1-2.2-2.3-4.2-4-6c-0.8-0.8-1.7-1.7-2.7-2.5c-0.8-0.8-2-1.5-3.7-1.2c-1.3,0.2-2.5-0.7-2.9-1.8c-0.2-1.3,0.7-2.5,1.8-2.9
					c1.3-0.2,2.5,0.7,2.9,1.8c0,0,0,0,0,0.2l0,0c0.3,1.8,1,2.7,2,3.5c1,0.8,1.8,1.7,2.7,2.7c1.7,1.8,3.2,3.9,4.4,6
					C89,53.7,90,58.7,90,63.7s-0.7,9.9-1.2,14.8s-0.8,9.7-0.3,14.4c0,0.7-0.5,1.3-1.2,1.5C86.8,94.4,86.1,93.9,85.9,93.1
					C85.9,93.2,85.9,93.2,85.9,93.1L85.9,93.1z"/>
			</g>
		</g>
		<g>
			<defs>
				<rect id="SVGID_21_" x="7.3" y="13.4" width="160" height="160"/>
			</defs>
			<clipPath id="SVGID_22_">
				<use xlink:href="#SVGID_21_"  overflow="visible"/>
			</clipPath>
			<g clip-path="url(#SVGID_22_)">
				<path fill="#C0A73C" d="M86.9,94.6c-5,0.5-10.1,0-14.9-0.7c-4.9-0.7-9.7-1.5-14.6-1.7c-4.9-0.2-9.7,0.3-14.1,2.3
					c-2.2,1-4.2,2.3-6,4c-0.8,0.8-1.7,1.7-2.5,2.7c-0.8,0.8-1.5,2-1.2,3.7c0.2,1.3-0.7,2.5-1.8,2.9c-1.3,0.2-2.5-0.7-2.9-1.8
					c-0.2-1.3,0.7-2.5,1.8-2.9c0,0,0,0,0.2,0l0,0c1.8-0.3,2.7-1,3.5-2c0.8-1,1.7-1.8,2.7-2.7c1.8-1.7,3.9-3.2,6-4.4
					c4.4-2.5,9.4-3.5,14.4-3.5s9.9,0.7,14.8,1.2c4.9,0.5,9.7,0.8,14.4,0.3c0.7,0,1.3,0.5,1.5,1.2C88.3,93.9,87.8,94.6,86.9,94.6
					C87.1,94.6,86.9,94.6,86.9,94.6L86.9,94.6z"/>
			</g>
		</g>
		<g>
			<defs>
				<rect id="SVGID_23_" x="7.3" y="13.4" width="160" height="160"/>
			</defs>
			<clipPath id="SVGID_24_">
				<use xlink:href="#SVGID_23_"  overflow="visible"/>
			</clipPath>
			<g clip-path="url(#SVGID_24_)">
				<path fill="#C0A73C" d="M87.4,92.1c5-0.5,10.1,0,14.9,0.7c4.9,0.7,9.7,1.5,14.6,1.7c4.9,0.2,9.7-0.3,14.1-2.3c2.2-1,4.2-2.3,6-4
					c0.8-0.8,1.7-1.7,2.5-2.7c0.8-0.8,1.5-2,1.2-3.7c-0.2-1.3,0.7-2.5,1.8-2.9c1.3-0.2,2.5,0.7,2.9,1.8c0.2,1.3-0.7,2.5-1.8,2.9
					c0,0,0,0-0.2,0l0,0c-1.8,0.3-2.7,1-3.5,2c-0.8,1-1.7,1.8-2.7,2.7c-1.8,1.7-3.9,3.2-6,4.4c-4.4,2.5-9.4,3.5-14.4,3.5
					c-5,0-9.9-0.7-14.8-1.2c-4.9-0.5-9.7-0.8-14.4-0.3c-0.7,0-1.3-0.5-1.3-1.2C86.3,92.9,86.8,92.2,87.4,92.1L87.4,92.1L87.4,92.1z"
					/>
			</g>
		</g>
		<g>
			<defs>
				<rect id="SVGID_25_" x="7.3" y="13.4" width="160" height="160"/>
			</defs>
			<clipPath id="SVGID_26_">
				<use xlink:href="#SVGID_25_"  overflow="visible"/>
			</clipPath>
			<g clip-path="url(#SVGID_26_)">
				<path fill="#C0A73C" d="M88.4,93.2c2,4.7,3,9.6,3.9,14.4c0.8,4.9,1.5,9.7,2.9,14.4c1.2,4.7,3.2,9.2,6.5,12.7
					c1.7,1.8,3.5,3.4,5.7,4.5c1,0.7,2.2,1.2,3.4,1.7c1.2,0.5,2.3,0.8,3.9,0c1.2-0.7,2.5-0.2,3.2,1c0.7,1.2,0.2,2.5-1,3.2
					c-1.2,0.7-2.5,0.2-3.2-1l0,0l0,0c-0.8-1.7-1.8-2.2-3-2.7c-1.2-0.5-2.2-1-3.4-1.7c-2.2-1.2-4.2-2.7-6-4.4
					c-3.7-3.4-6.2-7.9-7.7-12.7c-1.5-4.7-2.3-9.7-3.4-14.4s-2.2-9.4-4.2-13.9c-0.3-0.7,0-1.3,0.7-1.7C87.4,92.2,88.3,92.6,88.4,93.2
					L88.4,93.2L88.4,93.2z"/>
			</g>
		</g>
		<g>
			<defs>
				<rect id="SVGID_27_" x="7.3" y="13.4" width="160" height="160"/>
			</defs>
			<clipPath id="SVGID_28_">
				<use xlink:href="#SVGID_27_"  overflow="visible"/>
			</clipPath>
			<g clip-path="url(#SVGID_28_)">
				<path fill="#C0A73C" d="M85.9,93.6c-2-4.7-3-9.6-3.9-14.4c-0.8-4.9-1.5-9.7-2.9-14.4C78,60,76,55.5,72.7,52
					c-1.7-1.8-3.5-3.4-5.7-4.5c-1-0.7-2.2-1.2-3.4-1.7s-2.3-0.8-3.9,0c-1.2,0.7-2.5,0.2-3.2-1c-0.7-1.2-0.2-2.5,1-3.2
					c1.2-0.7,2.5-0.2,3.2,1l0,0l0,0c0.8,1.7,1.8,2.2,3,2.7c1.2,0.5,2.2,1,3.4,1.7c2.2,1.2,4.2,2.7,6,4.4c3.7,3.4,6.2,7.9,7.7,12.7
					c1.5,4.7,2.3,9.7,3.4,14.4c1,4.9,2.2,9.4,4.2,13.9c0.3,0.7,0,1.3-0.7,1.7C87.1,94.6,86.3,94.2,85.9,93.6L85.9,93.6L85.9,93.6z"
					/>
			</g>
		</g>
		<g>
			<defs>
				<rect id="SVGID_29_" x="7.3" y="13.4" width="160" height="160"/>
			</defs>
			<clipPath id="SVGID_30_">
				<use xlink:href="#SVGID_29_"  overflow="visible"/>
			</clipPath>
			<g clip-path="url(#SVGID_30_)">
				<path fill="#C0A73C" d="M87.4,94.6c-4.7,2-9.6,3-14.4,3.9c-4.9,0.8-9.7,1.5-14.4,2.9c-4.7,1.2-9.2,3.2-12.7,6.5
					c-1.8,1.7-3.4,3.5-4.5,5.7c-0.7,1-1.2,2.2-1.7,3.4s-0.8,2.3,0,3.9c0.7,1.2,0.2,2.5-1,3.2c-1.2,0.7-2.5,0.2-3.2-1
					c-0.7-1.2-0.2-2.5,1-3.2l0,0l0,0c1.7-0.8,2.2-1.8,2.7-3c0.5-1.2,1-2.2,1.7-3.4c1.2-2.2,2.7-4.2,4.4-6c3.4-3.7,7.9-6.2,12.7-7.7
					c4.7-1.5,9.7-2.3,14.4-3.4c4.9-1,9.4-2.2,13.9-4.2c0.7-0.3,1.3,0,1.7,0.7C88.4,93.6,88.1,94.4,87.4,94.6L87.4,94.6L87.4,94.6z"
					/>
			</g>
		</g>
		<g>
			<defs>
				<rect id="SVGID_31_" x="7.3" y="13.4" width="160" height="160"/>
			</defs>
			<clipPath id="SVGID_32_">
				<use xlink:href="#SVGID_31_"  overflow="visible"/>
			</clipPath>
			<g clip-path="url(#SVGID_32_)">
				<path fill="#C0A73C" d="M87.1,92.1c4.7-2,9.6-3,14.4-3.9c4.9-0.8,9.7-1.5,14.4-2.9c4.7-1.2,9.2-3.2,12.7-6.5
					c1.8-1.7,3.4-3.5,4.5-5.7c0.7-1,1.2-2.2,1.7-3.4c0.5-1.2,0.8-2.3,0-3.9c-0.7-1.2-0.2-2.5,1-3.2c1.2-0.7,2.5-0.2,3.2,1
					c0.7,1.2,0.2,2.5-1,3.2c0,0,0,0-0.2,0l0,0c-1.7,0.8-2.2,1.8-2.7,3c-0.5,1.2-1,2.2-1.7,3.4c-1.2,2.2-2.7,4.2-4.4,6
					c-3.4,3.7-7.9,6.2-12.7,7.7c-4.7,1.5-9.7,2.3-14.4,3.4c-4.9,1-9.4,2.2-13.9,4.2c-0.7,0.3-1.3,0-1.7-0.7
					C86.1,93.2,86.4,92.4,87.1,92.1L87.1,92.1L87.1,92.1z"/>
			</g>
		</g>
		<g>
			<defs>
				<rect id="SVGID_33_" x="7.3" y="13.4" width="160" height="160"/>
			</defs>
			<clipPath id="SVGID_34_">
				<use xlink:href="#SVGID_33_"  overflow="visible"/>
			</clipPath>
			<g clip-path="url(#SVGID_34_)">
				<path fill="#C0A73C" d="M88.3,94.2c-1.8,4.7-4.7,8.9-7.5,12.9c-2.9,4-5.7,7.9-8.2,12.1c-2.3,4.2-4.2,8.7-4.4,13.6
					c-0.2,2.3,0.2,4.9,0.8,7.2c0.3,1.2,0.7,2.3,1.2,3.5c0.3,1.2,1.2,2.2,2.9,2.7c1.2,0.3,2,1.7,1.7,3c-0.3,1.2-1.7,2-3,1.7
					c-1.2-0.3-2-1.7-1.7-3c0,0,0,0,0-0.2l0,0c0.5-1.7,0.3-2.9-0.2-4s-0.8-2.3-1.2-3.5c-0.7-2.3-1.2-4.9-1.2-7.4
					c-0.2-5,1.2-10.1,3.5-14.4c2.3-4.4,5.2-8.4,7.9-12.6c2.7-4,5.2-8.2,6.9-12.7c0.2-0.7,1-1,1.7-0.7C88.1,92.7,88.4,93.4,88.3,94.2
					C88.3,94.1,88.3,94.1,88.3,94.2L88.3,94.2z"/>
			</g>
		</g>
		<g>
			<defs>
				<rect id="SVGID_35_" x="7.3" y="13.4" width="160" height="160"/>
			</defs>
			<clipPath id="SVGID_36_">
				<use xlink:href="#SVGID_35_"  overflow="visible"/>
			</clipPath>
			<g clip-path="url(#SVGID_36_)">
				<path fill="#C0A73C" d="M86.3,92.6c1.8-4.7,4.7-8.9,7.5-12.9c2.9-4,5.7-7.9,8.2-12.1c2.3-4.2,4.2-8.7,4.4-13.6
					c0.2-2.3-0.2-4.9-0.8-7.2c-0.3-1.2-0.7-2.3-1.2-3.5c-0.3-1.2-1.2-2.2-2.9-2.7c-1.3-0.3-2-1.7-1.7-3c0.3-1.2,1.7-2,3-1.7
					c1.2,0.3,2,1.7,1.7,3c0,0,0,0,0,0.2l0,0c-0.5,1.7-0.3,2.9,0.2,4s0.8,2.3,1.2,3.5c0.7,2.3,1.2,4.9,1.2,7.4
					c0.2,5-1.3,10.1-3.5,14.4c-2.3,4.4-5.2,8.4-7.9,12.6c-2.7,4-5.2,8.2-6.9,12.7c-0.3,0.7-1,1-1.7,0.7
					C86.3,94.1,85.9,93.2,86.3,92.6L86.3,92.6L86.3,92.6z"/>
			</g>
		</g>
		<g>
			<defs>
				<rect id="SVGID_37_" x="7.3" y="13.4" width="160" height="160"/>
			</defs>
			<clipPath id="SVGID_38_">
				<use xlink:href="#SVGID_37_"  overflow="visible"/>
			</clipPath>
			<g clip-path="url(#SVGID_38_)">
				<path fill="#C0A73C" d="M86.4,94.4c-4.7-1.8-8.9-4.7-12.9-7.5c-4-2.9-7.9-5.7-12.1-8.2c-4.2-2.3-8.7-4.2-13.6-4.4
					c-2.3-0.2-4.9,0.2-7.2,0.8c-1.2,0.3-2.3,0.7-3.5,1.2c-1.2,0.3-2.2,1.2-2.7,2.9c-0.3,1.3-1.7,2-3,1.7c-1.2-0.3-2-1.7-1.7-3
					c0.3-1.2,1.7-2,3-1.7c0,0,0,0,0.2,0l0,0c1.7,0.7,2.9,0.3,4-0.2c1.2-0.5,2.3-0.8,3.5-1.2c2.3-0.7,4.9-1.2,7.4-1.2
					c5-0.2,10.1,1.3,14.4,3.5c4.4,2.3,8.4,5.2,12.6,7.9c4,2.7,8.2,5.2,12.7,6.9c0.7,0.3,1,1,0.7,1.7S87.1,94.6,86.4,94.4L86.4,94.4
					L86.4,94.4z"/>
			</g>
		</g>
		<g>
			<defs>
				<rect id="SVGID_39_" x="7.3" y="13.4" width="160" height="160"/>
			</defs>
			<clipPath id="SVGID_40_">
				<use xlink:href="#SVGID_39_"  overflow="visible"/>
			</clipPath>
			<g clip-path="url(#SVGID_40_)">
				<path fill="#C0A73C" d="M88.1,92.4c4.7,1.8,8.9,4.7,12.9,7.5c4,2.9,7.9,5.7,12.1,8.2c4.2,2.3,8.7,4.2,13.6,4.4
					c2.3,0.2,4.9-0.2,7.2-0.8c1.2-0.3,2.3-0.7,3.5-1.2c1.2-0.3,2.2-1.2,2.7-2.9c0.3-1.2,1.7-2,3-1.7c1.2,0.3,2,1.7,1.7,3
					c-0.3,1.2-1.7,2-3,1.7c0,0,0,0-0.2,0l0,0c-1.7-0.7-2.9-0.3-4,0.2c-1.2,0.5-2.3,0.8-3.5,1.2c-2.3,0.7-4.9,1.2-7.4,1.2
					c-5,0.2-10.1-1.3-14.4-3.5c-4.5-2.3-8.6-5.2-12.6-7.9c-4-2.7-8.2-5.2-12.7-6.9c-0.7-0.3-1-1-0.7-1.7
					C86.6,92.4,87.3,92.1,88.1,92.4C87.9,92.4,87.9,92.4,88.1,92.4L88.1,92.4z"/>
			</g>
		</g>
		<g>
			<defs>
				<rect id="SVGID_41_" x="7.3" y="13.4" width="160" height="160"/>
			</defs>
			<clipPath id="SVGID_42_">
				<use xlink:href="#SVGID_41_"  overflow="visible"/>
			</clipPath>
			<g clip-path="url(#SVGID_42_)">
				<path fill="#C0A73C" d="M88.3,92.6c3.9,3.2,7,7.2,10.1,11.1c3,3.9,5.9,7.9,9.1,11.4s7,6.7,11.6,8.4c2.3,0.8,4.7,1.3,7.2,1.3
					c1.2,0,2.5,0,3.7,0s2.5-0.3,3.4-1.8c0.7-1,2.2-1.3,3.4-0.7c1,0.7,1.3,2.2,0.7,3.4c-0.7,1-2.2,1.3-3.4,0.7l0,0l0,0
					c-1.5-1-2.7-1.2-3.9-1c-1.2,0-2.5,0-3.7,0c-2.5-0.2-4.9-0.5-7.4-1.2c-4.9-1.3-9.1-4.2-12.6-7.7s-6.5-7.5-9.6-11.2
					c-3-3.9-6.2-7.4-10.1-10.4c-0.5-0.5-0.7-1.2-0.2-1.8C86.9,92.2,87.8,92.2,88.3,92.6L88.3,92.6L88.3,92.6z"/>
			</g>
		</g>
		<g>
			<defs>
				<rect id="SVGID_43_" x="7.3" y="13.4" width="160" height="160"/>
			</defs>
			<clipPath id="SVGID_44_">
				<use xlink:href="#SVGID_43_"  overflow="visible"/>
			</clipPath>
			<g clip-path="url(#SVGID_44_)">
				<path fill="#C0A73C" d="M86.1,94.1c-3.9-3.2-7-7.2-10.1-11.1c-3-3.9-5.9-7.9-9.1-11.4c-3.2-3.5-7-6.7-11.6-8.4
					c-2.3-0.8-4.7-1.3-7.2-1.3c-1.2,0-2.5,0-3.7,0c-1.2,0-2.5,0.3-3.4,1.8c-0.7,1-2.2,1.3-3.4,0.7c-1-0.7-1.3-2.2-0.7-3.4
					c0.7-1,2.2-1.3,3.4-0.7l0,0l0,0c1.5,1,2.7,1.2,3.9,1c1.2,0,2.5,0,3.7,0c2.5,0.2,4.9,0.5,7.4,1.2c4.9,1.3,9.1,4.2,12.6,7.7
					s6.5,7.5,9.6,11.2c3,3.9,6.2,7.4,10.1,10.4c0.5,0.5,0.7,1.2,0.2,1.8C87.6,94.4,86.8,94.6,86.1,94.1
					C86.3,94.1,86.3,94.1,86.1,94.1L86.1,94.1z"/>
			</g>
		</g>
		<g>
			<defs>
				<rect id="SVGID_45_" x="7.3" y="13.4" width="160" height="160"/>
			</defs>
			<clipPath id="SVGID_46_">
				<use xlink:href="#SVGID_45_"  overflow="visible"/>
			</clipPath>
			<g clip-path="url(#SVGID_46_)">
				<path fill="#C0A73C" d="M87.9,94.4c-3.2,3.9-7.2,7-11.1,10.1c-3.9,3-7.9,5.9-11.4,9.1s-6.7,7-8.4,11.6c-0.8,2.3-1.3,4.7-1.3,7.2
					c0,1.2,0,2.5,0,3.7s0.3,2.5,1.8,3.4c1,0.7,1.3,2.2,0.7,3.4c-0.7,1-2.2,1.3-3.4,0.7c-1-0.7-1.3-2.2-0.7-3.4l0,0l0,0
					c1-1.5,1.2-2.7,1-3.9c0-1.2,0-2.5,0-3.7c0.2-2.5,0.5-4.9,1.2-7.4c1.3-4.9,4.2-9.1,7.7-12.6s7.5-6.5,11.2-9.6
					c3.9-3,7.4-6.2,10.4-10.1c0.5-0.5,1.2-0.7,1.8-0.2C88.3,93.1,88.4,93.9,87.9,94.4L87.9,94.4L87.9,94.4z"/>
			</g>
		</g>
		<g>
			<defs>
				<rect id="SVGID_47_" x="7.3" y="13.4" width="160" height="160"/>
			</defs>
			<clipPath id="SVGID_48_">
				<use xlink:href="#SVGID_47_"  overflow="visible"/>
			</clipPath>
			<g clip-path="url(#SVGID_48_)">
				<path fill="#C0A73C" d="M86.6,92.2c3.2-3.9,7.2-7,11.1-10.1c3.9-3,7.9-5.9,11.4-9.1c3.5-3.2,6.7-7,8.4-11.6
					c0.8-2.3,1.3-4.7,1.3-7.2c0-1.2,0-2.5,0-3.7c0-1.2-0.3-2.5-1.8-3.4c-1-0.7-1.3-2.2-0.7-3.4c0.7-1,2.2-1.3,3.4-0.7
					c1,0.7,1.3,2.2,0.7,3.4l0,0l0,0c-1,1.5-1.2,2.7-1,3.9c0,1.2,0,2.5,0,3.7c-0.2,2.5-0.5,4.9-1.2,7.4c-1.3,4.9-4.2,9.1-7.7,12.6
					c-3.5,3.5-7.5,6.5-11.2,9.6c-3.9,3-7.4,6.2-10.4,10.1c-0.5,0.5-1.2,0.7-1.8,0.2C86.1,93.7,86.1,92.9,86.6,92.2
					C86.4,92.4,86.4,92.4,86.6,92.2L86.6,92.2z"/>
			</g>
		</g>
		<g>
			<defs>
				<rect id="SVGID_49_" x="7.3" y="13.4" width="160" height="160"/>
			</defs>
			<clipPath id="SVGID_50_">
				<use xlink:href="#SVGID_49_"  overflow="visible"/>
			</clipPath>
			<g clip-path="url(#SVGID_50_)">
				<path fill="#C0A73C" d="M88.4,93.6c0.5,5,0,10.1-0.7,14.9c-0.7,4.9-1.5,9.7-1.7,14.6c-0.2,4.9,0.3,9.7,2.3,14.1
					c1,2.2,2.3,4.2,4,6c0.8,0.8,1.7,1.7,2.7,2.5c0.8,0.8,2,1.5,3.7,1.2c1.3-0.2,2.5,0.7,2.9,1.8c0.2,1.3-0.7,2.5-1.8,2.9
					c-1.3,0.2-2.5-0.7-2.9-1.8c0,0,0,0,0-0.2l0,0c-0.3-1.8-1-2.7-2-3.5c-1-0.8-1.8-1.7-2.7-2.7c-1.7-1.8-3.2-3.9-4.4-6
					c-2.5-4.4-3.5-9.4-3.5-14.4c0-5,0.7-9.9,1.2-14.8c0.5-4.9,0.8-9.7,0.3-14.4c0-0.7,0.5-1.3,1.2-1.3
					C87.8,92.4,88.4,92.9,88.4,93.6L88.4,93.6L88.4,93.6z"/>
			</g>
		</g>
		<g>
			<defs>
				<rect id="SVGID_51_" x="7.3" y="13.4" width="160" height="160"/>
			</defs>
			<clipPath id="SVGID_52_">
				<use xlink:href="#SVGID_51_"  overflow="visible"/>
			</clipPath>
			<g clip-path="url(#SVGID_52_)">
				<path fill="#C0A73C" d="M85.9,93.1c-0.3-5,0-10.1,0.7-14.9c0.7-4.9,1.5-9.7,1.7-14.6c0.2-4.9-0.3-9.7-2.3-14.1
					c-1-2.2-2.3-4.2-4-6c-0.8-0.8-1.7-1.7-2.7-2.5c-0.8-0.8-2-1.5-3.7-1.2c-1.3,0.2-2.5-0.7-2.9-1.8c-0.2-1.3,0.7-2.5,1.8-2.9
					c1.3-0.2,2.5,0.7,2.9,1.8c0,0,0,0,0,0.2l0,0c0.3,1.8,1,2.7,2,3.5c1,0.8,1.8,1.7,2.7,2.7c1.7,1.8,3.2,3.9,4.4,6
					C89,53.7,90,58.7,90,63.7s-0.7,9.9-1.2,14.8s-0.8,9.7-0.3,14.4c0,0.7-0.5,1.3-1.2,1.5C86.8,94.4,86.1,93.9,85.9,93.1
					C85.9,93.2,85.9,93.2,85.9,93.1L85.9,93.1z"/>
			</g>
		</g>
		<g>
			<defs>
				<rect id="SVGID_53_" x="7.3" y="13.4" width="160" height="160"/>
			</defs>
			<clipPath id="SVGID_54_">
				<use xlink:href="#SVGID_53_"  overflow="visible"/>
			</clipPath>
			<g clip-path="url(#SVGID_54_)">
				<path fill="#C0A73C" d="M86.9,94.6c-5,0.5-10.1,0-14.9-0.7c-4.9-0.7-9.7-1.5-14.6-1.7c-4.9-0.2-9.7,0.3-14.1,2.3
					c-2.2,1-4.2,2.3-6,4c-0.8,0.8-1.7,1.7-2.5,2.7c-0.8,0.8-1.5,2-1.2,3.7c0.2,1.3-0.7,2.5-1.8,2.9c-1.3,0.2-2.5-0.7-2.9-1.8
					c-0.2-1.3,0.7-2.5,1.8-2.9c0,0,0,0,0.2,0l0,0c1.8-0.3,2.7-1,3.5-2c0.8-1,1.7-1.8,2.7-2.7c1.8-1.7,3.9-3.2,6-4.4
					c4.4-2.5,9.4-3.5,14.4-3.5s9.9,0.7,14.8,1.2c4.9,0.5,9.7,0.8,14.4,0.3c0.7,0,1.3,0.5,1.5,1.2C88.3,93.9,87.8,94.6,86.9,94.6
					C87.1,94.6,86.9,94.6,86.9,94.6L86.9,94.6z"/>
			</g>
		</g>
		<g>
			<defs>
				<rect id="SVGID_55_" x="7.3" y="13.4" width="160" height="160"/>
			</defs>
			<clipPath id="SVGID_56_">
				<use xlink:href="#SVGID_55_"  overflow="visible"/>
			</clipPath>
			<g clip-path="url(#SVGID_56_)">
				<path fill="#C0A73C" d="M87.4,92.1c5-0.5,10.1,0,14.9,0.7c4.9,0.7,9.7,1.5,14.6,1.7c4.9,0.2,9.7-0.3,14.1-2.3c2.2-1,4.2-2.3,6-4
					c0.8-0.8,1.7-1.7,2.5-2.7c0.8-0.8,1.5-2,1.2-3.7c-0.2-1.3,0.7-2.5,1.8-2.9c1.3-0.2,2.5,0.7,2.9,1.8c0.2,1.3-0.7,2.5-1.8,2.9
					c0,0,0,0-0.2,0l0,0c-1.8,0.3-2.7,1-3.5,2c-0.8,1-1.7,1.8-2.7,2.7c-1.8,1.7-3.9,3.2-6,4.4c-4.4,2.5-9.4,3.5-14.4,3.5
					c-5,0-9.9-0.7-14.8-1.2c-4.9-0.5-9.7-0.8-14.4-0.3c-0.7,0-1.3-0.5-1.3-1.2C86.3,92.9,86.8,92.2,87.4,92.1L87.4,92.1L87.4,92.1z"
					/>
			</g>
		</g>
		<g>
			<defs>
				<rect id="SVGID_57_" x="7.3" y="13.4" width="160" height="160"/>
			</defs>
			<clipPath id="SVGID_58_">
				<use xlink:href="#SVGID_57_"  overflow="visible"/>
			</clipPath>
			<g clip-path="url(#SVGID_58_)">
				<path fill="#C0A73C" d="M88.4,93.2c2,4.7,3,9.6,3.9,14.4c0.8,4.9,1.5,9.7,2.9,14.4c1.2,4.7,3.2,9.2,6.5,12.7
					c1.7,1.8,3.5,3.4,5.7,4.5c1,0.7,2.2,1.2,3.4,1.7c1.2,0.5,2.3,0.8,3.9,0c1.2-0.7,2.5-0.2,3.2,1c0.7,1.2,0.2,2.5-1,3.2
					c-1.2,0.7-2.5,0.2-3.2-1l0,0l0,0c-0.8-1.7-1.8-2.2-3-2.7c-1.2-0.5-2.2-1-3.4-1.7c-2.2-1.2-4.2-2.7-6-4.4
					c-3.7-3.4-6.2-7.9-7.7-12.7c-1.5-4.7-2.3-9.7-3.4-14.4s-2.2-9.4-4.2-13.9c-0.3-0.7,0-1.3,0.7-1.7C87.4,92.2,88.3,92.6,88.4,93.2
					L88.4,93.2L88.4,93.2z"/>
			</g>
		</g>
		<g>
			<defs>
				<rect id="SVGID_59_" x="7.3" y="13.4" width="160" height="160"/>
			</defs>
			<clipPath id="SVGID_60_">
				<use xlink:href="#SVGID_59_"  overflow="visible"/>
			</clipPath>
			<g clip-path="url(#SVGID_60_)">
				<path fill="#C0A73C" d="M85.9,93.6c-2-4.7-3-9.6-3.9-14.4c-0.8-4.9-1.5-9.7-2.9-14.4C78,60,76,55.5,72.7,52
					c-1.7-1.8-3.5-3.4-5.7-4.5c-1-0.7-2.2-1.2-3.4-1.7s-2.3-0.8-3.9,0c-1.2,0.7-2.5,0.2-3.2-1c-0.7-1.2-0.2-2.5,1-3.2
					c1.2-0.7,2.5-0.2,3.2,1l0,0l0,0c0.8,1.7,1.8,2.2,3,2.7c1.2,0.5,2.2,1,3.4,1.7c2.2,1.2,4.2,2.7,6,4.4c3.7,3.4,6.2,7.9,7.7,12.7
					c1.5,4.7,2.3,9.7,3.4,14.4c1,4.9,2.2,9.4,4.2,13.9c0.3,0.7,0,1.3-0.7,1.7C87.1,94.6,86.3,94.2,85.9,93.6L85.9,93.6L85.9,93.6z"
					/>
			</g>
		</g>
		<g>
			<defs>
				<rect id="SVGID_61_" x="7.3" y="13.4" width="160" height="160"/>
			</defs>
			<clipPath id="SVGID_62_">
				<use xlink:href="#SVGID_61_"  overflow="visible"/>
			</clipPath>
			<g clip-path="url(#SVGID_62_)">
				<path fill="#C0A73C" d="M87.4,94.6c-4.7,2-9.6,3-14.4,3.9c-4.9,0.8-9.7,1.5-14.4,2.9c-4.7,1.2-9.2,3.2-12.7,6.5
					c-1.8,1.7-3.4,3.5-4.5,5.7c-0.7,1-1.2,2.2-1.7,3.4s-0.8,2.3,0,3.9c0.7,1.2,0.2,2.5-1,3.2c-1.2,0.7-2.5,0.2-3.2-1
					c-0.7-1.2-0.2-2.5,1-3.2l0,0l0,0c1.7-0.8,2.2-1.8,2.7-3c0.5-1.2,1-2.2,1.7-3.4c1.2-2.2,2.7-4.2,4.4-6c3.4-3.7,7.9-6.2,12.7-7.7
					c4.7-1.5,9.7-2.3,14.4-3.4c4.9-1,9.4-2.2,13.9-4.2c0.7-0.3,1.3,0,1.7,0.7C88.4,93.6,88.1,94.4,87.4,94.6L87.4,94.6L87.4,94.6z"
					/>
			</g>
		</g>
		<g>
			<defs>
				<rect id="SVGID_63_" x="7.3" y="13.4" width="160" height="160"/>
			</defs>
			<clipPath id="SVGID_64_">
				<use xlink:href="#SVGID_63_"  overflow="visible"/>
			</clipPath>
			<g clip-path="url(#SVGID_64_)">
				<path fill="#C0A73C" d="M87.1,92.1c4.7-2,9.6-3,14.4-3.9c4.9-0.8,9.7-1.5,14.4-2.9c4.7-1.2,9.2-3.2,12.7-6.5
					c1.8-1.7,3.4-3.5,4.5-5.7c0.7-1,1.2-2.2,1.7-3.4c0.5-1.2,0.8-2.3,0-3.9c-0.7-1.2-0.2-2.5,1-3.2c1.2-0.7,2.5-0.2,3.2,1
					c0.7,1.2,0.2,2.5-1,3.2c0,0,0,0-0.2,0l0,0c-1.7,0.8-2.2,1.8-2.7,3c-0.5,1.2-1,2.2-1.7,3.4c-1.2,2.2-2.7,4.2-4.4,6
					c-3.4,3.7-7.9,6.2-12.7,7.7c-4.7,1.5-9.7,2.3-14.4,3.4c-4.9,1-9.4,2.2-13.9,4.2c-0.7,0.3-1.3,0-1.7-0.7
					C86.1,93.2,86.4,92.4,87.1,92.1L87.1,92.1L87.1,92.1z"/>
			</g>
		</g>
		<g>
			<defs>
				<rect id="SVGID_65_" x="7.3" y="13.4" width="160" height="160"/>
			</defs>
			<clipPath id="SVGID_66_">
				<use xlink:href="#SVGID_65_"  overflow="visible"/>
			</clipPath>
			<g clip-path="url(#SVGID_66_)">
				<path fill="#C0A73C" d="M88.3,94.2c-1.8,4.7-4.7,8.9-7.5,12.9c-2.9,4-5.7,7.9-8.2,12.1c-2.3,4.2-4.2,8.7-4.4,13.6
					c-0.2,2.3,0.2,4.9,0.8,7.2c0.3,1.2,0.7,2.3,1.2,3.5c0.3,1.2,1.2,2.2,2.9,2.7c1.2,0.3,2,1.7,1.7,3c-0.3,1.2-1.7,2-3,1.7
					c-1.2-0.3-2-1.7-1.7-3c0,0,0,0,0-0.2l0,0c0.5-1.7,0.3-2.9-0.2-4s-0.8-2.3-1.2-3.5c-0.7-2.3-1.2-4.9-1.2-7.4
					c-0.2-5,1.2-10.1,3.5-14.4c2.3-4.4,5.2-8.4,7.9-12.6c2.7-4,5.2-8.2,6.9-12.7c0.2-0.7,1-1,1.7-0.7C88.1,92.7,88.4,93.4,88.3,94.2
					C88.3,94.1,88.3,94.1,88.3,94.2L88.3,94.2z"/>
			</g>
		</g>
		<g>
			<defs>
				<rect id="SVGID_67_" x="7.3" y="13.4" width="160" height="160"/>
			</defs>
			<clipPath id="SVGID_68_">
				<use xlink:href="#SVGID_67_"  overflow="visible"/>
			</clipPath>
			<g clip-path="url(#SVGID_68_)">
				<path fill="#C0A73C" d="M86.3,92.6c1.8-4.7,4.7-8.9,7.5-12.9c2.9-4,5.7-7.9,8.2-12.1c2.3-4.2,4.2-8.7,4.4-13.6
					c0.2-2.3-0.2-4.9-0.8-7.2c-0.3-1.2-0.7-2.3-1.2-3.5c-0.3-1.2-1.2-2.2-2.9-2.7c-1.3-0.3-2-1.7-1.7-3c0.3-1.2,1.7-2,3-1.7
					c1.2,0.3,2,1.7,1.7,3c0,0,0,0,0,0.2l0,0c-0.5,1.7-0.3,2.9,0.2,4s0.8,2.3,1.2,3.5c0.7,2.3,1.2,4.9,1.2,7.4
					c0.2,5-1.3,10.1-3.5,14.4c-2.3,4.4-5.2,8.4-7.9,12.6c-2.7,4-5.2,8.2-6.9,12.7c-0.3,0.7-1,1-1.7,0.7
					C86.3,94.1,85.9,93.2,86.3,92.6L86.3,92.6L86.3,92.6z"/>
			</g>
		</g>
		<g>
			<defs>
				<rect id="SVGID_69_" x="7.3" y="13.4" width="160" height="160"/>
			</defs>
			<clipPath id="SVGID_70_">
				<use xlink:href="#SVGID_69_"  overflow="visible"/>
			</clipPath>
			<g clip-path="url(#SVGID_70_)">
				<path fill="#C0A73C" d="M86.4,94.4c-4.7-1.8-8.9-4.7-12.9-7.5c-4-2.9-7.9-5.7-12.1-8.2c-4.2-2.3-8.7-4.2-13.6-4.4
					c-2.3-0.2-4.9,0.2-7.2,0.8c-1.2,0.3-2.3,0.7-3.5,1.2c-1.2,0.3-2.2,1.2-2.7,2.9c-0.3,1.3-1.7,2-3,1.7c-1.2-0.3-2-1.7-1.7-3
					c0.3-1.2,1.7-2,3-1.7c0,0,0,0,0.2,0l0,0c1.7,0.7,2.9,0.3,4-0.2c1.2-0.5,2.3-0.8,3.5-1.2c2.3-0.7,4.9-1.2,7.4-1.2
					c5-0.2,10.1,1.3,14.4,3.5c4.4,2.3,8.4,5.2,12.6,7.9c4,2.7,8.2,5.2,12.7,6.9c0.7,0.3,1,1,0.7,1.7S87.1,94.6,86.4,94.4L86.4,94.4
					L86.4,94.4z"/>
			</g>
		</g>
		<g>
			<defs>
				<rect id="SVGID_71_" x="7.3" y="13.4" width="160" height="160"/>
			</defs>
			<clipPath id="SVGID_72_">
				<use xlink:href="#SVGID_71_"  overflow="visible"/>
			</clipPath>
			<g clip-path="url(#SVGID_72_)">
				<path fill="#C0A73C" d="M88.1,92.4c4.7,1.8,8.9,4.7,12.9,7.5c4,2.9,7.9,5.7,12.1,8.2c4.2,2.3,8.7,4.2,13.6,4.4
					c2.3,0.2,4.9-0.2,7.2-0.8c1.2-0.3,2.3-0.7,3.5-1.2c1.2-0.3,2.2-1.2,2.7-2.9c0.3-1.2,1.7-2,3-1.7c1.2,0.3,2,1.7,1.7,3
					c-0.3,1.2-1.7,2-3,1.7c0,0,0,0-0.2,0l0,0c-1.7-0.7-2.9-0.3-4,0.2c-1.2,0.5-2.3,0.8-3.5,1.2c-2.3,0.7-4.9,1.2-7.4,1.2
					c-5,0.2-10.1-1.3-14.4-3.5c-4.5-2.3-8.6-5.2-12.6-7.9c-4-2.7-8.2-5.2-12.7-6.9c-0.7-0.3-1-1-0.7-1.7
					C86.6,92.4,87.3,92.1,88.1,92.4C87.9,92.4,87.9,92.4,88.1,92.4L88.1,92.4z"/>
			</g>
		</g>
		<g>
			<defs>
				<rect id="SVGID_73_" x="7.3" y="13.4" width="160" height="160"/>
			</defs>
			<clipPath id="SVGID_74_">
				<use xlink:href="#SVGID_73_"  overflow="visible"/>
			</clipPath>
			<g clip-path="url(#SVGID_74_)">
				<path fill="#C0A73C" d="M88.3,93.9c3.5-3.5,6.5-7.7,9.2-11.7c2.7-4.2,5.2-8.4,8.2-12.1c3-3.9,6.5-7.2,10.9-9.2
					c2.2-1,4.5-1.7,7-2c1.2-0.2,2.5-0.2,3.7-0.2c1.2,0,2.5,0.2,3.5,1.5c0.8,1,2.3,1.2,3.4,0.3c1-0.8,1.2-2.3,0.3-3.4
					c-0.8-1-2.3-1.2-3.4-0.3l0,0l0,0c-1.3,1.2-2.5,1.3-3.9,1.3c-1.2,0-2.5,0.2-3.7,0.3c-2.5,0.3-4.9,0.8-7.2,1.7
					c-4.7,1.7-8.7,4.9-12.1,8.7c-3.2,3.9-5.9,8.1-8.7,12.1c-2.9,4-5.7,7.9-9.2,11.1c-0.5,0.5-0.5,1.3,0,1.8
					C86.9,94.6,87.8,94.6,88.3,93.9C88.3,94.1,88.3,94.1,88.3,93.9L88.3,93.9z"/>
			</g>
		</g>
		<g>
			<defs>
				<rect id="SVGID_75_" x="7.3" y="13.4" width="160" height="160"/>
			</defs>
			<clipPath id="SVGID_76_">
				<use xlink:href="#SVGID_75_"  overflow="visible"/>
			</clipPath>
			<g clip-path="url(#SVGID_76_)">
				<path fill="#C0A73C" d="M86.1,92.7c-3.5,3.5-6.5,7.7-9.2,11.7c-2.7,4.2-5.2,8.4-8.2,12.1c-3,3.9-6.5,7.2-10.9,9.2
					c-2.2,1-4.5,1.7-7,2c-1.2,0.2-2.5,0.2-3.7,0.2c-1.2,0-2.5-0.2-3.5-1.5c-0.8-1-2.3-1.2-3.4-0.3c-1,0.8-1.2,2.3-0.3,3.4
					s2.3,1.2,3.4,0.3l0,0l0,0c1.3-1.2,2.5-1.3,3.9-1.3c1.2,0,2.5-0.2,3.7-0.3c2.5-0.3,4.9-0.8,7.2-1.7c4.7-1.7,8.7-4.9,12.1-8.7
					c3.2-3.9,5.9-8.1,8.7-12.1c2.9-4,5.7-7.9,9.2-11.1c0.5-0.5,0.5-1.3,0-1.8C87.4,92.2,86.6,92.2,86.1,92.7L86.1,92.7L86.1,92.7z"
					/>
			</g>
		</g>
		<g>
			<defs>
				<rect id="SVGID_77_" x="7.3" y="13.4" width="160" height="160"/>
			</defs>
			<clipPath id="SVGID_78_">
				<use xlink:href="#SVGID_77_"  overflow="visible"/>
			</clipPath>
			<g clip-path="url(#SVGID_78_)">
				<path fill="#C0A73C" d="M87.9,92.2c-3.5-3.5-7.7-6.5-11.7-9.2c-4.2-2.7-8.4-5.2-12.1-8.2c-3.9-3-7.2-6.5-9.2-10.9
					c-1-2.2-1.7-4.5-2-7c-0.2-1.2-0.2-2.5-0.2-3.7s0.2-2.5,1.5-3.5c1-0.8,1.2-2.3,0.3-3.4c-0.8-1-2.3-1.2-3.4-0.3s-1.2,2.3-0.3,3.4
					l0,0l0,0c1.2,1.3,1.3,2.5,1.3,3.9c0,1.2,0.2,2.5,0.3,3.7c0.3,2.5,0.8,4.9,1.7,7.2c1.7,4.7,4.9,8.7,8.7,12.1
					C66.8,79.3,71,82,75,84.8c4,2.9,7.9,5.7,11.1,9.2c0.5,0.5,1.3,0.5,1.8,0C88.4,93.6,88.4,92.7,87.9,92.2L87.9,92.2L87.9,92.2z"/>
			</g>
		</g>
		<g>
			<defs>
				<rect id="SVGID_79_" x="7.3" y="13.4" width="160" height="160"/>
			</defs>
			<clipPath id="SVGID_80_">
				<use xlink:href="#SVGID_79_"  overflow="visible"/>
			</clipPath>
			<g clip-path="url(#SVGID_80_)">
				<path fill="#C0A73C" d="M86.6,94.4c3.5,3.5,7.7,6.5,11.7,9.2c4.2,2.7,8.4,5.2,12.1,8.2c3.9,3,7.2,6.5,9.2,10.9
					c1,2.2,1.7,4.5,2,7c0.2,1.2,0.2,2.5,0.2,3.7s-0.2,2.5-1.5,3.5c-1,0.8-1.2,2.3-0.3,3.4c0.8,1,2.3,1.2,3.4,0.3s1.2-2.3,0.3-3.4
					l0,0l0,0c-1.2-1.3-1.3-2.5-1.3-3.9c0-1.2-0.2-2.5-0.3-3.7c-0.3-2.5-0.8-4.9-1.7-7.2c-1.7-4.7-4.9-8.7-8.7-12.1
					c-3.9-3.2-8.1-5.9-12.1-8.7c-4-2.9-7.9-5.7-11.1-9.2c-0.5-0.5-1.3-0.5-1.8,0C86.1,93.1,86.1,93.9,86.6,94.4L86.6,94.4L86.6,94.4
					z"/>
			</g>
		</g>
		<g>
			<defs>
				<rect id="SVGID_81_" x="7.3" y="13.4" width="160" height="160"/>
			</defs>
			<clipPath id="SVGID_82_">
				<use xlink:href="#SVGID_81_"  overflow="visible"/>
			</clipPath>
			<g clip-path="url(#SVGID_82_)">
				<path fill="#C0A73C" d="M88.4,93.1c0-5-0.8-10.1-1.8-14.8c-1-4.9-2.2-9.6-2.9-14.4c-0.7-4.7-0.5-9.7,1.3-14.3
					c0.8-2.3,2-4.4,3.5-6.4c0.7-1,1.5-1.8,2.5-2.7c0.8-0.8,1.8-1.7,3.7-1.3c1.3,0.2,2.5-0.8,2.7-2c0.2-1.3-0.8-2.5-2-2.7
					c-1.3-0.2-2.5,0.8-2.7,2c0,0,0,0,0,0.2l0,0c-0.2,1.8-0.8,2.7-1.8,3.7c-0.8,0.8-1.7,1.8-2.3,2.9c-1.5,2-2.9,4-3.9,6.2
					c-2.2,4.5-2.7,9.7-2.3,14.6c0.3,5,1.5,9.9,2.3,14.6c0.8,4.9,1.5,9.6,1.3,14.4c0,0.7,0.5,1.3,1.2,1.3
					C87.8,94.4,88.4,93.7,88.4,93.1L88.4,93.1L88.4,93.1z"/>
			</g>
		</g>
		<g>
			<defs>
				<rect id="SVGID_83_" x="7.3" y="13.4" width="160" height="160"/>
			</defs>
			<clipPath id="SVGID_84_">
				<use xlink:href="#SVGID_83_"  overflow="visible"/>
			</clipPath>
			<g clip-path="url(#SVGID_84_)">
				<path fill="#C0A73C" d="M85.9,93.7c0,5,0.8,10.1,1.8,14.8c1,4.9,2.2,9.6,2.9,14.4c0.7,4.7,0.5,9.7-1.3,14.3
					c-0.8,2.3-2,4.4-3.5,6.4c-0.8,1-1.5,1.8-2.5,2.7c-0.8,0.8-1.8,1.7-3.7,1.3c-1.3-0.2-2.5,0.8-2.7,2c-0.2,1.3,0.8,2.5,2.2,2.7
					s2.5-0.8,2.7-2c0,0,0,0,0-0.2l0,0c0.2-1.8,0.8-2.7,1.8-3.7c0.8-0.8,1.7-1.8,2.3-2.9c1.5-2,2.9-4,3.9-6.2
					c2.2-4.5,2.7-9.7,2.3-14.6c-0.3-5-1.5-9.9-2.3-14.6c-0.8-4.9-1.5-9.6-1.3-14.4c0-0.7-0.5-1.3-1.2-1.3
					C86.6,92.4,85.9,92.9,85.9,93.7L85.9,93.7L85.9,93.7z"/>
			</g>
		</g>
		<g>
			<defs>
				<rect id="SVGID_85_" x="7.3" y="13.4" width="160" height="160"/>
			</defs>
			<clipPath id="SVGID_86_">
				<use xlink:href="#SVGID_85_"  overflow="visible"/>
			</clipPath>
			<g clip-path="url(#SVGID_86_)">
				<path fill="#C0A73C" d="M86.9,92.1c-5,0-10.1,0.8-14.8,1.8c-4.9,1-9.6,2.2-14.4,2.9c-4.7,0.7-9.7,0.5-14.3-1.3
					c-2.3-0.8-4.4-2-6.4-3.5c-1-0.7-1.8-1.5-2.7-2.5c-0.8-0.8-1.7-1.8-1.3-3.7c0.2-1.3-0.8-2.5-2-2.7c-1.3-0.2-2.5,0.8-2.7,2
					c-0.2,1.3,0.8,2.5,2,2.7c0,0,0,0,0.2,0l0,0c1.8,0.2,2.7,0.8,3.7,1.8c0.8,0.8,1.8,1.7,2.9,2.3c2,1.5,4,2.9,6.4,3.9
					c4.5,2.2,9.7,2.7,14.6,2.3c5-0.3,9.9-1.5,14.6-2.3c4.9-0.8,9.6-1.5,14.4-1.3c0.7,0,1.3-0.5,1.3-1.2
					C88.3,92.7,87.6,92.1,86.9,92.1L86.9,92.1L86.9,92.1z"/>
			</g>
		</g>
		<g>
			<defs>
				<rect id="SVGID_87_" x="7.3" y="13.4" width="160" height="160"/>
			</defs>
			<clipPath id="SVGID_88_">
				<use xlink:href="#SVGID_87_"  overflow="visible"/>
			</clipPath>
			<g clip-path="url(#SVGID_88_)">
				<path fill="#C0A73C" d="M87.6,94.6c5,0,10.1-0.8,14.8-1.8c4.9-1,9.6-2.2,14.4-2.9c4.7-0.7,9.7-0.5,14.3,1.3
					c2.3,0.8,4.4,2,6.4,3.5c1,0.7,1.8,1.5,2.7,2.5c0.8,0.8,1.7,1.8,1.3,3.7c-0.2,1.3,0.8,2.5,2,2.7c1.3,0.2,2.5-0.8,2.7-2
					c0.2-1.3-0.8-2.5-2-2.7c0,0,0,0-0.2,0l0,0c-1.8-0.2-2.7-0.8-3.7-1.8c-0.8-0.8-1.8-1.7-2.9-2.3c-2-1.5-4-2.9-6.2-3.9
					c-4.5-2.2-9.7-2.7-14.6-2.3c-5,0.3-9.9,1.5-14.6,2.3c-4.9,0.8-9.6,1.5-14.4,1.3c-0.7,0-1.3,0.5-1.3,1.2
					C86.3,93.9,86.8,94.6,87.6,94.6L87.6,94.6L87.6,94.6z"/>
			</g>
		</g>
		<g>
			<defs>
				<rect id="SVGID_89_" x="7.3" y="13.4" width="160" height="160"/>
			</defs>
			<clipPath id="SVGID_90_">
				<use xlink:href="#SVGID_89_"  overflow="visible"/>
			</clipPath>
			<g clip-path="url(#SVGID_90_)">
				<path fill="#C0A73C" d="M88.4,93.4c1.5-4.9,2.2-9.7,2.7-14.8c0.5-4.9,0.8-9.7,1.7-14.6c0.8-4.7,2.5-9.4,5.5-13.2
					c1.5-1.8,3.4-3.5,5.4-4.9c1-0.7,2-1.3,3.2-1.8c1-0.7,2.3-1,3.9-0.3c1.2,0.5,2.5,0,3.2-1.2c0.5-1.2,0-2.7-1.2-3.2
					c-1.2-0.5-2.7,0-3.2,1.2c0,0,0,0,0,0.2l0,0c-0.7,1.7-1.7,2.3-2.9,2.9c-1,0.5-2.2,1.2-3.2,2c-2,1.3-4,3-5.7,4.9
					c-3.4,3.7-5.5,8.4-6.7,13.2c-1.2,4.9-1.5,9.7-2.2,14.6s-1.5,9.6-3,14.1c-0.2,0.7,0.2,1.3,0.8,1.7C87.6,94.4,88.3,94.1,88.4,93.4
					L88.4,93.4L88.4,93.4z"/>
			</g>
		</g>
		<g>
			<defs>
				<rect id="SVGID_91_" x="7.3" y="13.4" width="160" height="160"/>
			</defs>
			<clipPath id="SVGID_92_">
				<use xlink:href="#SVGID_91_"  overflow="visible"/>
			</clipPath>
			<g clip-path="url(#SVGID_92_)">
				<path fill="#C0A73C" d="M85.9,93.4c-1.5,4.9-2.2,9.7-2.7,14.8c-0.5,4.9-0.8,9.7-1.7,14.6c-0.8,4.7-2.5,9.4-5.5,13.2
					c-1.5,1.8-3.4,3.5-5.4,4.9c-1,0.7-2,1.3-3.2,1.8c-1,0.7-2.3,1-3.9,0.3c-1.2-0.5-2.5,0-3.2,1.2c-0.5,1.2,0,2.7,1.2,3.2
					c1.2,0.5,2.7,0,3.2-1.2c0,0,0,0,0-0.2l0,0c0.7-1.7,1.7-2.3,2.9-2.9c1-0.5,2.2-1.2,3.2-2c2-1.3,4-3,5.7-4.9
					c3.4-3.7,5.5-8.4,6.7-13.2c1.2-4.9,1.5-9.7,2.2-14.6c0.7-4.9,1.5-9.6,3-14.1c0.2-0.7-0.2-1.3-0.8-1.7
					C86.9,92.2,86.3,92.6,85.9,93.4C85.9,93.2,85.9,93.2,85.9,93.4L85.9,93.4z"/>
			</g>
		</g>
		<g>
			<defs>
				<rect id="SVGID_93_" x="7.3" y="13.4" width="160" height="160"/>
			</defs>
			<clipPath id="SVGID_94_">
				<use xlink:href="#SVGID_93_"  overflow="visible"/>
			</clipPath>
			<g clip-path="url(#SVGID_94_)">
				<path fill="#C0A73C" d="M87.3,92.1c-4.9-1.5-9.7-2.2-14.8-2.7c-4.9-0.5-9.7-0.8-14.6-1.7c-4.7-0.8-9.4-2.5-13.2-5.5
					c-1.8-1.5-3.5-3.4-4.9-5.4c-0.7-1-1.3-2-1.8-3.2c-0.7-1-1-2.3-0.2-3.9c0.5-1.2,0-2.7-1.2-3.2c-1.2-0.5-2.7,0-3.2,1.2
					s0,2.7,1.2,3.2c0,0,0,0,0.2,0l0,0c1.7,0.7,2.3,1.7,2.9,2.9c0.5,1,1.2,2.2,1.8,3.2c1.3,2,3,4,4.9,5.7c3.7,3.4,8.4,5.5,13.2,6.7
					s9.7,1.5,14.6,2.2c4.9,0.7,9.6,1.5,14.1,3c0.7,0.2,1.3-0.2,1.7-0.8C88.3,93.1,87.9,92.4,87.3,92.1L87.3,92.1L87.3,92.1z"/>
			</g>
		</g>
		<g>
			<defs>
				<rect id="SVGID_95_" x="7.3" y="13.4" width="160" height="160"/>
			</defs>
			<clipPath id="SVGID_96_">
				<use xlink:href="#SVGID_95_"  overflow="visible"/>
			</clipPath>
			<g clip-path="url(#SVGID_96_)">
				<path fill="#C0A73C" d="M87.3,94.6c4.9,1.5,9.7,2.2,14.8,2.7c4.9,0.5,9.7,0.8,14.6,1.7c4.7,0.8,9.4,2.5,13.2,5.5
					c1.8,1.5,3.5,3.4,4.9,5.4c0.7,1,1.3,2,1.8,3.2c0.7,1,1,2.3,0.2,3.9c-0.5,1.2,0,2.7,1.2,3.2c1.2,0.5,2.5,0,3.2-1.2
					c0.5-1.2,0-2.7-1.2-3.2c0,0,0,0-0.2,0l0,0c-1.7-0.7-2.3-1.7-2.9-2.9c-0.5-1.2-1.2-2.2-1.8-3.2c-1.3-2-3-4-4.9-5.7
					c-3.7-3.4-8.4-5.5-13.2-6.7c-4.9-1.2-9.7-1.5-14.6-2.2c-4.9-0.7-9.6-1.5-14.1-3c-0.7-0.2-1.3,0.2-1.7,0.8
					C86.1,93.7,86.4,94.4,87.3,94.6C87.1,94.6,87.1,94.6,87.3,94.6L87.3,94.6z"/>
			</g>
		</g>
		<g>
			<defs>
				<rect id="SVGID_97_" x="7.3" y="13.4" width="160" height="160"/>
			</defs>
			<clipPath id="SVGID_98_">
				<use xlink:href="#SVGID_97_"  overflow="visible"/>
			</clipPath>
			<g clip-path="url(#SVGID_98_)">
				<path fill="#C0A73C" d="M88.1,92.4c-2.3-4.5-5.4-8.6-8.4-12.2c-3.2-3.9-6.4-7.5-9.1-11.4c-2.7-4-4.9-8.4-5.4-13.2
					c-0.3-2.3-0.2-4.9,0.3-7.2c0.2-1.2,0.5-2.3,0.8-3.5c0.3-1.2,1-2.3,2.5-2.9c1.2-0.5,1.8-1.8,1.3-3s-1.8-1.8-3-1.3
					c-1.2,0.5-1.8,1.8-1.3,3c0,0,0,0,0,0.2l0,0c0.7,1.7,0.5,2.9,0.2,4c-0.3,1.2-0.7,2.3-0.8,3.5c-0.5,2.3-0.7,4.9-0.7,7.4
					c0.2,5,2,9.9,4.7,14.1c2.7,4.2,5.9,8.1,8.7,11.9c3,3.9,5.7,7.9,7.9,12.1c0.3,0.7,1,0.8,1.7,0.7C88.3,93.9,88.4,93.2,88.1,92.4
					C88.3,92.6,88.1,92.6,88.1,92.4L88.1,92.4z"/>
			</g>
		</g>
		<g>
			<defs>
				<rect id="SVGID_99_" x="7.3" y="13.4" width="160" height="160"/>
			</defs>
			<clipPath id="SVGID_100_">
				<use xlink:href="#SVGID_99_"  overflow="visible"/>
			</clipPath>
			<g clip-path="url(#SVGID_100_)">
				<path fill="#C0A73C" d="M86.3,94.2c2.3,4.5,5.4,8.6,8.4,12.2c3.2,3.9,6.4,7.5,9.1,11.4c2.7,4,4.9,8.4,5.4,13.2
					c0.3,2.3,0.2,4.9-0.3,7.2c-0.2,1.2-0.5,2.3-0.8,3.5s-1,2.3-2.5,2.9c-1.2,0.5-1.8,1.8-1.3,3c0.5,1.2,1.8,1.8,3,1.3
					c1.2-0.5,1.8-1.8,1.3-3c0,0,0,0,0-0.2l0,0c-0.7-1.7-0.5-2.9,0-4c0.3-1.2,0.7-2.3,0.8-3.5c0.5-2.3,0.7-4.9,0.7-7.4
					c-0.2-5-2-9.9-4.7-14.1c-2.7-4.2-5.9-8.1-8.7-11.9c-3-3.9-5.7-7.9-7.9-12.1c-0.3-0.7-1-0.8-1.7-0.7
					C86.3,92.7,85.9,93.6,86.3,94.2L86.3,94.2L86.3,94.2z"/>
			</g>
		</g>
		<g>
			<defs>
				<rect id="SVGID_101_" x="7.3" y="13.4" width="160" height="160"/>
			</defs>
			<clipPath id="SVGID_102_">
				<use xlink:href="#SVGID_101_"  overflow="visible"/>
			</clipPath>
			<g clip-path="url(#SVGID_102_)">
				<path fill="#C0A73C" d="M86.3,92.4c-4.5,2.3-8.6,5.4-12.2,8.4c-3.9,3.2-7.5,6.4-11.6,9.1c-4,2.7-8.4,4.9-13.2,5.4
					c-2.3,0.3-4.9,0.2-7.2-0.3c-1.2-0.2-2.3-0.5-3.5-0.8c-1.2-0.3-2.3-1-2.9-2.5c-0.5-1.2-1.8-1.8-3-1.3c-1.2,0.5-1.8,1.8-1.3,3
					s1.8,1.8,3,1.3c0,0,0,0,0.2,0l0,0c1.7-0.7,2.9-0.5,4-0.2c1.2,0.3,2.3,0.7,3.5,0.8c2.3,0.5,4.9,0.7,7.4,0.7c5-0.2,9.9-2,14.1-4.7
					s8.1-5.9,11.9-8.7c3.9-3,7.9-5.7,12.1-7.9c0.7-0.3,0.8-1,0.7-1.7C87.8,92.4,87.1,92.1,86.3,92.4C86.4,92.4,86.4,92.4,86.3,92.4
					L86.3,92.4z"/>
			</g>
		</g>
		<g>
			<defs>
				<rect id="SVGID_103_" x="7.3" y="13.4" width="160" height="160"/>
			</defs>
			<clipPath id="SVGID_104_">
				<use xlink:href="#SVGID_103_"  overflow="visible"/>
			</clipPath>
			<g clip-path="url(#SVGID_104_)">
				<path fill="#C0A73C" d="M88.1,94.2c4.5-2.3,8.6-5.4,12.2-8.4c3.9-3.2,7.5-6.4,11.6-9.1c4-2.7,8.4-4.9,13.2-5.4
					c2.3-0.3,4.9-0.2,7.2,0.3c1.2,0.2,2.3,0.5,3.5,0.8c1.2,0.3,2.3,1,2.9,2.5c0.5,1.2,1.8,1.8,3,1.3c1.2-0.5,1.8-1.8,1.3-3
					s-1.8-1.8-3-1.3l0,0l0,0c-1.7,0.7-2.9,0.5-4,0.2s-2.3-0.7-3.5-0.8c-2.3-0.5-4.9-0.7-7.4-0.7c-5,0.2-9.9,2-14.1,4.7
					c-4.2,2.7-8.1,5.9-11.9,8.7c-3.9,3-7.9,5.7-12.1,7.9c-0.7,0.3-1,1-0.7,1.7C86.6,94.4,87.4,94.6,88.1,94.2
					C88.1,94.4,88.1,94.4,88.1,94.2L88.1,94.2z"/>
			</g>
		</g>
		<g>
			<defs>
				<rect id="SVGID_105_" x="7.3" y="13.4" width="160" height="160"/>
			</defs>
			<clipPath id="SVGID_106_">
				<use xlink:href="#SVGID_105_"  overflow="visible"/>
			</clipPath>
			<g clip-path="url(#SVGID_106_)">
				<path fill="#383622" d="M78.7,90.9h5.7c8.6,0,15.3-3.4,15.3-13.1c0-9.1-6.7-11.6-14.3-11.6c-2.3,0-4.5,0.2-6.7,0.2
					c-0.2,2.7-0.2,5.2-0.2,7.7v16.8H78.7z M127.7,125.9c-4-0.3-7.9-0.8-11.9-0.8c-3.5,0-7,0.3-10.4,0.8L87.6,96.4h-8.9v9.2
					c0,8.1,0.2,11.9,0.3,13.8c0.2,1.2,1.8,1.8,3.7,2.7l6.5,2.5v1.3c-6-0.3-12.2-0.8-18.3-0.8s-12.2,0.3-18.3,0.8v-1.3l8.2-3.5
					c2.2-0.8,2.3-1.5,2.3-15.4V81.2c0-13.4-0.3-15.1-2.9-15.9l-7.7-3v-1.3c6,0.3,12.2,0.8,18.3,0.8c6.5,0,14.8-0.8,18.1-0.8
					c11.9,0,28.5,0.8,28.5,16.8c0,8.6-5.7,14.3-13.8,16.3l9.1,14.8c7.4,11.9,8.2,12.9,10.9,14.1l3.9,1.7V125.9z"/>
			</g>
		</g>
	</g>
</g>
</svg>
